#N canvas 0 0 848 574 10;
#X obj 490 137 line~;
#X obj 367 153 *~;
#X msg 557 107 1 \, 0 \$1;
#X obj 557 81 f;
#X obj 368 66 osc~ 50;
#X obj 463 23 del 2;
#X msg 490 107 0 \, 1 2;
#X obj 367 181 lop~ 10000;
#X obj 365 308 outlet~;
#X obj 463 -40 inlet;
#X obj 463 -12 t b b f;
#X obj 526 235 / 127;
#X obj 526 258 lop~ 5;
#X obj 610 -27 loadbang;
#X obj 368 41 f \$1;
#X obj 572 55 f \$2;
#X text 128 -5 pitch / decay;
#X floatatom 294 75 5 0 0 0 - - -;
#X obj 366 276 *~;
#X connect 0 0 1 1;
#X connect 1 0 7 0;
#X connect 2 0 0 0;
#X connect 3 0 2 0;
#X connect 4 0 1 0;
#X connect 5 0 3 0;
#X connect 6 0 0 0;
#X connect 7 0 18 0;
#X connect 9 0 10 0;
#X connect 10 0 5 0;
#X connect 10 1 6 0;
#X connect 10 2 11 0;
#X connect 11 0 12 0;
#X connect 12 0 18 1;
#X connect 13 0 14 0;
#X connect 13 0 15 0;
#X connect 14 0 4 0;
#X connect 14 0 17 0;
#X connect 15 0 3 1;
#X connect 18 0 8 0;
