#N canvas 0 0 902 548 10;
#X obj 314 132 osc~;
#X obj 493 346 line~;
#X obj 314 363 *~;
#X obj 314 195 samphold~;
#X obj 414 132 osc~;
#X obj 414 195 samphold~;
#X obj 365 153 phasor~ 5000;
#X obj 465 153 phasor~ 5000;
#X obj 421 220 noise~;
#X obj 314 284 +~;
#X obj 421 253 *~ 0.02;
#X obj 554 277 f;
#X msg 554 308 1 \, 0 \$1;
#X obj 315 409 hip~ 5000;
#X obj 414 92 - 4;
#X obj 314 469 outlet~;
#X obj 554 140 inlet;
#X obj 554 218 del 3;
#X msg 493 312 0 \, 1 10;
#X obj 314 49 f \$1;
#X obj 619 160 f \$2;
#X text 140 34 pitch / decay;
#X obj 554 174 t b b f;
#X obj 501 437 lop~ 10;
#X obj 315 438 *~;
#X obj 501 414 / 127;
#X obj 485 18 loadbang;
#X connect 0 0 3 0;
#X connect 1 0 2 1;
#X connect 2 0 13 0;
#X connect 3 0 9 0;
#X connect 4 0 5 0;
#X connect 5 0 9 0;
#X connect 6 0 3 1;
#X connect 7 0 5 1;
#X connect 8 0 10 0;
#X connect 9 0 2 0;
#X connect 10 0 9 1;
#X connect 11 0 12 0;
#X connect 12 0 1 0;
#X connect 13 0 24 0;
#X connect 14 0 4 0;
#X connect 16 0 22 0;
#X connect 17 0 11 0;
#X connect 18 0 1 0;
#X connect 19 0 0 0;
#X connect 19 0 14 0;
#X connect 20 0 11 1;
#X connect 22 0 17 0;
#X connect 22 1 18 0;
#X connect 22 2 25 0;
#X connect 23 0 24 1;
#X connect 24 0 15 0;
#X connect 25 0 23 0;
#X connect 26 0 19 0;
#X connect 26 0 20 0;
