#N canvas 0 0 972 538 10;
#X obj 490 137 line~;
#X obj 367 153 *~;
#X msg 557 107 1 \, 0 \$1;
#X obj 557 81 f;
#X obj 368 66 osc~ 50;
#X obj 463 23 del 2;
#X msg 490 107 0 \, 1 2;
#X obj 365 308 outlet~;
#X obj 463 -40 inlet;
#X obj 369 4 *~ 0;
#X obj 367 181 hip~ 1000;
#X obj 390 -81 f \$1;
#X obj 586 54 f \$2;
#X obj 463 -12 t b b f;
#X obj 523 258 lop~ 10;
#X obj 523 235 / 127;
#X obj 366 276 *~;
#X obj 575 -114 loadbang;
#X text 125 -62 pitch / decay;
#X connect 0 0 1 1;
#X connect 0 0 9 0;
#X connect 1 0 10 0;
#X connect 2 0 0 0;
#X connect 3 0 2 0;
#X connect 4 0 1 0;
#X connect 5 0 3 0;
#X connect 6 0 0 0;
#X connect 8 0 13 0;
#X connect 9 0 4 0;
#X connect 10 0 16 0;
#X connect 11 0 9 1;
#X connect 12 0 3 1;
#X connect 13 0 5 0;
#X connect 13 1 6 0;
#X connect 13 2 15 0;
#X connect 14 0 16 1;
#X connect 15 0 14 0;
#X connect 16 0 7 0;
#X connect 17 0 11 0;
#X connect 17 0 12 0;
