#N canvas 0 0 913 558 10;
#X obj 216 176 noise~;
#X obj 343 219 line~;
#X msg 410 189 1 \, 0 \$1;
#X obj 410 163 f;
#X obj 316 105 del 2;
#X msg 343 189 0 \, 1 2;
#X obj 217 235 *~;
#X obj 316 20 inlet;
#X obj 216 338 outlet~;
#X obj 216 261 hip~ 10000;
#X obj 425 137 f \$1;
#X obj 316 70 t b b f;
#X obj 283 261 / 127;
#X obj 283 288 lop~ 10;
#X obj 216 312 *~;
#X obj 433 86 loadbang;
#X connect 0 0 6 0;
#X connect 1 0 6 1;
#X connect 2 0 1 0;
#X connect 3 0 2 0;
#X connect 4 0 3 0;
#X connect 5 0 1 0;
#X connect 6 0 9 0;
#X connect 7 0 11 0;
#X connect 9 0 14 0;
#X connect 10 0 3 1;
#X connect 11 0 4 0;
#X connect 11 1 5 0;
#X connect 11 2 12 0;
#X connect 12 0 13 0;
#X connect 13 0 14 1;
#X connect 14 0 8 0;
#X connect 15 0 10 0;
