#N canvas 0 0 829 566 10;
#X obj 218 63 osc~;
#X obj 261 62 noise~;
#X obj 218 162 +~;
#X obj 343 219 line~;
#X msg 410 189 1 \, 0 \$1;
#X obj 410 163 f;
#X obj 316 105 del 2;
#X msg 343 189 0 \, 1 2;
#X obj 217 235 *~;
#X obj 262 108 *~ 0.05;
#X obj 316 44 inlet;
#X obj 216 338 outlet~;
#X obj 216 261 hip~ 1000;
#X obj 281 287 lop~ 10;
#X obj 216 297 *~;
#X obj 281 260 / 100;
#X obj 316 70 t b b f;
#X text 41 43 pitch / decay;
#X obj 425 137 f \$2;
#X obj 218 39 f \$1;
#X obj 425 13 loadbang;
#X connect 0 0 2 0;
#X connect 1 0 9 0;
#X connect 2 0 8 0;
#X connect 3 0 8 1;
#X connect 4 0 3 0;
#X connect 5 0 4 0;
#X connect 6 0 5 0;
#X connect 7 0 3 0;
#X connect 8 0 12 0;
#X connect 9 0 2 1;
#X connect 10 0 16 0;
#X connect 12 0 14 0;
#X connect 13 0 14 1;
#X connect 14 0 11 0;
#X connect 15 0 13 0;
#X connect 16 0 6 0;
#X connect 16 1 7 0;
#X connect 16 2 15 0;
#X connect 18 0 5 1;
#X connect 19 0 0 0;
#X connect 20 0 18 0;
#X connect 20 0 19 0;
