#N canvas 372 135 987 541 10;
#X obj -168 -26 inlet~;
#X obj -168 557 outlet~;
#X obj 61 179 inlet;
#X obj -168 492 *~;
#X obj -66 492 *~;
#X obj -51 430 swap 1;
#X obj -51 451 -;
#X obj -153 38 inlet;
#X text -130 120 stream of incoming data values (0 - 100);
#X text -129 282 load and store transfer function;
#X obj -153 469 lop~ 10;
#X obj -51 472 lop~ 10;
#X obj -153 190 line~;
#X msg -153 168 \$1 10;
#X obj -153 147 / 10;
#X obj -169 253 *~;
#X obj -169 284 tanh~;
#X connect 0 0 4 0;
#X connect 0 0 15 0;
#X connect 2 0 5 0;
#X connect 2 0 10 0;
#X connect 3 0 1 0;
#X connect 4 0 1 0;
#X connect 5 0 6 0;
#X connect 5 1 6 1;
#X connect 6 0 11 0;
#X connect 7 0 14 0;
#X connect 10 0 3 1;
#X connect 11 0 4 1;
#X connect 12 0 15 1;
#X connect 13 0 12 0;
#X connect 14 0 13 0;
#X connect 15 0 16 0;
#X connect 16 0 3 0;
#X coords 0 541 1 540 100 55 0;
