#N canvas 484 149 1199 919 10;
#N canvas 65 81 450 250 (subpatch) 0;
#X array osc-array-\$0 1024 float 0;
#X coords 0 1 1023 -1 200 140 2 0 0;
#X restore 152 18 graph;
#X obj 524 37 inlet~;
#X text 793 842 ticks : position \, steps \, global step multiplier
;
#X text 793 860 label : offset \, values...;
#X text 794 824 ARRAY STYLING AND BOUNDS;
#X obj 33 68 nbx 5 14 0 20000 0 0 \$0-range-s \$0-range-r Y -10 8 0
10 -262144 -1 -1 10 256;
#X text 142 672 on blocksize yrange;
#X obj 308 625 pack f f f;
#X obj 372 757 unpack f f f;
#X obj 419 785 * -1;
#X obj 372 811 pack f f f f;
#X msg 372 843 ylabel -10 \$3 0 \$4 \, bounds 0 \$4 \$2 \$3 \, yticks
0 0.2 5;
#X obj 307 724 t a a;
#X obj 161 847 array size osc-array-\$0;
#X obj 157 753 unpack f f f;
#X obj 128 789 t f f;
#X obj 46 847 switch~;
#X msg 98 817 set \$1;
#X obj 372 874 s osc-array-\$0;
#X obj 179 488 unpack f f f;
#X obj 33 41 tgl 15 0 \$0-switch-s \$0-switch-r IO -15 8 0 10 -262144
-1 -1 1 1;
#X obj 382 654 unpack f f f;
#X msg 375 696 set \$1;
#X obj 30 455 r \$0-switch-s;
#X obj 375 718 s \$0-switch-r;
#X obj 717 417 f 1;
#X obj 717 462 select 0;
#X obj 770 484 moses 0;
#X obj 717 391 / 10;
#X obj 816 512 t b f;
#X obj 504 379 r \$0-block-dec;
#X obj 34 117 bng 15 250 50 0 \$0-block-dec empty - 17 7 0 10 -262144
-1 -1;
#X obj 61 117 bng 15 250 50 0 \$0-block-inc empty + 17 7 0 10 -262144
-1 -1;
#X floatatom 33 95 7 0 0 0 X #0-block-size-r -, f 7;
#X msg 622 695 set \$1;
#X obj 765 679 * 10;
#X msg 765 701 set \$1;
#X obj 337 376 r \$0-block-inc;
#X obj 717 361 r \$0-range-s;
#X obj 765 723 s \$0-range-r;
#X obj 501 473 moses 64;
#X obj 478 305 r \$0-block-size;
#X obj 450 376 << 1;
#X obj 398 431 i;
#X obj 510 430 i;
#X obj 615 380 >> 1;
#X obj 622 719 s \$0-block-size-r;
#X obj 489 717 s \$0-block-size;
#X obj 442 519 t b f;
#X msg 179 455 1 1024 1;
#X text 730 302 Y RANGE;
#X text 467 264 X RANGE;
#X text 192 369 INIT;
#X text 43 397 SWITCH;
#X obj 179 405 loadbang;
#X obj 398 472 moses 32769;
#X obj 523 112 tabsend~ osc-array-\$0;
#X connect 1 0 56 0;
#X connect 7 0 12 0;
#X connect 7 0 21 0;
#X connect 8 0 10 0;
#X connect 8 1 10 1;
#X connect 8 2 9 0;
#X connect 8 2 10 3;
#X connect 9 0 10 2;
#X connect 10 0 11 0;
#X connect 11 0 18 0;
#X connect 12 0 14 0;
#X connect 12 1 8 0;
#X connect 14 0 16 0;
#X connect 14 1 15 0;
#X connect 15 0 17 0;
#X connect 15 1 13 0;
#X connect 17 0 16 0;
#X connect 19 0 7 0;
#X connect 19 1 7 1;
#X connect 19 2 7 2;
#X connect 21 0 22 0;
#X connect 21 1 34 0;
#X connect 21 1 47 0;
#X connect 21 2 35 0;
#X connect 22 0 24 0;
#X connect 23 0 7 0;
#X connect 25 0 26 0;
#X connect 26 1 27 0;
#X connect 27 1 29 0;
#X connect 28 0 25 0;
#X connect 29 0 7 0;
#X connect 29 1 7 2;
#X connect 30 0 44 0;
#X connect 34 0 46 0;
#X connect 35 0 36 0;
#X connect 36 0 39 0;
#X connect 37 0 43 0;
#X connect 38 0 28 0;
#X connect 40 1 48 0;
#X connect 41 0 42 0;
#X connect 41 0 45 0;
#X connect 42 0 43 1;
#X connect 43 0 55 0;
#X connect 44 0 40 0;
#X connect 45 0 44 1;
#X connect 48 0 7 0;
#X connect 48 1 7 1;
#X connect 49 0 19 0;
#X connect 54 0 49 0;
#X connect 55 0 48 0;
#X coords 0 -1 1 1 360 170 1 0 0;
