#N canvas 383 10 883 577 10;
#X obj 262 -113 noise~;
#X obj -11 -85 lop~ 50;
#X obj -13 -63 lop~ 50;
#X obj -12 -39 lop~ 50;
#X obj -13 -16 lop~ 50;
#X obj 54 -83 hip~ 50;
#X obj 54 -61 hip~ 50;
#X obj 54 -39 hip~ 50;
#X obj 54 -17 hip~ 50;
#X obj 55 6 lop~ 250;
#X obj 54 28 lop~ 250;
#X obj 55 52 lop~ 250;
#X obj 54 75 lop~ 250;
#X obj 125 -82 hip~ 250;
#X obj 125 -60 hip~ 250;
#X obj 125 -38 hip~ 250;
#X obj 125 -16 hip~ 250;
#X obj 126 7 lop~ 500;
#X obj 125 29 lop~ 500;
#X obj 126 53 lop~ 500;
#X obj 125 77 lop~ 500;
#X obj 190 -83 hip~ 500;
#X obj 190 -61 hip~ 500;
#X obj 190 -39 hip~ 500;
#X obj 190 -17 hip~ 500;
#X obj 190 6 lop~ 1000;
#X obj 190 28 lop~ 1000;
#X obj 191 52 lop~ 1000;
#X obj 190 76 lop~ 1000;
#X obj 272 -86 hip~ 1000;
#X obj 272 -64 hip~ 1000;
#X obj 272 -42 hip~ 1000;
#X obj 272 -20 hip~ 1000;
#X obj 272 3 lop~ 3000;
#X obj 272 25 lop~ 3000;
#X obj 273 49 lop~ 3000;
#X obj 272 73 lop~ 3000;
#X obj 352 -86 hip~ 3000;
#X obj 352 -64 hip~ 3000;
#X obj 352 -43 hip~ 3000;
#X obj 352 -20 hip~ 3000;
#X obj 352 3 lop~ 7000;
#X obj 352 25 lop~ 7000;
#X obj 353 49 lop~ 7000;
#X obj 352 73 lop~ 7000;
#X obj 432 -87 hip~ 7000;
#X obj 432 -65 hip~ 7000;
#X obj 432 -44 hip~ 7000;
#X obj 432 -21 hip~ 7000;
#X obj 432 2 lop~ 15000;
#X obj 432 24 lop~ 15000;
#X obj 432 48 lop~ 15000;
#X obj 432 72 lop~ 15000;
#X obj 525 -89 hip~ 15000;
#X obj 525 -67 hip~ 15000;
#X obj 525 -46 hip~ 15000;
#X obj 525 -23 hip~ 15000;
#X obj 525 0 lop~ 20000;
#X obj 525 22 lop~ 20000;
#X obj 525 46 lop~ 20000;
#X obj 525 70 lop~ 20000;
#X obj 128 117 vsl 15 128 0 20 0 0 empty empty empty 0 -8 0 8 -33289
-262144 -1 0 1;
#X obj 152 117 vsl 15 128 0 2 0 0 empty empty empty 0 -8 0 8 -90881
-262144 -1 0 1;
#X obj 177 117 vsl 15 128 0 1 0 0 empty empty empty 0 -8 0 8 -258699
-262144 -1 0 1;
#X obj 199 117 vsl 15 128 0 0.9 0 0 empty empty empty 0 -8 0 8 -260818
-262144 -1 0 1;
#X obj 222 117 vsl 15 128 0 0.7 0 0 empty empty empty 0 -8 0 8 -241291
-262144 -1 0 1;
#X obj 367 399 *~ 0.5;
#X obj 249 117 vsl 15 128 0 0.5 0 0 empty empty empty 0 -8 0 8 -24198
-262144 -1 0 1;
#X obj 275 117 vsl 15 128 0 0.1 0 0 empty empty empty 0 -8 0 8 -62784
-262144 -1 0 1;
#X obj 303 117 vsl 15 128 0 0.15 0 0 empty empty empty 0 -8 0 8 -250685
-262144 -1 0 1;
#X obj 596 344 *~;
#X obj 17 -264 inlet;
#X obj 359 440 outlet~;
#X obj 611 325 line \$1 5;
#X msg 611 305 \$1 5;
#X obj 504 346 *~;
#X obj 519 327 line \$1 5;
#X msg 519 307 \$1 5;
#X obj 422 344 *~;
#X obj 437 325 line \$1 5;
#X msg 437 305 \$1 5;
#X obj 344 338 *~;
#X obj 359 319 line \$1 5;
#X msg 359 299 \$1 5;
#X obj 265 335 *~;
#X obj 280 316 line \$1 5;
#X msg 280 296 \$1 5;
#X obj 185 332 *~;
#X obj 200 313 line \$1 5;
#X msg 200 293 \$1 5;
#X obj 110 329 *~;
#X obj 125 310 line \$1 5;
#X msg 125 290 \$1 5;
#X obj 10 328 *~;
#X obj 42 309 line \$1 5;
#X msg 42 289 \$1 5;
#X obj 17 -228 unpack f f f f f f f f;
#X floatatom 132 -181 5 0 0 0 - - -;
#X floatatom 187 -151 5 0 0 0 - - -;
#X obj 113 -157 bng 15 250 50 0 empty empty empty 17 7 0 10 -262144
-1 -1;
#X obj 142 -121 line 0;
#X obj 276 -228 t b b;
#X connect 0 0 1 0;
#X connect 0 0 5 0;
#X connect 0 0 13 0;
#X connect 0 0 21 0;
#X connect 0 0 29 0;
#X connect 0 0 37 0;
#X connect 0 0 45 0;
#X connect 0 0 53 0;
#X connect 1 0 2 0;
#X connect 2 0 3 0;
#X connect 3 0 4 0;
#X connect 4 0 93 0;
#X connect 5 0 6 0;
#X connect 6 0 7 0;
#X connect 7 0 8 0;
#X connect 8 0 9 0;
#X connect 9 0 10 0;
#X connect 10 0 11 0;
#X connect 11 0 12 0;
#X connect 12 0 90 0;
#X connect 13 0 14 0;
#X connect 14 0 15 0;
#X connect 15 0 16 0;
#X connect 16 0 17 0;
#X connect 17 0 18 0;
#X connect 18 0 19 0;
#X connect 19 0 20 0;
#X connect 20 0 87 0;
#X connect 21 0 22 0;
#X connect 22 0 23 0;
#X connect 23 0 24 0;
#X connect 24 0 25 0;
#X connect 25 0 26 0;
#X connect 26 0 27 0;
#X connect 27 0 28 0;
#X connect 28 0 84 0;
#X connect 29 0 30 0;
#X connect 30 0 31 0;
#X connect 31 0 32 0;
#X connect 32 0 33 0;
#X connect 33 0 34 0;
#X connect 34 0 35 0;
#X connect 35 0 36 0;
#X connect 36 0 81 0;
#X connect 37 0 38 0;
#X connect 38 0 39 0;
#X connect 39 0 40 0;
#X connect 40 0 41 0;
#X connect 41 0 42 0;
#X connect 42 0 43 0;
#X connect 43 0 44 0;
#X connect 44 0 78 0;
#X connect 45 0 46 0;
#X connect 46 0 47 0;
#X connect 47 0 48 0;
#X connect 48 0 49 0;
#X connect 49 0 50 0;
#X connect 50 0 51 0;
#X connect 51 0 52 0;
#X connect 52 0 75 0;
#X connect 53 0 54 0;
#X connect 54 0 55 0;
#X connect 55 0 56 0;
#X connect 56 0 57 0;
#X connect 57 0 58 0;
#X connect 58 0 59 0;
#X connect 59 0 60 0;
#X connect 60 0 70 0;
#X connect 61 0 95 0;
#X connect 62 0 92 0;
#X connect 63 0 89 0;
#X connect 64 0 86 0;
#X connect 65 0 83 0;
#X connect 66 0 72 0;
#X connect 67 0 80 0;
#X connect 68 0 77 0;
#X connect 69 0 74 0;
#X connect 70 0 66 0;
#X connect 73 0 70 1;
#X connect 74 0 73 0;
#X connect 75 0 66 0;
#X connect 76 0 75 1;
#X connect 77 0 76 0;
#X connect 78 0 66 0;
#X connect 79 0 78 1;
#X connect 80 0 79 0;
#X connect 81 0 66 0;
#X connect 82 0 81 1;
#X connect 83 0 82 0;
#X connect 84 0 66 0;
#X connect 85 0 84 1;
#X connect 86 0 85 0;
#X connect 87 0 66 0;
#X connect 88 0 87 1;
#X connect 89 0 88 0;
#X connect 90 0 66 0;
#X connect 91 0 90 1;
#X connect 92 0 91 0;
#X connect 93 0 66 0;
#X connect 94 0 93 1;
#X connect 95 0 94 0;
#X connect 97 0 100 1;
#X connect 98 0 100 2;
#X connect 99 0 100 0;
#X connect 100 0 61 0;
#X coords 0 -1 1 1 250 150 1 100 100;
