#N canvas 0 0 716 666 10;
#X obj -453 211 * 2;
#X obj -503 460 *~;
#X obj -502 110 t b f;
#X obj -202 331 line~;
#X obj -182 180 b;
#X obj -170 253 b;
#X obj -505 334 +~;
#X obj -389 233 osc~;
#X obj -315 233 phasor~;
#X obj -389 211 * 3;
#X obj -315 211 * 2;
#X obj -504 420 vcf~ 100 10;
#X obj -453 233 phasor~;
#X obj -514 233 osc~;
#X obj -467 395 +~ 500;
#X obj -182 202 del 50;
#X msg -182 224 0.6 100;
#X msg -170 298 0 10;
#X obj -170 275 del 100;
#X msg -202 143 1 10;
#X obj -453 257 lop~ 100;
#X obj -389 257 lop~ 250;
#X obj -315 257 lop~ 1000;
#X obj -467 374 *~ 20000;
#X obj -515 256 hip~ 500;
#X obj -502 81 inlet;
#X obj -422 85 inlet;
#X obj -505 491 outlet~;
#X connect 0 0 9 0;
#X connect 0 0 12 0;
#X connect 1 0 27 0;
#X connect 2 0 19 0;
#X connect 2 1 0 0;
#X connect 2 1 13 0;
#X connect 3 0 1 1;
#X connect 3 0 23 0;
#X connect 4 0 15 0;
#X connect 5 0 18 0;
#X connect 6 0 11 0;
#X connect 7 0 21 0;
#X connect 8 0 22 0;
#X connect 9 0 7 0;
#X connect 9 0 10 0;
#X connect 10 0 8 0;
#X connect 11 0 1 0;
#X connect 12 0 20 0;
#X connect 13 0 24 0;
#X connect 14 0 11 1;
#X connect 15 0 16 0;
#X connect 16 0 3 0;
#X connect 16 0 5 0;
#X connect 17 0 3 0;
#X connect 18 0 17 0;
#X connect 19 0 3 0;
#X connect 19 0 4 0;
#X connect 20 0 6 0;
#X connect 21 0 6 0;
#X connect 22 0 6 0;
#X connect 23 0 14 0;
#X connect 24 0 6 0;
#X connect 25 0 2 0;
#X connect 26 0 11 2;
