#N canvas 0 0 727 583 10;
#X obj 102 115 pack f f f;
#X obj 102 86 poly 4 1;
#X obj 102 144 route 1 2 3 4;
#X obj 101 453 *~ 0.25;
#X obj 102 202 unpack f f;
#X obj 124 266 unpack f f;
#X obj 146 319 unpack f f;
#X obj 168 367 unpack f f;
#X obj 102 8 inlet;
#X obj 101 478 outlet~;
#X obj 102 31 t f b;
#X msg 139 60 100;
#X obj 102 240 synth-voice;
#X obj 124 290 synth-voice;
#X obj 146 343 synth-voice;
#X obj 168 391 synth-voice;
#X connect 0 0 2 0;
#X connect 1 0 0 0;
#X connect 1 1 0 1;
#X connect 1 2 0 2;
#X connect 2 0 4 0;
#X connect 2 1 5 0;
#X connect 2 2 6 0;
#X connect 2 3 7 0;
#X connect 3 0 9 0;
#X connect 4 0 12 0;
#X connect 5 0 13 0;
#X connect 6 0 14 0;
#X connect 7 0 15 0;
#X connect 8 0 10 0;
#X connect 10 0 1 0;
#X connect 10 1 11 0;
#X connect 11 0 1 1;
#X connect 12 0 3 0;
#X connect 13 0 3 0;
#X connect 14 0 3 0;
#X connect 15 0 3 0;
