#N canvas 47 96 1080 490 10;
#X obj -118 384 osc~;
#X obj -117 424 *~;
#X obj -73 406 line~;
#X msg -73 385 \$1 5;
#X obj -118 349 * 1;
#X obj -118 288 mtof;
#X obj -118 261 inlet;
#X obj 325 505 *~ 0.2;
#X obj -17 384 osc~;
#X obj -16 424 *~;
#X obj 28 406 line~;
#X msg 28 385 \$1 5;
#X obj -17 349 * 2;
#X obj 80 381 osc~;
#X obj 81 421 *~;
#X obj 125 403 line~;
#X msg 125 382 \$1 5;
#X obj 181 381 osc~;
#X obj 182 421 *~;
#X obj 226 403 line~;
#X msg 226 382 \$1 5;
#X obj 80 346 * 3;
#X obj 181 346 * 4;
#X obj 276 379 osc~;
#X obj 277 419 *~;
#X obj 321 401 line~;
#X msg 321 380 \$1 5;
#X obj 377 379 osc~;
#X obj 378 419 *~;
#X obj 422 401 line~;
#X msg 422 380 \$1 5;
#X obj 474 376 osc~;
#X obj 475 416 *~;
#X obj 519 398 line~;
#X msg 519 377 \$1 5;
#X obj 575 376 osc~;
#X obj 576 416 *~;
#X obj 620 398 line~;
#X msg 620 377 \$1 5;
#X obj 276 344 * 5;
#X obj 377 344 * 6;
#X obj 474 341 * 7;
#X obj 575 341 * 8;
#X obj 672 373 osc~;
#X obj 673 413 *~;
#X obj 717 395 line~;
#X msg 717 374 \$1 5;
#X obj 672 338 * 9;
#X obj 769 373 osc~;
#X obj 770 413 *~;
#X obj 814 395 line~;
#X msg 814 374 \$1 5;
#X obj 769 339 * 10;
#X obj 247 8 inlet;
#X obj 247 32 unpack f f f f f f f f f f;
#X obj 326 546 outlet~;
#X obj 240 125 vsl 20 100 0 1 0 0 empty empty 1 0 -9 0 10 -262144 -1
-1 0 1;
#X text 139 170 Partial levels;
#X obj 266 125 vsl 20 100 0 1 0 0 empty empty 2 0 -9 0 10 -262144 -1
-1 0 1;
#X obj 293 125 vsl 20 100 0 1 0 0 empty empty 3 0 -9 0 10 -262144 -1
-1 0 1;
#X obj 319 125 vsl 20 100 0 1 0 0 empty empty 4 0 -9 0 10 -262144 -1
-1 0 1;
#X obj 345 125 vsl 20 100 0 1 0 0 empty empty 5 0 -9 0 10 -262144 -1
-1 0 1;
#X obj 371 125 vsl 20 100 0 1 0 0 empty empty 6 0 -9 0 10 -262144 -1
-1 0 1;
#X obj 398 125 vsl 20 100 0 1 0 0 empty empty 7 0 -9 0 10 -262144 -1
-1 0 1;
#X obj 424 125 vsl 20 100 0 1 0 0 empty empty 8 0 -9 0 10 -262144 -1
-1 0 1;
#X obj 450 125 vsl 20 100 0 1 0 0 empty empty 9 0 -9 0 10 -262144 -1
-1 0 1;
#X obj 476 125 vsl 20 100 0 1 0 0 empty empty 10 0 -9 0 10 -262144
-1 -1 0 1;
#X connect 0 0 1 0;
#X connect 1 0 7 0;
#X connect 2 0 1 1;
#X connect 3 0 2 0;
#X connect 4 0 0 0;
#X connect 5 0 4 0;
#X connect 5 0 12 0;
#X connect 5 0 21 0;
#X connect 5 0 22 0;
#X connect 5 0 39 0;
#X connect 5 0 40 0;
#X connect 5 0 41 0;
#X connect 5 0 42 0;
#X connect 5 0 47 0;
#X connect 5 0 52 0;
#X connect 6 0 5 0;
#X connect 7 0 55 0;
#X connect 8 0 9 0;
#X connect 9 0 7 0;
#X connect 10 0 9 1;
#X connect 11 0 10 0;
#X connect 12 0 8 0;
#X connect 13 0 14 0;
#X connect 14 0 7 0;
#X connect 15 0 14 1;
#X connect 16 0 15 0;
#X connect 17 0 18 0;
#X connect 18 0 7 0;
#X connect 19 0 18 1;
#X connect 20 0 19 0;
#X connect 21 0 13 0;
#X connect 22 0 17 0;
#X connect 23 0 24 0;
#X connect 24 0 7 0;
#X connect 25 0 24 1;
#X connect 26 0 25 0;
#X connect 27 0 28 0;
#X connect 28 0 7 0;
#X connect 29 0 28 1;
#X connect 30 0 29 0;
#X connect 31 0 32 0;
#X connect 32 0 7 0;
#X connect 33 0 32 1;
#X connect 34 0 33 0;
#X connect 35 0 36 0;
#X connect 36 0 7 0;
#X connect 37 0 36 1;
#X connect 38 0 37 0;
#X connect 39 0 23 0;
#X connect 40 0 27 0;
#X connect 41 0 31 0;
#X connect 42 0 35 0;
#X connect 43 0 44 0;
#X connect 44 0 7 0;
#X connect 45 0 44 1;
#X connect 46 0 45 0;
#X connect 47 0 43 0;
#X connect 48 0 49 0;
#X connect 49 0 7 0;
#X connect 50 0 49 1;
#X connect 51 0 50 0;
#X connect 52 0 48 0;
#X connect 53 0 54 0;
#X connect 54 0 3 0;
#X connect 54 0 56 0;
#X connect 54 1 11 0;
#X connect 54 1 58 0;
#X connect 54 2 16 0;
#X connect 54 2 59 0;
#X connect 54 3 20 0;
#X connect 54 3 60 0;
#X connect 54 4 26 0;
#X connect 54 4 61 0;
#X connect 54 5 30 0;
#X connect 54 5 62 0;
#X connect 54 6 34 0;
#X connect 54 6 63 0;
#X connect 54 7 38 0;
#X connect 54 7 64 0;
#X connect 54 8 46 0;
#X connect 54 8 65 0;
#X connect 54 9 51 0;
#X connect 54 9 66 0;
#X connect 56 0 3 0;
#X connect 58 0 11 0;
#X connect 59 0 16 0;
#X connect 60 0 20 0;
#X connect 61 0 26 0;
#X connect 62 0 30 0;
#X connect 63 0 34 0;
#X connect 64 0 38 0;
#X connect 65 0 46 0;
#X connect 66 0 51 0;
#X coords 0 -1 1 1 400 130 1 100 100;
