#N canvas 0 22 977 428 10;
#X msg 399 192 \; ratio 7 \; index 9;
#X msg 183 194 \; ratio 2 \; index 3;
#X msg 120 242 \; ratio 7 \; index 1000;
#X msg 351 241 \; ratio 1.5 \; index 4;
#X msg 247 194 \; ratio 0.5 \; index 20;
#X msg 196 242 \; ratio 0.1 \; index 8;
#X msg 424 241 \; ratio 1 \; index 30;
#X msg 321 193 \; ratio 1.7 \; index 40;
#X msg 271 241 \; ratio 2.03 \; index 15;
#X floatatom 106 131 5 0 0 2 Note_length - notelength;
#X msg 120 194 \; ratio 1 \; index 10;
#X obj -96 102 inlet;
#X obj -31 102 inlet;
#X obj -97 143 stripnote;
#N canvas 0 22 540 401 voice 0;
#X floatatom -14 74 5 0 0 0 midi-note - -;
#X obj -16 114 mtof;
#X obj 223 205 osc~;
#X floatatom 253 73 5 0 0 0 ratio - -;
#X obj 254 148 *;
#X floatatom 231 180 5 0 0 0 - - -;
#X floatatom 33 182 5 0 0 0 - - -;
#X obj 171 275 osc~;
#X floatatom 174 74 5 0 0 0 index - -;
#X obj 200 230 *~;
#X obj 172 253 +~;
#X obj 154 175 line~;
#X obj 161 203 *~;
#X obj 246 99 t b f;
#X obj -47 28 inlet;
#X obj 166 40 r index;
#X obj 245 39 r ratio;
#X obj -13 91 t f b;
#X obj 163 98 t b f;
#X obj 169 143 pack f 0;
#X obj 98 146 pack 1 f;
#X obj 71 39 r notelength;
#X obj 35 272 line~;
#X obj 53 244 pack 0 f;
#X msg 3 244 1 0;
#X obj 14 215 t b b;
#X obj 40 300 *~;
#X obj 57 322 *~;
#X obj 83 87 * 4;
#X obj 112 85 * 2;
#X obj 64 373 outlet~;
#X connect 0 0 17 0;
#X connect 1 0 4 0;
#X connect 1 0 6 0;
#X connect 2 0 9 1;
#X connect 3 0 13 0;
#X connect 4 0 5 0;
#X connect 5 0 2 0;
#X connect 5 0 12 1;
#X connect 6 0 10 0;
#X connect 6 0 25 0;
#X connect 7 0 27 1;
#X connect 8 0 18 0;
#X connect 9 0 10 1;
#X connect 10 0 7 0;
#X connect 11 0 12 0;
#X connect 12 0 9 0;
#X connect 13 0 4 0;
#X connect 13 1 4 1;
#X connect 14 0 0 0;
#X connect 15 0 8 0;
#X connect 16 0 3 0;
#X connect 17 0 1 0;
#X connect 18 0 20 0;
#X connect 18 1 19 0;
#X connect 19 0 11 0;
#X connect 20 0 11 0;
#X connect 21 0 29 0;
#X connect 21 0 28 0;
#X connect 22 0 26 0;
#X connect 22 0 26 1;
#X connect 23 0 22 0;
#X connect 24 0 22 0;
#X connect 25 0 23 0;
#X connect 25 1 24 0;
#X connect 26 0 27 0;
#X connect 28 0 23 1;
#X connect 29 0 20 1;
#X restore -83 332 pd voice;
#X obj -84 430 outlet~;
#X obj -98 216 pack f f f;
#N canvas 0 22 663 524 voice 0;
#X floatatom 38 74 5 0 0 0 midi-note - -;
#X obj 36 114 mtof;
#X obj 223 205 osc~;
#X floatatom 253 73 5 0 0 0 ratio - -;
#X obj 254 148 *;
#X floatatom 231 180 5 0 0 0 - - -;
#X floatatom 33 182 5 0 0 0 - - -;
#X obj 171 275 osc~;
#X floatatom 174 74 5 0 0 0 index - -;
#X obj 200 230 *~;
#X obj 172 253 +~;
#X obj 154 175 line~;
#X obj 161 203 *~;
#X obj 246 99 t b f;
#X obj -47 28 inlet;
#X obj 166 40 r index;
#X obj 245 39 r ratio;
#X obj 39 91 t f b;
#X obj 163 98 t b f;
#X obj 169 143 pack f 0;
#X obj 98 146 pack 1 f;
#X obj 71 39 r notelength;
#X obj 35 272 line~;
#X obj 53 244 pack 0 f;
#X msg 3 244 1 0;
#X obj 14 215 t b b;
#X obj 48 319 *~;
#X obj 83 87 * 4;
#X obj 112 85 * 2;
#X obj 93 382 outlet~;
#X connect 0 0 17 0;
#X connect 1 0 4 0;
#X connect 1 0 6 0;
#X connect 2 0 9 1;
#X connect 3 0 13 0;
#X connect 4 0 5 0;
#X connect 5 0 2 0;
#X connect 5 0 12 1;
#X connect 6 0 10 0;
#X connect 6 0 25 0;
#X connect 7 0 26 1;
#X connect 8 0 18 0;
#X connect 9 0 10 1;
#X connect 10 0 7 0;
#X connect 11 0 12 0;
#X connect 12 0 9 0;
#X connect 13 0 4 0;
#X connect 13 1 4 1;
#X connect 14 0 0 0;
#X connect 15 0 8 0;
#X connect 16 0 3 0;
#X connect 17 0 1 0;
#X connect 18 0 20 0;
#X connect 18 1 19 0;
#X connect 19 0 11 0;
#X connect 20 0 11 0;
#X connect 21 0 28 0;
#X connect 21 0 27 0;
#X connect 22 0 26 0;
#X connect 23 0 22 0;
#X connect 24 0 22 0;
#X connect 25 0 23 0;
#X connect 25 1 24 0;
#X connect 26 0 29 0;
#X connect 27 0 23 1;
#X connect 28 0 20 1;
#X restore -5 335 pd voice;
#N canvas 0 22 540 401 voice 0;
#X floatatom 38 74 5 0 0 0 midi-note - -;
#X obj 36 114 mtof;
#X obj 223 205 osc~;
#X floatatom 253 73 5 0 0 0 ratio - -;
#X obj 254 148 *;
#X floatatom 231 180 5 0 0 0 - - -;
#X floatatom 33 182 5 0 0 0 - - -;
#X obj 171 275 osc~;
#X floatatom 174 74 5 0 0 0 index - -;
#X obj 200 230 *~;
#X obj 172 253 +~;
#X obj 154 175 line~;
#X obj 161 203 *~;
#X obj 246 99 t b f;
#X obj -47 28 inlet;
#X obj 166 40 r index;
#X obj 245 39 r ratio;
#X obj 39 91 t f b;
#X obj 163 98 t b f;
#X obj 169 143 pack f 0;
#X obj 98 146 pack 1 f;
#X obj 71 39 r notelength;
#X obj 35 272 line~;
#X obj 53 244 pack 0 f;
#X msg 3 244 1 0;
#X obj 14 215 t b b;
#X obj 40 300 *~;
#X obj 48 319 *~;
#X obj 83 87 * 4;
#X obj 112 85 * 2;
#X obj 64 373 outlet~;
#X connect 0 0 17 0;
#X connect 1 0 4 0;
#X connect 1 0 6 0;
#X connect 2 0 9 1;
#X connect 3 0 13 0;
#X connect 4 0 5 0;
#X connect 5 0 2 0;
#X connect 5 0 12 1;
#X connect 6 0 10 0;
#X connect 6 0 25 0;
#X connect 7 0 27 1;
#X connect 8 0 18 0;
#X connect 9 0 10 1;
#X connect 10 0 7 0;
#X connect 11 0 12 0;
#X connect 12 0 9 0;
#X connect 13 0 4 0;
#X connect 13 1 4 1;
#X connect 14 0 0 0;
#X connect 15 0 8 0;
#X connect 16 0 3 0;
#X connect 17 0 1 0;
#X connect 18 0 20 0;
#X connect 18 1 19 0;
#X connect 19 0 11 0;
#X connect 20 0 11 0;
#X connect 21 0 29 0;
#X connect 21 0 28 0;
#X connect 22 0 26 0;
#X connect 22 0 26 1;
#X connect 23 0 22 0;
#X connect 24 0 22 0;
#X connect 25 0 23 0;
#X connect 25 1 24 0;
#X connect 26 0 27 0;
#X connect 27 0 30 0;
#X connect 28 0 23 1;
#X connect 29 0 20 1;
#X restore 69 335 pd voice;
#N canvas 0 22 540 401 voice 0;
#X floatatom 38 74 5 0 0 0 midi-note - -;
#X obj 36 114 mtof;
#X obj 223 205 osc~;
#X floatatom 253 73 5 0 0 0 ratio - -;
#X obj 254 148 *;
#X floatatom 231 180 5 0 0 0 - - -;
#X floatatom 33 182 5 0 0 0 - - -;
#X obj 171 275 osc~;
#X floatatom 174 74 5 0 0 0 index - -;
#X obj 200 230 *~;
#X obj 172 253 +~;
#X obj 154 175 line~;
#X obj 161 203 *~;
#X obj 246 99 t b f;
#X obj -47 28 inlet;
#X obj 166 40 r index;
#X obj 245 39 r ratio;
#X obj 39 91 t f b;
#X obj 163 98 t b f;
#X obj 169 143 pack f 0;
#X obj 98 146 pack 1 f;
#X obj 71 39 r notelength;
#X obj 35 272 line~;
#X obj 53 244 pack 0 f;
#X msg 3 244 1 0;
#X obj 14 215 t b b;
#X obj 40 300 *~;
#X obj 48 319 *~;
#X obj 83 87 * 4;
#X obj 112 85 * 2;
#X obj 64 373 outlet~;
#X connect 0 0 17 0;
#X connect 1 0 4 0;
#X connect 1 0 6 0;
#X connect 2 0 9 1;
#X connect 3 0 13 0;
#X connect 4 0 5 0;
#X connect 5 0 2 0;
#X connect 5 0 12 1;
#X connect 6 0 10 0;
#X connect 6 0 25 0;
#X connect 7 0 27 1;
#X connect 8 0 18 0;
#X connect 9 0 10 1;
#X connect 10 0 7 0;
#X connect 11 0 12 0;
#X connect 12 0 9 0;
#X connect 13 0 4 0;
#X connect 13 1 4 1;
#X connect 14 0 0 0;
#X connect 15 0 8 0;
#X connect 16 0 3 0;
#X connect 17 0 1 0;
#X connect 18 0 20 0;
#X connect 18 1 19 0;
#X connect 19 0 11 0;
#X connect 20 0 11 0;
#X connect 21 0 29 0;
#X connect 21 0 28 0;
#X connect 22 0 26 0;
#X connect 22 0 26 1;
#X connect 23 0 22 0;
#X connect 24 0 22 0;
#X connect 25 0 23 0;
#X connect 25 1 24 0;
#X connect 26 0 27 0;
#X connect 27 0 30 0;
#X connect 28 0 23 1;
#X connect 29 0 20 1;
#X restore 137 336 pd voice;
#X obj -83 309 unpack f f;
#X obj -9 309 unpack f f;
#X obj 64 309 unpack f f;
#X obj 137 310 unpack f f;
#X obj -41 254 route 1 2 3 4;
#X obj 55 108 inlet;
#X obj -97 187 poly 4 1;
#X obj 106 150 bng 15 250 50 0 empty empty empty 17 7 0 10 -262144
-1 -1;
#X obj 121 150 bng 15 250 50 0 empty empty empty 17 7 0 10 -262144
-1 -1;
#X obj 136 150 bng 15 250 50 0 empty empty empty 17 7 0 10 -262144
-1 -1;
#X obj 152 150 bng 15 250 50 0 empty empty empty 17 7 0 10 -262144
-1 -1;
#X obj 167 150 bng 15 250 50 0 empty empty empty 17 7 0 10 -262144
-1 -1;
#X obj 106 170 bng 15 250 50 0 empty empty empty 17 7 0 10 -262144
-1 -1;
#X obj 121 170 bng 15 250 50 0 empty empty empty 17 7 0 10 -262144
-1 -1;
#X obj 136 170 bng 15 250 50 0 empty empty empty 17 7 0 10 -262144
-1 -1;
#X obj 152 170 bng 15 250 50 0 empty empty empty 17 7 0 10 -262144
-1 -1;
#X obj 167 170 bng 15 250 50 0 empty empty empty 17 7 0 10 -262144
-1 -1;
#X obj -83 406 *~ 0.18;
#X obj 106 20 f \$1;
#X obj 144 22 loadbang;
#X connect 11 0 13 0;
#X connect 12 0 13 1;
#X connect 13 0 26 0;
#X connect 13 1 26 1;
#X connect 14 0 37 0;
#X connect 16 0 24 0;
#X connect 17 0 37 0;
#X connect 18 0 37 0;
#X connect 19 0 37 0;
#X connect 20 0 14 0;
#X connect 21 0 17 0;
#X connect 22 0 18 0;
#X connect 23 0 19 0;
#X connect 24 0 20 0;
#X connect 24 1 21 0;
#X connect 24 2 22 0;
#X connect 24 3 23 0;
#X connect 25 0 24 0;
#X connect 26 0 16 0;
#X connect 26 1 16 1;
#X connect 26 2 16 2;
#X connect 27 0 10 0;
#X connect 28 0 1 0;
#X connect 29 0 4 0;
#X connect 30 0 7 0;
#X connect 31 0 0 0;
#X connect 32 0 2 0;
#X connect 33 0 5 0;
#X connect 34 0 8 0;
#X connect 35 0 3 0;
#X connect 36 0 6 0;
#X connect 37 0 15 0;
#X connect 38 0 9 0;
#X connect 39 0 38 0;
#X coords 0 -1 1 1 90 90 1 100 100;
