#N canvas 223 82 651 686 10;
#X obj 50 245 oscparse;
#X obj 72 200 netreceive -u -b;
#X msg 84 173 listen 0;
#X obj 50 293 print;
#X msg 72 145 listen 1234;
#X floatatom 84 436 5 0 0 0 - - -, f 5;
#X obj 83 335 route list;
#X msg 160 416 set \$1;
#X msg 160 438 hello!;
#X obj 83 377 unpack f s;
#X symbolatom 219 415 10 0 0 0 - - -, f 10;
#X msg 378 424 disconnect;
#X obj 370 451 netsend -u -b;
#X obj 371 350 list prepend send;
#X obj 371 375 list trim;
#X text 481 357 don't send;
#X text 574 332 send as UDP;
#X obj 382 13 adc~;
#X obj 339 261 pack f f;
#X floatatom 333 127 5 0 0 0 - - -, f 5;
#X floatatom 410 128 5 0 0 0 - - -, f 5;
#X msg 379 400 connect localhost 12000;
#X obj 367 288 oscformat /env;
#X obj 379 84 env~ 4096 2048;
#X obj 410 106 env~ 4096 2048;
#X obj 233 186 line;
#X obj 437 234 line;
#X obj 437 188 min 90;
#X obj 233 140 min 90;
#X msg 233 163 \$1 500;
#X msg 437 211 \$1 500;
#X obj 233 118 max 30;
#X obj 437 166 max 30;
#X obj 83 357 route spring_length;
#X connect 0 0 3 0;
#X connect 0 0 6 0;
#X connect 1 0 0 0;
#X connect 2 0 1 0;
#X connect 4 0 1 0;
#X connect 6 0 33 0;
#X connect 7 0 8 0;
#X connect 9 0 5 0;
#X connect 9 1 7 0;
#X connect 9 1 10 0;
#X connect 11 0 12 0;
#X connect 13 0 14 0;
#X connect 14 0 12 0;
#X connect 17 0 23 0;
#X connect 17 1 24 0;
#X connect 18 0 22 0;
#X connect 21 0 12 0;
#X connect 22 0 13 0;
#X connect 23 0 19 0;
#X connect 23 0 31 0;
#X connect 24 0 20 0;
#X connect 24 0 32 0;
#X connect 25 0 18 0;
#X connect 26 0 18 1;
#X connect 27 0 30 0;
#X connect 28 0 29 0;
#X connect 29 0 25 0;
#X connect 30 0 26 0;
#X connect 31 0 28 0;
#X connect 32 0 27 0;
#X connect 33 0 9 0;
