#N canvas 4 23 939 1005 10;
#X declare -path rj;
#X declare -path abs;
#X obj 19 91 declare -path rj;
#X obj 226 679 g_hsl dry 0 1;
#X obj 226 719 g_hsl amp 0 100;
#X obj 226 759 g_hsl hall 0 100;
#X obj 226 799 g_hsl freq 20 22050;
#X obj 226 839 g_hsl damp 0 100;
#X text 137 686 Dry/Wet Mix;
#X msg 226 656 amp 80 \, hall 80 \, freq 6000 \, damp 60;
#X obj 78 942 soundoutput;
#X obj 78 864 e_reverb \$0-rev;
#X obj 43 204 noise~;
#X obj 117 435 sig~;
#X text 218 486 q;
#X floatatom 201 467 5 0 0 0 - - -, f 5;
#X obj 47 499 vcf~ 1000 5;
#X obj 120 391 hsl 128 15 0 127 0 0 empty empty empty -2 -8 0 10 -262144
-1 -1 6000 1;
#X obj 117 411 mtof;
#X obj 190 444 hsl 128 15 1 100 0 0 empty empty empty -2 -8 0 10 -262144
-1 -1 600 1;
#X obj 155 413 nbx 5 14 -1e+37 1e+37 0 0 empty empty empty 0 -8 0 10
-262144 -1 -1 60 256;
#X obj 225 623 loadbang;
#X obj 70 292 soundoutput;
#X obj 92 561 soundoutput;
#X text 14 8 Les effets permmettent de transformer le son entrant en
fonction des paramètres fournis;
#X text 14 39 Il sont de nature très diverses \, mais ils se situent
généralement tout à la fin de la chaine audio avant les sorties
audio et ils peuvent se chainer !;
#X text 19 123 Ici nous générons un bruit blanc;
#X text 19 143 Il passe ensuite dans un filtre dont nous pouvons préciser
la fréquence de coupure et la largeur(q);
#X text 19 178 Puis dans un effet de reverbération;
#X obj 145 92 declare -path abs;
#N canvas 0 22 450 300 (subpatch) 0;
#X array E01-spectrum 128 float 0;
#X coords 0 0 127 127 257 130 1 0 0;
#X restore 608 614 graph;
#N canvas 45 83 558 569 fft 1;
#X obj 19 62 inlet~;
#X obj 85 214 inlet;
#X obj 19 92 rfft~;
#X obj 19 125 *~;
#X obj 50 125 *~;
#X obj 19 155 sqrt~;
#X obj 85 248 tabwrite~ E01-spectrum;
#X obj 332 109 block~ 4096 1;
#X obj 19 181 biquad~ 0 0 0 0 1;
#X text 83 93 Fourier series;
#X text 88 146 magnitude;
#X text 86 131 calculate;
#X text 21 3 This subpatch computes the spectrum of the incoming signal
with a (rectangular windowed) FFT. FFTs aren't properly introduced
until much later.;
#X text 83 62 signal to analyze;
#X text 182 166 delay two samples;
#X text 181 182 for better graphing;
#X obj 90 425 samplerate~;
#X obj 90 402 bng 18 250 50 0 empty empty empty 0 -6 0 8 -262144 -1
-1;
#X floatatom 90 472 5 0 0 0 - - -, f 5;
#X obj 90 448 / 256;
#X obj 90 378 loadbang;
#X floatatom 90 541 5 0 0 0 - - -, f 5;
#X obj 98 494 s fundamental;
#X obj 90 517 ftom;
#X text 146 540 <-just out of curiosity \, here's the pitch;
#X text 14 319 At load time \, calculate a good choice of fundamental
frequency for showing spectra: the 16th bin in a 4096-point spectrum
\, so SR*16/4096 or SR/256.;
#X text 135 216 "bang" into this inlet to graph it;
#X connect 0 0 2 0;
#X connect 1 0 6 0;
#X connect 2 0 3 0;
#X connect 2 0 3 1;
#X connect 2 1 4 0;
#X connect 2 1 4 1;
#X connect 3 0 5 0;
#X connect 4 0 5 0;
#X connect 5 0 8 0;
#X connect 8 0 6 0;
#X connect 16 0 19 0;
#X connect 17 0 16 0;
#X connect 18 0 22 0;
#X connect 18 0 23 0;
#X connect 19 0 18 0;
#X connect 20 0 17 0;
#X connect 23 0 21 0;
#X restore 211 254 pd fft;
#X obj 250 232 bng 15 250 50 0 empty empty empty 17 7 0 10 -262144
-1 -1;
#N canvas 45 83 558 569 fft 0;
#X obj 19 62 inlet~;
#X obj 85 214 inlet;
#X obj 19 92 rfft~;
#X obj 19 125 *~;
#X obj 50 125 *~;
#X obj 19 155 sqrt~;
#X obj 85 248 tabwrite~ E01-spectrum;
#X obj 332 109 block~ 4096 1;
#X obj 19 181 biquad~ 0 0 0 0 1;
#X text 83 93 Fourier series;
#X text 88 146 magnitude;
#X text 86 131 calculate;
#X text 21 3 This subpatch computes the spectrum of the incoming signal
with a (rectangular windowed) FFT. FFTs aren't properly introduced
until much later.;
#X text 83 62 signal to analyze;
#X text 182 166 delay two samples;
#X text 181 182 for better graphing;
#X obj 90 425 samplerate~;
#X obj 90 402 bng 18 250 50 0 empty empty empty 0 -6 0 8 -262144 -1
-1;
#X floatatom 90 472 5 0 0 0 - - -, f 5;
#X obj 90 448 / 256;
#X obj 90 378 loadbang;
#X floatatom 90 541 5 0 0 0 - - -, f 5;
#X obj 98 494 s fundamental;
#X obj 90 517 ftom;
#X text 146 540 <-just out of curiosity \, here's the pitch;
#X text 14 319 At load time \, calculate a good choice of fundamental
frequency for showing spectra: the 16th bin in a 4096-point spectrum
\, so SR*16/4096 or SR/256.;
#X text 135 216 "bang" into this inlet to graph it;
#X connect 0 0 2 0;
#X connect 1 0 6 0;
#X connect 2 0 3 0;
#X connect 2 0 3 1;
#X connect 2 1 4 0;
#X connect 2 1 4 1;
#X connect 3 0 5 0;
#X connect 4 0 5 0;
#X connect 5 0 8 0;
#X connect 8 0 6 0;
#X connect 16 0 19 0;
#X connect 17 0 16 0;
#X connect 18 0 22 0;
#X connect 18 0 23 0;
#X connect 19 0 18 0;
#X connect 20 0 17 0;
#X connect 23 0 21 0;
#X restore 283 540 pd fft;
#X obj 322 518 bng 15 250 50 0 empty empty empty 17 7 0 10 -262144
-1 -1;
#N canvas 45 83 558 569 fft 0;
#X obj 19 62 inlet~;
#X obj 85 214 inlet;
#X obj 19 92 rfft~;
#X obj 19 125 *~;
#X obj 50 125 *~;
#X obj 19 155 sqrt~;
#X obj 85 248 tabwrite~ E01-spectrum;
#X obj 332 109 block~ 4096 1;
#X obj 19 181 biquad~ 0 0 0 0 1;
#X text 83 93 Fourier series;
#X text 88 146 magnitude;
#X text 86 131 calculate;
#X text 21 3 This subpatch computes the spectrum of the incoming signal
with a (rectangular windowed) FFT. FFTs aren't properly introduced
until much later.;
#X text 83 62 signal to analyze;
#X text 182 166 delay two samples;
#X text 181 182 for better graphing;
#X obj 90 425 samplerate~;
#X obj 90 402 bng 18 250 50 0 empty empty empty 0 -6 0 8 -262144 -1
-1;
#X floatatom 90 472 5 0 0 0 - - -, f 5;
#X obj 90 448 / 256;
#X obj 90 378 loadbang;
#X floatatom 90 541 5 0 0 0 - - -, f 5;
#X obj 98 494 s fundamental;
#X obj 90 517 ftom;
#X text 146 540 <-just out of curiosity \, here's the pitch;
#X text 14 319 At load time \, calculate a good choice of fundamental
frequency for showing spectra: the 16th bin in a 4096-point spectrum
\, so SR*16/4096 or SR/256.;
#X text 135 216 "bang" into this inlet to graph it;
#X connect 0 0 2 0;
#X connect 1 0 6 0;
#X connect 2 0 3 0;
#X connect 2 0 3 1;
#X connect 2 1 4 0;
#X connect 2 1 4 1;
#X connect 3 0 5 0;
#X connect 4 0 5 0;
#X connect 5 0 8 0;
#X connect 8 0 6 0;
#X connect 16 0 19 0;
#X connect 17 0 16 0;
#X connect 18 0 22 0;
#X connect 18 0 23 0;
#X connect 19 0 18 0;
#X connect 20 0 17 0;
#X connect 23 0 21 0;
#X restore 236 922 pd fft;
#X obj 275 900 bng 15 250 50 0 empty empty empty 17 7 0 10 -262144
-1 -1;
#X text 283 230 Cliquer pour visualiser;
#X text 350 516 Cliquer pour visualiser;
#X text 307 899 Cliquer pour visualiser;
#X text 611 572 Visualisation;
#X connect 1 0 2 0;
#X connect 2 0 3 0;
#X connect 3 0 4 0;
#X connect 4 0 5 0;
#X connect 5 0 9 1;
#X connect 7 0 1 0;
#X connect 9 0 8 0;
#X connect 9 1 8 1;
#X connect 9 1 33 0;
#X connect 10 0 14 0;
#X connect 10 0 20 0;
#X connect 10 0 20 1;
#X connect 10 0 29 0;
#X connect 11 0 14 1;
#X connect 14 0 9 0;
#X connect 14 0 21 0;
#X connect 14 0 21 1;
#X connect 14 0 31 0;
#X connect 15 0 16 0;
#X connect 15 0 18 0;
#X connect 16 0 11 0;
#X connect 17 0 13 0;
#X connect 17 0 14 2;
#X connect 19 0 7 0;
#X connect 30 0 29 1;
#X connect 32 0 31 1;
#X connect 34 0 33 1;
