#N canvas 333 159 921 713 10;
#N canvas 4 173 605 300 reception_osc 1;
#X obj 134 190 oscparse;
#X obj 134 155 netreceive -u -b;
#X msg 311 130 listen 0;
#X obj 134 265 print;
#X text 389 132 Déconnexion;
#X obj 160 40 loadbang;
#X obj 213 268 outlet;
#X obj 134 17 inlet;
#X obj 311 20 inlet;
#X text 230 77 On écoute sur le port 1234;
#X obj 134 214 route list;
#X msg 134 77 listen 1234;
#X connect 0 0 10 0;
#X connect 1 0 0 0;
#X connect 2 0 1 0;
#X connect 5 0 11 0;
#X connect 7 0 11 0;
#X connect 8 0 2 0;
#X connect 10 0 3 0;
#X connect 10 0 6 0;
#X connect 11 0 1 0;
#X restore 193 165 pd reception_osc;
#X obj 193 113 bng 15 250 50 0 empty empty Connexion/Ecoute 17 7 0
10 -262144 -1 -1;
#X obj 302 140 bng 15 250 50 0 empty empty Deconnexion 17 7 0 10 -262144
-1 -1;
#N canvas 528 162 1122 480 envoi-osc 1;
#X msg 337 69 disconnect;
#X obj 37 442 netsend -u -b;
#X obj 500 74 list prepend send;
#X obj 500 99 list trim;
#X obj 500 44 inlet;
#X obj 37 40 inlet;
#X obj 337 43 inlet;
#X text 63 95 On donne adresse ip et port;
#X text 648 78 formattage des messages entrant pour envoi, f 33;
#X obj 485 234 oscparse;
#X msg 37 71 connect localhost 1234;
#X connect 0 0 1 0;
#X connect 2 0 3 0;
#X connect 3 0 1 0;
#X connect 4 0 2 0;
#X connect 5 0 10 0;
#X connect 6 0 0 0;
#X connect 10 0 1 0;
#X restore 202 317 pd envoi-osc;
#X obj 202 242 bng 15 250 50 0 empty empty Connexion/Ecoute 17 7 0
10 -262144 -1 -1;
#X obj 316 266 bng 15 250 50 0 empty empty Deconnexion 17 7 0 10 -262144
-1 -1;
#X msg 449 228 60;
#X obj 402 274 oscformat test;
#X connect 1 0 0 0;
#X connect 2 0 0 1;
#X connect 4 0 3 0;
#X connect 5 0 3 1;
#X connect 6 0 7 0;
#X connect 7 0 3 2;
