#N canvas 333 159 878 679 10;
#N canvas 830 125 605 300 reception_osc 0;
#X obj 134 190 oscparse;
#X obj 134 155 netreceive -u -b;
#X msg 310 130 listen 0;
#X obj 134 265 print;
#X text 389 132 Déconnexion;
#X obj 160 40 loadbang;
#X obj 213 268 outlet;
#X obj 134 17 inlet;
#X obj 311 20 inlet;
#X text 230 77 On écoute sur le port 1234;
#X obj 134 214 route list;
#X msg 134 77 listen 3333;
#X connect 0 0 10 0;
#X connect 1 0 0 0;
#X connect 2 0 1 0;
#X connect 5 0 11 0;
#X connect 7 0 11 0;
#X connect 8 0 2 0;
#X connect 10 0 6 0;
#X connect 11 0 1 0;
#X restore 239 176 pd reception_osc;
#X obj 239 124 bng 15 250 50 0 empty empty Connexion/Ecoute 17 7 0
10 -262144 -1 -1;
#X obj 348 151 bng 15 250 50 0 empty empty Deconnexion 17 7 0 10 -262144
-1 -1;
#X obj 159 270 route 0;
#X obj 113 377 nbx 5 14 -1e+37 1e+37 0 0 empty empty empty 0 -8 0 10
-262144 -1 -1 0.587844 256;
#X obj 153 400 nbx 5 14 -1e+37 1e+37 0 0 empty empty empty 0 -8 0 10
-262144 -1 -1 0.447735 256;
#X obj 174 424 nbx 5 14 -1e+37 1e+37 0 0 empty empty empty 0 -8 0 10
-262144 -1 -1 5.54293 256;
#X obj 357 200 print;
#X obj 149 312 unpack f f f;
#N canvas 4 23 450 426 routes 0;
#X obj 154 223 route tuio;
#X obj 155 252 route 2Dobj;
#X obj 158 282 route set;
#X obj 116 352 route;
#X obj 144 320 t a f;
#X obj 169 185 inlet;
#X obj 124 390 outlet;
#X connect 0 0 1 0;
#X connect 1 0 2 0;
#X connect 2 0 4 0;
#X connect 3 0 6 0;
#X connect 4 0 3 0;
#X connect 4 1 3 1;
#X connect 5 0 0 0;
#X restore 240 200 pd routes;
#X text 186 379 X-coord;
#X text 220 400 Y-coord;
#X text 236 424 Angle (rad);
#X obj 362 392 nbx 5 14 -1e+37 1e+37 0 0 empty empty empty 0 -8 0 10
-262144 -1 -1 0.126186 256;
#X obj 402 415 nbx 5 14 -1e+37 1e+37 0 0 empty empty empty 0 -8 0 10
-262144 -1 -1 0.646693 256;
#X obj 423 439 nbx 5 14 -1e+37 1e+37 0 0 empty empty empty 0 -8 0 10
-262144 -1 -1 6.17311 256;
#X obj 398 327 unpack f f f;
#X text 435 394 X-coord;
#X text 469 415 Y-coord;
#X text 485 439 Angle (rad);
#X obj 408 285 route 1;
#X text 217 271 marker 0;
#X text 468 285 marker 1;
#X connect 0 0 9 0;
#X connect 1 0 0 0;
#X connect 2 0 0 1;
#X connect 3 0 8 0;
#X connect 8 0 4 0;
#X connect 8 1 5 0;
#X connect 8 2 6 0;
#X connect 9 0 3 0;
#X connect 9 0 20 0;
#X connect 16 0 13 0;
#X connect 16 1 14 0;
#X connect 16 2 15 0;
#X connect 20 0 16 0;
