#N canvas 0 25 450 300 10;
#X obj 21 21 inlet;
#X obj 21 42 route 1 0;
#X obj 21 162 +;
#X obj 21 123 t f b;
#X obj 21 102 f \$3;
#X obj 21 63 t b b;
#X obj 116 67 t b b;
#X obj 21 230 s \$2;
#X obj 21 193 pack f f;
#X obj 143 94 0;
#X obj 174 144 v \$1-velocity;
#X floatatom 195 181 5 0 0 0 - - -;
#X obj 48 145 v \$1-pitchshift;
#X text 241 25 Note creation;
#X text 251 45 \$1 : pdkb ID;
#X text 251 65 \$2 : name for the send;
#X text 251 85 \$3 : default midi note number;
#X obj 116 33 r \$1-all-notes-off;
#X text 20 255 pdkb-ID-out;
#X connect 0 0 1 0;
#X connect 1 0 5 0;
#X connect 1 1 6 0;
#X connect 2 0 8 0;
#X connect 3 0 2 0;
#X connect 3 1 12 0;
#X connect 4 0 3 0;
#X connect 5 0 4 0;
#X connect 5 1 10 0;
#X connect 6 0 4 0;
#X connect 6 1 9 0;
#X connect 8 0 7 0;
#X connect 9 0 8 1;
#X connect 10 0 8 1;
#X connect 10 0 11 0;
#X connect 12 0 2 1;
#X connect 17 0 6 0;
