#N canvas 0 25 450 300 10;
#X obj 18 7 inlet;
#X obj 60 108 t b b;
#X obj 18 32 route 1 0;
#X obj 16 152 symbol \$1;
#X msg 16 198 \; \$1 color \$2 0;
#X obj 16 174 pack s f;
#X obj 16 113 t b b;
#X obj 105 125 f \$3;
#X obj 61 130 f \$2;
#X text 208 55 \$1 : canvas receive argument;
#X text 208 75 \$2 : default color (black or white);
#X text 208 95 \$3 : color when played;
#X obj 59 59 r \$4-all-notes-off;
#X text 208 115 \$4 : ID;
#X text 198 25 Keys colors;
#X connect 0 0 2 0;
#X connect 1 0 3 0;
#X connect 1 1 7 0;
#X connect 2 0 1 0;
#X connect 2 1 6 0;
#X connect 3 0 5 0;
#X connect 5 0 4 0;
#X connect 6 0 3 0;
#X connect 6 1 8 0;
#X connect 7 0 5 1;
#X connect 8 0 5 1;
#X connect 12 0 6 0;
