#N canvas 223 82 974 359 10;
#X obj 14 144 outlet~;
#X obj 126 131 hsl 60 13 0 1 0 0 \$0-a \$0-ra strength -2 -7 0 10 -219407
-1 -355 1770 1;
#X obj 213 131 hsl 60 13 0 1 0 0 \$0-b \$0-rb gain -2 -7 0 10 -219407
-1 -355 2944 1;
#X obj 106 131 cnv 12 15 13 empty empty 0 1 6 0 12 -33289 -262144 0
;
#X obj 193 131 cnv 12 15 13 empty empty 1 1 6 0 12 -33289 -262144 0
;
#X msg 288 129 50;
#X text 110 29 outlet audio~;
#N canvas 201 82 716 641 workings 0;
#X obj 379 577 outlet~;
#X obj 380 550 *~ 1;
#N canvas 0 50 466 316 rh_scalelog 0;
#X obj 20 155 exp;
#X obj 20 107 *;
#X obj 20 130 +;
#X obj 98 87 log;
#X obj 194 84 log;
#X obj 123 123 t b f;
#X obj 123 145 -;
#X obj 20 183 outlet;
#X obj 20 19 inlet;
#X obj 98 23 inlet;
#X obj 194 24 inlet;
#X connect 0 0 7 0;
#X connect 1 0 2 0;
#X connect 2 0 0 0;
#X connect 3 0 2 1;
#X connect 3 0 5 0;
#X connect 4 0 6 0;
#X connect 5 0 6 0;
#X connect 5 1 6 1;
#X connect 6 0 1 1;
#X connect 8 0 1 0;
#X connect 9 0 3 0;
#X connect 10 0 4 0;
#X restore 403 513 pd rh_scalelog;
#X msg 450 489 0.1;
#X msg 496 489 10;
#N canvas 0 50 705 639 wind 0;
#X obj 62 313 vcf~ 600 23;
#X obj 161 314 vcf~ 600 23;
#X obj 62 377 *~;
#X obj 26 189 lop~ 1;
#X obj 97 175 lop~ 0.1;
#X obj 198 174 lop~ 0.19;
#X obj 98 281 +~;
#X obj 197 12 osc~ 0.03;
#X obj 198 284 +~;
#X obj 244 37 +~;
#X obj 270 11 osc~ 0.3;
#X obj 83 405 bp~ 1000 7;
#X obj 63 473 outlet~;
#X msg 233 290 20;
#X obj 23 215 *~;
#X text 339 1 control;
#X obj 97 98 *~;
#X obj 97 57 noise~;
#X obj 61 346 *~ 0.15;
#X msg 134 291 14;
#X obj 244 83 *~ 300;
#X obj 197 227 *~ 180000;
#X obj 98 198 *~ 100000;
#X obj 245 59 *~ 0.25;
#X obj 23 241 *~ 1000;
#X obj 23 269 +~ 0.65;
#X obj 243 105 +~ 100;
#X obj 197 252 clip~ 300 1000;
#X obj 98 222 clip~ 250 1000;
#X obj 59 433 *~ 44;
#X obj 340 16 inlet~;
#X obj 256 310 r \$0-loadbang;
#X connect 0 0 18 0;
#X connect 1 0 18 0;
#X connect 2 0 11 0;
#X connect 3 0 14 0;
#X connect 3 0 14 1;
#X connect 4 0 22 0;
#X connect 5 0 21 0;
#X connect 6 0 0 1;
#X connect 7 0 9 0;
#X connect 8 0 1 1;
#X connect 9 0 23 0;
#X connect 10 0 9 1;
#X connect 11 0 29 0;
#X connect 13 0 1 2;
#X connect 14 0 24 0;
#X connect 16 0 0 0;
#X connect 16 0 1 0;
#X connect 16 0 3 0;
#X connect 16 0 4 0;
#X connect 16 0 5 0;
#X connect 17 0 16 0;
#X connect 18 0 2 0;
#X connect 19 0 0 2;
#X connect 20 0 26 0;
#X connect 21 0 27 0;
#X connect 22 0 28 0;
#X connect 23 0 20 0;
#X connect 24 0 25 0;
#X connect 25 0 2 1;
#X connect 26 0 6 1;
#X connect 26 0 8 1;
#X connect 27 0 8 0;
#X connect 28 0 6 0;
#X connect 29 0 12 0;
#X connect 30 0 16 1;
#X connect 31 0 13 0;
#X connect 31 0 19 0;
#X restore 122 181 pd wind;
#X obj 450 461 r \$0-loadbang;
#X obj 121 139 inlet;
#X obj 403 431 inlet;
#X connect 1 0 0 0;
#X connect 2 0 1 1;
#X connect 3 0 2 1;
#X connect 4 0 2 2;
#X connect 5 0 1 0;
#X connect 6 0 3 0;
#X connect 6 0 4 0;
#X connect 7 0 5 0;
#X connect 8 0 2 0;
#X restore 18 59 pd workings;
#X text 57 291 Comment: Taken from Andy Farnell's work.;
#X text 104 14 inlets control \, add \, multiply;
#X connect 1 0 7 0;
#X connect 2 0 7 1;
#X connect 7 0 0 0;
#X coords 0 -1 1 1 180 50 1 100 100;
