#N canvas 1 81 958 998 10;
#X obj 392 136 route coordinates;
#X obj 392 159 unpack f f;
#X obj 392 301 rj/u_makepoly 5 1 s_hstr \$0-inst;
#X obj 392 192 makenote 127 1000;
#X obj 392 214 pack f f;
#N canvas 1 81 1163 675 hstr_presets 0;
#X obj 91 26 inlet;
#X obj 134 647 outlet name;
#X obj 118 611 symbol;
#X obj 217 646 outlet parms;
#X obj 151 566 route name;
#X obj 681 209 loadbang;
#X obj 90 52 sel 0 1 2 3 4 5 6 7 8 9 10 11 12;
#X msg 92 299 name string1 \, mod3b 0.291339 \, mod3a 0.0472441 \,
mod2d 0.700787 \, mod2c 0.409449 \, mod2b 0.181102 \, mod2a 0.472441
\, mod1c 0.519685 \, mod1b 0.0472441 \, mod1a 0.574803 \, osc3c 0.755906
\, osc3b 0.661417 \, osc3a 0.606299 \, osc2d 0.464567 \, osc2c 0.023622
\, osc2b 0.708661 \, osc2a 0.968504 \, osc1d 0.212598 \, osc1c 0.346457
\, osc1b 0.291339 \, osc1a 0.795276 \, env3r 0.00787402 \, env3s 0.133858
\, env3d 0.023622 \, env3a 0.015748 \, env2r 0.023622 \, env2s 0.889764
\, env2d 0.102362 \, env2a 0.850394 \, env1r 0.0322047 \, env1s 0.503937
\, env1d 0.0866142 \, env1a 0.0866142 \,;
#X msg 109 302 name string2 \, mod3b 0.291339 \, mod3a 0.0944882 \,
mod2d 0.811024 \, mod2c 0.574803 \, mod2b 0.456693 \, mod2a 0.598425
\, mod1c 0.0472441 \, mod1b 0.291339 \, mod1a 0.574803 \, osc3c 0.755906
\, osc3b 0.661417 \, osc3a 0.606299 \, osc2d 0.826772 \, osc2c 0.015748
\, osc2b 0.708661 \, osc2a 0.811024 \, osc1d 0.212598 \, osc1c 0.346457
\, osc1b 0.291339 \, osc1a 0.795276 \, env3r 0.00787402 \, env3s 0.133858
\, env3d 0.023622 \, env3a 0.015748 \, env2r 0.023622 \, env2s 0.889764
\, env2d 0.133858 \, env2a 0.598425 \, env1r 0.00858268 \, env1s 0.503937
\, env1d 0.0393701 \, env1a 0.0866142 \,;
#X msg 128 300 name lowstring \, mod3b 0.181102 \, mod3a 0.0393701
\, mod2d 0.15748 \, mod2c 0.267717 \, mod2b 0.582677 \, mod2a 0.259843
\, mod1c 0.0472441 \, mod1b 0.015748 \, mod1a 0.425197 \, osc3c 0.968504
\, osc3b 0.92126 \, osc3a 0.393701 \, osc2d 0.811024 \, osc2c 0.00787402
\, osc2b 0.708661 \, osc2a 0 \, osc1d 0.141732 \, osc1c 0.204724 \,
osc1b 0.0314961 \, osc1a 0.511811 \, env3r 0.00787402 \, env3s 0.0551181
\, env3d 0.015748 \, env3a 0.0866142 \, env2r 0.023622 \, env2s 0.889764
\, env2d 0.133858 \, env2a 0.598425 \, env1r 0.00858268 \, env1s 0.503937
\, env1d 0.0393701 \, env1a 0.19685 \,;
#X msg 144 297 name tremstring \, mod3b 0.133858 \, mod3a 0.0629921
\, mod2d 0.503937 \, mod2c 0.448819 \, mod2b 0.259843 \, mod2a 0.866142
\, mod1c 0.0472441 \, mod1b 0.015748 \, mod1a 0.425197 \, osc3c 0.708661
\, osc3b 0.346457 \, osc3a 0.76378 \, osc2d 0.811024 \, osc2c 0.00787402
\, osc2b 0.708661 \, osc2a 0.472441 \, osc1d 0.748031 \, osc1c 0.346457
\, osc1b 0.0472441 \, osc1a 0.614173 \, env3r 0.00787402 \, env3s 0.0551181
\, env3d 0.015748 \, env3a 0.0866142 \, env2r 0.023622 \, env2s 0.708661
\, env2d 0.133858 \, env2a 0.299213 \, env1r 0.00858268 \, env1s 0.503937
\, env1d 0.0393701 \, env1a 0.19685 \,;
#X connect 0 0 6 0;
#X connect 2 0 1 0;
#X connect 4 0 2 0;
#X connect 4 1 3 0;
#X connect 6 0 7 0;
#X connect 6 1 8 0;
#X connect 6 2 9 0;
#X connect 6 3 10 0;
#X connect 7 0 4 0;
#X connect 8 0 4 0;
#X connect 9 0 4 0;
#X connect 10 0 4 0;
#X restore 511 275 pd hstr_presets;
#X obj 511 229 loadbang;
#X msg 511 251 1;
#X obj 394 462 dac~;
#X obj 391 406 rj/e_dubdel;
#X obj 214 580 oscformat /pitchleft;
#X obj 324 610 oscformat /envleft;
#X obj 464 339 loadbang;
#X msg 464 366 dry 0.25 \, bq 3 \, basedur 125 \, bpitch 72 \, feedback
0.99 \, dell 0.5 \, delr 0.66 \,;
#N canvas 1 81 605 300 reception_osc 0;
#X obj 134 190 oscparse;
#X obj 134 155 netreceive -u -b;
#X msg 311 130 listen 0;
#X obj 134 265 print;
#X msg 134 77 listen 1234;
#X text 389 132 Déconnexion;
#X obj 160 40 loadbang;
#X obj 213 268 outlet;
#X obj 134 17 inlet;
#X obj 311 20 inlet;
#X text 230 77 On écoute sur le port 1234;
#X obj 134 214 route list;
#X connect 0 0 11 0;
#X connect 1 0 0 0;
#X connect 2 0 1 0;
#X connect 4 0 1 0;
#X connect 6 0 4 0;
#X connect 8 0 4 0;
#X connect 9 0 2 0;
#X connect 11 0 3 0;
#X connect 11 0 7 0;
#X restore 392 89 pd reception_osc;
#X obj 392 37 bng 15 250 50 0 empty empty Connexion/Ecoute 17 7 0 10
-262144 -1 -1;
#X obj 501 64 bng 15 250 50 0 empty empty Deconnexion 17 7 0 10 -262144
-1 -1;
#X text 544 135 Préfixe OSC choisit dans processing : pas de "/";
#X text 495 160 On sépare les deux valeurs;
#X text 526 194 On crée une note midi utilisable par un synthé;
#X text 630 303 Synthé polyphonique rj;
#X text 499 408 un effet rj;
#X text 382 495 sortie audio;
#N canvas 244 284 811 479 analyse-audio 0;
#X floatatom 298 115 5 0 0 0 - - -, f 5;
#X floatatom 471 117 5 0 0 0 - - -, f 5;
#X text 297 133 pitch;
#X text 469 136 envelope;
#X obj 265 89 sigmund~ -hop 4096 pitch env;
#X obj 265 268 line;
#X obj 458 269 line;
#X obj 265 191 min 90;
#X obj 265 166 max 0;
#X msg 265 246 \$1 100;
#X msg 458 247 \$1 100;
#X obj 266 33 inlet~;
#X text 345 28 sigmund permet d'analyser la hauteur et la puissance
d'un signal audio;
#X text 28 183 limiter les valeur entre 0 et 90;
#X obj 265 311 outlet;
#X obj 458 310 outlet;
#X connect 4 0 0 0;
#X connect 4 0 8 0;
#X connect 4 1 1 0;
#X connect 4 1 10 0;
#X connect 5 0 14 0;
#X connect 6 0 15 0;
#X connect 7 0 9 0;
#X connect 8 0 7 0;
#X connect 9 0 5 0;
#X connect 10 0 6 0;
#X connect 11 0 4 0;
#X restore 214 547 pd analyse-audio;
#N canvas 244 284 811 479 analyse-audio 0;
#X floatatom 298 115 5 0 0 0 - - -, f 5;
#X floatatom 471 117 5 0 0 0 - - -, f 5;
#X text 297 133 pitch;
#X text 469 136 envelope;
#X obj 265 89 sigmund~ -hop 4096 pitch env;
#X obj 265 268 line;
#X obj 458 269 line;
#X obj 265 191 min 90;
#X obj 265 166 max 0;
#X msg 265 246 \$1 100;
#X msg 458 247 \$1 100;
#X obj 266 33 inlet~;
#X text 345 28 sigmund permet d'analyser la hauteur et la puissance
d'un signal audio;
#X text 28 183 limiter les valeur entre 0 et 90;
#X obj 265 311 outlet;
#X obj 458 310 outlet;
#X connect 4 0 0 0;
#X connect 4 0 8 0;
#X connect 4 1 1 0;
#X connect 4 1 10 0;
#X connect 5 0 14 0;
#X connect 6 0 15 0;
#X connect 7 0 9 0;
#X connect 8 0 7 0;
#X connect 9 0 5 0;
#X connect 10 0 6 0;
#X connect 11 0 4 0;
#X restore 544 544 pd analyse-audio;
#N canvas 1 81 1122 480 envoi-osc 0;
#X msg 337 69 disconnect;
#X obj 37 442 netsend -u -b;
#X obj 500 74 list prepend send;
#X obj 500 99 list trim;
#X msg 37 71 connect localhost 12000;
#X obj 500 44 inlet;
#X obj 37 40 inlet;
#X obj 337 43 inlet;
#X text 63 95 On donne adresse ip et port;
#X text 648 78 formattage des messages entrant pour envoi;
#X connect 0 0 1 0;
#X connect 2 0 3 0;
#X connect 3 0 1 0;
#X connect 4 0 1 0;
#X connect 5 0 2 0;
#X connect 6 0 4 0;
#X connect 7 0 0 0;
#X restore 29 774 pd envoi-osc, f 33;
#X obj 29 699 bng 15 250 50 0 empty empty Connexion/Ecoute 17 7 0 10
-262144 -1 -1;
#X obj 143 723 bng 15 250 50 0 empty empty Deconnexion 17 7 0 10 -262144
-1 -1;
#X text 567 671 On applique le préfixe osc qui devra être parsé
dans processing;
#X obj 544 577 oscformat /pitchright;
#X obj 654 607 oscformat /envright;
#X text 352 542 exemple d'analyse audio;
#X connect 0 0 1 0;
#X connect 1 0 3 0;
#X connect 1 1 3 2;
#X connect 2 0 9 0;
#X connect 2 0 9 1;
#X connect 3 0 4 0;
#X connect 3 1 4 1;
#X connect 4 0 2 0;
#X connect 5 1 2 1;
#X connect 6 0 7 0;
#X connect 7 0 5 0;
#X connect 9 0 8 0;
#X connect 9 0 23 0;
#X connect 9 1 8 1;
#X connect 9 1 24 0;
#X connect 10 0 25 2;
#X connect 11 0 25 2;
#X connect 12 0 13 0;
#X connect 13 0 9 2;
#X connect 14 0 0 0;
#X connect 15 0 14 0;
#X connect 16 0 14 1;
#X connect 23 0 10 0;
#X connect 23 1 11 0;
#X connect 24 0 29 0;
#X connect 24 1 30 0;
#X connect 26 0 25 0;
#X connect 27 0 25 1;
#X connect 29 0 25 2;
#X connect 30 0 25 2;
