#N canvas 129 112 258 133 10;
#N canvas 0 22 613 515 (subpatch) 0;
#X obj 107 20 hsl 64 12 0 1000 0 1 empty empty freq1 16 6 0 9 -262144
-1 -1 2268 1;
#X obj 28 34 hsl 64 12 0 100 0 1 empty empty speed 16 6 0 9 -262144
-1 -1 567 1;
#X obj 28 20 hsl 64 12 0 5000 0 1 empty empty time 17 6 0 9 -262144
-1 -1 1299 1;
#X obj 107 35 hsl 64 12 0 1000 0 1 empty empty freq2 16 6 1 9 -262144
-1 -1 1499 1;
#N canvas 156 215 246 336 multi-tone-alarm 0;
#X obj 27 186 *~;
#X obj 56 207 *~;
#X obj -1 166 *~;
#N canvas 0 22 255 294 timebase 0;
#X msg 6 77 1 \$1;
#X msg 49 77 0 0;
#X obj 49 52 del;
#X obj 6 113 line~;
#X obj 6 6 inlet risetime;
#X obj 6 189 outlet~ linecontrol;
#X obj 22 139 inlet scale;
#X msg 92 76 0;
#X obj 6 28 trigger f f b;
#X obj 6 163 *~;
#X connect 0 0 3 0;
#X connect 1 0 3 0;
#X connect 2 0 1 0;
#X connect 3 0 9 0;
#X connect 4 0 8 0;
#X connect 6 0 9 1;
#X connect 7 0 3 0;
#X connect 8 0 0 0;
#X connect 8 1 2 0;
#X connect 8 2 7 0;
#X connect 9 0 5 0;
#X restore 15 59 pd timebase;
#X obj 56 252 *~ 0.25;
#N canvas 11 420 328 247 4phase-osc 0;
#X obj 4 85 clip~ 0 1;
#X obj 81 84 clip~ 1 2;
#X obj 155 83 clip~ 2 3;
#X obj 80 107 -~ 1;
#X obj 156 106 -~ 2;
#X obj 79 131 *~ 0.5;
#X obj 79 154 -~ 0.25;
#X obj 79 176 cos~;
#X obj 156 129 *~ 0.5;
#X obj 156 152 -~ 0.25;
#X obj 156 174 cos~;
#X obj 3 134 *~ 0.5;
#X obj 3 157 -~ 0.25;
#X obj 3 179 cos~;
#X obj 2 201 outlet~;
#X obj 80 199 outlet~;
#X obj 156 197 outlet~;
#X obj 124 5 inlet~ run;
#X obj 124 27 wrap~;
#X obj 226 129 *~ 0.5;
#X obj 226 152 -~ 0.25;
#X obj 226 174 cos~;
#X obj 226 197 outlet~;
#X obj 124 49 *~ 4;
#X obj 225 83 clip~ 3 4;
#X obj 226 106 -~ 3;
#X connect 0 0 11 0;
#X connect 1 0 3 0;
#X connect 2 0 4 0;
#X connect 3 0 5 0;
#X connect 4 0 8 0;
#X connect 5 0 6 0;
#X connect 6 0 7 0;
#X connect 7 0 15 0;
#X connect 8 0 9 0;
#X connect 9 0 10 0;
#X connect 10 0 16 0;
#X connect 11 0 12 0;
#X connect 12 0 13 0;
#X connect 13 0 14 0;
#X connect 17 0 18 0;
#X connect 18 0 23 0;
#X connect 19 0 20 0;
#X connect 20 0 21 0;
#X connect 21 0 22 0;
#X connect 23 0 0 0;
#X connect 23 0 1 0;
#X connect 23 0 2 0;
#X connect 23 0 24 0;
#X connect 24 0 25 0;
#X connect 25 0 19 0;
#X restore 15 80 pd 4phase-osc;
#X obj 85 217 *~;
#X obj 56 273 hip~ 50;
#X obj 65 24 unpack f f f f f f f;
#X obj 65 1 inlet;
#X obj 56 293 *~ 0.5;
#N canvas 0 22 218 139 cosc 0;
#X obj 8 91 cos~;
#X obj 8 71 +~;
#X obj 103 28 * 0.25;
#X obj 8 114 outlet~;
#X obj 9 49 osc~;
#X obj 9 6 inlet pitch;
#X obj 103 7 inlet spectrum;
#X connect 0 0 3 0;
#X connect 1 0 0 0;
#X connect 2 0 1 1;
#X connect 4 0 1 0;
#X connect 5 0 4 0;
#X connect 6 0 2 0;
#X restore 110 102 pd cosc;
#N canvas 0 22 253 185 cosc 0;
#X obj 8 125 cos~;
#X obj 8 105 +~;
#X obj 103 54 * 0.25;
#X obj 8 148 outlet~;
#X obj 9 83 osc~;
#X obj 9 6 inlet pitch;
#X obj 103 7 inlet spectrum;
#X connect 0 0 3 0;
#X connect 1 0 0 0;
#X connect 2 0 1 1;
#X connect 4 0 1 0;
#X connect 5 0 4 0;
#X connect 6 0 2 0;
#X restore 132 122 pd cosc;
#N canvas 0 22 253 185 cosc 0;
#X obj 8 125 cos~;
#X obj 8 105 +~;
#X obj 103 54 * 0.25;
#X obj 8 148 outlet~;
#X obj 9 83 osc~;
#X obj 9 6 inlet pitch;
#X obj 103 7 inlet spectrum;
#X connect 0 0 3 0;
#X connect 1 0 0 0;
#X connect 2 0 1 1;
#X connect 4 0 1 0;
#X connect 5 0 4 0;
#X connect 6 0 2 0;
#X restore 155 142 pd cosc;
#N canvas 0 22 253 185 cosc 0;
#X obj 8 125 cos~;
#X obj 8 105 +~;
#X obj 103 54 * 0.25;
#X obj 8 148 outlet~;
#X obj 9 83 osc~;
#X obj 9 6 inlet pitch;
#X obj 103 7 inlet spectrum;
#X connect 0 0 3 0;
#X connect 1 0 0 0;
#X connect 2 0 1 1;
#X connect 4 0 1 0;
#X connect 5 0 4 0;
#X connect 6 0 2 0;
#X restore 178 162 pd cosc;
#X obj 56 317 outlet~;
#X connect 0 0 4 0;
#X connect 1 0 4 0;
#X connect 2 0 4 0;
#X connect 3 0 5 0;
#X connect 4 0 7 0;
#X connect 5 0 2 1;
#X connect 5 1 0 1;
#X connect 5 2 1 1;
#X connect 5 3 6 1;
#X connect 6 0 4 0;
#X connect 7 0 10 0;
#X connect 8 0 3 0;
#X connect 8 1 3 1;
#X connect 8 2 11 0;
#X connect 8 3 12 0;
#X connect 8 4 13 0;
#X connect 8 5 14 0;
#X connect 8 6 14 1;
#X connect 8 6 13 1;
#X connect 8 6 12 1;
#X connect 8 6 11 1;
#X connect 9 0 8 0;
#X connect 10 0 15 0;
#X connect 11 0 2 0;
#X connect 12 0 0 0;
#X connect 13 0 1 0;
#X connect 14 0 6 0;
#X restore 2 279 pd multi-tone-alarm;
#X obj -2 124 t;
#X obj 28 49 hsl 64 12 0 1 0 1 empty empty tone 16 6 1 9 -262144 -1
-1 6300 1;
#X obj 107 65 hsl 64 12 0 1000 0 1 empty empty freq4 16 6 1 9 -262144
-1 -1 995 1;
#X obj 107 50 hsl 64 12 0 1000 0 1 empty empty freq3 16 6 1 9 -262144
-1 -1 1096 1;
#X obj 21 146 pack f f f f f f f;
#X msg 21 169 set \$1 \$2 \$3 \$4 \$5 \$6 \$7;
#X obj 41 122 int;
#X msg 2 247 1030.95 9 360 237.937 173.968 157.937 1;
#X obj 2 19 bng 15 250 50 0 empty empty empty 17 7 0 10 -262144 -1
-1;
#X obj -8 -86 r \$0-presets;
#X obj 26 199 s \$0-current;
#X obj 38 -46 unpack f f f f f f f;
#X obj -8 -67 t b a;
#N canvas 0 22 277 310 \$0-Alarm-Presets 0;
#X msg 11 108 317 7 300 125 0 0 1;
#X msg 11 128 1031 9 360 238 174 158 1;
#X msg 11 168 1428 3 619 571 365 206 1;
#X msg 11 188 450 1 365 571 619 206 0.5;
#X msg 11 208 714 74 1000 0 1000 0 1;
#X msg 11 148 900 4 2000 2010 2000 2010 1;
#X msg 11 68 380 2 349 0 0 0 1;
#X msg 11 88 238 1 317 0 0 476 0;
#X msg 11 228 200 30 1000 476 159 0 1;
#X msg 11 248 634 61 1000 476 159 0 1;
#X obj 11 274 s \$0-presets;
#X obj 11 6 r \$0-current;
#X msg 11 25 1030.95 9 360 237.937 173.968 157.937 1;
#X connect 0 0 10 0;
#X connect 1 0 10 0;
#X connect 2 0 10 0;
#X connect 3 0 10 0;
#X connect 4 0 10 0;
#X connect 5 0 10 0;
#X connect 6 0 10 0;
#X connect 7 0 10 0;
#X connect 8 0 10 0;
#X connect 9 0 10 0;
#X connect 11 0 12 0;
#X restore 271 -60 pd \$0-Alarm-Presets;
#X obj 179 20 bng 15 250 50 0 empty empty Presets 17 7 0 9 -262144
-1 -1;
#X msg 247 125 vis 1;
#X obj 247 145 s pd-\$0-Alarm-Presets;
#X obj 2 304 outlet~;
#X obj 1 1 cnv 15 238 15 empty empty Alarm-2tones 0 8 0 12 -1 -262144
0;
#X connect 0 0 5 0;
#X connect 0 0 9 2;
#X connect 1 0 5 0;
#X connect 1 0 11 0;
#X connect 2 0 9 0;
#X connect 3 0 5 0;
#X connect 3 0 9 3;
#X connect 4 0 22 0;
#X connect 5 0 9 0;
#X connect 6 0 5 0;
#X connect 6 0 9 6;
#X connect 7 0 5 0;
#X connect 7 0 9 5;
#X connect 8 0 5 0;
#X connect 8 0 9 4;
#X connect 9 0 10 0;
#X connect 10 0 12 0;
#X connect 10 0 15 0;
#X connect 11 0 9 1;
#X connect 12 0 4 0;
#X connect 13 0 12 0;
#X connect 14 0 17 0;
#X connect 16 0 2 0;
#X connect 16 1 1 0;
#X connect 16 2 0 0;
#X connect 16 3 3 0;
#X connect 16 4 8 0;
#X connect 16 5 7 0;
#X connect 16 6 6 0;
#X connect 17 0 13 0;
#X connect 17 1 16 0;
#X connect 19 0 20 0;
#X connect 20 0 21 0;
#X coords 0 1 100 -1 240 80 1 0 0;
#X restore 6 -31 graph;
#N canvas 0 22 839 439 (subpatch) 0;
#X obj 88 90 change;
#X msg 90 154 set \$1;
#X obj 90 135 tosymbol;
#X msg 135 203 Bus10;
#X obj 94 2 tgl 18 0 empty empty DAC 23 10 0 11 -262144 -1 -1 0 1;
#X obj 250 174 *~;
#X obj 251 210 dac~;
#X obj 23 1 nbx 3 20 0 16 0 0 empty empty Ch -20 10 0 12 -1 -191407
-1 10 256;
#X obj 1 49 inlet~;
#X obj -1 232 throw~ Bus0;
#X obj 89 112 sprintf Ch%d;
#X connect 0 0 10 0;
#X connect 1 0 3 0;
#X connect 1 0 9 0;
#X connect 2 0 1 0;
#X connect 4 0 5 1;
#X connect 5 0 6 0;
#X connect 5 0 6 1;
#X connect 7 0 0 0;
#X connect 8 0 5 0;
#X connect 8 0 9 0;
#X connect 10 0 2 0;
#X coords 0 1 100 -1 140 22 1 0 0;
#X restore 6 49 graph;
#X connect 0 0 1 0;
