#N canvas 536 315 234 129 10;
#X declare -path z_redalert_abs;
#X obj -35 89 declare -path z_redalert_abs;
#N canvas 281 117 613 515 (subpatch) 0;
#X obj 1 1 cnv 15 130 15 empty empty Alarm-Red-Alert 0 8 0 12 -1 -262144
0;
#X obj 44 215 phasor~;
#X obj 42 133 vline~;
#X obj 43 174 *~ 487;
#X obj 43 352 *~;
#X obj 88 20 bng 35 250 50 0 empty empty empty 0 -6 0 9 -262144 -258113
-1;
#X obj 192 133 vline~;
#X obj 42 154 sqrt~;
#X obj 43 326 hip~ 1;
#X obj 15 239 -~ 0.5;
#X obj 43 378 *~ 0.2;
#X obj 42 444 hip~ 12;
#X obj 59 488 s~ fbsd;
#X obj 118 305 r~ fbsd;
#X msg 42 106 0 \, 1 900 0 \, 0 0 1200;
#X msg 192 106 0 \, 1 10 0 \, 0 10 890;
#X obj 43 194 +~ 360;
#X obj 20 511 clip~ -1 1;
#X obj 118 326 *~ 0.006;
#X obj 96 75 t b b;
#X obj 20 624 *~ 0.2;
#X obj 20 488 *~ 4;
#X obj 20 567 bp~ 1400 12;
#X obj 102 567 bp~ 1500 12;
#X obj 185 567 bp~ 1600 12;
#X obj -104 567 *~ 0.5;
#X obj 67 239 *~ 2;
#X obj 67 259 cos~;
#X obj 43 305 +~;
#X obj 67 280 *~ 0.3;
#X obj -55 567 bp~ 740 12;
#X obj -69 411 dfbe 15;
#X obj 42 411 dfbe 35;
#X obj 153 411 dfbe 11;
#X obj 59 467 dfbe 61;
#X obj -13 411 dfbe 22;
#X obj 97 411 dfbe 24;
#X obj 20 652 outlet~;
#X obj -102 36 metro 1000;
#X obj 5 22 tgl 15 0 empty empty Repeat 17 7 0 10 -262144 -1 -1 0 1
;
#X obj 5 40 nbx 4 14 -1e+37 1e+37 0 0 empty empty Speed 50 8 0 10 -262144
-1 -1 1000 256;
#X obj 213 11 loadbang;
#X msg 214 37 1000;
#X connect 1 0 9 0;
#X connect 1 0 26 0;
#X connect 2 0 7 0;
#X connect 3 0 16 0;
#X connect 4 0 10 0;
#X connect 5 0 19 0;
#X connect 6 0 4 1;
#X connect 7 0 3 0;
#X connect 8 0 4 0;
#X connect 9 0 28 0;
#X connect 10 0 31 0;
#X connect 10 0 32 0;
#X connect 10 0 33 0;
#X connect 10 0 35 0;
#X connect 10 0 36 0;
#X connect 11 0 21 0;
#X connect 11 0 34 0;
#X connect 13 0 18 0;
#X connect 14 0 2 0;
#X connect 15 0 6 0;
#X connect 16 0 1 0;
#X connect 17 0 22 0;
#X connect 17 0 23 0;
#X connect 17 0 24 0;
#X connect 17 0 25 0;
#X connect 17 0 30 0;
#X connect 18 0 10 0;
#X connect 19 0 14 0;
#X connect 19 1 15 0;
#X connect 20 0 37 0;
#X connect 21 0 17 0;
#X connect 22 0 20 0;
#X connect 23 0 20 0;
#X connect 24 0 20 0;
#X connect 25 0 20 0;
#X connect 26 0 27 0;
#X connect 27 0 29 0;
#X connect 28 0 8 0;
#X connect 29 0 28 1;
#X connect 30 0 20 0;
#X connect 31 0 11 0;
#X connect 32 0 11 0;
#X connect 33 0 11 0;
#X connect 34 0 12 0;
#X connect 35 0 11 0;
#X connect 36 0 11 0;
#X connect 38 0 5 0;
#X connect 39 0 38 0;
#X connect 40 0 38 1;
#X connect 41 0 42 0;
#X connect 42 0 40 0;
#X coords 0 1 100 -1 132 60 1 0 0;
#X restore -34 -1 graph;
#N canvas 0 22 839 439 (subpatch) 0;
#X obj 88 90 change;
#X msg 90 154 set \$1;
#X obj 90 135 tosymbol;
#X msg 135 203 Ch5;
#X obj 94 2 tgl 18 0 empty empty DAC 23 10 0 11 -262144 -1 -1 1 1;
#X obj 250 174 *~;
#X obj 251 210 dac~;
#X obj 23 1 nbx 3 20 0 16 0 0 empty empty Ch -20 10 0 12 -1 -191407
-1 0 256;
#X obj 1 49 inlet~;
#X obj -1 232 throw~ Bus0;
#X obj 89 112 sprintf Ch%d;
#X connect 0 0 10 0;
#X connect 1 0 3 0;
#X connect 1 0 9 0;
#X connect 2 0 1 0;
#X connect 4 0 5 1;
#X connect 5 0 6 0;
#X connect 5 0 6 1;
#X connect 7 0 0 0;
#X connect 8 0 5 0;
#X connect 8 0 9 0;
#X connect 10 0 2 0;
#X coords 0 1 100 -1 140 22 1 0 0;
#X restore -34 59 graph;
#X connect 1 0 2 0;
