#N canvas 431 138 225 218 10;
#X declare -path z_police_abs;
#N canvas 411 253 613 515 (subpatch) 0;
#X obj 1 1 cnv 15 150 15 empty empty Alarm-Police 0 8 0 12 -1 -262144
0;
#X obj -25 270 +~ 300;
#X msg 194 105 3;
#X msg 160 105 0.1;
#X obj -25 246 *~ 800;
#X obj -21 393 environment;
#X obj -21 369 plastichorn~;
#X obj -25 294 logosc~;
#X obj -23 181 logosc~;
#X obj -19 340 *~;
#X obj -23 443 outlet~;
#X obj 95 1 tgl 15 0 empty empty On-Off 17 7 0 10 -262144 -1 -262144
0 1;
#X obj 7 36 hsl 128 15 0 4 0 0 empty empty Speed 16 7 0 9 -262144 -1
-1 0 1;
#X obj 5 53 nbx 5 14 -1e+37 1e+37 0 0 empty empty empty 0 -8 0 10 -262144
-1 -1 0 256;
#X obj 4 19 bng 15 250 50 0 empty empty Slow 17 7 0 10 -262144 -1 -1
;
#X obj 58 19 bng 15 250 50 0 empty empty Fast 17 7 0 10 -262144 -1
-1;
#X connect 1 0 7 0;
#X connect 2 0 12 0;
#X connect 3 0 12 0;
#X connect 4 0 1 0;
#X connect 5 0 10 0;
#X connect 6 0 5 0;
#X connect 7 0 9 0;
#X connect 8 0 4 0;
#X connect 9 0 6 0;
#X connect 11 0 9 1;
#X connect 12 0 13 0;
#X connect 13 0 8 0;
#X connect 14 0 3 0;
#X connect 15 0 2 0;
#X coords 0 1 100 -1 152 70 1 0 0;
#X restore 11 27 graph;
#X obj 12 6 declare -path z_police_abs;
#X obj 12 138 *~;
#X obj 12 160 dac~;
#X obj 28 119 lop~ 10;
#X obj 28 102 tgl 15 0 empty empty empty 17 7 0 10 -262144 -1 -1 0
1;
#X connect 0 0 2 0;
#X connect 2 0 3 0;
#X connect 2 0 3 1;
#X connect 4 0 2 1;
#X connect 5 0 4 0;
