#N canvas 65 82 715 307 10;
#X obj -6 -1 cnv 15 600 140 empty empty Birds 20 12 1 14 -128992 -262144
0;
#X obj 65 25 cnv 15 100 100 empty empty amp 20 12 1 14 -233017 -66577
0;
#X obj 90 63 vsl 10 50 0 1 0 0 \$0-atk \$0-atk-r atk 0 -8 1 8 -262144
-1 -1 100 1;
#X obj 119 64 vsl 10 50 0 1 0 0 \$0-dcy \$0-dcy-r dcy 0 -8 1 8 -262144
-1 -1 1000 1;
#X obj 174 25 cnv 15 200 100 empty empty f-modulation 20 12 1 14 -233017
-66577 0;
#X obj 180 64 vsl 10 50 0 1 0 0 \$0-fmod1 \$0-fmod1-r fmod1 0 -8 1
8 -262144 -1 -1 1800 1;
#X obj 215 64 vsl 10 50 0 1 0 0 \$0-atkf1 \$0-atkf1-r atkf1 0 -8 1
8 -262144 -1 -1 2800 1;
#X obj 246 64 vsl 10 50 0 1 0 0 \$0-dcyf1 \$0-dcyf1-r dcyf1 0 -8 1
8 -262144 -1 -1 3600 1;
#X obj 281 64 vsl 10 50 0 1 0 0 \$0-fmod2 \$0-fmod2-r fmod2 0 -8 1
8 -262144 -1 -1 4500 1;
#X obj 316 64 vsl 10 50 0 1 0 0 \$0-atkf2 \$0-atkf2-r atkf2 0 -8 1
8 -262144 -1 -1 4900 1;
#X obj 347 64 vsl 10 50 0 1 0 0 \$0-dcyf2 \$0-dcyf2-r dcyf2 0 -8 1
8 -262144 -1 -1 3800 1;
#X obj 382 25 cnv 15 200 100 empty empty a-modulation 20 12 1 14 -233017
-66577 0;
#X obj 386 64 vsl 10 50 0 1 0 0 \$0-amod1 \$0-amod1-r amod1 0 -8 1
8 -262144 -1 -1 2800 1;
#X obj 421 64 vsl 10 50 0 1 0 0 \$0-atka1 \$0-atka1-r atka1 0 -8 1
8 -262144 -1 -1 1800 1;
#X obj 452 64 vsl 10 50 0 1 0 0 \$0-dcya1 \$0-dcya1-r dcya1 0 -8 1
8 -262144 -1 -1 1100 1;
#X obj 486 63 vsl 10 50 0 1 0 0 \$0-amod2 \$0-amod2-r amod2 0 -8 1
8 -262144 -1 -1 100 1;
#X obj 521 63 vsl 10 50 0 1 0 0 \$0-atka2 \$0-atka2-r atka2 0 -8 1
8 -262144 -1 -1 900 1;
#X obj 552 63 vsl 10 50 0 1 0 0 \$0-dcya2 \$0-dcya2-r dcya2 0 -8 1
8 -262144 -1 -1 2200 1;
#X obj 228 3 cnv 15 280 16 empty empty empty 20 12 1 14 -233017 -66577
0;
#X obj 96 4 bng 15 80 50 0 \$0-trig empty empty 0 -6 0 8 -262144 -1
-1;
#N canvas 65 87 652 253 birds 1;
#N canvas 0 50 450 300 hm-bird 0;
#X obj 156 123 osc~;
#X obj 140 80 r~ \$0-amp1;
#X obj 140 147 *~;
#X obj 233 123 osc~;
#X obj 217 147 *~;
#X obj 217 80 r~ \$0-amp2;
#X obj 156 54 r~ \$0-frq1;
#X text 273 171 amp mod;
#X text 35 170 freq mod;
#X obj 123 223 osc~;
#X obj 123 248 *~;
#X obj 202 173 sig~ 1;
#X obj 202 203 -~;
#X obj 140 173 +~ 1;
#X obj 124 199 *~;
#X obj 125 33 r~ \$0-ifrq;
#X obj 123 273 outlet~;
#X text 64 7 Bird call - based on Hans Mikelson 2000;
#X obj 234 54 r~ \$0-frq2;
#X connect 0 0 2 1;
#X connect 1 0 2 0;
#X connect 2 0 13 0;
#X connect 3 0 4 1;
#X connect 4 0 12 1;
#X connect 5 0 4 0;
#X connect 6 0 0 0;
#X connect 9 0 10 0;
#X connect 10 0 16 0;
#X connect 11 0 12 0;
#X connect 12 0 10 1;
#X connect 13 0 14 1;
#X connect 14 0 9 0;
#X connect 15 0 14 0;
#X connect 18 0 3 0;
#X restore 123 143 pd hm-bird;
#X obj 105 188 *~ 0.1;
#X obj 12 211 s~ \$0-ifrq;
#X obj 212 208 s~ \$0-frq1;
#X obj 426 205 s~ \$0-amp1;
#X obj 532 202 s~ \$0-amp2;
#X obj 321 208 s~ \$0-frq2;
#X obj 13 189 sig~;
#X obj 213 183 *~ 3000;
#X obj 213 163 *~;
#X obj 236 120 * 900;
#X obj 224 100 * 900;
#X obj 320 181 *~ 3000;
#X obj 320 159 *~;
#X obj 343 116 * 900;
#X obj 331 96 * 900;
#X obj 425 156 *~;
#X obj 448 113 * 900;
#X obj 436 93 * 900;
#X obj 531 153 *~;
#X obj 554 110 * 900;
#X obj 542 90 * 900;
#X obj 128 99 * 900;
#X obj 116 79 * 900;
#X obj 106 167 *~;
#X obj 13 147 * 7000;
#X obj 116 16 r \$0-atk;
#X obj 128 36 r \$0-dcy;
#X obj 231 4 r \$0-fmod1;
#X obj 224 31 r \$0-atkf1;
#X obj 335 9 r \$0-fmod2;
#X obj 331 31 r \$0-atkf2;
#X obj 236 52 r \$0-dcyf1;
#X obj 343 52 r \$0-dcyf2;
#X obj 442 6 r \$0-amod1;
#X obj 436 26 r \$0-atka1;
#X obj 447 47 r \$0-dcya1;
#X obj 548 5 r \$0-amod2;
#X obj 542 27 r \$0-atka2;
#X obj 554 49 r \$0-dcya2;
#X obj 13 17 r \$0-ifrq;
#X obj 531 71 r \$0-trig;
#X obj 425 71 r \$0-trig;
#X obj 320 75 r \$0-trig;
#X obj 213 79 r \$0-trig;
#X obj 105 58 r \$0-trig;
#X obj 13 168 + 300;
#X obj 106 212 outlet~;
#N canvas 65 82 450 300 ead~ 0;
#X obj 44 26 inlet;
#X obj 47 52 bang;
#X obj 43 79 f \$1;
#X obj 107 36 inlet;
#X obj 40 109 t f b f;
#X obj 70 151 delay;
#X obj 145 148 inlet;
#X obj 81 191 f \$2;
#X obj 43 257 line~;
#X msg 35 222 1 \$1;
#X msg 80 229 0 \$1;
#X obj 45 286 outlet~;
#X connect 0 0 1 0;
#X connect 1 0 2 0;
#X connect 2 0 4 0;
#X connect 3 0 2 1;
#X connect 4 0 9 0;
#X connect 4 1 5 0;
#X connect 4 2 5 1;
#X connect 5 0 7 0;
#X connect 6 0 7 1;
#X connect 7 0 10 0;
#X connect 8 0 11 0;
#X connect 9 0 8 0;
#X connect 10 0 8 0;
#X restore 105 122 pd ead~;
#N canvas 65 82 450 300 ead~ 0;
#X obj 44 26 inlet;
#X obj 47 52 bang;
#X obj 43 79 f \$1;
#X obj 107 36 inlet;
#X obj 40 109 t f b f;
#X obj 70 151 delay;
#X obj 145 148 inlet;
#X obj 81 191 f \$2;
#X obj 43 257 line~;
#X msg 35 222 1 \$1;
#X msg 80 229 0 \$1;
#X obj 45 286 outlet~;
#X connect 0 0 1 0;
#X connect 1 0 2 0;
#X connect 2 0 4 0;
#X connect 3 0 2 1;
#X connect 4 0 9 0;
#X connect 4 1 5 0;
#X connect 4 2 5 1;
#X connect 5 0 7 0;
#X connect 6 0 7 1;
#X connect 7 0 10 0;
#X connect 8 0 11 0;
#X connect 9 0 8 0;
#X connect 10 0 8 0;
#X restore 213 143 pd ead~;
#N canvas 65 82 450 300 ead~ 0;
#X obj 44 26 inlet;
#X obj 47 52 bang;
#X obj 43 79 f \$1;
#X obj 107 36 inlet;
#X obj 40 109 t f b f;
#X obj 70 151 delay;
#X obj 145 148 inlet;
#X obj 81 191 f \$2;
#X obj 43 257 line~;
#X msg 35 222 1 \$1;
#X msg 80 229 0 \$1;
#X obj 45 286 outlet~;
#X connect 0 0 1 0;
#X connect 1 0 2 0;
#X connect 2 0 4 0;
#X connect 3 0 2 1;
#X connect 4 0 9 0;
#X connect 4 1 5 0;
#X connect 4 2 5 1;
#X connect 5 0 7 0;
#X connect 6 0 7 1;
#X connect 7 0 10 0;
#X connect 8 0 11 0;
#X connect 9 0 8 0;
#X connect 10 0 8 0;
#X restore 320 139 pd ead~;
#N canvas 65 82 450 300 ead~ 0;
#X obj 44 26 inlet;
#X obj 47 52 bang;
#X obj 43 79 f \$1;
#X obj 107 36 inlet;
#X obj 40 109 t f b f;
#X obj 70 151 delay;
#X obj 145 148 inlet;
#X obj 81 191 f \$2;
#X obj 43 257 line~;
#X msg 35 222 1 \$1;
#X msg 80 229 0 \$1;
#X obj 45 286 outlet~;
#X connect 0 0 1 0;
#X connect 1 0 2 0;
#X connect 2 0 4 0;
#X connect 3 0 2 1;
#X connect 4 0 9 0;
#X connect 4 1 5 0;
#X connect 4 2 5 1;
#X connect 5 0 7 0;
#X connect 6 0 7 1;
#X connect 7 0 10 0;
#X connect 8 0 11 0;
#X connect 9 0 8 0;
#X connect 10 0 8 0;
#X restore 425 136 pd ead~;
#N canvas 65 82 450 300 ead~ 0;
#X obj 44 26 inlet;
#X obj 47 52 bang;
#X obj 43 79 f \$1;
#X obj 107 36 inlet;
#X obj 40 109 t f b f;
#X obj 70 151 delay;
#X obj 145 148 inlet;
#X obj 81 191 f \$2;
#X obj 43 257 line~;
#X msg 35 222 1 \$1;
#X msg 80 229 0 \$1;
#X obj 45 286 outlet~;
#X connect 0 0 1 0;
#X connect 1 0 2 0;
#X connect 2 0 4 0;
#X connect 3 0 2 1;
#X connect 4 0 9 0;
#X connect 4 1 5 0;
#X connect 4 2 5 1;
#X connect 5 0 7 0;
#X connect 6 0 7 1;
#X connect 7 0 10 0;
#X connect 8 0 11 0;
#X connect 9 0 8 0;
#X connect 10 0 8 0;
#X restore 531 133 pd ead~;
#X connect 0 0 24 1;
#X connect 1 0 47 0;
#X connect 7 0 2 0;
#X connect 8 0 3 0;
#X connect 9 0 8 0;
#X connect 10 0 49 2;
#X connect 11 0 49 1;
#X connect 12 0 6 0;
#X connect 13 0 12 0;
#X connect 14 0 50 2;
#X connect 15 0 50 1;
#X connect 16 0 4 0;
#X connect 17 0 51 2;
#X connect 18 0 51 1;
#X connect 19 0 5 0;
#X connect 20 0 52 2;
#X connect 21 0 52 1;
#X connect 22 0 48 2;
#X connect 23 0 48 1;
#X connect 24 0 1 0;
#X connect 25 0 46 0;
#X connect 26 0 23 0;
#X connect 27 0 22 0;
#X connect 28 0 9 1;
#X connect 29 0 11 0;
#X connect 30 0 13 1;
#X connect 31 0 15 0;
#X connect 32 0 10 0;
#X connect 33 0 14 0;
#X connect 34 0 16 1;
#X connect 35 0 18 0;
#X connect 36 0 17 0;
#X connect 37 0 19 1;
#X connect 38 0 21 0;
#X connect 39 0 20 0;
#X connect 40 0 25 0;
#X connect 41 0 52 0;
#X connect 42 0 51 0;
#X connect 43 0 50 0;
#X connect 44 0 49 0;
#X connect 45 0 48 0;
#X connect 46 0 7 0;
#X connect 48 0 24 0;
#X connect 49 0 9 0;
#X connect 50 0 13 0;
#X connect 51 0 16 0;
#X connect 52 0 19 0;
#X restore -6 141 pd birds;
#X symbolatom 281 4 32 0 0 0 name #0-name -, f 32;
#X obj 122 5 hradio 12 1 1 8 \$0-preset empty empty 0 -6 1 8 -262144
-1 -1 0;
#X obj 6 25 cnv 15 50 100 empty empty F 20 12 1 14 -233017 -66577 0
;
#X obj 23 62 vsl 10 50 0 1 0 0 \$0-ifrq \$0-ifrq-r ifrq 0 -8 1 8 -262144
-1 -1 1900 1;
#N canvas 460 88 575 163 presets-handling 0;
#X obj 130 32 bng 15 80 50 0 \$0-savetweet empty empty 0 -6 0 8 -262144
-1 -1;
#N canvas 0 50 672 317 tweet 0;
#X obj 28 275 s \$0-ifrq-r;
#X obj 120 252 s \$0-atk-r;
#X obj 132 272 s \$0-dcy-r;
#X obj 234 248 s \$0-fmod1-r;
#X obj 228 267 s \$0-atkf1-r;
#X obj 240 288 s \$0-dcyf1-r;
#X obj 339 245 s \$0-fmod2-r;
#X obj 335 267 s \$0-atkf2-r;
#X obj 347 288 s \$0-dcyf2-r;
#X obj 446 242 s \$0-amod1-r;
#X obj 439 262 s \$0-atka1-r;
#X obj 451 283 s \$0-dcya1-r;
#X obj 552 241 s \$0-amod2-r;
#X obj 546 263 s \$0-atka2-r;
#X obj 558 285 s \$0-dcya2-r;
#X obj 154 84 inlet;
#X obj 154 108 unpack s f f f f f f f f f f f f f f f;
#X obj 29 252 s \$0-name;
#X connect 15 0 16 0;
#X connect 16 0 17 0;
#X connect 16 1 0 0;
#X connect 16 2 1 0;
#X connect 16 3 2 0;
#X connect 16 4 3 0;
#X connect 16 5 4 0;
#X connect 16 6 5 0;
#X connect 16 7 6 0;
#X connect 16 8 7 0;
#X connect 16 9 8 0;
#X connect 16 10 9 0;
#X connect 16 11 10 0;
#X connect 16 12 11 0;
#X connect 16 13 12 0;
#X connect 16 14 13 0;
#X connect 16 15 14 0;
#X restore 3 88 pd tweet loader;
#N canvas 0 50 797 538 tweet 0;
#X obj 149 299 r \$0-atk;
#X obj 166 319 r \$0-dcy;
#X obj 182 238 r \$0-fmod1;
#X obj 199 257 r \$0-atkf1;
#X obj 232 173 r \$0-fmod2;
#X obj 248 195 r \$0-atkf2;
#X obj 215 278 r \$0-dcyf1;
#X obj 265 216 r \$0-dcyf2;
#X obj 281 111 r \$0-amod1;
#X obj 298 131 r \$0-atka1;
#X obj 314 152 r \$0-dcya1;
#X obj 331 29 r \$0-amod2;
#X obj 347 51 r \$0-atka2;
#X obj 364 73 r \$0-dcya2;
#X obj 133 339 r \$0-ifrq;
#X obj 117 385 pack s f f f f f f f f f f f f f f f;
#X obj 117 123 r \$0-savetweet;
#X msg 117 364 tweet;
#X obj 117 442 outlet;
#X msg 117 414 set \$1 \$2 \$3 \$4 \$5 \$6 \$7 \$8 \$9 \$10 \$11 \$12
\$13 \$14 \$15 \$16;
#X connect 0 0 15 2;
#X connect 1 0 15 3;
#X connect 2 0 15 4;
#X connect 3 0 15 5;
#X connect 4 0 15 7;
#X connect 5 0 15 8;
#X connect 6 0 15 6;
#X connect 7 0 15 9;
#X connect 8 0 15 10;
#X connect 9 0 15 11;
#X connect 10 0 15 12;
#X connect 11 0 15 13;
#X connect 12 0 15 14;
#X connect 13 0 15 15;
#X connect 14 0 15 1;
#X connect 15 0 19 0;
#X connect 16 0 17 0;
#X connect 17 0 15 0;
#X connect 19 0 18 0;
#X restore 130 53 pd tweet saver;
#N canvas 0 50 592 533 tweet 0;
#X msg 23 89 triple-tailed-tree-troubler 0.387755 0.0204082 0.204082
0.367347 0.571429 0.734694 0.918367 1 0.77551 0.571429 0.367347 0.22449
0.0204082 0.183673 0.44898;
#X obj 23 59 select 0 1 2 3 4 5 6 7;
#X obj 23 28 inlet;
#X obj 10 543 s \$0-tweetload;
#X msg 23 145 speckled-throated-spew 0.183673 0.591837 0.387755 0.0104082
0.530612 0.346939 0.244898 0.55102 0.122449 0.387755 1 0.612245 0.346939
0.816327 0.653061;
#X msg 23 200 lesser-spotted-grinchwarbler 0.55102 0.591837 0.387755
0.0716327 0.0204082 0.346939 0.0204082 0.55102 0.122449 0.632653 1
0.612245 0.346939 0.816327 0.653061;
#X msg 23 255 long-toed-mudhopper 0.163265 0.22449 0.183673 0.00306122
0.122449 1 0.0612245 1 0.77551 0.979592 0.204082 0.734694 1 0.142857
0.612245;
#X msg 23 310 yellow-yiffled-yaffle 0.0204082 0.367347 0.183673 0.0612245
0 1 0.285714 0.22449 0.489796 0.367347 0.387755 0.734694 0.204082 0.428571
0.142857;
#X msg 23 368 pointy-beaked-beetlefiend 0.428571 0.204082 0.489796
0.0204082 0.795918 0.591837 0.285714 0.22449 0.489796 0.204082 0.836735
0.734694 0.77551 0.428571 0.142857;
#X msg 22 423 african-boojuboolubala 0.306122 0.959184 0.0408163 1
0 0.591837 0.285714 0.22449 0.489796 0.204082 0.836735 0.734694 0.77551
0.428571 0.142857;
#X msg 21 479 common-muckoink 0.0204082 0.8 0.0816327 0.0204082 0.001
0.99 0.0204082 0.01 1 1 0.142857 0.734694 1 0.0612245 0.530612;
#X connect 0 0 3 0;
#X connect 1 0 0 0;
#X connect 1 1 4 0;
#X connect 1 2 5 0;
#X connect 1 3 6 0;
#X connect 1 4 7 0;
#X connect 1 5 8 0;
#X connect 1 6 9 0;
#X connect 1 7 10 0;
#X connect 2 0 1 0;
#X connect 4 0 3 0;
#X connect 5 0 3 0;
#X connect 6 0 3 0;
#X connect 7 0 3 0;
#X connect 8 0 3 0;
#X connect 9 0 3 0;
#X connect 10 0 3 0;
#X restore 4 41 pd tweet presets;
#X obj 3 64 r \$0-tweetload;
#X obj 4 19 r \$0-preset;
#X msg 130 74 tweet 0.163265 0.22449 0.183673 0.554082 0.653061 1 0.0612245
1 0.77551 0.979592 0.204082 0.734694 1 0.142857 0.612245;
#X connect 2 0 6 0;
#X connect 4 0 1 0;
#X connect 5 0 3 0;
#X restore 49 141 pd presets-handling;
#X obj -6 -17 cnv 15 600 15 empty empty Animals-Birds 0 8 0 12 -1 -4034
0;
#X text 169 140 <- double click;
#X obj -7 212 *~;
#X obj -7 234 dac~;
#X obj 9 193 lop~ 10;
#X obj 9 176 tgl 15 0 empty empty empty 17 7 0 10 -262144 -1 -1 0 1
;
#X connect 20 0 28 0;
#X connect 28 0 29 0;
#X connect 28 0 29 1;
#X connect 30 0 28 1;
#X connect 31 0 30 0;
