#N canvas 0 22 201 114 10;
#X declare -path z_bellratio_abs;
#X obj -31 73 declare -path z_bellratio_abs;
#N canvas 0 0 450 300 (subpatch) 0;
#X obj -171 249 A2-bell-partial;
#X obj 9 17 tgl 15 0 empty empty call 0 -6 0 10 -260818 -1 -1 0 1;
#N canvas 0 22 272 433 ringer 0;
#X obj 23 172 del 12;
#X obj 84 245 f 0;
#X obj 113 244 + 1;
#X msg 23 146 bang;
#X obj 84 290 sel 1;
#X msg 84 312 0;
#X msg 23 194 1;
#X msg 84 219 0;
#X obj 23 219 metro 60;
#X obj 84 266 > 12;
#X obj 23 72 f 0;
#X obj 54 72 + 1;
#X obj 23 121 select 0 4;
#X obj 23 50 metro 300;
#X obj 23 98 mod 15;
#X obj 23 25 inlet;
#X obj 25 403 outlet;
#X text 25 3 ringer;
#X obj 25 330 % 2;
#X obj 25 356 sel 0 1;
#X msg 25 380 860;
#X msg 78 379 865;
#X obj 78 403 outlet;
#X obj 86 16 inlet;
#X connect 0 0 6 0;
#X connect 1 0 2 0;
#X connect 1 0 9 0;
#X connect 1 0 18 0;
#X connect 2 0 1 1;
#X connect 3 0 0 0;
#X connect 3 0 7 0;
#X connect 4 0 5 0;
#X connect 5 0 8 0;
#X connect 6 0 8 0;
#X connect 7 0 1 0;
#X connect 8 0 1 0;
#X connect 9 0 4 0;
#X connect 10 0 11 0;
#X connect 10 0 14 0;
#X connect 11 0 10 1;
#X connect 12 0 3 0;
#X connect 12 1 3 0;
#X connect 13 0 10 0;
#X connect 14 0 12 0;
#X connect 15 0 13 0;
#X connect 18 0 19 0;
#X connect 19 0 20 0;
#X connect 19 1 21 0;
#X connect 20 0 16 0;
#X connect 21 0 22 0;
#X connect 23 0 13 1;
#X restore 9 44 pd ringer;
#X obj -172 200 pack f f f;
#X obj 26 256 A2-bell-partial;
#X obj 25 207 pack f f f;
#X obj 67 72 t b b f f f f f f f f f;
#X obj 235 257 A2-bell-partial;
#X obj 234 208 pack f f f;
#X obj 26 368 *~ 0.33333;
#X msg 234 233 \$1 0.3 \$2 0.2 \$3 0.1 75;
#X obj 232 137 A3-bell-scale 1 11;
#X obj 266 160 A3-bell-scale 1 12;
#X obj 299 181 A3-bell-scale 1 15;
#X obj -172 129 A3-bell-scale 1 1;
#X msg 25 232 \$1 0.3 \$2 0.2 \$3 0.1 150;
#X obj 23 136 A3-bell-scale 1 5;
#X obj 57 159 A3-bell-scale 2 13;
#X obj 90 180 A3-bell-scale 2 15;
#X msg -172 225 \$1 0.05 \$2 0.05 \$3 0.05 600;
#X obj -106 173 A3-bell-scale 6 1;
#X obj -140 152 A3-bell-scale 1 3.3;
#X obj 60 18 nbx 5 14 -1e+037 1e+037 0 0 empty empty speed 0 -8 0 10
-262144 -1 -1 0 256;
#X obj 26 400 outlet~;
#X obj 217 10 loadbang;
#X msg 217 32 300;
#X connect 0 0 9 0;
#X connect 1 0 2 0;
#X connect 2 0 6 0;
#X connect 2 1 6 0;
#X connect 3 0 19 0;
#X connect 4 0 9 0;
#X connect 5 0 15 0;
#X connect 6 2 14 0;
#X connect 6 3 21 0;
#X connect 6 4 20 0;
#X connect 6 5 16 0;
#X connect 6 6 17 0;
#X connect 6 7 18 0;
#X connect 6 8 11 0;
#X connect 6 9 12 0;
#X connect 6 10 13 0;
#X connect 7 0 9 0;
#X connect 8 0 10 0;
#X connect 9 0 23 0;
#X connect 10 0 7 0;
#X connect 11 0 8 0;
#X connect 12 0 8 1;
#X connect 13 0 8 2;
#X connect 14 0 3 0;
#X connect 15 0 4 0;
#X connect 16 0 5 0;
#X connect 17 0 5 1;
#X connect 18 0 5 2;
#X connect 19 0 0 0;
#X connect 20 0 3 2;
#X connect 21 0 3 1;
#X connect 22 0 2 1;
#X connect 24 0 25 0;
#X connect 25 0 22 0;
#X coords 0 1 100 -1 120 40 1 0 0;
#X restore -31 7 graph;
#X obj -31 -8 cnv 15 120 15 empty empty Bells 0 8 0 12 -1 -257985 0
;
#N canvas 0 22 839 439 (subpatch) 0;
#X obj 88 90 change;
#X msg 90 154 set \$1;
#X obj 90 135 tosymbol;
#X msg 135 203 Bus10;
#X obj 94 2 tgl 18 0 empty empty DAC 23 10 0 11 -262144 -1 -1 0 1;
#X obj 250 174 *~;
#X obj 251 210 dac~;
#X obj 23 1 nbx 3 20 0 16 0 0 empty empty Ch -20 10 0 12 -1 -191407
-1 0 256;
#X obj 1 49 inlet~;
#X obj -1 232 throw~ Bus0;
#X obj 89 112 sprintf Ch%d;
#X connect 0 0 10 0;
#X connect 1 0 3 0;
#X connect 1 0 9 0;
#X connect 2 0 1 0;
#X connect 4 0 5 1;
#X connect 5 0 6 0;
#X connect 5 0 6 1;
#X connect 7 0 0 0;
#X connect 8 0 5 0;
#X connect 8 0 9 0;
#X connect 10 0 2 0;
#X coords 0 1 100 -1 140 22 1 0 0;
#X restore -31 47 graph;
#X connect 1 0 3 0;
