#N canvas 260 180 865 534 10;
#N canvas 0 50 450 300 (subpatch) 0;
#X obj 317 477 *~ 0.9;
#X obj 318 500 clip~ -0.9 0.9;
#N canvas 441 148 370 212 envelopes 0;
#X obj 11 -1 inlet;
#X obj 13 167 outlet;
#X obj 72 164 outlet;
#X obj 136 163 outlet;
#X obj 188 163 outlet;
#X obj 239 163 outlet;
#X text 98 10 envelope ratios;
#X obj 26 80 inlet;
#X obj 13 116 *;
#X obj 67 79 inlet;
#X obj 72 116 *;
#X obj 111 79 inlet;
#X obj 136 114 *;
#X obj 166 77 inlet;
#X obj 235 75 inlet;
#X obj 188 113 *;
#X obj 239 113 *;
#X connect 0 0 8 0;
#X connect 0 0 10 0;
#X connect 0 0 12 0;
#X connect 0 0 15 0;
#X connect 0 0 16 0;
#X connect 7 0 8 1;
#X connect 8 0 1 0;
#X connect 9 0 10 1;
#X connect 10 0 2 0;
#X connect 11 0 12 1;
#X connect 12 0 3 0;
#X connect 13 0 15 1;
#X connect 14 0 16 1;
#X connect 15 0 4 0;
#X connect 16 0 5 0;
#X restore 767 152 pd envelopes;
#N canvas 182 167 426 336 part_fund+sub 0;
#X obj 147 87 osc~;
#X obj 46 91 osc~;
#X text 6 112 suboctave hum;
#X text 129 105 fundamental;
#X obj 197 258 *~;
#X obj 214 179 line~;
#X msg 216 136 1 \, 0 \$1;
#X obj 218 106 inlet;
#X obj 198 289 outlet~;
#X obj 93 10 r \$0-fundamental1;
#X obj 174 149 inlet;
#X obj 46 65 * 0.5001;
#X obj 96 133 inlet;
#X obj 71 172 *~;
#X obj 148 176 *~;
#X connect 0 0 14 0;
#X connect 1 0 13 0;
#X connect 4 0 8 0;
#X connect 5 0 4 1;
#X connect 6 0 5 0;
#X connect 7 0 6 0;
#X connect 9 0 0 0;
#X connect 9 0 11 0;
#X connect 10 0 14 1;
#X connect 11 0 1 0;
#X connect 12 0 13 1;
#X connect 13 0 4 0;
#X connect 14 0 4 0;
#X restore 9 400 pd part_fund+sub;
#N canvas 0 50 351 489 part 0;
#X obj 21 163 osc~;
#X obj 154 165 osc~;
#X obj 79 169 osc~;
#X text 147 192 Nominal;
#X obj 80 140 * 4.8;
#X text 82 192 "Quint";
#X obj 154 140 * 1.5;
#X obj 160 368 *~;
#X obj 226 277 line~;
#X obj 146 268 *~ 0.1;
#X obj 21 140 * 2.002;
#X obj 133 97 * 2;
#X text 8 194 Octave;
#X msg 228 234 1 \, 0 \$1;
#X obj 246 38 inlet;
#X obj 160 396 outlet~;
#X text 79 11 primary overtones;
#X obj 65 38 r \$0-fundamental1;
#X obj 95 333 *~ 0.04;
#X obj 30 232 inlet;
#X obj 22 268 *~;
#X obj 72 265 *~;
#X obj 87 232 inlet;
#X obj 177 232 inlet;
#X connect 0 0 20 0;
#X connect 1 0 9 0;
#X connect 2 0 21 0;
#X connect 4 0 2 0;
#X connect 6 0 1 0;
#X connect 7 0 15 0;
#X connect 8 0 7 1;
#X connect 9 0 18 0;
#X connect 10 0 0 0;
#X connect 11 0 4 0;
#X connect 11 0 6 0;
#X connect 13 0 8 0;
#X connect 14 0 13 0;
#X connect 17 0 10 0;
#X connect 17 0 11 0;
#X connect 18 0 7 0;
#X connect 19 0 20 1;
#X connect 20 0 18 0;
#X connect 21 0 18 0;
#X connect 22 0 21 1;
#X connect 23 0 9 1;
#X restore 125 399 pd part primaries;
#N canvas 0 50 309 403 secondaries 0;
#X obj 80 104 osc~;
#X text 19 142 12th overtone;
#X obj 80 79 * 11;
#X obj 151 110 osc~;
#X obj 151 85 * 1.714;
#X text 149 142 12/7;
#X obj 13 105 osc~;
#X obj 13 80 * 1.6666;
#X obj 109 314 *~;
#X obj 173 223 line~;
#X obj 173 255 *~;
#X msg 173 196 1 \, 0 \$1;
#X obj 99 53 * 1.5;
#X obj 172 280 *~;
#X text 203 262 cubic;
#X obj 238 18 inlet;
#X obj 109 347 outlet~;
#X obj 80 19 r \$0-fundamental1;
#X obj 72 254 *~ 0.2;
#X obj 23 210 *~;
#X obj 30 173 inlet;
#X obj 72 210 *~;
#X obj 86 177 inlet;
#X obj 140 171 inlet;
#X obj 118 209 *~;
#X connect 0 0 21 0;
#X connect 2 0 0 0;
#X connect 3 0 24 0;
#X connect 4 0 3 0;
#X connect 6 0 19 0;
#X connect 7 0 6 0;
#X connect 8 0 16 0;
#X connect 9 0 10 1;
#X connect 9 0 10 0;
#X connect 10 0 13 0;
#X connect 10 0 13 1;
#X connect 11 0 9 0;
#X connect 12 0 4 0;
#X connect 12 0 7 0;
#X connect 13 0 8 1;
#X connect 15 0 11 0;
#X connect 17 0 2 0;
#X connect 17 0 12 0;
#X connect 18 0 8 0;
#X connect 19 0 18 0;
#X connect 20 0 19 1;
#X connect 21 0 18 0;
#X connect 22 0 21 1;
#X connect 23 0 24 1;
#X connect 24 0 18 0;
#X restore 284 401 pd secondaries;
#N canvas 0 50 417 444 circulars 0;
#X obj 145 106 osc~;
#X obj 40 103 osc~;
#X text 109 140 1st circular;
#X text 1 139 60 degree mode;
#X obj 40 80 * 3;
#X obj 145 82 * 6.242;
#X text 25 155 "Tierce";
#X obj 218 105 osc~;
#X obj 218 81 * 12.483;
#X text 220 142 2nd circular;
#X obj 162 325 *~;
#X obj 228 234 line~;
#X obj 227 263 *~;
#X text 262 267 square;
#X msg 228 209 1 \, 0 \$1;
#X obj 313 16 inlet;
#X obj 161 362 outlet~;
#X obj 34 19 r \$0-fundamental1;
#X obj 115 277 *~ 0.05;
#X obj 20 212 *~;
#X obj 34 181 inlet;
#X obj 87 212 *~;
#X obj 101 181 inlet;
#X obj 160 217 *~;
#X obj 174 186 inlet;
#X connect 0 0 21 0;
#X connect 1 0 19 0;
#X connect 4 0 1 0;
#X connect 5 0 0 0;
#X connect 7 0 23 0;
#X connect 8 0 7 0;
#X connect 10 0 16 0;
#X connect 11 0 12 1;
#X connect 11 0 12 0;
#X connect 12 0 10 1;
#X connect 14 0 11 0;
#X connect 15 0 14 0;
#X connect 17 0 4 0;
#X connect 17 0 5 0;
#X connect 17 0 8 0;
#X connect 18 0 10 0;
#X connect 19 0 18 0;
#X connect 20 0 19 1;
#X connect 21 0 18 0;
#X connect 22 0 21 1;
#X connect 23 0 18 0;
#X connect 24 0 23 1;
#X restore 441 399 pd circulars;
#N canvas 0 50 373 452 strike 0;
#X obj 67 129 osc~;
#X obj 67 105 * 16;
#X obj 108 129 osc~;
#X obj 108 105 * 24;
#X text 92 72 strikes;
#X obj 144 129 noise~;
#X obj 140 347 *~;
#X obj 205 264 line~;
#X obj 204 288 *~;
#X obj 204 312 *~;
#X text 244 304 cubic;
#X msg 205 242 1 \, 0 \$1;
#X obj 228 25 inlet;
#X obj 140 375 outlet~;
#X obj 77 23 r \$0-fundamental1;
#X obj 107 284 *~;
#X obj 131 243 inlet;
#X connect 0 0 15 0;
#X connect 1 0 0 0;
#X connect 2 0 15 0;
#X connect 3 0 2 0;
#X connect 5 0 15 0;
#X connect 6 0 13 0;
#X connect 7 0 8 1;
#X connect 7 0 8 0;
#X connect 8 0 9 0;
#X connect 8 0 9 1;
#X connect 9 0 6 1;
#X connect 11 0 7 0;
#X connect 12 0 11 0;
#X connect 14 0 1 0;
#X connect 14 0 3 0;
#X connect 15 0 6 0;
#X connect 16 0 15 1;
#X restore 611 402 pd strike;
#N canvas 0 50 520 343 bodyresonance 0;
#X obj 261 165 delwrite~ \$0-body 400;
#X obj 96 50 clip~ -0.2 0.5;
#X obj 10 87 bp~ 1243 12;
#X obj 95 87 bp~ 287 12;
#X obj 179 87 bp~ 431 12;
#X obj 95 30 delread~ \$0-body 59;
#X obj 58 160 *~ 4;
#X obj 57 191 outlet~;
#X obj 250 29 inlet~;
#X text 91 6 body resonance;
#X obj 103 132 *~;
#X obj 187 126 inlet~;
#X connect 1 0 2 0;
#X connect 1 0 3 0;
#X connect 1 0 4 0;
#X connect 2 0 10 0;
#X connect 3 0 10 0;
#X connect 4 0 10 0;
#X connect 5 0 1 0;
#X connect 6 0 7 0;
#X connect 8 0 0 0;
#X connect 10 0 0 0;
#X connect 10 0 6 0;
#X connect 11 0 10 1;
#X restore 676 403 pd bodyresonance;
#X obj 319 521 hip~ 10;
#X obj 184 165 s \$0-fundamental1;
#X obj 17 90 nbx 5 14 -1e+37 1e+37 0 0 empty empty empty 0 -6 0 10
-262144 -1 -1 0 256;
#X obj 20 74 hsl 128 15 20 20000 0 0 empty empty Fundamental_frq -2
-6 1 12 -262144 -1 -1 0 1;
#X obj 17 137 nbx 5 14 -1e+37 1e+37 0 0 empty empty empty 0 -6 0 10
-262144 -1 -1 0 256;
#X obj 20 121 hsl 128 15 0 5000 0 0 empty empty Damping -2 -6 1 12
-262144 -1 -1 0 1;
#X obj 18 15 bng 40 250 50 0 empty empty Hit_me 0 -6 1 12 -131089 -1
-1;
#X obj 62 378 nbx 5 14 -1e+37 1e+37 0 0 empty empty empty 0 -6 0 10
-151949 -1 -1 0 256;
#X obj 70 245 vsl 15 128 0 1 0 0 empty empty Fund 0 -8 1 10 -151949
-1 -1 0 1;
#X obj 121 379 nbx 5 14 -1e+37 1e+37 0 0 empty empty empty 0 -6 0 10
-169995 -1 -1 0 256;
#X obj 132 245 vsl 15 128 0 1 0 0 empty empty Octave 0 -8 1 10 -169995
-1 -1 0 1;
#X obj 289 380 nbx 5 14 -1e+37 1e+37 0 0 empty empty empty 0 -6 0 10
-162892 -1 -1 0 256;
#X obj 296 245 vsl 15 128 0 1 0 0 empty empty 12th 0 -8 1 10 -162892
-1 -1 0 1;
#X obj 461 381 nbx 5 14 -1e+37 1e+37 0 0 empty empty empty 0 -6 1 10
-96974 -1 -1 0 256;
#X obj 461 247 vsl 15 128 0 1 0 0 empty empty Tierce 0 -8 1 10 -96974
-1 -1 0 1;
#X obj 627 382 nbx 5 14 -1e+37 1e+37 0 0 empty empty empty 0 -6 0 10
-2191 -1 -1 0 256;
#X obj 627 249 vsl 15 128 0 1 0 0 empty empty Strikes 0 -8 1 10 -2191
-1 -1 0 1;
#X obj 686 383 nbx 5 14 -1e+37 1e+37 0 0 empty empty empty 0 -6 0 10
-2338 -1 -1 0 256;
#X obj 686 250 vsl 15 128 0 0.8 0 0 empty empty BodyRes 0 -8 1 10 -2338
-1 -1 0 1;
#X obj 6 378 nbx 5 14 -1e+37 1e+37 0 0 empty empty empty 0 -6 0 10
-151949 -1 -1 0 256;
#X obj 15 245 vsl 15 128 0 1 0 0 empty empty SubO 0 -8 1 10 -151949
-1 -1 0 1;
#X obj 176 379 nbx 5 14 -1e+37 1e+37 0 0 empty empty empty 0 -6 0 10
-169995 -1 -1 0 256;
#X obj 186 245 vsl 15 128 0 1 0 0 empty empty Quint 0 -8 1 10 -169995
-1 -1 0 1;
#X obj 230 379 nbx 5 14 -1e+37 1e+37 0 0 empty empty empty 0 -6 0 10
-169995 -1 -1 0 256;
#X obj 239 245 vsl 15 128 0 1 0 0 empty empty Nominal 0 -8 1 10 -169995
-1 -1 0 1;
#X obj 345 380 nbx 5 14 -1e+37 1e+37 0 0 empty empty empty 0 -6 0 10
-162892 -1 -1 0 256;
#X obj 344 247 vsl 15 128 0 1 0 0 empty empty Overtone 0 -8 1 10 -162892
-1 -1 0 1;
#X obj 401 380 nbx 5 14 -1e+37 1e+37 0 0 empty empty empty 0 -6 0 10
-162892 -1 -1 0 256;
#X obj 401 246 vsl 15 128 0 1 0 0 empty empty 12/7 0 -8 1 10 -162892
-1 -1 0 1;
#X obj 512 381 nbx 5 14 -1e+37 1e+37 0 0 empty empty empty 0 -6 0 10
-96974 -1 -1 0 256;
#X obj 512 247 vsl 15 128 0 1 0 0 empty empty FirstC 0 -8 1 10 -96974
-1 -1 0 1;
#X obj 569 381 nbx 5 14 -1e+37 1e+37 0 0 empty empty empty 0 -6 0 10
-96974 -1 -1 0 256;
#X obj 569 247 vsl 15 128 0 1 0 0 empty empty Second_C 0 -8 1 10 -96974
-1 -1 0 1;
#X obj 271 16 vsl 15 128 0 2 0 0 empty empty Fund+Sub 0 -8 1 10 -1
-262144 -1 0 1;
#X obj 271 152 nbx 5 14 -1e+37 1e+37 0 0 empty empty empty 0 -6 0 10
-1 -262144 -1 0 256;
#X obj 339 16 vsl 15 128 0 2 0 0 empty empty Primaries 0 -8 1 10 -1
-262144 -1 0 1;
#X obj 340 152 nbx 5 14 -1e+37 1e+37 0 0 empty empty empty 0 -6 0 10
-1 -262144 -1 0 256;
#X obj 404 17 vsl 15 128 0 3 0 0 empty empty Secondaries 0 -8 1 10
-1 -262144 -1 0 1;
#X obj 405 152 nbx 5 14 -1e+37 1e+37 0 0 empty empty empty 0 -6 0 10
-1 -262144 -1 0 256;
#X obj 478 17 vsl 15 128 0 10 0 0 empty empty Circulars 0 -8 1 10 -1
-262144 -1 0 1;
#X obj 479 152 nbx 5 14 -1e+37 1e+37 0 0 empty empty empty 0 -6 0 10
-1 -262144 -1 0 256;
#X obj 547 17 vsl 15 128 0 2 0 0 empty empty Strike 0 -8 1 10 -1 -262144
-1 0 1;
#X obj 548 152 nbx 5 14 -1e+37 1e+37 0 0 empty empty empty 0 -6 0 10
-1 -262144 -1 0 256;
#X obj 302 172 s \$0-Fund+Sub;
#X obj 357 191 s \$0-Primaries;
#X obj 413 210 s \$0-Secondaries;
#X obj 472 191 s \$0-Cirdulars;
#X obj 528 173 s \$0-Strike;
#X obj 8 442 s \$0-Suboctave;
#X obj 14 421 s \$0-Fundamental;
#X obj 207 420 s \$0-Nominal;
#X obj 184 438 s \$0-Quint;
#X obj 124 420 s \$0-Octave;
#X obj 341 442 s \$0-12th;
#X obj 303 443 s \$0-Overtone;
#X obj 352 423 s \$0-12/7;
#X obj 440 420 s \$0-Tierce;
#X obj 490 440 s \$0-FirstC;
#X obj 522 420 s \$0-SecondC;
#X obj 601 424 s \$0-Strikes;
#X obj 677 427 s \$0-Body;
#X obj 300 -15 r \$0-Fund+Sub;
#X obj 338 -13 r \$0-Primaries;
#X obj 413 -52 r \$0-Secondaries;
#X obj 472 -34 r \$0-Cirdulars;
#X obj 528 -16 r \$0-Strike;
#X obj 17 215 r \$0-Fundamental;
#X obj 8 183 r \$0-Suboctave;
#X obj 201 207 r \$0-Nominal;
#X obj 180 188 r \$0-Quint;
#X obj 131 200 r \$0-Octave;
#X obj 282 210 r \$0-12th;
#X obj 331 189 r \$0-Overtone;
#X obj 376 208 r \$0-12/7;
#X obj 436 192 r \$0-Tierce;
#X obj 474 188 r \$0-FirstC;
#X obj 520 209 r \$0-SecondC;
#X obj 676 212 r \$0-Body;
#X obj 610 210 r \$0-Srikes;
#X text 369 176 Enveloppe ratios;
#X text 372 -19 Enveloppe Ratios;
#X text 128 395 Primaries Harmonics;
#X text 295 398 Secondaries Harmonics;
#X text 474 397 Circular Harmonics;
#X text 619 400 Excitation;
#X text 683 402 Resonance;
#X obj 21 66 r freq;
#X obj 687 22 stripnote;
#X obj 704 62 mtof;
#X obj 701 85 * 3;
#X floatatom 1069 -54 5 0 0 0 - - -, f 5;
#X floatatom 1128 -54 5 0 0 0 - - -, f 5;
#X obj 332 537 outlet~;
#X obj 737 -132 inlet;
#X obj 801 -135 inlet;
#X obj 856 -136 inlet;
#X obj 910 -136 inlet;
#X obj 962 -138 inlet;
#X obj 658 -184 inlet;
#X obj 687 -161 inlet;
#X obj 1059 -79 inlet;
#X obj 1118 -79 inlet;
#X text -8 199 comment;
#X text 1 396 Fundamental+Sub;
#N canvas 378 175 646 185 preset 0;
#N canvas 0 284 1168 367 catcher 0;
#X obj 89 298 outlet;
#X obj -43 14 inlet set;
#X obj 37 16 r \$0-Fund+Sub;
#X obj 44 38 r \$0-Primaries;
#X obj 48 60 r \$0-Secondaries;
#X obj 47 104 r \$0-Strike;
#X obj 62 128 r \$0-Suboctave;
#X obj 187 14 r \$0-Fundamental;
#X obj 201 36 r \$0-Octave;
#X obj 213 58 r \$0-Quint;
#X obj 222 78 r \$0-Nominal;
#X obj 239 99 r \$0-12th;
#X obj 246 120 r \$0-Overtone;
#X obj 255 141 r \$0-12/7;
#X obj 373 11 r \$0-Tierce;
#X obj 377 33 r \$0-FirstC;
#X obj 386 55 r \$0-SecondC;
#X obj 398 79 r \$0-Strikes;
#X obj 547 10 r \$0-Body;
#X obj 88 266 pack s f f f f f f f f f f f f f f f f f f;
#X obj 53 81 r \$0-Circulars;
#X connect 1 0 19 0;
#X connect 2 0 19 1;
#X connect 3 0 19 2;
#X connect 4 0 19 3;
#X connect 5 0 19 5;
#X connect 6 0 19 6;
#X connect 7 0 19 7;
#X connect 8 0 19 8;
#X connect 9 0 19 9;
#X connect 10 0 19 10;
#X connect 11 0 19 11;
#X connect 12 0 19 12;
#X connect 13 0 19 13;
#X connect 14 0 19 14;
#X connect 15 0 19 15;
#X connect 16 0 19 16;
#X connect 17 0 19 17;
#X connect 18 0 19 18;
#X connect 19 0 0 0;
#X connect 20 0 19 4;
#X restore 18 37 pd catcher;
#X obj 18 -2 bng 15 250 50 0 empty empty empty 0 -6 0 8 -262144 -1
-1;
#N canvas 22 50 883 772 sender 0;
#X obj -35 704 s \$0-patchname;
#X obj -59 263 symbol;
#X obj 93 15 inlet;
#X obj 54 287 s \$0-Fund+Sub;
#X obj 62 309 s \$0-Primaries;
#X obj 65 331 s \$0-Secondaries;
#X obj 70 352 s \$0-Circulars;
#X obj 79 399 s \$0-Suboctave;
#X obj 204 285 s \$0-Fundamental;
#X obj 218 307 s \$0-Octave;
#X obj 230 329 s \$0-Quint;
#X obj 239 349 s \$0-Nominal;
#X obj 256 370 s \$0-12th;
#X obj 263 391 s \$0-Overtone;
#X obj 272 412 s \$0-12/7;
#X obj 390 282 s \$0-Tierce;
#X obj 394 304 s \$0-FirstC;
#X obj 403 326 s \$0-SecondC;
#X obj 414 350 s \$0-Strikes;
#X obj 78 196 unpack s f f f f f f f f f f f f f f f f f f;
#X obj 564 281 s \$0-Body;
#X obj 73 374 s \$0-Strike;
#X connect 1 0 0 0;
#X connect 2 0 19 0;
#X connect 19 0 1 0;
#X connect 19 1 3 0;
#X connect 19 2 4 0;
#X connect 19 3 5 0;
#X connect 19 4 6 0;
#X connect 19 5 21 0;
#X connect 19 6 7 0;
#X connect 19 7 8 0;
#X connect 19 8 9 0;
#X connect 19 9 10 0;
#X connect 19 10 11 0;
#X connect 19 11 12 0;
#X connect 19 12 13 0;
#X connect 19 13 14 0;
#X connect 19 14 15 0;
#X connect 19 15 16 0;
#X connect 19 16 17 0;
#X connect 19 17 18 0;
#X connect 19 18 20 0;
#X restore 461 60 pd sender;
#N canvas 548 308 450 368 presets 0;
#X obj 106 -472 inlet;
#X obj 107 -438 select 0 1 2 3 4 5 6 7 8 9 10 11 12 13 14 15 16;
#X obj 57 -225 outlet;
#X msg 141 -323 contraption 0.141414 0.262626 0.848485 0.575758 46
0.858586 0.444444 0.919192 0.383838 0.919192 0.353535 0.333333 1 0.20202
0 0 0.949495 0.969697 0.949495 0.707071 0.646465 0.858586;
#X msg 157 -262 beltdrive 0.040404 0.262626 0.848485 0.575758 46 0.858586
0.212121 0.525253 0.232323 0.454545 0.575758 0.333333 1 0.323232 0
0.737374 0.707071 0.969697 0.949495 0.707071 0.646465 0;
#X msg 176 -199 steelwheel 0.878788 0.474747 0.525253 0.575758 46 0.262626
0.656566 0.949495 0.969697 0.959596 1 0.191919 1 1 0 0 0.0808081 1
0.0808081 0.606061 0.616162 1;
#X msg 193 -150 ventilation 0.575758 0 0.525253 0.606061 46 0.131313
0 0.171717 1 0.818182 1 0.050505 1 0.494949 0 0 0.0707071 0.030303
0.767677 0.373737 0.161616 1;
#X msg 209 -96 topsecret 0.40404 0.666667 0.525253 0.606061 46 0.666667
1 0.636364 0.030303 1 1 0.050505 1 0 0 0 0 0.343434 0.929293 0.0606061
0.161616 0.313131;
#X msg 210 3 conveyer 0.020202 0.575758 0.030303 0 0.131313 1 0.878788
0.838384 0.050505 0.040404 0.909091 0.050505 1 0.111111 0 0 0.343434
0.10101 0.929293 0.0606061 0.161616 0.585859;
#X msg 223 -46 highenergy 0.707071 0.69697 0.484848 0.30303 0.232323
0.262626 0.515152 1 1 1 0.646465 0.0707071 1 0 0 0 0 1 0.0707071 0
0 0.30303;
#X msg 89 -386 Bell1 1.2 0.9 0.5 0.14 0.11 0.1 1 0.2 0.5 0.1 0.1 0.2
0.1 0.1 1 1 0.04 0.4;
#X msg 145 50 clavinet 2 0.355 0.384 0 0.629 0.131 1 0.834 0.834 0.488
0 1 0 0 0.677 0 0.314 0.275 0;
#X connect 0 0 1 0;
#X connect 1 0 10 0;
#X connect 1 1 3 0;
#X connect 1 2 4 0;
#X connect 1 3 5 0;
#X connect 1 4 6 0;
#X connect 1 5 7 0;
#X connect 1 6 8 0;
#X connect 1 7 9 0;
#X connect 1 8 11 0;
#X connect 3 0 2 0;
#X connect 4 0 2 0;
#X connect 5 0 2 0;
#X connect 6 0 2 0;
#X connect 7 0 2 0;
#X connect 8 0 2 0;
#X connect 9 0 2 0;
#X connect 10 0 2 0;
#X connect 11 0 2 0;
#X restore 460 39 pd presets;
#X obj 460 17 r \$0-patchselect;
#X symbolatom 18 17 20 0 0 0 - - -, f 20;
#X msg 17 95 symbol 1.2 0.9 0.5 0.14 0.11 0.1 1 0.2 0.5 0.1 0.1 0.2
0.1 0.1 1 1 0.04 0.4 0 0 0 0;
#X msg 18 60 set \$1 \$2 \$3 \$4 \$5 \$6 \$7 \$8 \$9 \$10 \$11 \$12
\$13 \$14 \$15 \$16 \$17 \$18 \$19 \$20 \$21 \$22 \$23;
#X connect 0 0 7 0;
#X connect 1 0 5 0;
#X connect 3 0 2 0;
#X connect 4 0 3 0;
#X connect 5 0 0 0;
#X connect 6 0 2 0;
#X connect 7 0 6 0;
#X restore 78 59 pd preset memory;
#X symbolatom 78 39 20 0 0 0 - #0-patchname -, f 20;
#X obj 78 21 nbx 5 14 0 7 0 0 \$0-patchselect empty patch 0 -6 1 8
-262144 -1 -1 0 256;
#N canvas 0 50 897 523 radomMelody 0;
#X text 579 119 comment;
#X obj 795 138 bng 15 250 50 0 empty empty empty 0 -6 0 8 -262144 -1
-1;
#X floatatom 795 162 5 0 0 0 - - -, f 5;
#X obj 792 194 s freq;
#X obj 714 138 bng 15 250 50 0 empty empty empty 0 -6 0 8 -262144 -1
-1;
#X floatatom 714 162 5 0 0 0 - - -, f 5;
#X obj 711 194 s freq;
#X obj 646 143 bng 15 250 50 0 empty empty empty 0 -6 0 8 -262144 -1
-1;
#X floatatom 646 167 5 0 0 0 - - -, f 5;
#X obj 643 199 s freq;
#X obj 574 144 bng 15 250 50 0 empty empty empty 0 -6 0 8 -262144 -1
-1;
#X floatatom 574 168 5 0 0 0 - - -, f 5;
#X obj 571 200 s freq;
#X obj 498 138 bng 15 250 50 0 empty empty empty 0 -6 0 8 -262144 -1
-1;
#X floatatom 498 162 5 0 0 0 - - -, f 5;
#X obj 495 194 s freq;
#X obj 419 138 bng 15 250 50 0 empty empty empty 0 -6 0 8 -262144 -1
-1;
#X floatatom 419 162 5 0 0 0 - - -, f 5;
#X obj 416 194 s freq;
#X obj 419 116 r S1;
#X obj 498 116 r S2;
#X obj 574 121 r S3;
#X obj 646 121 r S4;
#X obj 714 116 r S5;
#X obj 795 116 r S6;
#X obj 75 239 bng 15 250 50 0 empty empty empty 20 8 0 8 -262144 -1
-1;
#X obj 72 324 bng 15 250 50 0 empty empty empty 20 8 0 8 -262144 -1
-1;
#X obj 101 324 bng 15 250 50 0 empty empty empty 20 8 0 8 -262144 -1
-1;
#X obj 130 325 bng 15 250 50 0 empty empty empty 20 8 0 8 -262144 -1
-1;
#X msg 72 346 1;
#X msg 101 346 2;
#X msg 130 346 3;
#X obj 72 374 s state;
#X obj 76 163 bng 20 250 50 0 empty empty empty 20 8 0 8 -262144 -1
-1;
#X obj 118 160 r state;
#X obj 190 241 bng 15 250 50 0 empty empty empty 20 8 0 8 -262144 -1
-1;
#X obj 187 325 bng 15 250 50 0 empty empty empty 20 8 0 8 -262144 -1
-1;
#X obj 220 326 bng 15 250 50 0 empty empty empty 20 8 0 8 -262144 -1
-1;
#X obj 250 326 bng 15 250 50 0 empty empty empty 20 8 0 8 -262144 -1
-1;
#X msg 187 346 1;
#X msg 220 346 2;
#X msg 250 347 3;
#X obj 186 376 s state;
#X msg 227 174 \; state 1;
#X obj 75 258 random 100;
#X obj 75 280 moses 30;
#X obj 132 280 moses 60;
#X obj 190 259 random 100;
#X obj 190 280 moses 10;
#X obj 246 280 moses 60;
#X floatatom 131 184 3 0 0 0 - - -, f 3;
#X text 227 154 reset;
#X obj 74 213 sel 1 2;
#X obj 74 187 f -1;
#X obj 173 73 random 100;
#X msg 173 119 bang;
#X obj 75 -16 f 0;
#X obj 106 -16 + 1;
#X obj 75 9 mod 200;
#X obj 75 36 sel 29 37 47 67 89 113 157 197;
#X obj 75 -65 tgl 15 0 empty empty empty 0 -6 0 8 -262144 -1 -1 0 1
;
#X obj 252 73 hsl 128 15 0 100 0 0 empty empty amount -2 -6 0 8 -258699
-1 -1 0 1;
#X text 70 141 Chaine de Markov;
#X obj 173 96 moses;
#X obj 76 -42 metro 15;
#X text 77 -89 Random Melody;
#X connect 1 0 2 0;
#X connect 2 0 3 0;
#X connect 4 0 5 0;
#X connect 5 0 6 0;
#X connect 7 0 8 0;
#X connect 8 0 9 0;
#X connect 10 0 11 0;
#X connect 11 0 12 0;
#X connect 13 0 14 0;
#X connect 14 0 15 0;
#X connect 16 0 17 0;
#X connect 17 0 18 0;
#X connect 19 0 16 0;
#X connect 20 0 13 0;
#X connect 21 0 10 0;
#X connect 22 0 7 0;
#X connect 23 0 4 0;
#X connect 24 0 1 0;
#X connect 25 0 44 0;
#X connect 26 0 29 0;
#X connect 26 0 16 0;
#X connect 27 0 30 0;
#X connect 27 0 13 0;
#X connect 28 0 31 0;
#X connect 28 0 10 0;
#X connect 29 0 32 0;
#X connect 30 0 32 0;
#X connect 31 0 32 0;
#X connect 33 0 53 0;
#X connect 34 0 50 0;
#X connect 34 0 53 1;
#X connect 35 0 47 0;
#X connect 36 0 39 0;
#X connect 36 0 7 0;
#X connect 37 0 40 0;
#X connect 37 0 4 0;
#X connect 38 0 41 0;
#X connect 38 0 1 0;
#X connect 39 0 42 0;
#X connect 40 0 42 0;
#X connect 41 0 42 0;
#X connect 44 0 45 0;
#X connect 45 0 26 0;
#X connect 45 1 46 0;
#X connect 46 0 27 0;
#X connect 46 1 28 0;
#X connect 47 0 48 0;
#X connect 48 0 36 0;
#X connect 48 1 49 0;
#X connect 49 0 37 0;
#X connect 49 1 38 0;
#X connect 52 0 25 0;
#X connect 52 1 25 0;
#X connect 52 2 35 0;
#X connect 53 0 52 0;
#X connect 54 0 63 0;
#X connect 55 0 33 0;
#X connect 56 0 57 0;
#X connect 56 0 58 0;
#X connect 57 0 56 1;
#X connect 58 0 59 0;
#X connect 59 0 54 0;
#X connect 59 1 54 0;
#X connect 59 2 54 0;
#X connect 59 3 54 0;
#X connect 59 4 54 0;
#X connect 59 5 54 0;
#X connect 59 6 54 0;
#X connect 59 7 54 0;
#X connect 60 0 64 0;
#X connect 61 0 63 1;
#X connect 63 0 55 0;
#X connect 64 0 56 0;
#X restore 79 80 pd radomMelody;
#X obj 1136 -20 / 1;
#X obj 1077 -20 * 1;
#X connect 0 0 1 0;
#X connect 1 0 9 0;
#X connect 2 0 3 2;
#X connect 2 1 4 3;
#X connect 2 2 5 3;
#X connect 2 3 6 3;
#X connect 2 4 7 1;
#X connect 3 0 0 0;
#X connect 4 0 0 0;
#X connect 5 0 0 0;
#X connect 6 0 0 0;
#X connect 7 0 8 1;
#X connect 7 0 0 0;
#X connect 8 0 1 0;
#X connect 9 0 101 0;
#X connect 11 0 10 0;
#X connect 12 0 11 0;
#X connect 13 0 2 0;
#X connect 14 0 13 0;
#X connect 15 0 2 0;
#X connect 16 0 3 1;
#X connect 16 0 58 0;
#X connect 17 0 16 0;
#X connect 18 0 4 0;
#X connect 18 0 61 0;
#X connect 19 0 18 0;
#X connect 20 0 5 0;
#X connect 20 0 62 0;
#X connect 21 0 20 0;
#X connect 22 0 6 0;
#X connect 22 0 65 0;
#X connect 23 0 22 0;
#X connect 24 0 7 0;
#X connect 24 0 68 0;
#X connect 25 0 24 0;
#X connect 26 0 8 0;
#X connect 26 0 69 0;
#X connect 27 0 26 0;
#X connect 28 0 3 0;
#X connect 28 0 57 0;
#X connect 29 0 28 0;
#X connect 30 0 4 1;
#X connect 30 0 60 0;
#X connect 31 0 30 0;
#X connect 32 0 4 2;
#X connect 32 0 59 0;
#X connect 33 0 32 0;
#X connect 34 0 5 1;
#X connect 34 0 63 0;
#X connect 35 0 34 0;
#X connect 36 0 5 2;
#X connect 36 0 64 0;
#X connect 37 0 36 0;
#X connect 38 0 6 1;
#X connect 38 0 66 0;
#X connect 39 0 38 0;
#X connect 40 0 6 2;
#X connect 40 0 67 0;
#X connect 41 0 40 0;
#X connect 42 0 43 0;
#X connect 43 0 2 1;
#X connect 43 0 52 0;
#X connect 44 0 45 0;
#X connect 45 0 2 2;
#X connect 45 0 53 0;
#X connect 46 0 47 0;
#X connect 47 0 2 3;
#X connect 47 0 54 0;
#X connect 48 0 49 0;
#X connect 49 0 2 4;
#X connect 49 0 55 0;
#X connect 50 0 51 0;
#X connect 51 0 2 5;
#X connect 51 0 56 0;
#X connect 70 0 42 0;
#X connect 71 0 44 0;
#X connect 72 0 46 0;
#X connect 73 0 48 0;
#X connect 74 0 50 0;
#X connect 75 0 17 0;
#X connect 76 0 29 0;
#X connect 77 0 33 0;
#X connect 78 0 31 0;
#X connect 79 0 19 0;
#X connect 80 0 21 0;
#X connect 81 0 35 0;
#X connect 82 0 37 0;
#X connect 83 0 23 0;
#X connect 84 0 39 0;
#X connect 85 0 41 0;
#X connect 86 0 27 0;
#X connect 87 0 25 0;
#X connect 95 0 12 0;
#X connect 95 0 11 0;
#X connect 95 0 15 0;
#X connect 96 0 97 0;
#X connect 97 0 98 0;
#X connect 98 0 12 0;
#X connect 98 0 15 0;
#X connect 99 0 118 0;
#X connect 100 0 117 0;
#X connect 102 0 42 0;
#X connect 103 0 44 0;
#X connect 104 0 46 0;
#X connect 105 0 48 0;
#X connect 106 0 50 0;
#X connect 107 0 96 0;
#X connect 108 0 96 1;
#X connect 109 0 99 0;
#X connect 110 0 100 0;
#X connect 117 0 27 0;
#X connect 118 0 14 0;
#X coords 0 1 100 -1 750 420 1 0 0;
#X restore 22 16 graph;
#X obj 22 2 cnv 15 750 15 empty empty Bells 0 8 0 12 -1 -257985 0;
#X obj 23 478 *~;
#X obj 23 500 dac~;
#X obj 39 459 lop~ 10;
#X obj 39 440 tgl 15 0 empty empty empty 17 7 0 10 -262144 -1 -1 0
1;
#X connect 0 0 2 0;
#X connect 2 0 3 0;
#X connect 2 0 3 1;
#X connect 4 0 2 1;
#X connect 5 0 4 0;
