#N canvas 394 140 363 214 10;
#N canvas 0 22 1366 696 clicks____________ 0;
#X obj 104 399 *~;
#X obj 191 396 *~;
#X obj 191 326 ead~ 1 10;
#X obj 15 328 ead~ 1 30;
#X obj 16 397 *~;
#X obj 31 375 bp~ 6666 40;
#X obj 119 374 bp~ 7012 40;
#X obj 206 373 bp~ 1500 35;
#X obj 104 284 bng 15 250 50 0 empty empty empty 0 -6 0 8 -262144 -1
-1;
#X text 62 283 cog1;
#X obj 104 460 *~ 1;
#X obj 104 329 ead~ 1 20;
#X obj 118 351 noise~;
#X obj -11 160 stripnote;
#X obj 104 480 *~;
#X obj -10 228 * 1000;
#X obj 37 226 * 1000;
#X obj 37 246 + 500;
#X obj 81 226 * 20;
#X obj 252 132 - 5;
#X obj 117 187 / 100;
#X obj 118 207 + 0.2;
#X obj 119 226 line;
#X floatatom 164 204 5 0 0 0 - - -;
#X text 202 203 time offset to adjust volume to velocity;
#X obj 207 166 loadbang;
#X msg 207 187 50;
#X obj -1 1 inlet;
#X obj 103 634 outlet~;
#X obj 240 56 r \$0-selectivity;
#X obj 12 47 unpack f f;
#N canvas 0 0 450 300 reverb 0;
#X msg 142 117 /feedback \$1;
#X obj 43 141 hip~ 20;
#X obj 80 119 hip~ 20;
#X msg 141 144 /delay \$1;
#N canvas 0 22 450 300 cmreverb 0;
#X obj 25 22 inlet~;
#X obj 85 22 inlet~;
#X obj 397 5 inlet;
#X obj 239 88 delread~ \$0-A 100;
#X obj 269 108 delread~ \$0-B 161.8;
#X obj 299 128 delread~ \$0-C 261.8;
#X obj 329 148 delread~ \$0-D 61.8;
#X obj 185 142 +~;
#X obj 227 142 +~;
#X obj 22 213 outlet~;
#X obj 92 213 outlet~;
#X obj 170 192 +~;
#X obj 274 193 +~;
#X obj 212 192 -~;
#X obj 314 192 -~;
#X obj 169 248 +~;
#X obj 213 249 +~;
#X obj 257 250 -~;
#X obj 296 250 -~;
#X obj 256 332 *~ 0;
#X obj 214 331 *~ 0;
#X obj 169 330 *~ 0;
#X obj 297 333 *~ 0;
#X obj 296 353 delwrite~ \$0-D 1000;
#X obj 257 376 delwrite~ \$0-C 1000;
#X obj 215 399 delwrite~ \$0-B 1000;
#X obj 170 421 delwrite~ \$0-A 1000;
#X obj 396 190 min 100;
#X obj 396 214 max 0;
#X obj 396 238 / 200;
#X obj 239 67 * 1;
#X obj 269 67 * 1.618;
#X obj 329 67 * 2.618;
#X obj 389 67 / 1.618;
#X obj 397 31 route /feedback /delay;
#X connect 0 0 7 0;
#X connect 1 0 8 0;
#X connect 2 0 34 0;
#X connect 3 0 7 1;
#X connect 4 0 8 1;
#X connect 5 0 14 0;
#X connect 5 0 12 0;
#X connect 6 0 14 1;
#X connect 6 0 12 1;
#X connect 7 0 9 0;
#X connect 7 0 11 0;
#X connect 7 0 13 0;
#X connect 8 0 10 0;
#X connect 8 0 11 1;
#X connect 8 0 13 1;
#X connect 11 0 15 0;
#X connect 11 0 17 0;
#X connect 12 0 17 1;
#X connect 12 0 15 1;
#X connect 13 0 16 0;
#X connect 13 0 18 0;
#X connect 14 0 16 1;
#X connect 14 0 18 1;
#X connect 15 0 21 0;
#X connect 16 0 20 0;
#X connect 17 0 19 0;
#X connect 18 0 22 0;
#X connect 19 0 24 0;
#X connect 20 0 25 0;
#X connect 21 0 26 0;
#X connect 22 0 23 0;
#X connect 27 0 28 0;
#X connect 28 0 29 0;
#X connect 29 0 22 1;
#X connect 29 0 19 1;
#X connect 29 0 20 1;
#X connect 29 0 21 1;
#X connect 30 0 3 0;
#X connect 31 0 4 0;
#X connect 32 0 5 0;
#X connect 33 0 6 0;
#X connect 34 0 27 0;
#X connect 34 1 33 0;
#X connect 34 1 32 0;
#X connect 34 1 31 0;
#X connect 34 1 30 0;
#X restore 43 173 pd cmreverb;
#X obj 62 78 inlet~;
#X msg 142 83 50;
#X msg 173 83 70;
#X obj 142 49 loadbang;
#X obj 216 84 clip 5 100;
#X text 134 174 Simple verb by Claude H;
#X obj 42 223 outlet~;
#X obj 116 224 outlet~;
#X obj 216 48 r \$0-verbness;
#X connect 0 0 4 2;
#X connect 1 0 4 0;
#X connect 2 0 4 1;
#X connect 3 0 4 2;
#X connect 4 0 11 0;
#X connect 4 1 12 0;
#X connect 5 0 1 0;
#X connect 5 0 2 0;
#X connect 6 0 0 0;
#X connect 7 0 3 0;
#X connect 8 0 6 0;
#X connect 8 0 7 0;
#X connect 9 0 3 0;
#X connect 9 0 0 0;
#X connect 13 0 9 0;
#X restore 105 535 pd reverb;
#X connect 0 0 10 0;
#X connect 1 0 10 0;
#X connect 2 0 1 0;
#X connect 3 0 4 0;
#X connect 4 0 10 0;
#X connect 5 0 4 1;
#X connect 6 0 0 1;
#X connect 7 0 1 1;
#X connect 8 0 2 0;
#X connect 8 0 3 0;
#X connect 8 0 11 0;
#X connect 8 0 26 0;
#X connect 10 0 14 0;
#X connect 11 0 0 0;
#X connect 12 0 5 0;
#X connect 12 0 6 0;
#X connect 12 0 7 0;
#X connect 13 0 8 0;
#X connect 13 0 15 0;
#X connect 13 0 18 0;
#X connect 13 0 16 0;
#X connect 13 1 20 0;
#X connect 14 0 31 0;
#X connect 15 0 5 1;
#X connect 16 0 17 0;
#X connect 17 0 6 1;
#X connect 18 0 7 1;
#X connect 19 0 7 2;
#X connect 20 0 21 0;
#X connect 21 0 22 0;
#X connect 22 0 14 1;
#X connect 23 0 22 1;
#X connect 25 0 26 0;
#X connect 26 0 23 0;
#X connect 27 0 30 0;
#X connect 29 0 19 0;
#X connect 29 0 6 2;
#X connect 29 0 5 2;
#X connect 30 0 13 0;
#X connect 30 1 13 1;
#X connect 31 0 28 0;
#X connect 31 1 28 0;
#X restore 3 98 pd clicks____________;
#X obj 3 -3 z_key_abs/pdkb-az kb;
#N canvas 0 22 839 439 (subpatch) 0;
#X obj 88 90 change;
#X msg 90 154 set \$1;
#X obj 90 135 tosymbol;
#X msg 135 203 Bus10;
#X obj 94 2 tgl 18 0 empty empty DAC 23 10 0 11 -262144 -1 -1 1 1;
#X obj 250 174 *~;
#X obj 251 210 dac~;
#X obj 29 1 nbx 3 20 0 16 0 0 empty empty Bus -25 10 0 12 -1 -191407
-1 0 256;
#X obj 1 49 inlet~;
#X obj -1 232 throw~ Bus0;
#X obj 89 112 sprintf Bus%d;
#X connect 0 0 10 0;
#X connect 1 0 3 0;
#X connect 1 0 9 0;
#X connect 2 0 1 0;
#X connect 4 0 5 1;
#X connect 5 0 6 0;
#X connect 5 0 6 1;
#X connect 7 0 0 0;
#X connect 8 0 5 0;
#X connect 8 0 9 0;
#X connect 10 0 2 0;
#X coords 0 1 100 -1 140 22 1 0 0;
#X restore 3 118 graph;
#N canvas 0 0 450 300 (subpatch) 0;
#X obj 16 19 hsl 128 20 0 1270 0 0 \$0-selectivity empty Selectivity
-2 -8 0 10 -33289 -191407 -1 800 1;
#X obj 92 5 nbx 5 14 -1e+037 1e+037 0 0 empty empty empty 0 -8 0 10
-33289 -191407 -191407 80 256;
#X obj 24 163 int;
#X obj 200 19 hsl 128 20 5 100 0 0 \$0-verbness empty Reverb -2 -8
0 10 -33289 -191407 -1 9100 1;
#X obj 276 5 nbx 5 14 -1e+037 1e+037 0 0 empty empty empty 0 -8 0 10
-33289 -191407 -191407 73 256;
#X obj 208 163 int;
#X connect 0 0 2 0;
#X connect 2 0 1 0;
#X connect 3 0 5 0;
#X connect 5 0 4 0;
#X coords 0 1 100 -1 355 50 1 0 0;
#X restore 3 -53 graph;
#X obj 3 -68 cnv 15 355 15 empty empty Clicks 0 8 0 12 -1 -162280 0
;
#X connect 0 0 2 0;
#X connect 1 0 0 0;
