#N canvas 230 268 275 120 10;
#X declare -path z_door_abs;
#X obj 95 50 declare -path z_door_abs;
#X obj -8 -9 cnv 15 200 15 empty empty Door-creacker 0 8 0 12 -1 -162280
0;
#N canvas 0 22 839 439 (subpatch) 0;
#X obj 88 90 change;
#X msg 90 154 set \$1;
#X obj 90 135 tosymbol;
#X msg 135 203 Bus10;
#X obj 94 2 tgl 18 0 empty empty DAC 23 10 0 11 -262144 -1 -1 0 1;
#X obj 250 174 *~;
#X obj 251 210 dac~;
#X obj 29 1 nbx 3 20 0 16 0 0 empty empty Bus -25 10 0 12 -1 -191407
-1 0 256;
#X obj 1 49 inlet~;
#X obj -1 232 throw~ Bus0;
#X obj 89 112 sprintf Bus%d;
#X connect 0 0 10 0;
#X connect 1 0 3 0;
#X connect 1 0 9 0;
#X connect 2 0 1 0;
#X connect 4 0 5 1;
#X connect 5 0 6 0;
#X connect 5 0 6 1;
#X connect 7 0 0 0;
#X connect 8 0 5 0;
#X connect 8 0 9 0;
#X connect 10 0 2 0;
#X coords 0 1 100 -1 140 22 1 0 0;
#X restore -8 69 graph;
#N canvas 0 0 450 300 door-creacker 0;
#N canvas 102 47 470 102 wood 0;
#X obj 232 1 inlet~;
#X obj 423 42 *~ 0.2;
#X obj 232 83 outlet~;
#X obj 144 42 bp~ 250 2;
#X obj 212 42 bp~ 395 2;
#X obj 76 42 bp~ 125 1;
#X obj 1 42 bp~ 62.5 1;
#X obj 282 42 bp~ 560 3;
#X obj 351 42 bp~ 790 3;
#X connect 0 0 1 0;
#X connect 0 0 3 0;
#X connect 0 0 4 0;
#X connect 0 0 5 0;
#X connect 0 0 6 0;
#X connect 0 0 7 0;
#X connect 0 0 8 0;
#X connect 1 0 2 0;
#X connect 3 0 2 0;
#X connect 4 0 2 0;
#X connect 5 0 2 0;
#X connect 6 0 2 0;
#X connect 7 0 2 0;
#X connect 8 0 2 0;
#X restore 79 116 pd wood;
#N canvas 0 22 156 602 stickslip 0;
#X obj 8 344 timer;
#X obj 8 537 vline~;
#X obj 8 268 metro;
#X obj 83 92 swap 1;
#X obj 84 115 -;
#X obj 8 64 t f f;
#X obj 8 105 change;
#X obj 8 43 line;
#X msg 8 22 \$1 100;
#X obj 8 320 t b b;
#X obj 8 496 pack f f;
#X obj 8 561 *~;
#X obj 8 367 min 100;
#X obj 8 389 / 100;
#X obj 114 255 * 60;
#X obj 114 277 + 3;
#X obj 68 191 random 1000;
#X obj 68 212 / 1000;
#X obj 68 276 *;
#X obj 84 138 t f f;
#X obj 68 299 +;
#X obj 8 410 sqrt;
#X msg 8 516 \$1 \, 0 \$2;
#X obj 8 297 t b b;
#X obj 84 254 * 6;
#X obj 8 474 sqrt;
#X obj 8 453 + 0.1;
#X obj 8 431 t f f;
#X obj 8 85 > 0.3;
#X obj 8 1 inlet force;
#X obj 8 582 outlet~ pulse;
#X connect 0 0 12 0;
#X connect 1 0 11 0;
#X connect 1 0 11 1;
#X connect 2 0 23 0;
#X connect 3 0 4 0;
#X connect 3 1 4 1;
#X connect 4 0 19 0;
#X connect 5 0 28 0;
#X connect 5 1 3 0;
#X connect 6 0 2 0;
#X connect 7 0 5 0;
#X connect 8 0 7 0;
#X connect 9 0 0 0;
#X connect 9 1 0 1;
#X connect 10 0 22 0;
#X connect 11 0 30 0;
#X connect 12 0 13 0;
#X connect 13 0 21 0;
#X connect 14 0 15 0;
#X connect 15 0 20 1;
#X connect 16 0 17 0;
#X connect 17 0 18 0;
#X connect 18 0 20 0;
#X connect 19 0 24 0;
#X connect 19 1 14 0;
#X connect 20 0 2 1;
#X connect 21 0 27 0;
#X connect 22 0 1 0;
#X connect 23 0 9 0;
#X connect 23 1 16 0;
#X connect 24 0 18 1;
#X connect 25 0 10 0;
#X connect 26 0 25 0;
#X connect 27 0 26 0;
#X connect 27 1 10 1;
#X connect 28 0 6 0;
#X connect 29 0 8 0;
#X restore 79 94 pd stickslip;
#N canvas 32 22 176 325 squarepanel 0;
#X obj 54 212 dfbef 16 0.05;
#X obj 54 189 dfbef 10.12 0.05;
#X obj 54 166 dfbef 7.14 0.05;
#X obj 54 143 dfbef 5.48 0.05;
#X obj 54 120 dfbef 8 0.05;
#X obj 54 97 dfbef 6.27 0.05;
#X obj 54 74 dfbef 5.06 0.05;
#X obj 54 51 dfbef 4.52 0.05;
#X obj 2 280 hip~ 125;
#X obj 3 1 inlet~;
#X obj 2 303 outlet~;
#X connect 0 0 8 0;
#X connect 1 0 8 0;
#X connect 2 0 8 0;
#X connect 3 0 8 0;
#X connect 4 0 8 0;
#X connect 5 0 8 0;
#X connect 6 0 8 0;
#X connect 7 0 8 0;
#X connect 8 0 10 0;
#X connect 9 0 7 0;
#X connect 9 0 6 0;
#X connect 9 0 5 0;
#X connect 9 0 4 0;
#X connect 9 0 3 0;
#X connect 9 0 2 0;
#X connect 9 0 1 0;
#X connect 9 0 0 0;
#X restore 79 138 pd squarepanel;
#X obj 79 160 *~ 0.2;
#X obj 77 201 outlet~;
#X obj 81 46 r \$0-door;
#X connect 0 0 2 0;
#X connect 1 0 0 0;
#X connect 2 0 3 0;
#X connect 3 0 4 0;
#X connect 5 0 1 0;
#X restore -8 50 pd door-creacker;
#N canvas 0 0 450 300 (subpatch) 0;
#X obj 32 8 hsl 128 24 0 1 0 0 \$0-door empty Door 20 13 0 12 -33289
-162280 -191407 0 1;
#X coords 0 1 100 -1 200 40 1 0 0;
#X restore -8 7 graph;
#X connect 3 0 2 0;
