#N canvas 98 87 293 173 10;
#X declare -path z_electrichumandsparks_abs;
#X obj 8 25 declare -path z_electrichumandsparks_abs;
#N canvas 65 82 777 583 eletrcic_hum_sparks 0;
#X obj 217 22 noise~;
#X obj 217 89 *~;
#X obj 217 63 lop~ 2;
#X obj 217 42 lop~ 2;
#X obj 217 111 *~ 500;
#X obj 138 74 -~ 1;
#X obj 59 486 comb1 80 0.2;
#X obj 217 135 +~ 20;
#X obj 0 206 randgate 3 0.0008;
#X obj 0 181 chplz;
#X obj 29 59 noise~;
#X obj 29 119 max~ 0;
#X obj 29 99 lop~ 0.1;
#X obj 29 79 lop~ 0.1;
#X obj 29 139 *~ 700;
#X obj 138 153 *~;
#X obj 138 179 clip~ -0.9 0.1;
#X obj 0 441 *~ 0.6;
#X obj 138 0 phasor~ 100.2;
#X obj 0 419 *~;
#X obj 72 358 clip~ 0 1;
#X obj 72 337 *~ 1e+09;
#X obj 72 379 lop~ 30;
#X obj 72 295 max~ 0.1;
#X obj 72 316 -~ 0.1;
#X obj 72 232 lop~ 15;
#X obj 72 253 lop~ 15;
#X obj 72 274 *~ 500;
#X obj 29 159 +~ 3;
#X obj 175 313 threshold~ 0.03 0 0 0;
#X obj 175 336 snap 1.8;
#X obj 0 24 phasor~ -99.8;
#X obj 60 511 outlet~;
#X obj 176 360 *~ 0.029;
#X obj 426 60 r \$0-switch;
#X obj 426 97 switch~;
#X connect 0 0 3 0;
#X connect 1 0 4 0;
#X connect 2 0 1 0;
#X connect 2 0 1 1;
#X connect 3 0 2 0;
#X connect 4 0 7 0;
#X connect 4 0 15 1;
#X connect 5 0 15 0;
#X connect 6 0 32 0;
#X connect 7 0 6 0;
#X connect 8 0 19 0;
#X connect 9 0 8 0;
#X connect 10 0 13 0;
#X connect 11 0 14 0;
#X connect 12 0 11 0;
#X connect 13 0 12 0;
#X connect 14 0 28 0;
#X connect 15 0 16 0;
#X connect 16 0 25 0;
#X connect 16 0 29 0;
#X connect 16 0 6 1;
#X connect 17 0 6 1;
#X connect 18 0 5 0;
#X connect 19 0 17 0;
#X connect 20 0 22 0;
#X connect 21 0 20 0;
#X connect 22 0 19 1;
#X connect 23 0 24 0;
#X connect 24 0 21 0;
#X connect 25 0 26 0;
#X connect 26 0 27 0;
#X connect 27 0 23 0;
#X connect 28 0 9 1;
#X connect 29 0 30 0;
#X connect 30 0 33 0;
#X connect 31 0 9 0;
#X connect 31 0 5 0;
#X connect 33 0 6 1;
#X connect 34 0 35 0;
#X restore 8 44 pd eletrcic_hum_sparks;
#X obj 8 9 cnv 15 244 15 empty empty Electric_Hums_n_sparks 0 8 0 12
-1 -204800 0;
#X obj 194 9 tgl 15 0 \$0-switch empty on/off 17 7 0 10 -262144 -1
-262144 1 1;
#X obj 7 107 *~;
#X obj 7 129 dac~;
#X obj 23 88 lop~ 10;
#X obj 23 71 tgl 15 0 empty empty empty 17 7 0 10 -262144 -1 -1 0 1
;
#X connect 1 0 4 0;
#X connect 4 0 5 0;
#X connect 4 0 5 1;
#X connect 6 0 4 1;
#X connect 7 0 6 0;
