#N canvas 81 145 211 173 10;
#X declare -path z_electrichum_abs;
#X obj -9 -47 declare -path z_electrichum_abs;
#X obj -9 -64 cnv 15 190 15 empty empty Electric_Hums 0 8 0 12 -1 -204800
0;
#N canvas 0 50 450 300 hums 0;
#X obj 93 67 noise~;
#X obj 87 20 phasor~ 100.2;
#X obj 79 0 phasor~ 99.8;
#X obj 78 211 *~;
#X obj 93 134 *~;
#X obj 93 108 lop~ 2;
#X obj 93 87 lop~ 2;
#X obj 94 178 *~ 500;
#X obj 78 45 -~ 1;
#X obj -1 238 comb1 80 0.2;
#X obj -1 212 +~ 20;
#X obj 78 156 clip~ -0.5 0.5;
#X obj 49 273 outlet~;
#X connect 0 0 6 0;
#X connect 1 0 8 0;
#X connect 2 0 8 0;
#X connect 3 0 9 1;
#X connect 4 0 7 0;
#X connect 5 0 4 0;
#X connect 5 0 4 1;
#X connect 6 0 5 0;
#X connect 7 0 3 1;
#X connect 7 0 10 0;
#X connect 8 0 11 0;
#X connect 9 0 12 0;
#X connect 10 0 9 0;
#X connect 11 0 3 0;
#X restore -9 -28 pd hums;
#X obj -9 37 *~;
#X obj -9 59 dac~;
#X obj 7 18 lop~ 10;
#X obj 7 1 tgl 15 0 empty empty empty 17 7 0 10 -262144 -1 -1 0 1;
#X connect 2 0 3 0;
#X connect 3 0 4 0;
#X connect 3 0 4 1;
#X connect 5 0 3 1;
#X connect 6 0 5 0;
