#N canvas 564 143 232 150 10;
#X declare -path z_electricsparks_abs;
#X obj 2 20 declare -path z_electricsparks_abs;
#N canvas 0 50 450 300 sparks 0;
#X obj 15 191 *~ 0.4;
#X obj 15 169 randgate 3 0.0008;
#X obj 15 148 chplz;
#X obj 44 27 noise~;
#X obj 44 88 max~ 0;
#X obj 44 68 lop~ 0.1;
#X obj 44 47 lop~ 0.1;
#X obj 44 109 *~ 700;
#X obj 44 129 +~ 4;
#X obj 14 6 phasor~ -100;
#X obj 15 212 outlet~;
#X obj 195 53 r \$0-switch;
#X obj 195 90 switch~;
#X connect 0 0 10 0;
#X connect 1 0 0 0;
#X connect 2 0 1 0;
#X connect 3 0 6 0;
#X connect 4 0 7 0;
#X connect 5 0 4 0;
#X connect 6 0 5 0;
#X connect 7 0 8 0;
#X connect 8 0 2 1;
#X connect 9 0 2 0;
#X connect 11 0 12 0;
#X restore 2 38 pd sparks;
#X obj 2 4 cnv 15 208 15 empty empty Electric_Sparks 0 8 0 12 -1 -204800
0;
#X obj 155 4 tgl 15 0 \$0-switch empty on/off 17 7 0 10 -262144 -1
-262144 1 1;
#X obj 3 107 *~;
#X obj 3 129 dac~;
#X obj 19 88 lop~ 10;
#X obj 19 71 tgl 15 0 empty empty empty 17 7 0 10 -262144 -1 -1 1 1
;
#X connect 1 0 4 0;
#X connect 4 0 5 0;
#X connect 4 0 5 1;
#X connect 6 0 4 1;
#X connect 7 0 6 0;
