#N canvas 84 112 211 173 10;
#X declare -path z_electrichum_abs;
#X obj -9 -47 declare -path z_electrichum_abs;
#X obj -9 -64 cnv 15 190 15 empty empty Electric_Hums 0 8 0 12 -1 -204800
0;
#X obj 126 -64 tgl 15 0 \$0-switch empty on/off 17 7 0 10 -262144 -1
-262144 0 1;
#N canvas 0 0 450 300 hums 0;
#X obj 93 67 noise~;
#X obj 87 20 phasor~ 100.2;
#X obj 79 0 phasor~ 99.8;
#X obj 78 211 *~;
#X obj 93 134 *~;
#X obj 93 108 lop~ 2;
#X obj 93 87 lop~ 2;
#X obj 94 178 *~ 500;
#X obj 78 45 -~ 1;
#X obj -1 238 comb1 80 0.2;
#X obj -1 212 +~ 20;
#X obj 78 156 clip~ -0.5 0.5;
#X obj 49 273 outlet~;
#X connect 0 0 6 0;
#X connect 1 0 8 0;
#X connect 2 0 8 0;
#X connect 3 0 9 1;
#X connect 4 0 7 0;
#X connect 5 0 4 0;
#X connect 5 0 4 1;
#X connect 6 0 5 0;
#X connect 7 0 3 1;
#X connect 7 0 10 0;
#X connect 8 0 11 0;
#X connect 9 0 12 0;
#X connect 10 0 9 0;
#X connect 11 0 3 0;
#X restore -9 -28 pd hums;
#N canvas 0 22 839 439 (subpatch) 0;
#X obj 88 90 change;
#X msg 90 154 set \$1;
#X obj 90 135 tosymbol;
#X msg 135 203 Bus10;
#X obj 94 2 tgl 18 0 empty empty DAC 23 10 0 11 -262144 -1 -1 0 1;
#X obj 250 174 *~;
#X obj 251 210 dac~;
#X obj 29 1 nbx 3 20 0 16 0 0 empty empty Bus -25 10 0 12 -1 -191407
-1 0 256;
#X obj 1 49 inlet~;
#X obj -1 232 throw~ Bus0;
#X obj 89 112 sprintf Bus%d;
#X connect 0 0 10 0;
#X connect 1 0 3 0;
#X connect 1 0 9 0;
#X connect 2 0 1 0;
#X connect 4 0 5 1;
#X connect 5 0 6 0;
#X connect 5 0 6 1;
#X connect 7 0 0 0;
#X connect 8 0 5 0;
#X connect 8 0 9 0;
#X connect 10 0 2 0;
#X coords 0 1 100 -1 140 22 1 0 0;
#X restore -9 -8 graph;
#X connect 3 0 4 0;
