#N canvas 65 82 490 331 10;
#X declare -path z_oldrecord_abs;
#X obj 19 -105 tgl 15 0 empty empty empty 0 -6 0 8 -262144 -1 -1 1
1;
#X text 41 -107 Description: Simulates the crackling of an old record.
;
#X obj 19 33 z-synth.old.record~;
#X floatatom 105 -18 5 0 0 0 - - -, f 5;
#X floatatom 49 -18 5 0 0 0 - - -, f 5;
#X floatatom 105 17 5 0 0 0 - - -, f 5;
#X obj 49 -1 * 1;
#X floatatom 49 17 5 0 0 0 - - -, f 5;
#X obj 105 -1 * 20;
#X obj 211 58 declare -path z_oldrecord_abs;
#X floatatom 162 -18 5 0 0 0 - - -, f 5;
#X floatatom 162 17 5 0 0 0 - - -, f 5;
#X obj 162 -1 / 127;
#X obj 19 95 *~;
#X obj 19 117 dac~;
#X obj 35 76 lop~ 10;
#X obj 35 59 tgl 15 0 empty empty empty 17 7 0 10 -262144 -1 -1 1 1
;
#X connect 0 0 2 0;
#X connect 2 0 13 0;
#X connect 3 0 8 0;
#X connect 4 0 6 0;
#X connect 5 0 2 2;
#X connect 6 0 7 0;
#X connect 7 0 2 1;
#X connect 8 0 5 0;
#X connect 10 0 12 0;
#X connect 11 0 2 3;
#X connect 12 0 11 0;
#X connect 13 0 14 0;
#X connect 13 0 14 1;
#X connect 15 0 13 1;
#X connect 16 0 15 0;
