#N canvas 65 82 459 317 10;
#X obj 12 80 osc~ 480;
#X obj 13 126 +~;
#X obj 82 251 dac~;
#X obj 82 168 *~;
#X obj 29 100 osc~ 440;
#X obj 97 124 sig~;
#X obj 98 145 lop~ 100;
#X obj 83 218 *~ 1;
#X obj 97 54 f;
#X obj 97 76 mod 6;
#X obj 137 55 + 1;
#X obj 97 100 > 2;
#X obj 97 32 metro 1000;
#X obj 97 10 loadbang;
#N canvas 65 82 450 300 telephone-line 0;
#X obj 5 52 bp~ 2000 12;
#X obj 5 124 bp~ 400 7;
#X obj 5 148 hip~ 90;
#X obj 5 172 hip~ 90;
#X obj 5 4 inlet~ thisend;
#X obj 5 196 outlet~ thatend;
#X obj 5 28 clip~ -0.9 0.9;
#X obj 5 85 *~ 1.2;
#X connect 0 0 7 0;
#X connect 1 0 2 0;
#X connect 2 0 3 0;
#X connect 3 0 5 0;
#X connect 4 0 6 0;
#X connect 6 0 0 0;
#X connect 7 0 1 0;
#X restore 82 192 pd telephone-line;
#X connect 0 0 1 0;
#X connect 1 0 3 0;
#X connect 3 0 14 0;
#X connect 4 0 1 1;
#X connect 5 0 6 0;
#X connect 6 0 3 1;
#X connect 7 0 2 0;
#X connect 7 0 2 1;
#X connect 8 0 9 0;
#X connect 9 0 10 0;
#X connect 9 0 11 0;
#X connect 10 0 8 1;
#X connect 11 0 5 0;
#X connect 12 0 8 0;
#X connect 13 0 12 0;
#X connect 14 0 7 0;
