#N canvas 366 259 206 118 10;
#X declare -path z_clock_abs;
#X obj -10 1 declare -path z_clock_abs;
#N canvas 834 133 450 300 clock 0;
#X obj 69 76 select 0 1 2 3 4 5 6 7;
#X obj 69 11 metro 125;
#X obj 69 33 f;
#X obj 100 33 + 1;
#X obj 69 54 mod 8;
#X obj 111 247 *~ 1;
#X obj 214 178 loadbang;
#X obj 220 124 escapement;
#X obj 163 14 noise~;
#X obj 163 38 hip~ 200;
#X obj 69 125 clocktick;
#X obj 139 124 clocktick2;
#X msg 214 197 0.09;
#X obj -3 125 clockhand;
#X obj 111 192 *~ 0.3;
#X obj 69 148 *~ 0.1;
#X obj 139 147 *~ 0.1;
#X obj 220 147 *~ 0.06;
#X obj -3 148 *~ 0.3;
#X obj 121 219 bodyresonance~;
#X obj 44 -23 r \$0-toggle;
#X obj 119 -23 r \$0-speed;
#X obj 111 274 outlet~;
#X connect 0 0 7 0;
#X connect 0 0 10 0;
#X connect 0 0 13 0;
#X connect 0 1 7 0;
#X connect 0 2 7 0;
#X connect 0 2 11 0;
#X connect 0 3 7 0;
#X connect 0 4 7 0;
#X connect 0 4 10 0;
#X connect 0 5 7 0;
#X connect 0 6 7 0;
#X connect 0 6 11 0;
#X connect 0 7 7 0;
#X connect 1 0 2 0;
#X connect 2 0 3 0;
#X connect 2 0 4 0;
#X connect 3 0 2 1;
#X connect 4 0 0 0;
#X connect 5 0 22 0;
#X connect 6 0 12 0;
#X connect 7 0 17 0;
#X connect 8 0 9 0;
#X connect 9 0 10 1;
#X connect 9 0 11 1;
#X connect 9 0 13 1;
#X connect 10 0 15 0;
#X connect 11 0 16 0;
#X connect 12 0 19 1;
#X connect 13 0 18 0;
#X connect 14 0 5 0;
#X connect 14 0 19 0;
#X connect 15 0 14 0;
#X connect 16 0 14 0;
#X connect 17 0 14 0;
#X connect 18 0 14 0;
#X connect 19 0 5 0;
#X connect 20 0 1 0;
#X connect 21 0 1 1;
#X restore -10 43 pd clock;
#X obj -10 -16 cnv 15 180 15 empty empty Equipement-Clock 0 8 0 12
-1 -215907 0;
#N canvas 0 22 839 439 (subpatch) 0;
#X obj 88 90 change;
#X msg 90 154 set \$1;
#X obj 90 135 tosymbol;
#X msg 135 203 Bus10;
#X obj 94 2 tgl 18 0 empty empty DAC 23 10 0 11 -262144 -1 -1 1 1;
#X obj 250 174 *~;
#X obj 251 210 dac~;
#X obj 29 1 nbx 3 20 0 16 0 0 empty empty Bus -25 10 0 12 -1 -191407
-1 0 256;
#X obj 1 49 inlet~;
#X obj -1 232 throw~ Bus0;
#X obj 89 112 sprintf Bus%d;
#X connect 0 0 10 0;
#X connect 1 0 3 0;
#X connect 1 0 9 0;
#X connect 2 0 1 0;
#X connect 4 0 5 1;
#X connect 5 0 6 0;
#X connect 5 0 6 1;
#X connect 7 0 0 0;
#X connect 8 0 5 0;
#X connect 8 0 9 0;
#X connect 10 0 2 0;
#X coords 0 1 100 -1 140 22 1 0 0;
#X restore -10 62 graph;
#X obj -10 20 nbx 5 20 -1e+037 1e+037 0 0 \$0-speed \$0jkndljn speed
60 9 0 10 -262144 -1 -1 500 256;
#X obj 112 -16 tgl 15 0 \$0-toggle \$0klmjele on/off 20 6 0 10 -262144
-1 -262144 1 1;
#X connect 1 0 3 0;
