#N canvas 0 22 399 207 10;
#X declare -path z_oldrecord_abs;
#X obj 19 -105 tgl 15 0 empty empty empty 0 -6 0 8 -262144 -1 -1 0
1;
#X text 41 -107 Description: Simulates the crackling of an old record.
;
#X obj 19 33 z-synth.old.record~;
#X floatatom 105 -18 5 0 0 0 - - -;
#X obj 105 -47 knob 25 25 0 127 0 0 empty empty empty 0 -8 32 8 -1
-260097 -260097 0 1;
#X obj 105 -88 ctlin 2;
#X floatatom 49 -18 5 0 0 0 - - -;
#X obj 49 -47 knob 25 25 0 127 0 0 empty empty empty 0 -8 32 8 -1 -260097
-260097 0 1;
#X obj 49 -88 ctlin 1;
#X floatatom 105 17 5 0 0 0 - - -;
#X obj 49 -1 * 1;
#X floatatom 49 17 5 0 0 0 - - -;
#X obj 105 -1 * 20;
#N canvas 7 29 711 559 (subpatch) 0;
#X obj -46 155 inlet;
#X obj -134 -36 inlet~;
#X obj -47 182 change;
#X msg -45 246 set \$1;
#X obj -45 227 tosymbol;
#X obj -46 204 sprintf Bus%d;
#X obj 185 374 throw~ Bus0;
#X msg -45 291 Bus0;
#X obj 2 3 popup 124 25 #ffffff popup Bus0 Bus1 Bus2 Bus3 Bus4 Bus5
Bus6;
#X obj 266 73 print symbol;
#X obj -82 31 route bang;
#X obj 270 328 *~;
#X obj 141 7 tgl 15 0 empty empty Dac 19 7 0 10 -262144 -1 -1 0 1;
#X obj 271 364 dac~;
#X obj -51 -55 loadbang;
#X text 41 -57 Bus6 is used to send to a dac;
#X msg -53 -32 options Bus0 Bus1 Bus2 Bus3 Bus4 Bus5 Bus6 Bus7 Bus8
Bus9 Bus10 Bus11 Bus12 Bus13 Bus14 Bus15 Bus16;
#X connect 0 0 2 0;
#X connect 1 0 6 0;
#X connect 1 0 11 0;
#X connect 2 0 5 0;
#X connect 3 0 6 0;
#X connect 3 0 7 0;
#X connect 4 0 3 0;
#X connect 5 0 4 0;
#X connect 8 0 10 0;
#X connect 10 1 2 0;
#X connect 11 0 13 0;
#X connect 11 0 13 1;
#X connect 12 0 11 1;
#X connect 14 0 16 0;
#X connect 16 0 8 0;
#X coords 0 1 100 -1 180 30 1 0 0;
#X restore 19 51 graph;
#N canvas 0 22 450 300 (subpatch) 0;
#X obj -30 22 spigot;
#X obj 2 3 tgl 15 0 empty empty empty 17 7 0 10 -262144 -1 -1 0 1;
#X obj -58 0 inlet;
#X obj -54 54 outlet;
#X connect 0 0 3 0;
#X connect 1 0 0 1;
#X connect 2 0 0 0;
#X coords 0 1 100 -1 20 20 1 0 0;
#X restore 105 -70 graph;
#N canvas 0 22 450 300 (subpatch) 0;
#X obj -30 22 spigot;
#X obj 2 3 tgl 15 0 empty empty empty 17 7 0 10 -262144 -1 -1 0 1;
#X obj -58 0 inlet;
#X obj -54 54 outlet;
#X connect 0 0 3 0;
#X connect 1 0 0 1;
#X connect 2 0 0 0;
#X coords 0 1 100 -1 20 20 1 0 0;
#X restore 49 -70 graph;
#X obj 211 58 declare -path z_oldrecord_abs;
#X floatatom 162 -18 5 0 0 0 - - -;
#X obj 162 -47 knob 25 25 0 127 0 0 empty empty empty 0 -8 32 8 -1
-260097 -260097 0 1;
#X floatatom 162 17 5 0 0 0 - - -;
#N canvas 0 22 450 300 (subpatch) 0;
#X obj -30 22 spigot;
#X obj 2 3 tgl 15 0 empty empty empty 17 7 0 10 -262144 -1 -1 0 1;
#X obj -58 0 inlet;
#X obj -54 54 outlet;
#X connect 0 0 3 0;
#X connect 1 0 0 1;
#X connect 2 0 0 0;
#X coords 0 1 100 -1 20 20 1 0 0;
#X restore 162 -70 graph;
#X obj 162 -1 / 127;
#X obj 162 -88 ctlin 3;
#X connect 0 0 2 0;
#X connect 2 0 13 0;
#X connect 3 0 12 0;
#X connect 4 0 3 0;
#X connect 5 0 14 0;
#X connect 6 0 10 0;
#X connect 7 0 6 0;
#X connect 8 0 15 0;
#X connect 9 0 2 2;
#X connect 10 0 11 0;
#X connect 11 0 2 1;
#X connect 12 0 9 0;
#X connect 14 0 4 0;
#X connect 15 0 7 0;
#X connect 17 0 21 0;
#X connect 18 0 17 0;
#X connect 19 0 2 3;
#X connect 20 0 18 0;
#X connect 21 0 19 0;
#X connect 22 0 20 0;
