#N canvas 1047 165 235 159 10;
#N canvas 0 0 450 300 Fan-5 0;
#X obj 176 276 noise~;
#X obj 160 360 *~;
#X obj 144 204 sig~ 1;
#X obj 144 232 /~;
#X obj 193 182 *~;
#X obj 193 152 *~;
#X obj 144 384 +~;
#X obj 193 204 +~ 1;
#X obj 160 255 *~ 0.4;
#X obj 176 298 bp~ 700 1;
#X obj 7 71 phasor~;
#N canvas 295 74 292 361 rotor 0;
#N canvas 0 0 450 300 grapha 0;
#X obj 100 100 cnv 15 100 100 empty empty empty 20 12 0 14 -262144
-66577 0;
#N canvas 0 0 450 300 (subpatch) 0;
#X array \$0-A 100 float 0;
#X coords 0 1 99 -1 100 100 1;
#X restore 100 100 graph;
#X obj 289 155 inlet~;
#X obj 222 110 metro 200;
#X obj 221 86 tgl 15 0 empty empty empty 0 -6 0 8 -262144 -1 -1 0 1
;
#X obj 210 182 tabwrite~ \$0-A;
#X obj 230 148 s \$0-b;
#X connect 2 0 5 0;
#X connect 3 0 5 0;
#X connect 3 0 6 0;
#X connect 4 0 3 0;
#X coords 0 -1 1 1 100 100 1 100 100;
#X restore 4 260 pd grapha;
#X obj 117 227 *~;
#X obj 117 67 *~;
#X obj 117 135 +~;
#X obj 134 182 *~;
#X obj 133 110 sig~ 0.2;
#X obj 117 0 noise~;
#X obj 117 22 bp~ 4000 1;
#X obj 133 204 *~;
#X obj 117 272 outlet~;
#N canvas 0 0 450 300 grapha 0;
#X obj 100 100 cnv 15 100 100 empty empty empty 20 12 0 14 -262144
-66577 0;
#N canvas 0 0 450 300 (subpatch) 0;
#X array \$0-B 100 float 0;
#X coords 0 1 99 -1 100 100 1;
#X restore 100 100 graph;
#X obj 289 155 inlet~;
#X obj 210 182 tabwrite~ \$0-B;
#X obj 210 156 r \$0-b;
#X connect 2 0 3 0;
#X connect 4 0 3 0;
#X coords 0 -1 1 1 100 100 1 100 100;
#X restore 189 259 pd grapha;
#X obj 133 87 r \$0-rotor-level;
#X obj 133 44 r \$0-brush-level;
#X obj 134 157 inlet~ \$0-drive;
#X connect 1 0 9 0;
#X connect 1 0 10 0;
#X connect 2 0 3 0;
#X connect 3 0 1 0;
#X connect 3 0 0 0;
#X connect 4 0 8 0;
#X connect 4 0 8 1;
#X connect 5 0 3 1;
#X connect 6 0 7 0;
#X connect 7 0 2 0;
#X connect 8 0 1 1;
#X connect 11 0 5 0;
#X connect 12 0 2 1;
#X connect 13 0 4 0;
#X connect 13 0 4 1;
#X restore 7 204 pd rotor;
#N canvas 541 10 203 345 stator 0;
#X obj -1 96 sig~ 1;
#X obj 31 150 /~;
#X obj 47 123 +~ 1;
#X obj 47 96 *~;
#X obj 47 68 cos~;
#N canvas 0 0 450 300 grapha 0;
#X obj 100 100 cnv 15 100 100 empty empty empty 20 12 0 14 -262144
-66577 0;
#N canvas 0 0 450 300 (subpatch) 0;
#X array \$0-C 100 float 0;
#X coords 0 1 99 -1 100 100 1;
#X restore 100 100 graph;
#X obj 289 155 inlet~;
#X obj 210 182 tabwrite~ \$0-C;
#X obj 210 156 r \$0-b;
#X connect 2 0 3 0;
#X connect 4 0 3 0;
#X coords 0 -1 1 1 100 100 1 100 100;
#X restore 98 239 pd grapha;
#X obj 47 46 wrap~;
#X obj 30 172 -~ 0.5;
#X obj 47 22 *~ 2;
#X obj 48 -2 inlet~ drive;
#X obj 31 249 outlet~;
#X obj 31 222 *~;
#X obj 47 198 r \$0-stator-level;
#X connect 0 0 1 0;
#X connect 1 0 7 0;
#X connect 2 0 1 1;
#X connect 3 0 2 0;
#X connect 4 0 3 0;
#X connect 4 0 3 1;
#X connect 6 0 4 0;
#X connect 7 0 5 0;
#X connect 7 0 11 0;
#X connect 8 0 6 0;
#X connect 9 0 8 0;
#X connect 11 0 10 0;
#X connect 12 0 11 1;
#X restore 73 204 pd stator;
#X obj 8 230 +~;
#X obj 8 25 sig~;
#X obj 9 273 *~;
#X obj 7 123 *~;
#X obj 7 146 wrap~;
#X obj 193 103 cos~;
#X obj 130 454 +~;
#X obj 145 427 *~;
#X obj 176 339 *~;
#X obj 271 534 *~ 0.499;
#X obj 164 537 *~ 0.3;
#X obj 8 48 lop~ 0.1;
#X obj 8 3 r \$0-main-speed;
#X obj 23 99 r \$0-motor-ratio;
#X obj 209 129 r \$0-fan-pulsewidth;
#X obj 192 318 r \$0-fan-noise;
#X obj 161 405 r \$0-fan-level;
#X obj 164 457 r~ \$0-fba;
#X obj 271 454 r~ \$0-fbb;
#X obj 271 488 delwrite~ \$0-b 200;
#X obj 164 491 delwrite~ \$0-a 22;
#X obj 164 513 delread~ \$0-a 22;
#X obj 271 510 delread~ \$0-b 70;
#X obj 271 558 s~ \$0-fbb;
#X obj 164 561 s~ \$0-fba;
#X obj 220 583 outlet~;
#X obj 25 251 r \$0-motor-level;
#X connect 0 0 9 0;
#X connect 1 0 6 1;
#X connect 2 0 3 0;
#X connect 3 0 6 0;
#X connect 3 0 8 0;
#X connect 4 0 7 0;
#X connect 5 0 4 0;
#X connect 5 0 4 1;
#X connect 6 0 20 0;
#X connect 7 0 3 1;
#X connect 8 0 1 0;
#X connect 9 0 21 0;
#X connect 10 0 16 0;
#X connect 10 0 18 0;
#X connect 11 0 13 0;
#X connect 12 0 13 1;
#X connect 13 0 15 0;
#X connect 14 0 24 0;
#X connect 15 0 19 0;
#X connect 16 0 17 0;
#X connect 17 0 12 0;
#X connect 17 0 11 0;
#X connect 18 0 5 0;
#X connect 19 0 33 0;
#X connect 20 0 19 1;
#X connect 21 0 1 1;
#X connect 22 0 36 0;
#X connect 22 0 38 0;
#X connect 23 0 37 0;
#X connect 24 0 10 0;
#X connect 25 0 14 0;
#X connect 26 0 16 1;
#X connect 27 0 5 1;
#X connect 28 0 21 1;
#X connect 29 0 20 1;
#X connect 30 0 32 0;
#X connect 30 0 33 0;
#X connect 31 0 32 0;
#X connect 31 0 33 0;
#X connect 34 0 23 0;
#X connect 35 0 22 0;
#X connect 39 0 15 1;
#X restore 2 97 pd Fan-5;
#N canvas 0 22 839 439 (subpatch) 0;
#X obj 88 90 change;
#X msg 90 154 set \$1;
#X obj 90 135 tosymbol;
#X msg 135 203 Bus10;
#X obj 94 2 tgl 18 0 empty empty DAC 23 10 0 11 -262144 -1 -1 0 1;
#X obj 250 174 *~;
#X obj 251 210 dac~;
#X obj 29 1 nbx 3 20 0 16 0 0 empty empty Bus -25 10 0 12 -1 -191407
-1 0 256;
#X obj 1 49 inlet~;
#X obj -1 232 throw~ Bus0;
#X obj 89 112 sprintf Bus%d;
#X connect 0 0 10 0;
#X connect 1 0 3 0;
#X connect 1 0 9 0;
#X connect 2 0 1 0;
#X connect 4 0 5 1;
#X connect 5 0 6 0;
#X connect 5 0 6 1;
#X connect 7 0 0 0;
#X connect 8 0 5 0;
#X connect 8 0 9 0;
#X connect 10 0 2 0;
#X coords 0 1 100 -1 140 22 1 0 0;
#X restore 2 117 graph;
#N canvas 0 0 966 593 \$0-presets 0;
#X obj 105 145 bng 25 250 50 0 empty empty Start 30 12 0 10 -262144
-1 -1;
#X obj 105 174 bng 25 250 50 0 empty empty Stop 30 12 0 10 -262144
-1 -1;
#X obj 105 123 bng 15 250 50 0 empty empty Presets-pannel 17 7 0 10
-204786 -1 -1;
#X obj 100 101 cnv 15 200 15 empty empty Equipement-Fan-2 0 8 0 12
-1 -215907 0;
#N canvas 622 130 602 519 \$0-preset-pannel 0;
#X obj -70 12 inlet start;
#X obj 19 12 inlet stop;
#X obj 96 57 inlet select;
#X obj 18 106 route 0 1 2 3 4;
#X obj 18 74 prepend;
#X obj -70 36 prepend start;
#X obj 19 35 prepend stop;
#X obj -51 168 route start stop;
#X obj -53 352 f \$0;
#X msg -53 372 \; \$1-main-speed 0 \; \$1-motor-ratio 20 \; \$1-motor-level
0.2 \; \$1-brush-level 0.05 \; \$1-rotor-level 0.1 \; \$1-stator-level
0.3 \; \$1-fan-pulsewidth 4 \; \$1-fan-noise 0.2 \; \$1-fan-level 0.5
;
#X obj -51 188 f \$0;
#X msg -51 208 \; \$1-main-speed 22 \; \$1-motor-ratio 20 \; \$1-motor-level
0.2 \; \$1-brush-level 0.05 \; \$1-rotor-level 0.1 \; \$1-stator-level
0.3 \; \$1-fan-pulsewidth 4 \; \$1-fan-noise 0.2 \; \$1-fan-level 0.5
;
#X connect 0 0 5 0;
#X connect 1 0 6 0;
#X connect 2 0 4 1;
#X connect 3 0 7 0;
#X connect 4 0 3 0;
#X connect 5 0 4 0;
#X connect 6 0 4 0;
#X connect 7 0 10 0;
#X connect 7 1 8 0;
#X connect 8 0 9 0;
#X connect 10 0 11 0;
#X restore 101 273 pd \$0-preset-pannel;
#X obj 175 181 hradio 15 1 0 8 empty empty empty 0 -8 0 10 -262144
-1 -1 0;
#X obj 319 157 s pd-\$0-preset-pannel;
#X msg 319 138 vis 1;
#X connect 0 0 4 0;
#X connect 1 0 4 1;
#X connect 2 0 7 0;
#X connect 5 0 4 2;
#X connect 7 0 6 0;
#X coords 0 -1 1 1 200 105 1 100 100;
#X restore -1 -11 pd \$0-presets;
#X connect 0 0 1 0;
