#N canvas 247 63 320 432 10;
#X declare -path z_switch_abs;
#X obj 0 353 dac~;
#X obj 0 1 bng 15 250 50 0 empty empty empty 0 -6 0 8 -262144 -1 -1
;
#X obj 27 211 delwrite~ a 40;
#X obj 0 183 +~;
#X obj 1 305 +~;
#X obj 27 304 s~ fba;
#X obj 26 183 r~ fba;
#X obj 26 254 lop~ 400;
#X obj 27 232 delread~ a 25;
#X obj 27 279 *~ 0.3;
#X obj 0 328 *~ 0.3;
#X obj 96 122 shortping 10500 9453;
#X msg 22 82 4345 2480 4795;
#X msg 0 62 3345 2980 4790;
#X obj 0 42 del 200;
#X obj 0 144 *~ 0.2;
#X obj 0 20 t b b b;
#X obj 96 102 del 300;
#N canvas 0 22 450 300 slideclunk 0;
#X obj 10 77 vline~;
#X obj 10 107 *~;
#X obj 10 130 *~;
#X obj 10 151 *~;
#X obj 10 172 rpole~ 0.65;
#X obj 10 193 rpole~ 0.62;
#X msg 10 55 0 \, 0.46 100 0 \, 1 0 100 \, 0 50 101;
#X obj 41 132 pnoise;
#X obj 10 32 t b a;
#X obj 10 10 inlet f1 f2 f3;
#X obj 10 214 outlet~;
#X connect 0 0 1 0;
#X connect 0 0 1 1;
#X connect 1 0 2 0;
#X connect 1 0 2 1;
#X connect 2 0 3 0;
#X connect 3 0 4 0;
#X connect 4 0 5 0;
#X connect 5 0 10 0;
#X connect 6 0 0 0;
#X connect 7 0 3 1;
#X connect 8 0 6 0;
#X connect 8 1 7 0;
#X connect 9 0 8 0;
#X restore 0 122 pd slideclunk;
#X obj 161 289 declare -path z_switch_abs;
#X connect 1 0 16 0;
#X connect 3 0 4 0;
#X connect 3 0 2 0;
#X connect 4 0 10 0;
#X connect 6 0 2 0;
#X connect 7 0 9 0;
#X connect 8 0 7 0;
#X connect 9 0 5 0;
#X connect 9 0 4 1;
#X connect 10 0 0 0;
#X connect 10 0 0 1;
#X connect 12 0 18 0;
#X connect 13 0 18 0;
#X connect 14 0 13 0;
#X connect 15 0 3 0;
#X connect 16 0 14 0;
#X connect 16 1 12 0;
#X connect 16 2 17 0;
#X connect 17 0 11 0;
#X connect 18 0 15 0;
