#N canvas 796 169 334 211 10;
#N canvas 0 50 798 382 (subpatch) 0;
#X obj -279 83 r \$0-switch;
#X obj -274 115 switch~;
#X obj 0 1 cnv 15 260 15 empty empty Equipement-Fourstroke_Engine 0
8 0 12 -1 -215907 0;
#X obj 201 1 tgl 15 0 \$0-switch \$0klmjele on/off 20 6 0 10 -262144
-1 -262144 1 1;
#X obj 58 27 hsl 150 20 0 1 0 1 empty empty Engine-speed -2 10 0 12
-262144 -1 -1 4300 1;
#X obj -36 262 *~ 0.25;
#N canvas 297 145 713 375 fourstroke 0;
#X obj 51 340 outlet~;
#X obj 166 340 outlet~;
#X obj 287 340 outlet~;
#X obj 399 340 outlet~;
#X obj 277 10 inlet~;
#X obj 277 157 sig~;
#X obj 98 83 -~ 0.75;
#X obj 215 83 -~ 0.5;
#X obj 334 83 -~ 0.25;
#X obj 51 294 sig~ 1;
#X obj 51 320 /~;
#X obj 98 295 +~ 1;
#X obj 98 275 *~;
#X obj 98 253 *~;
#X obj 166 294 sig~ 1;
#X obj 166 320 /~;
#X obj 215 295 +~ 1;
#X obj 215 275 *~;
#X obj 215 252 *~;
#X obj 287 294 sig~ 1;
#X obj 287 320 /~;
#X obj 334 295 +~ 1;
#X obj 334 274 *~;
#X obj 334 251 *~;
#X obj 399 294 sig~ 1;
#X obj 399 320 /~;
#X obj 446 295 +~ 1;
#X obj 446 274 *~;
#X obj 446 250 *~;
#X obj 576 -13 noise~;
#X obj 462 227 +~;
#X obj 350 229 +~;
#X obj 231 231 +~;
#X obj 114 231 +~;
#X obj 446 65 +~;
#X obj 334 62 +~;
#X obj 215 61 +~;
#X obj 98 61 +~;
#X obj 576 8 lop~ 20;
#X obj 576 30 lop~ 20;
#X obj 98 104 cos~;
#X obj 215 103 cos~;
#X obj 334 103 cos~;
#X obj 446 102 cos~;
#X obj 19 7 swap 1;
#X obj 19 29 -;
#X obj 18 72 + 2;
#X obj 19 51 * 3;
#X obj 19 -15 inlet speed;
#X obj 606 63 *~ 0.5;
#X obj 547 62 *~ 10;
#X obj 114 -15 delread~ \$0-a 5;
#X obj 231 -14 delread~ \$0-a 10;
#X obj 350 -14 delread~ \$0-a 15;
#X obj 462 -13 delread~ \$0-a 20;
#X obj 606 88 delwrite~ \$0-a 20;
#X obj 547 112 delwrite~ \$0-b 20;
#X obj 478 207 vd~ \$0-b 20;
#X obj 366 209 vd~ \$0-b 15;
#X obj 247 211 vd~ \$0-b 10;
#X obj 130 210 vd~ \$0-b 5;
#X connect 4 0 37 0;
#X connect 4 0 36 0;
#X connect 4 0 35 0;
#X connect 4 0 34 0;
#X connect 5 0 30 0;
#X connect 5 0 33 0;
#X connect 5 0 32 0;
#X connect 5 0 31 0;
#X connect 6 0 40 0;
#X connect 7 0 41 0;
#X connect 8 0 42 0;
#X connect 9 0 10 0;
#X connect 10 0 0 0;
#X connect 11 0 10 1;
#X connect 12 0 11 0;
#X connect 13 0 12 0;
#X connect 13 0 12 1;
#X connect 14 0 15 0;
#X connect 15 0 1 0;
#X connect 16 0 15 1;
#X connect 17 0 16 0;
#X connect 18 0 17 0;
#X connect 18 0 17 1;
#X connect 19 0 20 0;
#X connect 20 0 2 0;
#X connect 21 0 20 1;
#X connect 22 0 21 0;
#X connect 23 0 22 0;
#X connect 23 0 22 1;
#X connect 24 0 25 0;
#X connect 25 0 3 0;
#X connect 26 0 25 1;
#X connect 27 0 26 0;
#X connect 28 0 27 0;
#X connect 28 0 27 1;
#X connect 29 0 38 0;
#X connect 30 0 28 1;
#X connect 31 0 23 1;
#X connect 32 0 18 1;
#X connect 33 0 13 1;
#X connect 34 0 43 0;
#X connect 35 0 8 0;
#X connect 36 0 7 0;
#X connect 37 0 6 0;
#X connect 38 0 39 0;
#X connect 39 0 49 0;
#X connect 39 0 50 0;
#X connect 40 0 13 0;
#X connect 41 0 18 0;
#X connect 42 0 23 0;
#X connect 43 0 28 0;
#X connect 44 0 45 0;
#X connect 44 1 45 1;
#X connect 45 0 47 0;
#X connect 46 0 5 0;
#X connect 47 0 46 0;
#X connect 48 0 44 0;
#X connect 49 0 55 0;
#X connect 50 0 56 0;
#X connect 51 0 37 1;
#X connect 52 0 36 1;
#X connect 53 0 35 1;
#X connect 54 0 34 1;
#X connect 57 0 30 1;
#X connect 58 0 31 1;
#X connect 59 0 32 1;
#X connect 60 0 33 1;
#X restore -100 231 pd fourstroke engine;
#X obj 35 206 phasor~;
#X obj 35 163 sig~;
#X obj 35 185 lop~ 0.8;
#X obj 35 142 * 40;
#X obj -36 289 outlet~;
#X connect 0 0 1 0;
#X connect 4 0 6 0;
#X connect 4 0 10 0;
#X connect 5 0 11 0;
#X connect 6 0 5 0;
#X connect 6 1 5 0;
#X connect 6 2 5 0;
#X connect 6 3 5 0;
#X connect 7 0 6 1;
#X connect 8 0 9 0;
#X connect 9 0 7 0;
#X connect 10 0 8 0;
#X coords 0 1 100 -1 260 60 1 0 0;
#X restore -93 1 graph;
#X obj -92 106 *~;
#X obj -92 128 dac~;
#X obj -76 87 lop~ 10;
#X obj -76 70 tgl 15 0 empty empty empty 17 7 0 10 -262144 -1 -1 1
1;
#X connect 0 0 1 0;
#X connect 1 0 2 0;
#X connect 1 0 2 1;
#X connect 3 0 1 1;
#X connect 4 0 3 0;
