#N canvas 459 220 227 102 10;
#N canvas 0 0 450 300 (subpatch) 0;
#X obj 242 252 noise~;
#X obj 137 214 sig~ 1;
#X obj 164 243 /~;
#X obj 212 193 *~;
#X obj 212 163 *~;
#X obj 71 34 nbx 5 14 1 10 0 1 empty empty pulsewidth 0 -6 0 10 -262144
-1 -1 8 256;
#X obj 212 215 +~ 1;
#X obj 188 417 +~;
#X obj 164 387 *~ 0.1;
#X obj 226 356 *~;
#X obj 298 186 +~ 200;
#X obj 298 107 cos~;
#X obj 242 281 lop~ 200;
#X obj 226 386 *~ 0.3;
#X obj 142 34 nbx 5 14 1 20 0 1 empty empty chop 0 -6 0 10 -262144
-1 -1 10 256;
#X obj 298 162 *~;
#X obj 298 81 phasor~;
#X obj 4 34 nbx 5 14 1 20 0 1 empty empty speed 0 -6 0 10 -262144 -1
-1 16 256;
#X obj 298 240 outlet~;
#X obj 188 445 delwrite~ \$0-a 400;
#X obj 298 210 vd~ \$0-a;
#X obj -279 82 r \$0-switch;
#X obj -274 114 switch~;
#X obj 0 0 cnv 15 200 15 empty empty Equipement-Fan-1 0 8 0 12 -1 -215907
0;
#X obj 141 0 tgl 15 0 \$0-switch \$0klmjele on/off 20 6 0 10 -262144
-1 -262144 0 1;
#X connect 0 0 12 0;
#X connect 1 0 2 0;
#X connect 2 0 8 0;
#X connect 2 0 9 0;
#X connect 3 0 6 0;
#X connect 4 0 3 0;
#X connect 4 0 3 1;
#X connect 5 0 4 0;
#X connect 6 0 2 1;
#X connect 7 0 19 0;
#X connect 8 0 7 0;
#X connect 9 0 13 0;
#X connect 10 0 20 0;
#X connect 11 0 4 1;
#X connect 11 0 15 0;
#X connect 12 0 9 1;
#X connect 13 0 7 1;
#X connect 14 0 15 1;
#X connect 15 0 10 0;
#X connect 16 0 11 0;
#X connect 17 0 16 0;
#X connect 20 0 18 0;
#X connect 21 0 22 0;
#X coords 0 1 100 -1 200 60 1 0 0;
#X restore 1 2 graph;
#N canvas 0 22 839 439 (subpatch) 0;
#X obj 88 90 change;
#X msg 90 154 set \$1;
#X obj 90 135 tosymbol;
#X msg 135 203 Bus10;
#X obj 94 2 tgl 18 0 empty empty DAC 23 10 0 11 -262144 -1 -1 0 1;
#X obj 250 174 *~;
#X obj 251 210 dac~;
#X obj 29 1 nbx 3 20 0 16 0 0 empty empty Bus -25 10 0 12 -1 -191407
-1 0 256;
#X obj 1 49 inlet~;
#X obj -1 232 throw~ Bus0;
#X obj 89 112 sprintf Bus%d;
#X connect 0 0 10 0;
#X connect 1 0 3 0;
#X connect 1 0 9 0;
#X connect 2 0 1 0;
#X connect 4 0 5 1;
#X connect 5 0 6 0;
#X connect 5 0 6 1;
#X connect 7 0 0 0;
#X connect 8 0 5 0;
#X connect 8 0 9 0;
#X connect 10 0 2 0;
#X coords 0 1 100 -1 140 22 1 0 0;
#X restore 1 65 graph;
#X connect 0 0 1 0;
