#N canvas 65 110 273 266 10;
#X declare -path z_helicopter_abs;
#X obj -97 -88 declare -path z_helicopter_abs;
#N canvas 0 50 1051 653 (subpatch) 0;
#N canvas 17 50 1349 696 engine 0;
#X obj 155 769 outlet~;
#X obj 99 581 +~;
#X obj 59 184 *~;
#X obj 4 202 sig~ 1;
#X obj 22 231 /~;
#X obj 59 205 +~ 1;
#X obj 23 312 -~ 0.5;
#X obj 215 407 bp~ 100 2;
#X obj 153 99 noise~;
#X obj 153 165 clip~ -0.5 0.5;
#X obj 22 288 +~;
#X obj 153 143 *~ 12;
#X obj 74 530 cos~;
#X obj 74 508 -~ 0.25;
#X obj 138 529 cos~;
#X obj 138 507 -~ 0.25;
#X obj 74 486 *~ 0.125;
#X obj 138 485 *~ 0.125;
#X obj 99 622 hip~ 12;
#X obj 99 601 lop~ 200;
#X obj 23 335 hip~ 30;
#X obj 153 121 bp~ 500 5;
#X obj 38 266 *~;
#X obj 153 187 *~ 0.15;
#X obj 74 556 *~ 0.17;
#X obj 138 554 *~ 0.17;
#X obj 52 385 *~ 0.6;
#X obj 75 54 *~;
#X obj 59 77 *~;
#X obj 59 125 +~;
#X obj 59 98 *~ -14;
#X obj 106 99 *~ 14;
#X obj 59 163 *~ 7;
#X obj 155 725 hip~ 200;
#X obj 155 747 hip~ 200;
#X obj 59 2 inlet~;
#X obj 59 23 phasor~;
#X obj 52 364 r~ \$0-ewgfb2;
#X obj 214 386 r~ \$0-ewgfb1;
#X obj 215 428 delwrite~ \$0-e1b 50;
#X obj 215 450 vd~ \$0-e1b 9;
#X obj 52 418 delwrite~ \$0-e1a 10;
#X obj 53 439 vd~ \$0-e1a 8;
#X obj 53 659 delwrite~ \$0-e2a 10;
#X obj 215 662 delwrite~ \$0-e2b 50;
#X obj 215 683 vd~ \$0-e2b 6;
#X obj 53 681 vd~ \$0-e2a 3;
#X obj 53 702 s~ \$0-ewgfb1;
#X obj 215 704 s~ \$0-ewgfb2;
#X connect 1 0 19 0;
#X connect 2 0 5 0;
#X connect 3 0 4 0;
#X connect 4 0 22 0;
#X connect 4 0 10 0;
#X connect 5 0 4 1;
#X connect 6 0 20 0;
#X connect 7 0 39 0;
#X connect 8 0 21 0;
#X connect 9 0 23 0;
#X connect 10 0 6 0;
#X connect 11 0 9 0;
#X connect 12 0 24 0;
#X connect 13 0 12 0;
#X connect 14 0 25 0;
#X connect 15 0 14 0;
#X connect 16 0 13 0;
#X connect 17 0 15 0;
#X connect 18 0 43 0;
#X connect 18 0 44 0;
#X connect 19 0 18 0;
#X connect 20 0 41 0;
#X connect 21 0 11 0;
#X connect 22 0 10 1;
#X connect 23 0 22 1;
#X connect 24 0 1 0;
#X connect 25 0 1 1;
#X connect 26 0 41 0;
#X connect 27 0 28 1;
#X connect 27 0 31 0;
#X connect 28 0 30 0;
#X connect 29 0 32 0;
#X connect 30 0 29 0;
#X connect 31 0 29 1;
#X connect 32 0 2 0;
#X connect 32 0 2 1;
#X connect 33 0 34 0;
#X connect 34 0 0 0;
#X connect 35 0 36 0;
#X connect 36 0 27 0;
#X connect 36 0 27 1;
#X connect 36 0 28 0;
#X connect 37 0 26 0;
#X connect 38 0 7 0;
#X connect 40 0 17 0;
#X connect 40 0 25 0;
#X connect 40 0 44 0;
#X connect 42 0 16 0;
#X connect 42 0 24 0;
#X connect 42 0 43 0;
#X connect 45 0 33 0;
#X connect 45 0 48 0;
#X connect 46 0 47 0;
#X restore 110 440 pd engine;
#N canvas 0 50 231 361 tail 0;
#X obj 109 2 inlet~;
#X obj 26 341 outlet~;
#X obj 80 152 noise~;
#X obj 2 115 sig~ 1;
#X obj 2 143 /~;
#X obj 59 87 *~;
#X obj 59 112 +~ 1;
#X obj 26 317 +~;
#X obj 2 287 *~ 0.1;
#X obj 80 229 vcf~ 1 12;
#X obj 64 256 *~;
#X obj 109 205 +~ 100;
#X obj 109 183 *~ 500;
#X obj 158 183 loadbang;
#X obj 64 286 *~ 0.3;
#X obj 109 26 osc~;
#X obj 59 62 *~ 1.5;
#X msg 158 206 6;
#X connect 0 0 15 0;
#X connect 2 0 9 0;
#X connect 3 0 4 0;
#X connect 4 0 8 0;
#X connect 4 0 10 0;
#X connect 5 0 6 0;
#X connect 6 0 4 1;
#X connect 7 0 1 0;
#X connect 8 0 7 0;
#X connect 9 0 10 1;
#X connect 10 0 14 0;
#X connect 11 0 9 1;
#X connect 12 0 11 0;
#X connect 13 0 17 0;
#X connect 14 0 7 1;
#X connect 15 0 12 0;
#X connect 15 0 16 0;
#X connect 16 0 5 0;
#X connect 16 0 5 1;
#X connect 17 0 9 2;
#X restore 249 445 pd tail rotor;
#N canvas 57 50 207 209 gears 0;
#X obj 60 189 outlet~;
#X obj 1 99 *~ 1.45;
#X obj 61 148 *~ 0.33;
#X obj 61 59 *~;
#X obj 78 28 inlet~ gear-ratio;
#X obj 61 4 inlet~ engine speed;
#X obj 1 123 osc~;
#X obj 61 123 osc~;
#X obj 121 122 osc~;
#X obj 61 98 *~ 2.81;
#X obj 1 147 *~ 0.2;
#X obj 121 97 *~ 9.41;
#X obj 121 148 *~ 0.14;
#X connect 1 0 6 0;
#X connect 2 0 0 0;
#X connect 3 0 1 0;
#X connect 3 0 9 0;
#X connect 3 0 11 0;
#X connect 4 0 3 1;
#X connect 5 0 3 0;
#X connect 6 0 10 0;
#X connect 7 0 2 0;
#X connect 8 0 12 0;
#X connect 9 0 7 0;
#X connect 10 0 0 0;
#X connect 11 0 8 0;
#X connect 12 0 0 0;
#X restore -18 423 pd gears;
#N canvas 0 50 205 392 distance 0;
#X obj 5 93 inlet~;
#X obj 4 370 outlet~;
#X obj 5 346 +~;
#X obj 21 243 sig~;
#X obj 5 115 lop~ 100;
#X obj 21 323 *~ 0.5;
#X obj 67 2 inlet;
#X obj 87 29 swap 1;
#X obj 87 50 -;
#X obj 87 92 + 50;
#X obj 5 137 lop~ 100;
#X obj 5 159 lop~ 100;
#X obj 21 283 +~ 2;
#X obj 21 263 *~ 3;
#X obj 87 71 * 6000;
#X obj 32 199 delwrite~ \$0-distance 1000;
#X obj 21 303 vd~ \$0-distance;
#X connect 0 0 4 0;
#X connect 2 0 1 0;
#X connect 3 0 13 0;
#X connect 4 0 10 0;
#X connect 5 0 2 1;
#X connect 6 0 3 0;
#X connect 6 0 7 0;
#X connect 7 0 8 0;
#X connect 7 1 8 1;
#X connect 8 0 14 0;
#X connect 9 0 4 1;
#X connect 9 0 10 1;
#X connect 9 0 11 1;
#X connect 10 0 11 0;
#X connect 11 0 2 0;
#X connect 11 0 15 0;
#X connect 12 0 16 0;
#X connect 13 0 12 0;
#X connect 14 0 9 0;
#X connect 16 0 5 0;
#X restore 373 475 pd distance;
#X obj 110 307 lop~ 0.6;
#X obj 10 34 mainrotor;
#X obj 265 397 lop~ 0.6;
#X obj 249 420 *~;
#X obj 265 376 sig~;
#X obj 118 84 hsl 64 12 0 1 0 1 \$0-tail-mix empty tail-mix 1 6 0 10
-262144 -1 -1 6300 1;
#X obj 264 465 r \$0-tail-mix;
#X obj 248 488 *~;
#X obj 573 434 *~;
#X obj 589 410 r \$0-rotor-mix;
#X obj 118 120 hsl 64 12 0 1 0 1 \$0-rotor-mix empty rotor-mix 1 6
0 10 -262144 -1 -1 6300 1;
#X obj 118 60 hsl 64 12 0 1 0 1 \$0-engine-mix empty engine-mix 1 6
0 10 -262144 -1 -1 1200 1;
#X obj 110 487 *~;
#X obj 126 463 r \$0-engine-mix;
#X obj -19 487 *~;
#X obj 118 96 hsl 64 12 0 1 0 1 \$0-gear-ratio empty gear-ratio 1 6
0 10 -262144 -1 -1 1600 1;
#X obj 33 401 + 2;
#X obj 33 380 * 12;
#X obj 33 357 r \$0-gear-ratio;
#X obj 118 108 hsl 64 12 0 1 0 1 \$0-gear-mix empty gear-mix 1 6 0
10 -262144 -1 -1 1100 1;
#X obj -3 443 r \$0-gear-mix;
#X obj -3 465 * 0.1;
#X obj 118 48 hsl 64 12 0 1 0 1 \$0-engine-speed empty engine-spd 1
6 0 10 -262144 -1 -1 3600 1;
#X obj 110 247 r \$0-engine-speed;
#X obj 110 267 * 90;
#X obj 110 287 + 1;
#X obj 265 334 r \$0-tail-speed;
#X obj 118 72 hsl 64 12 0 1 0 1 \$0-tail-speed empty tail-speed 1 6
0 10 -262144 -1 -1 3800 1;
#X obj 265 355 * 2;
#X obj 374 435 vrdel 500 3000 0.2;
#X obj 118 36 hsl 64 12 0 1 0 1 \$0-distance empty distance 1 6 0 10
-262144 -1 -1 5500 1;
#X obj 445 455 r \$0-distance;
#X obj -19 508 throw~ \$0-body;
#X obj 109 508 throw~ \$0-body;
#X obj 247 508 throw~ \$0-body;
#X obj 373 411 catch~ \$0-body;
#X obj 573 458 throw~ \$0-body;
#X obj 376 505 outlet~;
#X obj 0 0 cnv 15 200 15 empty empty Equipement-Helicopter 0 8 0 12
-1 -215907 0;
#X connect 0 0 16 0;
#X connect 1 0 11 0;
#X connect 2 0 18 0;
#X connect 3 0 41 0;
#X connect 4 0 2 0;
#X connect 4 0 7 0;
#X connect 4 0 0 0;
#X connect 5 0 33 1;
#X connect 5 1 12 0;
#X connect 6 0 7 1;
#X connect 7 0 1 0;
#X connect 8 0 6 0;
#X connect 10 0 11 1;
#X connect 11 0 38 0;
#X connect 12 0 40 0;
#X connect 13 0 12 1;
#X connect 16 0 37 0;
#X connect 17 0 16 1;
#X connect 18 0 36 0;
#X connect 20 0 2 1;
#X connect 21 0 20 0;
#X connect 22 0 21 0;
#X connect 24 0 25 0;
#X connect 25 0 18 1;
#X connect 27 0 28 0;
#X connect 28 0 29 0;
#X connect 29 0 4 0;
#X connect 30 0 32 0;
#X connect 32 0 8 0;
#X connect 33 0 3 0;
#X connect 35 0 3 1;
#X connect 39 0 33 0;
#X coords 0 1 100 -1 200 140 1 0 0;
#X restore -108 -67 graph;
#X obj -103 120 *~;
#X obj -103 142 dac~;
#X obj -87 101 lop~ 10;
#X obj -87 84 tgl 15 0 empty empty empty 17 7 0 10 -262144 -1 -1 1
1;
#X connect 1 0 2 0;
#X connect 2 0 3 0;
#X connect 2 0 3 1;
#X connect 4 0 2 1;
#X connect 5 0 4 0;
