#N canvas 81 138 102 340 10;
#X obj 0 238 sig~;
#X obj 0 313 dac~;
#X obj 36 215 == 0;
#X obj 30 81 delay;
#X msg 30 102 0;
#X msg 0 103 1;
#X obj 0 39 t b f;
#X obj 0 215 + 1;
#X obj 0 163 t b b;
#X obj 0 139 metro 100;
#X obj 30 60 * 100;
#X obj 30 188 del 40;
#X msg 0 0 1;
#X msg 31 0 5;
#X msg 65 0 7;
#X obj 0 284 *~ 0.8;
#N canvas 65 82 450 300 telephone-line 0;
#X obj 5 52 bp~ 2000 12;
#X obj 5 124 bp~ 400 7;
#X obj 5 148 hip~ 90;
#X obj 5 172 hip~ 90;
#X obj 5 4 inlet~ thisend;
#X obj 5 196 outlet~ thatend;
#X obj 5 28 clip~ -0.9 0.9;
#X obj 5 85 *~ 1.2;
#X connect 0 0 7 0;
#X connect 1 0 2 0;
#X connect 2 0 3 0;
#X connect 3 0 5 0;
#X connect 4 0 6 0;
#X connect 6 0 0 0;
#X connect 7 0 1 0;
#X restore 0 261 pd telephone-line;
#X connect 0 0 16 0;
#X connect 2 0 7 1;
#X connect 3 0 4 0;
#X connect 4 0 9 0;
#X connect 5 0 9 0;
#X connect 6 0 5 0;
#X connect 6 1 10 0;
#X connect 7 0 2 0;
#X connect 7 0 0 0;
#X connect 8 0 7 0;
#X connect 8 1 11 0;
#X connect 9 0 8 0;
#X connect 10 0 3 0;
#X connect 11 0 7 0;
#X connect 12 0 6 0;
#X connect 13 0 6 0;
#X connect 14 0 6 0;
#X connect 15 0 1 0;
#X connect 15 0 1 1;
#X connect 16 0 15 0;
