#N canvas 338 22 314 273 10;
#X obj -5 2 r bang;
#X obj 69 44 r ctl7;
#X obj 105 65 r ctl8;
#X obj 31 24 r ctl6;
#X floatatom 69 143 5 0 0 0 - - -;
#X floatatom 105 143 5 0 0 0 - - -;
#X floatatom 69 182 5 0 0 0 - - -;
#X floatatom 105 182 5 0 0 0 - - -;
#X obj 69 162 * 10;
#X obj 105 162 * 100;
#X floatatom 31 182 5 0 0 0 - - -;
#X obj 31 161 * 200;
#X floatatom 31 142 5 0 0 0 - - -;
#X text 79 23 set attack;
#X text 116 44 set length;
#X text 149 64 set decay;
#X obj 31 113 knob 25 25 0 127 0 0 empty empty empty 0 -8 32 8 -1 -260097
-260097 0 1;
#X obj 69 114 knob 25 25 0 127 0 0 empty empty empty 0 -8 32 8 -1 -260097
-260097 0 1;
#X obj 105 114 knob 25 25 0 127 0 0 empty empty empty 0 -8 32 8 -1
-260097 -260097 0 1;
#N canvas 0 22 450 300 (subpatch) 0;
#X obj 59 155 inlet;
#X obj 3 89 inlet~;
#X obj 58 182 change;
#X msg 60 246 set \$1;
#X obj 60 227 tosymbol;
#X obj 59 204 sprintf Bus%d;
#X obj 3 282 throw~ Bus0;
#X obj 2 3 popup 124 25 #ffffff popup Bus0 Bus1 Bus2 Bus3 Bus4 Bus5
;
#X obj 1 32 route bang;
#X obj 154 202 *~;
#X obj 141 7 tgl 15 0 empty empty Dac 19 7 0 10 -262144 -1 -1 0 1;
#X obj 155 238 dac~;
#X obj 1 -41 loadbang;
#X text 59 -43 Bus0 mutes;
#X msg 1 -23 options Bus0 Bus1 Bus2 Bus3 Bus4 Bus5 Bus6 Bus7 Bus8 Bus9
Bus10 Bus11 Bus12 Bus13 Bus14 Bus15 Bus16;
#X connect 0 0 2 0;
#X connect 1 0 6 0;
#X connect 1 0 9 0;
#X connect 2 0 5 0;
#X connect 3 0 6 0;
#X connect 4 0 3 0;
#X connect 5 0 4 0;
#X connect 7 0 8 0;
#X connect 8 1 2 0;
#X connect 9 0 11 0;
#X connect 9 0 11 1;
#X connect 10 0 9 1;
#X connect 12 0 14 0;
#X connect 14 0 7 0;
#X coords 0 1 100 -1 180 30 1 0 0;
#X restore -5 216 graph;
#N canvas 0 22 727 720 MetalCassing________ 0;
#X obj 306 351 noise~;
#X obj 282 510 *~ 100;
#X obj 283 560 *~;
#X obj 289 420 *~;
#X obj 276 370 *~;
#X obj 277 392 *~;
#X obj 292 447 *~ 1;
#X obj 201 483 bp~ 30 800;
#X obj 281 482 bp~ 31 800;
#X obj 360 481 bp~ 32 800;
#X obj 448 378 + 700;
#X obj 289 331 ead~ 0 10;
#X obj 68 241 delay 500;
#X obj 68 338 delay 50;
#X obj 55 373 t;
#X obj 66 451 sel 1;
#X obj 84 401 - 1;
#X obj 95 475 / 4;
#X msg 65 474 3;
#X obj 55 402 f 3;
#X obj 54 427 <= 0;
#X obj 282 535 clip~ -0.9 0.9;
#X obj 95 519 - 0.45;
#X obj 95 497 sqrt;
#X obj 498 378 + 300;
#X obj 477 345 random 100;
#X obj 347 305 random 40;
#X obj 69 197 random 175;
#X obj 69 220 + 170;
#X obj 67 289 random 75;
#X obj 67 312 + 75;
#X obj 392 346 random 1000;
#X obj 135 108 random 250;
#X obj 392 380 + 4500;
#X obj 132 161 t b b b b b b;
#X obj 67 267 t b b;
#X text 21 34 shell case tinkle;
#X obj 137 35 bng 15 250 50 0 empty empty empty 0 -6 0 8 -262144 -1
-1;
#X obj 137 55 t b b;
#X obj 392 431 +;
#X obj 392 458 +;
#X obj 135 132 delay 1;
#X obj 323 615 *~;
#X obj 141 10 inlet;
#X obj 489 503 inlet;
#N canvas 0 22 450 300 eald~ 0;
#X msg 394 133 bang;
#X floatatom 504 74 5 0 0 0 - - -;
#X floatatom 555 73 5 0 0 0 - - -;
#X floatatom 605 73 5 0 0 0 - - -;
#X text 471 25 "ALD" enveloppe;
#X obj 504 49 inlet;
#X obj 555 48 inlet;
#X obj 605 48 inlet;
#X obj 408 52 inlet;
#X obj 379 432 outlet~;
#X text 633 133 ENVELOPE SECTION;
#X obj 379 346 vline~;
#X msg 352 245 1;
#X obj 352 265 pack f f;
#X obj 352 286 unpack f f;
#X msg 456 246 0;
#X obj 456 267 pack f f f;
#X obj 456 288 unpack f f f;
#X obj 456 225 delay 5;
#X text 102 283 Attack : sends a 1 to get to in A msec;
#X text 529 224 wait the end of the attack;
#X text 538 254 Length+Decay : 0 to get to in D msec \, after L msec
;
#X text 493 74 A;
#X text 544 74 L;
#X text 594 74 D;
#X connect 0 0 12 0;
#X connect 0 0 18 0;
#X connect 1 0 13 1;
#X connect 1 0 18 1;
#X connect 2 0 16 2;
#X connect 3 0 16 1;
#X connect 5 0 1 0;
#X connect 6 0 2 0;
#X connect 7 0 3 0;
#X connect 8 0 0 0;
#X connect 11 0 9 0;
#X connect 12 0 13 0;
#X connect 13 0 14 0;
#X connect 14 0 11 0;
#X connect 14 1 11 1;
#X connect 15 0 16 0;
#X connect 16 0 17 0;
#X connect 17 0 11 0;
#X connect 17 1 11 1;
#X connect 17 2 11 2;
#X connect 18 0 15 0;
#X restore 333 591 pd eald~;
#X obj 533 503 inlet;
#X obj 579 505 inlet;
#X obj 327 643 outlet~;
#X connect 0 0 3 1;
#X connect 1 0 21 0;
#X connect 2 0 42 0;
#X connect 3 0 6 0;
#X connect 4 0 5 0;
#X connect 4 0 5 1;
#X connect 5 0 3 0;
#X connect 6 0 7 0;
#X connect 6 0 8 0;
#X connect 6 0 9 0;
#X connect 7 0 1 0;
#X connect 8 0 1 0;
#X connect 9 0 1 0;
#X connect 10 0 39 1;
#X connect 11 0 4 0;
#X connect 11 0 4 1;
#X connect 12 0 14 0;
#X connect 12 0 35 0;
#X connect 13 0 14 0;
#X connect 14 0 11 0;
#X connect 14 0 19 0;
#X connect 15 0 18 0;
#X connect 16 0 19 1;
#X connect 17 0 23 0;
#X connect 18 0 19 0;
#X connect 19 0 16 0;
#X connect 19 0 17 0;
#X connect 19 0 20 0;
#X connect 20 0 15 0;
#X connect 21 0 2 0;
#X connect 22 0 2 1;
#X connect 23 0 22 0;
#X connect 24 0 40 1;
#X connect 25 0 10 0;
#X connect 25 0 24 0;
#X connect 26 0 11 2;
#X connect 27 0 28 0;
#X connect 28 0 12 1;
#X connect 29 0 30 0;
#X connect 30 0 13 1;
#X connect 31 0 33 0;
#X connect 32 0 41 1;
#X connect 33 0 7 1;
#X connect 33 0 39 0;
#X connect 34 0 27 0;
#X connect 34 1 26 0;
#X connect 34 2 31 0;
#X connect 34 3 25 0;
#X connect 34 4 12 0;
#X connect 34 5 14 0;
#X connect 35 0 29 0;
#X connect 35 1 13 0;
#X connect 37 0 38 0;
#X connect 37 0 45 0;
#X connect 38 0 32 0;
#X connect 38 1 41 0;
#X connect 39 0 8 1;
#X connect 39 0 40 0;
#X connect 40 0 9 1;
#X connect 41 0 34 0;
#X connect 42 0 48 0;
#X connect 43 0 37 0;
#X connect 44 0 45 1;
#X connect 45 0 42 1;
#X connect 46 0 45 2;
#X connect 47 0 45 3;
#X restore -5 198 pd MetalCassing________;
#N canvas 0 22 450 300 (subpatch) 0;
#X obj -30 22 spigot;
#X obj 2 3 tgl 15 0 empty empty empty 17 7 0 10 -262144 -1 -1 0 1;
#X obj -58 0 inlet;
#X obj -54 54 outlet;
#X connect 0 0 3 0;
#X connect 1 0 0 1;
#X connect 2 0 0 0;
#X coords 0 1 100 -1 20 20 1 0 0;
#X restore 31 90 graph;
#N canvas 0 22 450 300 (subpatch) 0;
#X obj -30 22 spigot;
#X obj 2 3 tgl 15 0 empty empty empty 17 7 0 10 -262144 -1 -1 0 1;
#X obj -58 0 inlet;
#X obj -54 54 outlet;
#X connect 0 0 3 0;
#X connect 1 0 0 1;
#X connect 2 0 0 0;
#X coords 0 1 100 -1 20 20 1 0 0;
#X restore 69 91 graph;
#N canvas 0 22 450 300 (subpatch) 0;
#X obj -30 22 spigot;
#X obj 2 3 tgl 15 0 empty empty empty 17 7 0 10 -262144 -1 -1 0 1;
#X obj -58 0 inlet;
#X obj -54 54 outlet;
#X connect 0 0 3 0;
#X connect 1 0 0 1;
#X connect 2 0 0 0;
#X coords 0 1 100 -1 20 20 1 0 0;
#X restore 105 91 graph;
#N canvas 0 22 450 300 (subpatch) 0;
#X obj -30 22 spigot;
#X obj 2 3 tgl 15 0 empty empty empty 17 7 0 10 -262144 -1 -1 0 1;
#X obj -58 0 inlet;
#X obj -54 54 outlet;
#X connect 0 0 3 0;
#X connect 1 0 0 1;
#X connect 2 0 0 0;
#X coords 0 1 100 -1 20 20 1 0 0;
#X restore -5 90 graph;
#X connect 0 0 24 0;
#X connect 1 0 22 0;
#X connect 2 0 23 0;
#X connect 3 0 21 0;
#X connect 4 0 8 0;
#X connect 5 0 9 0;
#X connect 6 0 20 2;
#X connect 7 0 20 3;
#X connect 8 0 6 0;
#X connect 9 0 7 0;
#X connect 10 0 20 1;
#X connect 11 0 10 0;
#X connect 12 0 11 0;
#X connect 16 0 12 0;
#X connect 17 0 4 0;
#X connect 18 0 5 0;
#X connect 20 0 19 0;
#X connect 21 0 16 0;
#X connect 22 0 17 0;
#X connect 23 0 18 0;
#X connect 24 0 20 0;
