#N canvas 332 87 314 273 10;
#N canvas 65 54 1301 714 MetalCassing________ 0;
#X obj 306 351 noise~;
#X obj 282 510 *~ 100;
#X obj 283 560 *~;
#X obj 289 420 *~;
#X obj 276 370 *~;
#X obj 277 392 *~;
#X obj 292 447 *~ 1;
#X obj 201 483 bp~ 30 800;
#X obj 281 482 bp~ 31 800;
#X obj 360 481 bp~ 32 800;
#X obj 448 378 + 700;
#X obj 68 241 delay 500;
#X obj 68 338 delay 50;
#X obj 66 451 sel 1;
#X obj 84 401 - 1;
#X obj 95 475 / 4;
#X msg 65 474 3;
#X obj 55 402 f 3;
#X obj 54 427 <= 0;
#X obj 282 535 clip~ -0.9 0.9;
#X obj 95 519 - 0.45;
#X obj 95 497 sqrt;
#X obj 498 378 + 300;
#X obj 477 345 random 100;
#X obj 347 305 random 40;
#X obj 69 197 random 175;
#X obj 69 220 + 170;
#X obj 67 289 random 75;
#X obj 67 312 + 75;
#X obj 392 346 random 1000;
#X obj 135 108 random 250;
#X obj 392 380 + 4500;
#X obj 132 161 t b b b b b b;
#X obj 67 267 t b b;
#X text 21 34 shell case tinkle;
#X obj 137 35 bng 15 250 50 0 empty empty empty 0 -6 0 8 -262144 -1
-1;
#X obj 137 55 t b b;
#X obj 392 431 +;
#X obj 392 458 +;
#X obj 135 132 delay 1;
#X obj 141 10 inlet;
#X obj 327 643 outlet~;
#N canvas 65 82 450 300 ead~ 0;
#X obj 44 26 inlet;
#X obj 47 52 bang;
#X obj 43 79 f \$1;
#X obj 107 36 inlet;
#X obj 40 109 t f b f;
#X obj 70 151 delay;
#X obj 145 148 inlet;
#X obj 81 191 f \$2;
#X obj 43 257 line~;
#X msg 35 222 1 \$1;
#X msg 80 229 0 \$1;
#X obj 45 286 outlet~;
#X connect 0 0 1 0;
#X connect 1 0 2 0;
#X connect 2 0 4 0;
#X connect 3 0 2 1;
#X connect 4 0 9 0;
#X connect 4 1 5 0;
#X connect 4 2 5 1;
#X connect 5 0 7 0;
#X connect 6 0 7 1;
#X connect 7 0 10 0;
#X connect 8 0 11 0;
#X connect 9 0 8 0;
#X connect 10 0 8 0;
#X restore 254 277 pd ead~ 0 10;
#X obj 345 146 loadbang;
#X msg 343 171 0;
#X obj 55 373 t v;
#X connect 0 0 3 1;
#X connect 1 0 19 0;
#X connect 2 0 41 0;
#X connect 3 0 6 0;
#X connect 4 0 5 0;
#X connect 4 0 5 1;
#X connect 5 0 3 0;
#X connect 6 0 7 0;
#X connect 6 0 8 0;
#X connect 6 0 9 0;
#X connect 7 0 1 0;
#X connect 8 0 1 0;
#X connect 9 0 1 0;
#X connect 10 0 37 1;
#X connect 11 0 33 0;
#X connect 11 0 45 0;
#X connect 12 0 45 0;
#X connect 13 0 16 0;
#X connect 14 0 17 1;
#X connect 15 0 21 0;
#X connect 16 0 17 0;
#X connect 17 0 14 0;
#X connect 17 0 15 0;
#X connect 17 0 18 0;
#X connect 18 0 13 0;
#X connect 19 0 2 0;
#X connect 20 0 2 1;
#X connect 21 0 20 0;
#X connect 22 0 38 1;
#X connect 23 0 10 0;
#X connect 23 0 22 0;
#X connect 24 0 42 2;
#X connect 25 0 26 0;
#X connect 26 0 11 1;
#X connect 27 0 28 0;
#X connect 28 0 12 1;
#X connect 29 0 31 0;
#X connect 30 0 39 1;
#X connect 31 0 7 1;
#X connect 31 0 37 0;
#X connect 32 0 25 0;
#X connect 32 1 24 0;
#X connect 32 2 29 0;
#X connect 32 3 23 0;
#X connect 32 4 11 0;
#X connect 32 5 45 0;
#X connect 33 0 27 0;
#X connect 33 1 12 0;
#X connect 35 0 36 0;
#X connect 36 0 30 0;
#X connect 36 1 39 0;
#X connect 37 0 8 1;
#X connect 37 0 38 0;
#X connect 38 0 9 1;
#X connect 39 0 32 0;
#X connect 40 0 35 0;
#X connect 42 0 4 0;
#X connect 42 0 4 1;
#X connect 43 0 44 0;
#X connect 44 0 42 1;
#X connect 45 0 17 0;
#X connect 45 0 42 0;
#X restore 7 135 pd MetalCassing________;
#X obj 7 33 bng 25 250 50 0 empty empty empty 17 7 0 10 -262144 -1
-1;
#X obj 9 197 *~;
#X obj 9 219 dac~;
#X obj 25 178 lop~ 10;
#X obj 25 161 tgl 15 0 empty empty empty 17 7 0 10 -262144 -1 -1 1
1;
#X connect 0 0 2 0;
#X connect 1 0 0 0;
#X connect 2 0 3 0;
#X connect 2 0 3 1;
#X connect 4 0 2 1;
#X connect 5 0 4 0;
