#N canvas 65 111 204 164 10;
#X obj 1 -16 cnv 15 200 160 empty empty fireworks 10 12 1 16 -233017
-62784 0;
#X obj 38 35 hsl 128 15 0 1 0 1 \$0-distance empty distance 40 7 1
8 -262144 -258699 -1 11100 1;
#N canvas 462 179 332 228 guts 0;
#N canvas 65 92 1056 686 rockets 0;
#X obj 141 -176 inlet;
#X obj 141 -154 t b l;
#X obj 231 63 vline~;
#X obj 164 63 sig~ 1;
#X obj 165 86 -~;
#X obj 83 287 *~;
#X obj 345 63 +~ 0.5;
#X obj 229 153 +~;
#X obj 346 39 osc~ 3;
#X obj 345 82 *~ 15;
#X obj 346 -3 * 15;
#X obj 346 18 + 2;
#X floatatom 343 -23 5 0 0 0 - - -, f 5;
#X obj 196 204 vcf~ 400 3;
#X obj 195 230 *~ 34;
#X obj 101 163 noise~;
#X obj 101 209 vcf~ 400 3;
#X obj 100 235 *~ 34;
#X obj 165 131 +~ 200;
#X obj 230 131 +~ 2000;
#X obj 230 111 *~ 1000;
#X obj 126 330 +~;
#X obj 165 112 *~ 100;
#X obj 119 396 cos~;
#X obj 158 259 osc~ 2;
#X obj 157 396 cos~;
#X obj 120 417 -~;
#X obj 120 445 lop~ 3000;
#X obj 120 466 lop~ 3000;
#X obj 128 542 delwrite~ \$0-phaser 200;
#X obj 158 500 r~ \$0-phaserfb;
#X obj -29 676 s~ \$0-phaserfb;
#X obj -29 630 hip~ 60;
#X obj 76 542 *~ 100;
#X obj 362 -74 + 1;
#X obj 287 135 loadbang;
#X obj 362 -53 * 3;
#X obj 263 -83 - 0.5;
#X obj 160 -84 - 0.5;
#X obj 171 -131 unpack f f f f f f f f;
#X obj 216 10 f;
#X msg 216 35 0 0 0 \, 1 \$1 1;
#X obj 422 90 outlet delaytime;
#X obj 422 -34 / 0.8;
#X obj 1 328 *~;
#X obj 106 128 *~;
#X obj 37 229 *~;
#X obj 17 283 hip~ 700;
#X obj 16 307 lop~ 5000;
#X obj 160 -60 * 1200;
#X obj 206 -60 * 1000;
#X obj 309 -59 * 1000;
#X obj 263 -59 * 2000;
#X obj 99 259 +~;
#X obj 157 300 +~ 0.25;
#X obj 158 279 *~ 0.0125;
#X obj 1 351 *~ 0.0125;
#X obj 77 566 +~ 15;
#X msg 261 179 4;
#X obj 51 187 lop~ 1;
#X obj 422 -57 * 1000;
#X obj 422 59 + 500;
#X msg 166 182 5;
#X obj -30 654 *~ 0.15;
#X obj 76 594 vd~ \$0-phaser;
#X obj 453 -9 r \$0-distance;
#X obj 453 34 + 200;
#X obj 453 13 * 1000;
#X obj 76 641 *~ 0.03;
#X obj 76 619 hip~ 600;
#X obj 74 663 outlet~;
#X connect 0 0 1 0;
#X connect 1 0 40 0;
#X connect 1 1 39 0;
#X connect 2 0 4 1;
#X connect 2 0 20 0;
#X connect 3 0 4 0;
#X connect 4 0 22 0;
#X connect 4 0 45 1;
#X connect 4 0 45 0;
#X connect 4 0 33 0;
#X connect 5 0 21 0;
#X connect 6 0 9 0;
#X connect 7 0 13 1;
#X connect 8 0 6 0;
#X connect 9 0 7 1;
#X connect 10 0 11 0;
#X connect 10 0 9 1;
#X connect 11 0 8 0;
#X connect 12 0 10 0;
#X connect 13 0 14 0;
#X connect 14 0 53 1;
#X connect 15 0 16 0;
#X connect 15 0 47 0;
#X connect 15 0 13 0;
#X connect 16 0 17 0;
#X connect 17 0 53 0;
#X connect 18 0 16 1;
#X connect 19 0 7 0;
#X connect 20 0 19 0;
#X connect 21 0 23 0;
#X connect 21 0 29 0;
#X connect 22 0 18 0;
#X connect 23 0 26 0;
#X connect 24 0 55 0;
#X connect 25 0 26 1;
#X connect 26 0 27 0;
#X connect 27 0 28 0;
#X connect 28 0 29 0;
#X connect 30 0 29 0;
#X connect 32 0 63 0;
#X connect 33 0 57 0;
#X connect 34 0 36 0;
#X connect 35 0 58 0;
#X connect 35 0 62 0;
#X connect 36 0 24 0;
#X connect 37 0 52 0;
#X connect 38 0 49 0;
#X connect 39 0 38 0;
#X connect 39 1 50 0;
#X connect 39 2 37 0;
#X connect 39 3 51 0;
#X connect 39 4 34 0;
#X connect 39 7 60 0;
#X connect 40 0 41 0;
#X connect 41 0 2 0;
#X connect 43 0 61 0;
#X connect 44 0 56 0;
#X connect 45 0 59 0;
#X connect 46 0 44 0;
#X connect 47 0 48 0;
#X connect 48 0 44 1;
#X connect 49 0 22 1;
#X connect 50 0 18 1;
#X connect 51 0 19 1;
#X connect 52 0 20 1;
#X connect 53 0 5 1;
#X connect 54 0 21 1;
#X connect 54 0 25 0;
#X connect 55 0 54 0;
#X connect 56 0 23 0;
#X connect 57 0 64 0;
#X connect 58 0 13 2;
#X connect 59 0 5 0;
#X connect 59 0 46 0;
#X connect 59 0 46 1;
#X connect 60 0 40 1;
#X connect 60 0 43 0;
#X connect 61 0 42 0;
#X connect 62 0 16 2;
#X connect 63 0 31 0;
#X connect 64 0 32 0;
#X connect 64 0 69 0;
#X connect 65 0 67 0;
#X connect 66 0 61 1;
#X connect 67 0 66 0;
#X connect 68 0 70 0;
#X connect 69 0 68 0;
#X restore 47 120 pd rockets;
#N canvas 65 82 688 543 random 0;
#X obj 116 -259 tgl 15 0 empty empty empty 0 -6 0 8 -262144 -1 -1 1
1;
#X obj 111 47 pack f f f f f f f f f;
#N canvas 0 50 450 300 rris 0;
#X obj 85 134 wrap;
#X obj 85 110 f;
#X obj 115 110 +;
#X obj 85 36 random 1000;
#X obj 85 81 t b f;
#X obj 85 57 / 10000;
#X obj 85 13 inlet;
#X obj 153 11 inlet step;
#X obj 85 160 outlet;
#X connect 0 0 8 0;
#X connect 1 0 2 0;
#X connect 1 0 0 0;
#X connect 2 0 1 1;
#X connect 3 0 5 0;
#X connect 4 0 1 0;
#X connect 4 1 2 1;
#X connect 5 0 4 0;
#X connect 6 0 3 0;
#X connect 7 0 5 1;
#X restore 62 -102 pd rris;
#X obj 116 -238 metro 200;
#N canvas 0 50 450 300 rris 0;
#X obj 85 134 wrap;
#X obj 85 110 f;
#X obj 115 110 +;
#X obj 85 36 random 1000;
#X obj 85 81 t b f;
#X obj 85 57 / 10000;
#X obj 85 13 inlet;
#X obj 153 11 inlet step;
#X obj 85 160 outlet;
#X connect 0 0 8 0;
#X connect 1 0 2 0;
#X connect 1 0 0 0;
#X connect 2 0 1 1;
#X connect 3 0 5 0;
#X connect 4 0 1 0;
#X connect 4 1 2 1;
#X connect 5 0 4 0;
#X connect 6 0 3 0;
#X connect 7 0 5 1;
#X restore 121 -103 pd rris;
#N canvas 0 50 450 300 rris 0;
#X obj 85 134 wrap;
#X obj 85 110 f;
#X obj 115 110 +;
#X obj 85 36 random 1000;
#X obj 85 81 t b f;
#X obj 85 57 / 10000;
#X obj 85 13 inlet;
#X obj 153 11 inlet step;
#X obj 85 160 outlet;
#X connect 0 0 8 0;
#X connect 1 0 2 0;
#X connect 1 0 0 0;
#X connect 2 0 1 1;
#X connect 3 0 5 0;
#X connect 4 0 1 0;
#X connect 4 1 2 1;
#X connect 5 0 4 0;
#X connect 6 0 3 0;
#X connect 7 0 5 1;
#X restore 180 -103 pd rris;
#N canvas 0 50 450 300 rris 0;
#X obj 85 134 wrap;
#X obj 85 110 f;
#X obj 115 110 +;
#X obj 85 36 random 1000;
#X obj 85 81 t b f;
#X obj 85 57 / 10000;
#X obj 85 13 inlet;
#X obj 153 11 inlet step;
#X obj 85 160 outlet;
#X connect 0 0 8 0;
#X connect 1 0 2 0;
#X connect 1 0 0 0;
#X connect 2 0 1 1;
#X connect 3 0 5 0;
#X connect 4 0 1 0;
#X connect 4 1 2 1;
#X connect 5 0 4 0;
#X connect 6 0 3 0;
#X connect 7 0 5 1;
#X restore 239 -104 pd rris;
#N canvas 65 82 450 300 rris 0;
#X obj 85 134 wrap;
#X obj 85 110 f;
#X obj 115 110 +;
#X obj 85 36 random 1000;
#X obj 85 81 t b f;
#X obj 85 57 / 10000;
#X obj 85 13 inlet;
#X obj 153 11 inlet step;
#X obj 85 160 outlet;
#X connect 0 0 8 0;
#X connect 1 0 2 0;
#X connect 1 0 0 0;
#X connect 2 0 1 1;
#X connect 3 0 5 0;
#X connect 4 0 1 0;
#X connect 4 1 2 1;
#X connect 5 0 4 0;
#X connect 6 0 3 0;
#X connect 7 0 5 1;
#X restore 92 -76 pd rris;
#N canvas 65 82 450 300 rris 0;
#X obj 85 134 wrap;
#X obj 85 110 f;
#X obj 115 110 +;
#X obj 85 36 random 1000;
#X obj 85 81 t b f;
#X obj 85 57 / 10000;
#X obj 85 13 inlet;
#X obj 153 11 inlet step;
#X obj 85 160 outlet;
#X connect 0 0 8 0;
#X connect 1 0 2 0;
#X connect 1 0 0 0;
#X connect 2 0 1 1;
#X connect 3 0 5 0;
#X connect 4 0 1 0;
#X connect 4 1 2 1;
#X connect 5 0 4 0;
#X connect 6 0 3 0;
#X connect 7 0 5 1;
#X restore 151 -77 pd rris;
#N canvas 0 50 450 300 rris 0;
#X obj 85 134 wrap;
#X obj 85 110 f;
#X obj 115 110 +;
#X obj 85 36 random 1000;
#X obj 85 81 t b f;
#X obj 85 57 / 10000;
#X obj 85 13 inlet;
#X obj 153 11 inlet step;
#X obj 85 160 outlet;
#X connect 0 0 8 0;
#X connect 1 0 2 0;
#X connect 1 0 0 0;
#X connect 2 0 1 1;
#X connect 3 0 5 0;
#X connect 4 0 1 0;
#X connect 4 1 2 1;
#X connect 5 0 4 0;
#X connect 6 0 3 0;
#X connect 7 0 5 1;
#X restore 210 -77 pd rris;
#N canvas 0 50 450 300 rris 0;
#X obj 85 134 wrap;
#X obj 85 110 f;
#X obj 115 110 +;
#X obj 85 36 random 1000;
#X obj 85 81 t b f;
#X obj 85 57 / 10000;
#X obj 85 13 inlet;
#X obj 153 11 inlet step;
#X obj 85 160 outlet;
#X connect 0 0 8 0;
#X connect 1 0 2 0;
#X connect 1 0 0 0;
#X connect 2 0 1 1;
#X connect 3 0 5 0;
#X connect 4 0 1 0;
#X connect 4 1 2 1;
#X connect 5 0 4 0;
#X connect 6 0 3 0;
#X connect 7 0 5 1;
#X restore 269 -78 pd rris;
#X obj 270 -16 * 0.25;
#X obj 271 5 + 0.02;
#N canvas 0 50 450 300 rris 0;
#X obj 85 134 wrap;
#X obj 85 110 f;
#X obj 115 110 +;
#X obj 85 36 random 1000;
#X obj 85 81 t b f;
#X obj 85 57 / 10000;
#X obj 85 13 inlet;
#X obj 153 11 inlet step;
#X obj 85 160 outlet;
#X connect 0 0 8 0;
#X connect 1 0 2 0;
#X connect 1 0 0 0;
#X connect 2 0 1 1;
#X connect 3 0 5 0;
#X connect 4 0 1 0;
#X connect 4 1 2 1;
#X connect 5 0 4 0;
#X connect 6 0 3 0;
#X connect 7 0 5 1;
#X restore 334 -80 pd rris;
#X obj 115 -151 t b b b b b b b b b;
#X obj 338 11 + 0.02;
#X obj 337 -10 * 0.7;
#X obj 381 -11 s \$0-frequency;
#X obj 174 -336 r \$0-frequency;
#X obj 116 -215 random 100;
#X obj 115 -174 sel 1;
#X obj 174 -310 *;
#X obj 121 -47 swap 1;
#X obj 124 -25 -;
#X obj 238 -51 swap 1;
#X obj 241 -29 -;
#X obj 174 -265 + 5;
#X obj 116 -195 > 80;
#X obj 173 -286 * 500;
#X obj 111 72 outlet;
#X obj 103 -287 loadbang;
#X connect 0 0 3 0;
#X connect 1 0 29 0;
#X connect 2 0 1 0;
#X connect 3 0 19 0;
#X connect 4 0 22 0;
#X connect 5 0 1 2;
#X connect 6 0 24 0;
#X connect 7 0 1 4;
#X connect 8 0 1 5;
#X connect 9 0 1 6;
#X connect 10 0 11 0;
#X connect 11 0 12 0;
#X connect 12 0 1 7;
#X connect 13 0 16 0;
#X connect 13 0 17 0;
#X connect 14 0 2 0;
#X connect 14 1 4 0;
#X connect 14 2 5 0;
#X connect 14 3 6 0;
#X connect 14 4 7 0;
#X connect 14 5 8 0;
#X connect 14 6 9 0;
#X connect 14 7 10 0;
#X connect 14 8 13 0;
#X connect 15 0 1 8;
#X connect 16 0 15 0;
#X connect 18 0 21 0;
#X connect 18 0 21 1;
#X connect 19 0 27 0;
#X connect 20 0 14 0;
#X connect 21 0 28 0;
#X connect 22 0 23 0;
#X connect 22 1 23 1;
#X connect 23 0 1 1;
#X connect 24 0 25 0;
#X connect 24 1 25 1;
#X connect 25 0 1 3;
#X connect 26 0 3 1;
#X connect 27 0 20 0;
#X connect 28 0 26 0;
#X connect 30 0 0 0;
#X restore 64 71 pd random firing;
#N canvas 443 87 736 686 explosions 0;
#X obj 289 126 t b b b;
#X obj 300 393 +~;
#X obj 268 363 *~ 0.5;
#X obj 317 362 *~ 0.3;
#N canvas 65 82 450 300 chirp 0;
#X obj 179 194 cos~;
#X obj 177 100 line~;
#X obj 176 149 *~ 16;
#X obj 178 171 wrap~;
#X obj 176 125 *~;
#X msg 193 70 1 0;
#X obj 158 43 t b b;
#X msg 157 69 0 10;
#X obj 178 217 hip~ 1;
#X obj 158 14 inlet trigger;
#X obj 178 242 outlet~;
#X obj 267 16 inlet dilate;
#X text 261 62 High frequency attack;
#X connect 0 0 8 0;
#X connect 1 0 4 0;
#X connect 1 0 4 1;
#X connect 2 0 3 0;
#X connect 3 0 0 0;
#X connect 4 0 2 0;
#X connect 5 0 1 0;
#X connect 6 0 7 0;
#X connect 6 1 5 0;
#X connect 7 0 1 0;
#X connect 8 0 10 0;
#X connect 9 0 6 0;
#X connect 11 0 2 1;
#X restore 335 218 pd chirp impulse;
#X obj 442 151 swap 1;
#X obj 442 175 -;
#X obj 442 196 * 5;
#N canvas 65 82 455 525 events 0;
#X obj 46 40 / 200;
#X obj 74 -71 del 80;
#X obj 146 -23 random 5;
#X obj 146 -1 + 25;
#X obj 146 -49 del 80;
#X obj 46 -131 random 8;
#X obj 46 -109 + 8;
#X obj 74 -48 random 10;
#X obj 72 -26 + 15;
#X obj 190 -132 random 100;
#X obj 111 -131 random 50;
#X obj 105 -173 t b b b b b;
#X obj 188 -173 * 200;
#X obj 105 -202 del 30;
#X obj 142 -222 + 5;
#X obj 142 -243 * 40;
#X obj 186 1 outlet done;
#X obj 46 64 outlet noiseval;
#X obj 41 -272 inlet trigger;
#X text 16 -318 Series of echos from blast \, restart a new note 3
times with adjustable spread.;
#X obj 142 -273 inlet size;
#X connect 0 0 17 0;
#X connect 1 0 4 0;
#X connect 1 0 7 0;
#X connect 2 0 3 0;
#X connect 3 0 0 0;
#X connect 4 0 2 0;
#X connect 4 0 16 0;
#X connect 5 0 6 0;
#X connect 6 0 0 0;
#X connect 7 0 8 0;
#X connect 8 0 0 0;
#X connect 9 0 4 1;
#X connect 10 0 1 1;
#X connect 11 0 1 0;
#X connect 11 1 5 0;
#X connect 11 2 10 0;
#X connect 11 3 9 0;
#X connect 12 0 10 1;
#X connect 12 0 9 1;
#X connect 13 0 11 0;
#X connect 14 0 13 1;
#X connect 15 0 14 0;
#X connect 18 0 13 0;
#X connect 20 0 15 0;
#X connect 20 0 12 0;
#X restore 289 161 pd events;
#N canvas 65 82 588 538 rippernoise 0;
#X obj 107 -29 noise~;
#X obj 108 221 *~;
#X obj 108 81 clip~ -1 1;
#X obj 109 38 hip~ 20;
#X obj 108 182 bp~ 6000 1;
#X obj 192 193 *~;
#X obj 108 155 cos~;
#X obj 193 -29 -;
#X obj 132 -70 * 7000;
#X obj 193 -56 swap 1;
#X obj 274 136 * 7000;
#X obj 274 113 pow 2;
#X obj 132 -93 pow 2;
#X obj 109 289 hip~ 20;
#X obj 109 268 hip~ 20;
#X obj 108 247 hip~ 20;
#X obj 107 128 *~;
#X obj 131 108 +~ 0.5;
#X obj 108 16 vcf~ 7000 2;
#X obj 143 -8 line~;
#X obj 110 -145 inlet;
#X obj 110 -121 t b f f;
#X msg 132 -49 \$1 30;
#X obj 108 61 *~ 50;
#X obj 193 16 + 1.5;
#X obj 193 -5 * 3.5;
#X obj 109 334 outlet~;
#X obj 109 311 *~ 0.3;
#X text 165 218 blast excitor \, move through chaotic oscillator;
#X text 168 62 deliberately max out;
#X obj 416 23 bang;
#X obj 409 80 t f b f;
#X obj 439 122 delay;
#X obj 412 228 line~;
#X msg 404 193 1 \$1;
#X msg 449 200 0 \$1;
#X obj 412 50 f 1;
#X obj 450 162 f 7000;
#X connect 0 0 18 0;
#X connect 1 0 15 0;
#X connect 2 0 16 0;
#X connect 3 0 23 0;
#X connect 4 0 1 0;
#X connect 5 0 1 1;
#X connect 5 0 17 0;
#X connect 6 0 4 0;
#X connect 7 0 11 0;
#X connect 7 0 25 0;
#X connect 8 0 22 0;
#X connect 9 0 7 0;
#X connect 9 1 7 1;
#X connect 10 0 37 1;
#X connect 11 0 10 0;
#X connect 12 0 8 0;
#X connect 13 0 27 0;
#X connect 14 0 13 0;
#X connect 15 0 14 0;
#X connect 16 0 6 0;
#X connect 17 0 16 1;
#X connect 18 0 3 0;
#X connect 19 0 18 1;
#X connect 20 0 21 0;
#X connect 21 0 30 0;
#X connect 21 1 12 0;
#X connect 21 2 9 0;
#X connect 22 0 19 0;
#X connect 23 0 2 0;
#X connect 24 0 18 2;
#X connect 25 0 24 0;
#X connect 27 0 26 0;
#X connect 30 0 36 0;
#X connect 31 0 34 0;
#X connect 31 1 32 0;
#X connect 31 2 32 1;
#X connect 32 0 37 0;
#X connect 33 0 5 0;
#X connect 33 0 5 1;
#X connect 34 0 33 0;
#X connect 35 0 33 0;
#X connect 36 0 31 0;
#X connect 37 0 35 0;
#X restore 289 189 pd rippernoise;
#N canvas 65 82 939 686 pressurewave 0;
#X obj 209 451 *~;
#X obj 147 241 sig~ 1;
#X obj 147 266 -~;
#X obj 148 314 +~ 0;
#X obj 148 371 *~;
#X obj 147 419 lop~ 10000;
#X obj 147 287 *~ 500;
#X obj 148 393 hip~ 10;
#X obj 200 291 r~ \$0-feedback;
#X obj 201 315 delwrite~ \$0-variabledelay 10000;
#X obj 149 339 vd~ \$0-variabledelay;
#X obj 208 472 s~ \$0-feedback;
#X obj 218 213 -~ 0.0001;
#X obj 103 51 del 3;
#X obj 164 53 * 8000;
#X obj 119 191 inlet~ sound;
#X obj 132 6 inlet delay;
#X obj 165 29 inlet sweep;
#X obj 98 -18 inlet trigger;
#X obj 385 142 inlet feedback;
#X obj 385 175 * 2;
#X obj 148 503 outlet~;
#X text 249 236 <--- critical point where crosses speed of sound in
the medium \, everything compressed into the dalay time is suddenly
expanded again very fast.;
#X obj 287 -88 inlet;
#X obj 290 -62 bang;
#X obj 283 -5 t f b f;
#X obj 313 37 delay;
#X obj 286 143 line~;
#X msg 278 108 1 \$1;
#X msg 323 115 0 \$1;
#X obj 324 75 f 0;
#X obj 286 -35 f 1;
#X connect 0 0 11 0;
#X connect 1 0 2 0;
#X connect 2 0 6 0;
#X connect 3 0 10 0;
#X connect 4 0 7 0;
#X connect 5 0 0 0;
#X connect 5 0 21 0;
#X connect 6 0 3 0;
#X connect 7 0 5 0;
#X connect 8 0 9 0;
#X connect 10 0 4 0;
#X connect 12 0 2 1;
#X connect 12 0 4 1;
#X connect 13 0 24 0;
#X connect 14 0 30 1;
#X connect 15 0 5 0;
#X connect 16 0 13 1;
#X connect 17 0 14 0;
#X connect 18 0 13 0;
#X connect 19 0 20 0;
#X connect 20 0 0 1;
#X connect 23 0 24 0;
#X connect 24 0 31 0;
#X connect 25 0 28 0;
#X connect 25 1 26 0;
#X connect 25 2 26 1;
#X connect 26 0 30 0;
#X connect 27 0 12 0;
#X connect 28 0 27 0;
#X connect 29 0 27 0;
#X connect 30 0 29 0;
#X connect 31 0 25 0;
#X restore 317 338 pd pressurewave;
#X text 325 396 ajf2007;
#N canvas 65 82 934 659 30cardboard 0;
#X obj 216 435 bp~ 440 80;
#X obj 294 435 bp~ 440 80;
#X obj 371 435 bp~ 440 80;
#X obj 449 435 bp~ 440 80;
#X obj 340 359 inlet~;
#X obj 340 392 *~ 1;
#X obj 330 515 outlet~;
#X obj 433 390 unpack f f f f f f f f;
#X obj 527 435 bp~ 440 80;
#X obj 604 435 bp~ 440 80;
#X obj 682 435 bp~ 440 80;
#X obj 362 179 unpack f f f f f f f f;
#X obj 362 202 * 100;
#X obj 362 224 + 100;
#X obj 362 308 pack f f f f f f f f;
#X obj 381 269 + 200;
#X obj 381 247 * 200;
#X obj 404 202 * 300;
#X obj 404 224 + 400;
#X obj 423 247 * 300;
#X obj 423 269 + 700;
#X obj 447 201 * 300;
#X obj 447 223 + 1000;
#X obj 466 246 * 500;
#X obj 466 268 + 1300;
#X obj 517 206 * 700;
#X obj 517 228 + 1700;
#X obj 531 274 + 1;
#X obj 531 252 * 15;
#X obj 362 147 inlet formant;
#X obj 331 488 *~ 0.1;
#X obj 772 435 *~;
#X obj 788 392 inlet direct;
#X obj 532 477 *~ 0.2;
#X connect 0 0 30 0;
#X connect 1 0 30 0;
#X connect 2 0 30 0;
#X connect 3 0 30 0;
#X connect 4 0 5 0;
#X connect 4 0 31 0;
#X connect 5 0 0 0;
#X connect 5 0 1 0;
#X connect 5 0 2 0;
#X connect 5 0 3 0;
#X connect 5 0 8 0;
#X connect 5 0 9 0;
#X connect 5 0 10 0;
#X connect 7 0 0 1;
#X connect 7 1 1 1;
#X connect 7 2 2 1;
#X connect 7 3 3 1;
#X connect 7 4 8 1;
#X connect 7 5 9 1;
#X connect 7 6 10 1;
#X connect 7 7 0 2;
#X connect 7 7 1 2;
#X connect 7 7 2 2;
#X connect 7 7 3 2;
#X connect 7 7 8 2;
#X connect 7 7 9 2;
#X connect 7 7 10 2;
#X connect 8 0 30 0;
#X connect 9 0 30 0;
#X connect 10 0 30 0;
#X connect 11 0 12 0;
#X connect 11 1 16 0;
#X connect 11 2 17 0;
#X connect 11 3 19 0;
#X connect 11 4 21 0;
#X connect 11 5 23 0;
#X connect 11 6 25 0;
#X connect 11 7 28 0;
#X connect 12 0 13 0;
#X connect 13 0 14 0;
#X connect 14 0 7 0;
#X connect 15 0 14 1;
#X connect 16 0 15 0;
#X connect 17 0 18 0;
#X connect 18 0 14 2;
#X connect 19 0 20 0;
#X connect 20 0 14 3;
#X connect 21 0 22 0;
#X connect 22 0 14 4;
#X connect 23 0 24 0;
#X connect 24 0 14 5;
#X connect 25 0 26 0;
#X connect 26 0 14 6;
#X connect 27 0 14 7;
#X connect 28 0 27 0;
#X connect 29 0 11 0;
#X connect 30 0 6 0;
#X connect 31 0 33 0;
#X connect 32 0 31 1;
#X connect 33 0 6 0;
#X restore 290 261 pd 30cardboard;
#X obj 402 98 list split 8;
#X obj 468 484 *~;
#X obj 483 409 vline~;
#X obj 484 436 *~;
#X msg 484 388 1 0 0 \, 0 \$1 0;
#X obj 484 357 f 500;
#X obj 525 149 * 3000;
#X text 570 167 decay;
#X obj 372 71 t b l;
#X obj 525 170 + 500;
#X obj 290 286 clip~ -1 1;
#X obj 299 416 *~ 0.9;
#X obj 372 40 inlet param list;
#X text 440 334 exploding cardboard;
#X obj 93 227 delwrite~ \$0-tobuidings 500;
#X obj 89 312 delwrite~ \$0-buidings 500;
#X obj 106 283 r~ \$0-buldingfb;
#X obj 141 574 s~ \$0-buldingfb;
#X obj 141 502 *~ 0.7;
#X obj 132 464 vd~ \$0-buidings 60;
#X obj 90 614 lop~ 455;
#X obj 132 374 osc~ 1;
#X obj 132 396 +~ 0.5;
#X obj 90 636 hip~ 20;
#X obj 320 479 noise~;
#X obj 320 533 bp~ 80 2;
#X obj 320 505 lop~ 200;
#X obj 319 579 hip~ 20;
#X obj 249 611 *~;
#X obj 207 502 lop~ 3;
#X obj 249 636 clip~ -1 1;
#X obj 248 656 hip~ 20;
#X obj 206 550 clip~ -1 1;
#X obj 140 524 lop~ 14;
#X obj 140 548 hip~ 10;
#X obj 320 554 *~ 80;
#X obj 207 525 *~ 4;
#X obj 246 678 delwrite~ \$0-frombuidings 500;
#X obj 245 700 delread~ \$0-frombuidings 500;
#X obj 471 651 osc~ 0.2;
#X obj 470 673 +~ 0.5;
#X obj 455 745 sig~ 1;
#X obj 454 767 -~;
#X obj 310 801 *~;
#X obj 363 800 *~;
#X obj 386 741 *~ 1;
#X obj 470 694 *~ 0.5;
#X obj 469 715 +~ 0.25;
#X text 490 620 pan;
#X text 47 451 echoes;
#X obj 89 255 delread~ \$0-tobuidings 120;
#X obj 116 60 r \$0-distance;
#X obj 480 199 r \$0-distance;
#X obj 480 218 swap 1;
#X obj 480 242 -;
#X obj 118 125 * 1.2;
#X obj 494 148 * 5;
#X obj 494 170 + 2;
#X obj 442 119 t f f f f f f;
#X obj 591 382 r \$0-distance;
#X obj 468 528 *~;
#X obj 592 405 swap 1;
#X obj 593 428 -;
#X obj 587 449 * 2;
#X obj 587 471 + 0.9;
#X text 599 491 closeness;
#X obj 5 480 r \$0-distance;
#X obj 6 503 swap 1;
#X obj 7 526 -;
#X text 13 589 closeness;
#X obj 1 569 + 400;
#X obj 117 103 + 10;
#X obj 194 796 *~ 0.2;
#X obj 141 797 *~ 0.15;
#X obj 246 795 *~ 0.2;
#X obj 54 526 + 0.1;
#X obj 54 504 * 0.2;
#X obj 54 553 - 0.01;
#X obj 117 81 * 40;
#X obj 132 418 *~ 200;
#X obj 132 440 +~ 100;
#X obj 1 547 * 300;
#X obj 338 851 outlet~;
#X obj 241 854 outlet~;
#X connect 0 0 8 0;
#X connect 0 1 18 0;
#X connect 0 2 4 0;
#X connect 1 0 24 0;
#X connect 2 0 1 0;
#X connect 3 0 1 1;
#X connect 4 0 12 0;
#X connect 5 0 6 0;
#X connect 5 1 6 1;
#X connect 6 0 7 0;
#X connect 7 0 4 1;
#X connect 8 0 9 0;
#X connect 8 1 10 0;
#X connect 9 0 12 0;
#X connect 9 0 27 0;
#X connect 10 0 3 0;
#X connect 12 0 23 0;
#X connect 13 0 12 1;
#X connect 13 1 71 0;
#X connect 14 0 73 0;
#X connect 15 0 16 0;
#X connect 15 0 16 1;
#X connect 16 0 14 1;
#X connect 17 0 15 0;
#X connect 18 0 17 0;
#X connect 19 0 22 0;
#X connect 21 0 0 0;
#X connect 21 1 13 0;
#X connect 22 0 18 1;
#X connect 23 0 10 1;
#X connect 23 0 2 0;
#X connect 24 0 14 0;
#X connect 25 0 21 0;
#X connect 29 0 28 0;
#X connect 31 0 46 0;
#X connect 32 0 31 0;
#X connect 32 0 42 0;
#X connect 32 0 33 0;
#X connect 33 0 36 0;
#X connect 34 0 35 0;
#X connect 35 0 92 0;
#X connect 36 0 85 0;
#X connect 36 0 86 0;
#X connect 37 0 39 0;
#X connect 38 0 48 0;
#X connect 39 0 38 0;
#X connect 40 0 41 1;
#X connect 41 0 43 0;
#X connect 42 0 49 0;
#X connect 43 0 44 0;
#X connect 44 0 50 0;
#X connect 45 0 41 0;
#X connect 46 0 47 0;
#X connect 47 0 30 0;
#X connect 48 0 40 0;
#X connect 49 0 45 0;
#X connect 51 0 87 0;
#X connect 52 0 53 0;
#X connect 53 0 59 0;
#X connect 54 0 55 0;
#X connect 55 0 57 1;
#X connect 56 0 96 0;
#X connect 57 0 95 0;
#X connect 58 0 56 0;
#X connect 58 0 57 0;
#X connect 59 0 60 0;
#X connect 60 0 55 1;
#X connect 60 0 56 1;
#X connect 63 0 28 0;
#X connect 64 0 91 0;
#X connect 65 0 66 0;
#X connect 66 0 67 0;
#X connect 66 1 67 1;
#X connect 67 0 12 2;
#X connect 68 0 51 0;
#X connect 69 0 70 0;
#X connect 70 0 7 1;
#X connect 71 0 5 0;
#X connect 71 1 10 3;
#X connect 71 2 10 5;
#X connect 71 3 8 1;
#X connect 71 4 19 0;
#X connect 71 5 69 0;
#X connect 72 0 74 0;
#X connect 73 0 58 0;
#X connect 74 0 75 0;
#X connect 74 1 75 1;
#X connect 75 0 76 0;
#X connect 76 0 77 0;
#X connect 77 0 73 1;
#X connect 79 0 80 0;
#X connect 79 0 89 0;
#X connect 80 0 81 0;
#X connect 80 1 81 1;
#X connect 81 0 94 0;
#X connect 83 0 33 1;
#X connect 84 0 63 0;
#X connect 84 0 68 0;
#X connect 85 0 95 0;
#X connect 86 0 96 0;
#X connect 87 0 95 0;
#X connect 87 0 96 0;
#X connect 88 0 85 1;
#X connect 88 0 90 0;
#X connect 88 0 87 1;
#X connect 89 0 88 0;
#X connect 90 0 86 1;
#X connect 91 0 84 0;
#X connect 92 0 93 0;
#X connect 93 0 32 0;
#X connect 94 0 83 0;
#X restore 124 120 pd explosions;
#N canvas 0 50 450 300 delaylist 0;
#X obj 106 99 list;
#X obj 101 45 t b l;
#X obj 170 25 inlet;
#X obj 97 17 inlet;
#X obj 106 131 outlet;
#X obj 94 72 pipe;
#X connect 0 0 4 0;
#X connect 1 0 5 0;
#X connect 1 1 0 1;
#X connect 2 0 5 1;
#X connect 3 0 1 0;
#X connect 5 0 0 0;
#X restore 123 98 pd delaylist;
#X obj 125 172 dac~;
#X obj 46 180 dac~;
#X connect 0 0 5 0;
#X connect 0 0 5 1;
#X connect 0 1 3 1;
#X connect 1 0 0 0;
#X connect 1 0 3 0;
#X connect 2 0 4 0;
#X connect 2 1 4 1;
#X connect 3 0 2 0;
#X restore 64 77 pd guts;
