#N canvas 86 256 378 392 10;
#X floatatom 87 162 5 0 0 0 - - -, f 5;
#X floatatom 125 163 5 0 0 0 - - -, f 5;
#X floatatom 87 201 5 0 0 0 - - -, f 5;
#X floatatom 125 202 5 0 0 0 - - -, f 5;
#X obj 87 181 * 10;
#X obj 125 182 * 50;
#X obj 48 186 bng 15 250 50 0 empty empty empty 17 7 0 10 -262144 -1
-1;
#N canvas 65 82 450 300 frrrt________ 0;
#X obj 179 238 *~;
#X obj 68 220 *~;
#X obj 73 59 noise~;
#X obj 103 89 lop~ 1;
#X obj 104 139 *~;
#X obj 28 90 hip~ 1000;
#X obj 103 165 *~;
#X obj 104 112 *~ 10;
#X obj 103 189 *~ 600;
#X text 4 33 hissing 3rd attempt;
#X obj 219 18 inlet;
#X obj 252 33 inlet;
#X obj 295 34 inlet;
#X obj 181 260 outlet~;
#N canvas 65 82 450 300 ead~ 0;
#X obj 44 26 inlet;
#X obj 47 52 bang;
#X obj 43 79 f \$1;
#X obj 107 36 inlet;
#X obj 40 109 t f b f;
#X obj 70 151 delay;
#X obj 145 148 inlet;
#X obj 81 191 f \$2;
#X obj 43 257 line~;
#X msg 35 222 1 \$1;
#X msg 80 229 0 \$1;
#X obj 45 286 outlet~;
#X connect 0 0 1 0;
#X connect 1 0 2 0;
#X connect 2 0 4 0;
#X connect 3 0 2 1;
#X connect 4 0 9 0;
#X connect 4 1 5 0;
#X connect 4 2 5 1;
#X connect 5 0 7 0;
#X connect 6 0 7 1;
#X connect 7 0 10 0;
#X connect 8 0 11 0;
#X connect 9 0 8 0;
#X connect 10 0 8 0;
#X restore 194 216 pd ead~;
#X connect 0 0 13 0;
#X connect 1 0 0 0;
#X connect 2 0 3 0;
#X connect 2 0 5 0;
#X connect 3 0 7 0;
#X connect 4 0 6 0;
#X connect 4 0 6 1;
#X connect 5 0 1 0;
#X connect 6 0 8 0;
#X connect 7 0 4 0;
#X connect 7 0 4 1;
#X connect 8 0 1 1;
#X connect 10 0 14 0;
#X connect 11 0 14 1;
#X connect 12 0 14 2;
#X connect 14 0 0 1;
#X restore 57 218 pd frrrt________;
#X obj 59 279 *~;
#X obj 59 301 dac~;
#X obj 75 260 lop~ 10;
#X obj 75 243 tgl 15 0 empty empty empty 17 7 0 10 -262144 -1 -1 1
1;
#X connect 0 0 4 0;
#X connect 1 0 5 0;
#X connect 2 0 7 1;
#X connect 3 0 7 2;
#X connect 4 0 2 0;
#X connect 5 0 3 0;
#X connect 6 0 7 0;
#X connect 7 0 8 0;
#X connect 8 0 9 0;
#X connect 8 0 9 1;
#X connect 10 0 8 1;
#X connect 11 0 10 0;
