#N canvas 335 129 405 253 10;
#N canvas 0 22 450 300 Acid_SpittyBits 0;
#X obj 204 357 *~;
#X obj 185 172 random 100;
#X msg 185 245 bang;
#X text 119 270 amplitude;
#X text 206 271 pitch;
#X obj 204 288 ead~ 400 10;
#X obj 205 376 *~ 0.03;
#X obj 87 83 f 0;
#X obj 118 83 + 1;
#X obj 87 108 mod 200;
#X obj 87 135 sel 29 37 47 67 89 113 157 197;
#X obj 242 250 + 30;
#X obj 113 288 ead~ 15 10;
#X obj 185 192 moses 29;
#X obj 279 230 * 80;
#X obj 206 529 clip~ -0.8 0.8;
#X obj 280 253 + 6600;
#X obj 87 13 loadbang;
#X msg 87 33 1;
#X obj 244 231 * 5;
#X obj 206 501 *~ 8;
#X obj 207 551 bp~ 3000 5;
#X obj 206 573 lop~ 4000;
#X obj 204 311 *~;
#X obj 204 333 osc~;
#X obj 205 424 *~;
#X obj 225 401 osc~ 10;
#X obj 206 468 *~;
#X text 155 12 Acid 2;
#X text 213 12 Spitty bits;
#X obj 255 207 + 1;
#X floatatom 334 145 5 0 0 0 - - -;
#X floatatom 384 145 5 0 0 0 - - -;
#X floatatom 334 186 5 0 0 0 - - -;
#X floatatom 384 185 5 0 0 0 - - -;
#X obj 334 165 * 10;
#X floatatom 31 198 5 0 0 0 - - -;
#X floatatom 81 198 5 0 0 0 - - -;
#X obj 384 165 * 100;
#X obj 226 445 osc~ 500;
#X obj 87 57 metro 5;
#X obj 241 57 inlet;
#X obj 291 57 inlet;
#X obj 205 607 outlet~;
#X connect 0 0 6 0;
#X connect 1 0 13 0;
#X connect 2 0 5 0;
#X connect 2 0 12 0;
#X connect 5 0 23 0;
#X connect 6 0 25 0;
#X connect 7 0 8 0;
#X connect 7 0 9 0;
#X connect 8 0 7 1;
#X connect 9 0 10 0;
#X connect 10 0 1 0;
#X connect 10 1 1 0;
#X connect 10 2 1 0;
#X connect 10 3 1 0;
#X connect 10 4 1 0;
#X connect 10 5 1 0;
#X connect 10 6 1 0;
#X connect 10 7 1 0;
#X connect 12 0 0 1;
#X connect 13 0 2 0;
#X connect 13 0 30 0;
#X connect 14 0 16 0;
#X connect 15 0 21 0;
#X connect 17 0 18 0;
#X connect 18 0 40 0;
#X connect 19 0 11 0;
#X connect 20 0 15 0;
#X connect 21 0 22 0;
#X connect 22 0 43 0;
#X connect 23 0 24 0;
#X connect 24 0 0 0;
#X connect 25 0 27 0;
#X connect 26 0 25 1;
#X connect 27 0 20 0;
#X connect 30 0 19 0;
#X connect 30 0 14 0;
#X connect 31 0 35 0;
#X connect 32 0 38 0;
#X connect 33 0 5 1;
#X connect 34 0 23 1;
#X connect 35 0 33 0;
#X connect 36 0 12 1;
#X connect 37 0 12 2;
#X connect 38 0 34 0;
#X connect 39 0 27 1;
#X connect 40 0 7 0;
#X connect 41 0 31 0;
#X connect 41 0 36 0;
#X connect 42 0 32 0;
#X connect 42 0 37 0;
#X restore -13 146 pd Acid_SpittyBits;
#X obj -13 -2 r ctl7;
#X obj 67 20 r ctl8;
#X text 112 19 set the decay;
#X text 34 -2 set the attack;
#X floatatom -13 89 5 0 0 0 - - -;
#X floatatom 67 90 5 0 0 0 - - -;
#X floatatom -13 130 5 0 0 0 - - -;
#X floatatom 67 130 5 0 0 0 - - -;
#X obj -13 108 * 10;
#X obj 67 109 * 10;
#X obj -13 60 knob 25 25 0 127 0 0 empty empty empty 0 -8 32 8 -1 -260097
-260097 0 1;
#X obj 67 61 knob 25 25 0 127 0 0 empty empty empty 0 -8 32 8 -1 -260097
-260097 0 1;
#N canvas 0 22 450 300 (subpatch) 0;
#X obj 59 155 inlet;
#X obj 3 89 inlet~;
#X obj 58 182 change;
#X msg 60 246 set \$1;
#X obj 60 227 tosymbol;
#X obj 59 204 sprintf Bus%d;
#X obj 3 282 throw~ Bus0;
#X obj 2 3 popup 124 25 #ffffff popup Bus0 Bus1 Bus2 Bus3 Bus4 Bus5
;
#X obj 1 32 route bang;
#X obj 154 202 *~;
#X obj 141 7 tgl 15 0 empty empty Dac 19 7 0 10 -262144 -1 -1 0 1;
#X obj 155 238 dac~;
#X obj 1 -41 loadbang;
#X text 59 -43 Bus0 mutes;
#X msg 1 -23 options Bus0 Bus1 Bus2 Bus3 Bus4 Bus5 Bus6 Bus7 Bus8 Bus9
Bus10 Bus11 Bus12 Bus13 Bus14 Bus15 Bus16;
#X connect 0 0 2 0;
#X connect 1 0 6 0;
#X connect 1 0 9 0;
#X connect 2 0 5 0;
#X connect 3 0 6 0;
#X connect 4 0 3 0;
#X connect 5 0 4 0;
#X connect 7 0 8 0;
#X connect 8 1 2 0;
#X connect 9 0 11 0;
#X connect 9 0 11 1;
#X connect 10 0 9 1;
#X connect 12 0 14 0;
#X connect 14 0 7 0;
#X coords 0 1 100 -1 180 30 1 0 0;
#X restore -13 164 graph;
#N canvas 0 22 450 300 (subpatch) 0;
#X obj -30 22 spigot;
#X obj 2 3 tgl 15 0 empty empty empty 17 7 0 10 -262144 -1 -1 0 1;
#X obj -58 0 inlet;
#X obj -54 54 outlet;
#X connect 0 0 3 0;
#X connect 1 0 0 1;
#X connect 2 0 0 0;
#X coords 0 1 100 -1 20 20 1 0 0;
#X restore 67 38 graph;
#N canvas 0 22 450 300 (subpatch) 0;
#X obj -30 22 spigot;
#X obj 2 3 tgl 15 0 empty empty empty 17 7 0 10 -262144 -1 -1 0 1;
#X obj -58 0 inlet;
#X obj -54 54 outlet;
#X connect 0 0 3 0;
#X connect 1 0 0 1;
#X connect 2 0 0 0;
#X coords 0 1 100 -1 20 20 1 0 0;
#X restore -13 37 graph;
#X connect 0 0 13 0;
#X connect 1 0 15 0;
#X connect 2 0 14 0;
#X connect 5 0 9 0;
#X connect 6 0 10 0;
#X connect 7 0 0 0;
#X connect 8 0 0 1;
#X connect 9 0 7 0;
#X connect 10 0 8 0;
#X connect 11 0 5 0;
#X connect 12 0 6 0;
#X connect 14 0 12 0;
#X connect 15 0 11 0;
