#N canvas 329 139 405 253 10;
#N canvas 65 92 636 571 Acid_SpittyBits 0;
#X obj 204 357 *~;
#X obj 185 172 random 100;
#X msg 185 245 bang;
#X text 119 270 amplitude;
#X text 206 271 pitch;
#X obj 205 376 *~ 0.03;
#X obj 87 83 f 0;
#X obj 118 83 + 1;
#X obj 87 108 mod 200;
#X obj 87 135 sel 29 37 47 67 89 113 157 197;
#X obj 185 192 moses 29;
#X obj 279 230 * 80;
#X obj 206 529 clip~ -0.8 0.8;
#X obj 280 253 + 6600;
#X obj 87 13 loadbang;
#X msg 87 33 1;
#X obj 206 501 *~ 8;
#X obj 207 551 bp~ 3000 5;
#X obj 206 573 lop~ 4000;
#X obj 204 311 *~;
#X obj 204 333 osc~;
#X obj 205 424 *~;
#X obj 225 401 osc~ 10;
#X obj 206 468 *~;
#X text 155 12 Acid 2;
#X text 213 12 Spitty bits;
#X obj 270 167 + 1;
#X floatatom 334 145 5 0 0 0 - - -, f 5;
#X floatatom 384 145 5 0 0 0 - - -, f 5;
#X floatatom 334 186 5 0 0 0 - - -, f 5;
#X floatatom 384 185 5 0 0 0 - - -, f 5;
#X obj 334 165 * 10;
#X floatatom 31 198 5 0 0 0 - - -, f 5;
#X floatatom 81 198 5 0 0 0 - - -, f 5;
#X obj 384 165 * 100;
#X obj 226 445 osc~ 500;
#X obj 87 57 metro 5;
#X obj 205 607 outlet~;
#N canvas 65 82 450 300 ead~ 0;
#X obj 44 26 inlet;
#X obj 47 52 bang;
#X obj 43 79 f \$1;
#X obj 107 36 inlet;
#X obj 40 109 t f b f;
#X obj 70 151 delay;
#X obj 145 148 inlet;
#X obj 81 191 f \$2;
#X obj 43 257 line~;
#X msg 35 222 1 \$1;
#X msg 80 229 0 \$1;
#X obj 45 286 outlet~;
#X connect 0 0 1 0;
#X connect 1 0 2 0;
#X connect 2 0 4 0;
#X connect 3 0 2 1;
#X connect 4 0 9 0;
#X connect 4 1 5 0;
#X connect 4 2 5 1;
#X connect 5 0 7 0;
#X connect 6 0 7 1;
#X connect 7 0 10 0;
#X connect 8 0 11 0;
#X connect 9 0 8 0;
#X connect 10 0 8 0;
#X restore 14 332 pd ead~ 15 16;
#N canvas 65 82 450 300 ead~ 0;
#X obj 44 26 inlet;
#X obj 47 52 bang;
#X obj 43 79 f \$1;
#X obj 107 36 inlet;
#X obj 40 109 t f b f;
#X obj 70 151 delay;
#X obj 145 148 inlet;
#X obj 81 191 f \$2;
#X obj 43 257 line~;
#X msg 35 222 1 \$1;
#X msg 80 229 0 \$1;
#X obj 45 286 outlet~;
#X connect 0 0 1 0;
#X connect 1 0 2 0;
#X connect 2 0 4 0;
#X connect 3 0 2 1;
#X connect 4 0 9 0;
#X connect 4 1 5 0;
#X connect 4 2 5 1;
#X connect 5 0 7 0;
#X connect 6 0 7 1;
#X connect 7 0 10 0;
#X connect 8 0 11 0;
#X connect 9 0 8 0;
#X connect 10 0 8 0;
#X restore 206 290 pd ead~ 400 10;
#X obj 263 194 t b f;
#X obj 242 250 f 400;
#X obj 49 287 f 15;
#X obj 88 297 f 10;
#X obj 18 262 t b b b;
#X connect 0 0 5 0;
#X connect 1 0 10 0;
#X connect 2 0 39 0;
#X connect 2 0 44 0;
#X connect 5 0 21 0;
#X connect 6 0 7 0;
#X connect 6 0 8 0;
#X connect 7 0 6 1;
#X connect 8 0 9 0;
#X connect 9 0 1 0;
#X connect 9 1 1 0;
#X connect 9 2 1 0;
#X connect 9 3 1 0;
#X connect 9 4 1 0;
#X connect 9 5 1 0;
#X connect 9 6 1 0;
#X connect 9 7 1 0;
#X connect 10 0 2 0;
#X connect 10 0 26 0;
#X connect 11 0 13 0;
#X connect 12 0 17 0;
#X connect 13 0 39 2;
#X connect 14 0 15 0;
#X connect 15 0 36 0;
#X connect 16 0 12 0;
#X connect 17 0 18 0;
#X connect 18 0 37 0;
#X connect 19 0 20 0;
#X connect 20 0 0 0;
#X connect 21 0 23 0;
#X connect 22 0 21 1;
#X connect 23 0 16 0;
#X connect 26 0 40 0;
#X connect 27 0 31 0;
#X connect 28 0 34 0;
#X connect 30 0 19 1;
#X connect 31 0 29 0;
#X connect 34 0 30 0;
#X connect 35 0 23 1;
#X connect 36 0 6 0;
#X connect 38 0 0 1;
#X connect 39 0 19 0;
#X connect 40 0 41 0;
#X connect 40 1 11 0;
#X connect 41 0 39 1;
#X connect 42 0 38 1;
#X connect 43 0 38 2;
#X connect 44 0 38 0;
#X connect 44 1 42 0;
#X connect 44 2 43 0;
#X restore 15 57 pd Acid_SpittyBits;
#X obj 18 120 *~;
#X obj 18 142 dac~;
#X obj 34 101 lop~ 10;
#X obj 34 84 tgl 15 0 empty empty empty 17 7 0 10 -262144 -1 -1 1 1
;
#X connect 0 0 1 0;
#X connect 1 0 2 0;
#X connect 1 0 2 1;
#X connect 3 0 1 1;
#X connect 4 0 3 0;
