#N canvas 283 140 302 318 10;
#N canvas 65 82 725 487 acid_fissing 0;
#X obj 194 411 *~;
#X obj 185 109 noise~;
#X obj 186 177 *~;
#X obj 225 143 bp~ 4094 69;
#X obj 131 144 bp~ 2519 69;
#X obj 185 224 bp~ 5000 5;
#X obj 186 200 *~ 12;
#X obj 186 246 clip~ -1 1;
#X text -31 152 Acid 1;
#X text 26 152 fizzing noise;
#X obj 185 267 *~ 2;
#X obj 293 183 random 2000;
#X obj 293 206 + 4000;
#X obj 186 46 bng 15 250 50 0 empty empty empty 17 7 0 10 -262144 -1
-1;
#X obj 25 89 + 2000;
#X obj 25 66 random 500;
#X obj 285 48 random 1000;
#X obj 285 69 + 3000;
#X obj 94 87 + 50;
#X obj 94 66 random 20;
#X obj 358 48 random 20;
#X obj 358 70 + 50;
#X obj 368 184 random 10;
#X obj 128 -26 inlet;
#X obj 531 109 inlet;
#X obj 615 111 inlet;
#N canvas 0 50 450 300 eald~ 0;
#X msg 394 133 bang;
#X floatatom 504 74 5 0 0 0 - - -, f 5;
#X floatatom 555 73 5 0 0 0 - - -, f 5;
#X floatatom 605 73 5 0 0 0 - - -, f 5;
#X text 471 25 "ALD" enveloppe;
#X obj 504 49 inlet;
#X obj 555 48 inlet;
#X obj 605 48 inlet;
#X obj 408 52 inlet;
#X obj 379 432 outlet~;
#X text 633 133 ENVELOPE SECTION;
#X obj 379 346 vline~;
#X msg 352 245 1;
#X obj 352 265 pack f f;
#X obj 352 286 unpack f f;
#X msg 456 246 0;
#X obj 456 267 pack f f f;
#X obj 456 288 unpack f f f;
#X obj 456 225 delay 5;
#X text 102 283 Attack : sends a 1 to get to in A msec;
#X text 529 224 wait the end of the attack;
#X text 538 254 Length+Decay : 0 to get to in D msec \, after L msec
;
#X text 493 74 A;
#X text 544 74 L;
#X text 594 74 D;
#X connect 0 0 12 0;
#X connect 0 0 18 0;
#X connect 1 0 13 1;
#X connect 1 0 18 1;
#X connect 2 0 16 2;
#X connect 3 0 16 1;
#X connect 5 0 1 0;
#X connect 6 0 2 0;
#X connect 7 0 3 0;
#X connect 8 0 0 0;
#X connect 11 0 9 0;
#X connect 12 0 13 0;
#X connect 13 0 14 0;
#X connect 14 0 11 0;
#X connect 14 1 11 1;
#X connect 15 0 16 0;
#X connect 16 0 17 0;
#X connect 17 0 11 0;
#X connect 17 1 11 1;
#X connect 17 2 11 2;
#X connect 18 0 15 0;
#X restore 543 390 pd eald~;
#X obj 574 108 inlet;
#X obj 193 437 outlet~;
#X connect 0 0 28 0;
#X connect 1 0 3 0;
#X connect 1 0 4 0;
#X connect 2 0 6 0;
#X connect 3 0 2 1;
#X connect 4 0 2 0;
#X connect 5 0 7 0;
#X connect 6 0 5 0;
#X connect 7 0 10 0;
#X connect 10 0 0 0;
#X connect 11 0 12 0;
#X connect 12 0 5 1;
#X connect 13 0 11 0;
#X connect 13 0 16 0;
#X connect 13 0 15 0;
#X connect 13 0 19 0;
#X connect 13 0 20 0;
#X connect 13 0 22 0;
#X connect 13 0 26 0;
#X connect 14 0 4 1;
#X connect 15 0 14 0;
#X connect 16 0 17 0;
#X connect 17 0 3 1;
#X connect 18 0 4 2;
#X connect 19 0 18 0;
#X connect 20 0 21 0;
#X connect 21 0 3 2;
#X connect 22 0 5 2;
#X connect 23 0 13 0;
#X connect 24 0 26 1;
#X connect 25 0 26 3;
#X connect 26 0 0 1;
#X connect 27 0 26 2;
#X restore -28 191 pd acid_fissing;
#X text 46 83 set the attack;
#X text 81 105 set the length;
#X text 116 125 set the decay;
#X floatatom 1 84 5 0 0 0 - - -, f 5;
#X floatatom 37 105 5 0 0 0 - - -, f 5;
#X floatatom 74 129 5 0 0 0 - - -, f 5;
#X floatatom 37 169 5 0 0 0 - - -, f 5;
#X floatatom 74 169 5 0 0 0 - - -, f 5;
#X obj 37 147 * 10;
#X obj 1 147 * 1;
#X floatatom 1 168 5 0 0 0 - - -, f 5;
#X obj 74 148 * 10;
#X obj -27 51 bng 25 250 50 0 empty empty empty 17 7 0 10 -262144 -1
-1;
#X obj -23 252 *~;
#X obj -23 274 dac~;
#X obj -7 233 lop~ 10;
#X obj -7 216 tgl 15 0 empty empty empty 17 7 0 10 -262144 -1 -1 1
1;
#X connect 0 0 14 0;
#X connect 4 0 10 0;
#X connect 5 0 9 0;
#X connect 6 0 12 0;
#X connect 7 0 0 2;
#X connect 8 0 0 3;
#X connect 9 0 7 0;
#X connect 10 0 11 0;
#X connect 11 0 0 1;
#X connect 12 0 8 0;
#X connect 13 0 0 0;
#X connect 14 0 15 0;
#X connect 14 0 15 1;
#X connect 16 0 14 1;
#X connect 17 0 16 0;
