#N canvas 87 87 308 347 10;
#X obj 89 226 hsl 128 15 0 1 0 0 empty empty compare_formant -2 -6
0 8 -241291 -1 -1 0 1;
#N canvas 451 108 520 516 LiquidRF______ 1;
#X text 85 17 liquid with a pipe/vessel formant;
#X obj 141 207 osc~;
#X obj 141 180 line~;
#X obj 141 338 *~;
#X obj 184 314 *~;
#X obj 141 68 metro 6;
#X obj 141 46 tgl 15 0 empty empty empty 0 -6 0 8 -262144 -1 -1 0 1
;
#X obj 141 113 * 800;
#X obj 184 289 *~ 0.9;
#X obj 141 361 hip~ 10;
#X obj 141 159 pack 1 2;
#X obj 184 265 lop~ 10;
#N canvas 65 82 450 300 bilexp 1;
#X obj 56 166 expr exp($f1);
#X obj 55 71 random 8192;
#X obj 56 139 * 9;
#X obj 123 91 > 4096;
#X obj 123 113 sel 0 1;
#X msg 115 141 -1;
#X msg 147 141 1;
#X obj 56 199 *;
#X obj 55 45 t b;
#X obj 55 21 inlet;
#X obj 56 248 outlet;
#X obj 56 225 / 8192;
#X obj 55 116 / 8192;
#X connect 0 0 7 0;
#X connect 1 0 3 0;
#X connect 1 0 12 0;
#X connect 2 0 0 0;
#X connect 3 0 4 0;
#X connect 4 0 5 0;
#X connect 4 1 6 0;
#X connect 5 0 7 1;
#X connect 6 0 7 1;
#X connect 7 0 11 0;
#X connect 8 0 1 0;
#X connect 9 0 8 0;
#X connect 11 0 10 0;
#X connect 12 0 2 0;
#X restore 141 91 pd bilexp;
#X obj 185 242 clip~ 0 1;
#X obj 138 444 *~ 2;
#X obj 23 415 bp~ 124 80;
#X obj 101 415 bp~ 345 80;
#X obj 178 415 bp~ 678 80;
#X obj 256 415 bp~ 987 80;
#X obj 141 383 *~ 1;
#X obj 141 135 + 800;
#N canvas 65 82 450 300 crossfader 0;
#X obj 122 29 inlet~;
#X obj 182 28 inlet~;
#X obj 252 27 inlet;
#X obj 257 104 -;
#X obj 252 52 t b f;
#X msg 238 78 1;
#X obj 141 146 *~;
#X obj 141 220 outlet~;
#X obj 198 188 *~;
#X obj 214 162 lop~ 5;
#X obj 159 118 lop~ 5;
#X connect 0 0 6 0;
#X connect 1 0 8 0;
#X connect 2 0 4 0;
#X connect 3 0 9 0;
#X connect 4 0 5 0;
#X connect 4 1 3 1;
#X connect 4 1 10 0;
#X connect 5 0 3 0;
#X connect 6 0 7 0;
#X connect 8 0 7 0;
#X connect 9 0 8 1;
#X connect 10 0 6 1;
#X restore 137 475 pd crossfader;
#X obj 140 0 inlet;
#X obj 175 541 outlet~;
#X obj 271 368 inlet;
#X msg 454 35 bang;
#N canvas 73 80 496 339 delay-writer 0;
#X obj 96 107 inlet~;
#X obj 96 181 outlet~;
#X obj 116 144 delwrite~ \$0-a 10;
#X connect 0 0 1 0;
#X connect 0 0 2 0;
#X restore 326 173 pd delay-writer;
#X obj 434 58 samplerate~;
#X obj 434 129 /;
#X obj 434 77 t b f;
#X obj 434 14 loadbang;
#X msg 434 101 1000;
#N canvas 38 479 463 341 delay-reader 0;
#X obj 159 297 outlet~;
#X obj 169 249 delread~ \$0-a;
#X obj 179 211 inlet;
#X obj 76 141 inlet~;
#X text 38 93 need to have a signal inlet \, and that inlet has to
be connected from outside (not inside...);
#X connect 1 0 0 0;
#X connect 2 0 1 0;
#X restore 326 242 pd delay-reader;
#X connect 1 0 3 0;
#X connect 2 0 1 0;
#X connect 2 0 26 0;
#X connect 3 0 9 0;
#X connect 4 0 3 1;
#X connect 5 0 12 0;
#X connect 6 0 5 0;
#X connect 7 0 20 0;
#X connect 8 0 4 0;
#X connect 8 0 4 1;
#X connect 9 0 19 0;
#X connect 9 0 21 1;
#X connect 10 0 2 0;
#X connect 11 0 8 0;
#X connect 12 0 7 0;
#X connect 13 0 11 0;
#X connect 14 0 21 0;
#X connect 15 0 14 0;
#X connect 16 0 14 0;
#X connect 17 0 14 0;
#X connect 18 0 14 0;
#X connect 19 0 15 0;
#X connect 19 0 16 0;
#X connect 19 0 17 0;
#X connect 19 0 18 0;
#X connect 20 0 10 0;
#X connect 21 0 23 0;
#X connect 22 0 6 0;
#X connect 24 0 21 2;
#X connect 25 0 27 0;
#X connect 27 0 29 0;
#X connect 28 0 32 1;
#X connect 29 0 31 0;
#X connect 29 1 28 1;
#X connect 30 0 27 0;
#X connect 31 0 28 0;
#X connect 32 0 13 0;
#X restore 18 257 pd LiquidRF______;
#X obj 20 320 *~;
#X obj 20 342 dac~;
#X obj 36 301 lop~ 10;
#X obj 36 284 tgl 15 0 empty empty empty 17 7 0 10 -262144 -1 -1 0
1;
#X obj 37 167 tgl 15 0 empty empty empty 17 7 0 10 -262144 -1 -1 0
1;
#X connect 0 0 1 1;
#X connect 1 0 2 0;
#X connect 2 0 3 0;
#X connect 2 0 3 1;
#X connect 4 0 2 1;
#X connect 5 0 4 0;
#X connect 6 0 1 0;
