#N canvas 0 22 273 272 10;
#X text 57 -1 receive beat;
#X text 170 59 set the decay;
#X text 94 18 set lop filter frquency;
#X text 133 39 set the attack;
#X floatatom 82 130 5 0 0 0 - - -;
#X floatatom 118 130 5 0 0 0 - - -;
#X floatatom 82 169 5 0 0 0 - - -;
#X floatatom 118 169 5 0 0 0 - - -;
#X obj 82 149 * 10;
#X obj 118 149 * 100;
#X floatatom 44 169 5 0 0 0 - - -;
#X obj 44 148 * 200;
#X floatatom 44 129 5 0 0 0 - - -;
#X obj 44 100 knob 25 25 0 127 0 0 empty empty empty 0 -8 32 8 -1 -260097
-260097 0 1;
#X obj 81 101 knob 25 25 0 127 0 0 empty empty empty 0 -8 32 8 -1 -260097
-260097 0 1;
#X obj 118 101 knob 25 25 0 127 0 0 empty empty empty 0 -8 32 8 -1
-260097 -260097 0 1;
#N canvas 0 22 450 300 (subpatch) 0;
#X obj 59 155 inlet;
#X obj 3 89 inlet~;
#X obj 58 182 change;
#X msg 60 246 set \$1;
#X obj 60 227 tosymbol;
#X obj 59 204 sprintf Bus%d;
#X obj 3 282 throw~ Bus0;
#X obj 2 3 popup 124 25 #ffffff popup Bus0 Bus1 Bus2 Bus3 Bus4 Bus5
;
#X obj 1 32 route bang;
#X obj 154 202 *~;
#X obj 141 7 tgl 15 0 empty empty Dac 19 7 0 10 -262144 -1 -1 0 1;
#X obj 155 238 dac~;
#X obj 1 -41 loadbang;
#X text 59 -43 Bus0 mutes;
#X msg 1 -23 options Bus0 Bus1 Bus2 Bus3 Bus4 Bus5 Bus6 Bus7 Bus8 Bus9
Bus10 Bus11 Bus12 Bus13 Bus14 Bus15 Bus16;
#X connect 0 0 2 0;
#X connect 1 0 6 0;
#X connect 1 0 9 0;
#X connect 2 0 5 0;
#X connect 3 0 6 0;
#X connect 4 0 3 0;
#X connect 5 0 4 0;
#X connect 7 0 8 0;
#X connect 8 1 2 0;
#X connect 9 0 11 0;
#X connect 9 0 11 1;
#X connect 10 0 9 1;
#X connect 12 0 14 0;
#X connect 14 0 7 0;
#X coords 0 1 100 -1 180 30 1 0 0;
#X restore 8 203 graph;
#N canvas 0 22 450 300 (subpatch) 0;
#X obj -30 22 spigot;
#X obj 2 3 tgl 15 0 empty empty empty 17 7 0 10 -262144 -1 -1 0 1;
#X obj -58 0 inlet;
#X obj -54 54 outlet;
#X connect 0 0 3 0;
#X connect 1 0 0 1;
#X connect 2 0 0 0;
#X coords 0 1 100 -1 20 20 1 0 0;
#X restore 118 78 graph;
#N canvas 0 22 450 300 (subpatch) 0;
#X obj -30 22 spigot;
#X obj 2 3 tgl 15 0 empty empty empty 17 7 0 10 -262144 -1 -1 0 1;
#X obj -58 0 inlet;
#X obj -54 54 outlet;
#X connect 0 0 3 0;
#X connect 1 0 0 1;
#X connect 2 0 0 0;
#X coords 0 1 100 -1 20 20 1 0 0;
#X restore 81 78 graph;
#N canvas 0 22 450 300 (subpatch) 0;
#X obj -30 22 spigot;
#X obj 2 3 tgl 15 0 empty empty empty 17 7 0 10 -262144 -1 -1 0 1;
#X obj -58 0 inlet;
#X obj -54 54 outlet;
#X connect 0 0 3 0;
#X connect 1 0 0 1;
#X connect 2 0 0 0;
#X coords 0 1 100 -1 20 20 1 0 0;
#X restore 43 77 graph;
#N canvas 0 22 450 300 (subpatch) 0;
#X obj -30 22 spigot;
#X obj 2 3 tgl 15 0 empty empty empty 17 7 0 10 -262144 -1 -1 0 1;
#X obj -58 0 inlet;
#X obj -54 54 outlet;
#X connect 0 0 3 0;
#X connect 1 0 0 1;
#X connect 2 0 0 0;
#X coords 0 1 100 -1 20 20 1 0 0;
#X restore 8 77 graph;
#N canvas 0 22 450 300 Drips_______________ 0;
#X obj 257 79 noise~;
#X obj 143 79 noise~;
#X obj 371 78 noise~;
#X obj 155 112 lop~ 16;
#X obj 519 215 /~;
#X obj 518 322 clip~ 0 0.9;
#X obj 518 522 lop~ 12000;
#X obj 271 105 lop~ 0.01;
#X obj 518 240 hip~ 10000;
#X obj 449 107 lop~ 1900;
#X obj 519 301 *~;
#X obj 520 276 *~ 0.03;
#X obj 518 433 vcf~ 3333 30;
#X obj 557 365 +~ 1000;
#X obj 156 138 *~ 300000;
#X obj 556 401 clip~ 1000 10000;
#X obj 609 433 init 20;
#X obj 515 460 *~ 0.7;
#X text 514 485 drips;
#X obj 930 495 ead~;
#X obj 917 470 bng 15 250 50 0 empty empty empty 17 7 0 10 -262144
-1 -1;
#X obj 576 592 *~;
#X obj 780 332 inlet;
#X obj 939 321 inlet;
#X obj 989 321 inlet;
#X obj 691 330 inlet;
#X obj 567 636 outlet~;
#X connect 0 0 7 0;
#X connect 1 0 3 0;
#X connect 2 0 9 0;
#X connect 3 0 14 0;
#X connect 4 0 8 0;
#X connect 5 0 12 0;
#X connect 6 0 21 0;
#X connect 7 0 4 0;
#X connect 8 0 11 0;
#X connect 9 0 4 1;
#X connect 10 0 5 0;
#X connect 11 0 10 0;
#X connect 11 0 10 1;
#X connect 12 0 17 0;
#X connect 13 0 15 0;
#X connect 14 0 13 0;
#X connect 15 0 12 1;
#X connect 16 0 12 2;
#X connect 17 0 6 0;
#X connect 19 0 21 1;
#X connect 20 0 19 0;
#X connect 21 0 26 0;
#X connect 22 0 6 1;
#X connect 23 0 19 1;
#X connect 24 0 19 2;
#X connect 25 0 20 0;
#X restore 8 185 pd Drips_______________;
#X obj -7 170 bng 15 250 50 0 empty empty empty 17 7 0 10 -262144 -1
-1;
#X obj 43 20 ctlin 6;
#X obj 81 40 ctlin 7;
#X obj 118 60 ctlin 8;
#X obj 8 0 r Mbang;
#X connect 4 0 8 0;
#X connect 5 0 9 0;
#X connect 6 0 21 2;
#X connect 7 0 21 3;
#X connect 8 0 6 0;
#X connect 9 0 7 0;
#X connect 10 0 21 1;
#X connect 11 0 10 0;
#X connect 12 0 11 0;
#X connect 13 0 12 0;
#X connect 14 0 4 0;
#X connect 15 0 5 0;
#X connect 17 0 15 0;
#X connect 18 0 14 0;
#X connect 19 0 13 0;
#X connect 20 0 21 0;
#X connect 21 0 16 0;
#X connect 22 0 21 0;
#X connect 23 0 19 0;
#X connect 24 0 18 0;
#X connect 25 0 17 0;
#X connect 26 0 20 0;
