#N canvas 65 87 822 582 10;
#X obj 23 152 tgl 15 0 empty empty empty 0 -6 0 8 -262144 -1 -1 0 1
;
#X obj 210 184 vsl 15 128 0.04 4 1 0 empty empty amp 0 -8 0 8 -250685
-1 -1 0 1;
#X obj 133 185 vsl 15 128 0.04 5000 1 0 empty empty base 0 -8 0 8 -24198
-1 -1 0 1;
#X obj 94 184 vsl 15 128 0.04 5000 0 0 empty empty range 0 -8 0 8 -62784
-1 -1 0 1;
#X obj 250 184 vsl 15 128 0.04 15000 0 0 empty empty hip 0 -8 0 8 -241291
-1 -1 0 1;
#X obj 173 185 vsl 15 128 0.04 20 1 0 empty empty slew 0 -8 0 8 -258699
-1 -1 0 1;
#X obj 56 184 vsl 15 128 5 50 0 0 empty empty rate 0 -8 0 8 -1109 -1
-1 0 1;
#X text 372 121 Parameters for rate \, base and range are pretty easy
to understand. They set the tempo at which new random liquid movements
happen \, the approximate middle frequency of the droplets and bubbles
and the low and high extremes of the random range. Have a play with
the controls and get a feel for the variety of liquid sounds possible.
A control that isn't so obvious is the slew. That's because it's codependent
with our tempo rate. If you set it too high \, slew > rate * 2 \, the
effect of running water is replaced by something like distant birds
singing. If you set it too low the drops become too percussive and
clicks will begin. Somewhere between slew = rate/2 and slew = rate
gets the best values for a sound that ranges between dripping and a
constantly poured liquid. We can change the rate at which the liquid
apparently flows.;
#N canvas 422 210 450 300 LiquidFlowDrips 1;
#X obj 31 343 osc~;
#X obj 31 316 line~;
#X obj 31 474 *~;
#X obj 74 450 *~;
#X obj 31 197 metro 6;
#X obj 30 503 *~;
#X obj 31 271 + 800;
#X obj 31 249 * 800;
#X obj 74 425 *~ 0.9;
#X obj 30 533 hip~ 10;
#X obj 31 295 pack 1 2;
#X obj 74 401 lop~ 10;
#N canvas 65 143 263 285 bilexp 0;
#X obj 55 180 expr exp($f1);
#X obj 55 80 random 8192;
#X obj 55 153 * 9;
#X obj 163 105 > 4096;
#X obj 163 127 sel 0 1;
#X msg 155 155 -1;
#X msg 187 155 1;
#X obj 55 204 *;
#X obj 55 59 t b;
#X obj 55 38 inlet;
#X obj 55 252 outlet;
#X text 36 6 bipolar exponential randoms;
#X obj 55 228 / 8192;
#X obj 55 130 / 8182;
#X connect 0 0 7 0;
#X connect 1 0 3 0;
#X connect 1 0 13 0;
#X connect 2 0 0 0;
#X connect 3 0 4 0;
#X connect 4 0 5 0;
#X connect 4 1 6 0;
#X connect 5 0 7 1;
#X connect 6 0 7 1;
#X connect 7 0 12 0;
#X connect 8 0 1 0;
#X connect 9 0 8 0;
#X connect 12 0 10 0;
#X connect 13 0 2 0;
#X restore 31 220 pd bilexp;
#X obj 75 378 clip~ 0 1;
#X text 38 178 exponential noise;
#X text 35 168 liquids using bilinear;
#X obj 32 42 inlet;
#X obj 32 62 tgl 15 0 empty empty empty 0 -6 0 8 -262144 -1 -1 0 1
;
#X obj 68 61 inlet;
#X obj 97 82 inlet;
#X obj 114 105 inlet;
#X obj 130 133 inlet;
#X obj 193 316 inlet;
#X obj 207 355 inlet;
#X obj 30 583 outlet~;
#X msg 300 70 bang;
#N canvas 73 80 496 339 delay-writer 0;
#X obj 96 107 inlet~;
#X obj 96 181 outlet~;
#X obj 116 144 delwrite~ \$0-a 10;
#X connect 0 0 1 0;
#X connect 0 0 2 0;
#X restore 173 249 pd delay-writer;
#X obj 280 93 samplerate~;
#X obj 280 164 /;
#X obj 280 112 t b f;
#X obj 280 49 loadbang;
#X msg 280 136 1000;
#N canvas 38 479 463 341 delay-reader 0;
#X obj 159 297 outlet~;
#X obj 169 249 delread~ \$0-a;
#X obj 179 211 inlet;
#X obj 76 141 inlet~;
#X text 38 93 need to have a signal inlet \, and that inlet has to
be connected from outside (not inside...);
#X connect 1 0 0 0;
#X connect 2 0 1 0;
#X restore 172 277 pd delay-reader;
#X connect 0 0 2 0;
#X connect 1 0 0 0;
#X connect 1 0 26 0;
#X connect 2 0 5 0;
#X connect 3 0 2 1;
#X connect 4 0 12 0;
#X connect 5 0 9 0;
#X connect 6 0 10 0;
#X connect 7 0 6 0;
#X connect 8 0 3 0;
#X connect 8 0 3 1;
#X connect 9 0 24 0;
#X connect 10 0 1 0;
#X connect 11 0 8 0;
#X connect 12 0 7 0;
#X connect 13 0 11 0;
#X connect 16 0 17 0;
#X connect 17 0 4 0;
#X connect 18 0 4 1;
#X connect 19 0 7 1;
#X connect 20 0 6 1;
#X connect 21 0 10 1;
#X connect 22 0 5 1;
#X connect 23 0 9 1;
#X connect 25 0 27 0;
#X connect 27 0 29 0;
#X connect 28 0 32 1;
#X connect 29 0 31 0;
#X connect 29 1 28 1;
#X connect 30 0 27 0;
#X connect 31 0 28 0;
#X connect 32 0 13 0;
#X restore 18 385 pd LiquidFlowDrips;
#X obj 18 448 *~;
#X obj 18 470 dac~;
#X obj 34 429 lop~ 10;
#X obj 34 412 tgl 15 0 empty empty empty 17 7 0 10 -262144 -1 -1 0
1;
#X connect 0 0 8 0;
#X connect 1 0 8 5;
#X connect 2 0 8 3;
#X connect 3 0 8 2;
#X connect 4 0 8 6;
#X connect 5 0 8 4;
#X connect 6 0 8 1;
#X connect 8 0 9 0;
#X connect 9 0 10 0;
#X connect 9 0 10 1;
#X connect 11 0 9 1;
#X connect 12 0 11 0;
