#N canvas 93 61 308 347 10;
#X obj 89 226 hsl 128 15 0 1 0 0 empty empty compare_formant -2 -6
0 8 -241291 -1 -1 12700 1;
#X floatatom 131 153 5 0 0 0 - - -;
#X obj 131 176 * 10;
#X obj 51 34 r bang;
#X floatatom 86 153 5 0 0 0 - - -;
#X obj 86 175 / 127;
#X obj 18 16 tgl 15 0 empty empty empty 17 7 0 10 -262144 -1 -1 1 1
;
#X floatatom 131 197 5 0 0 0 - - -;
#X text 97 34 receive beat;
#X text 39 13 On/Off;
#X text 134 54 crossfade ratio;
#X text 180 77 attack time;
#X obj 86 55 r ctl6;
#X obj 131 78 r ctl7;
#X obj 86 124 knob 25 25 0 127 0 0 empty empty empty 0 -8 32 8 -1 -260097
-260097 2400 1;
#X obj 131 124 knob 25 25 0 127 0 0 empty empty empty 0 -8 32 8 -1
-260097 -260097 2400 1;
#N canvas 0 22 450 300 (subpatch) 0;
#X obj 59 155 inlet;
#X obj 3 89 inlet~;
#X obj 58 182 change;
#X msg 60 246 set \$1;
#X obj 60 227 tosymbol;
#X obj 59 204 sprintf Bus%d;
#X obj 3 282 throw~ Bus0;
#X obj 2 3 popup 124 25 #ffffff popup Bus0 Bus1 Bus2 Bus3 Bus4 Bus5
Bus6 Bus7 Bus8 Bus9 Bus10 Bus11 Bus12 Bus13 Bus14 Bus15 Bus16;
#X obj 1 32 route bang;
#X obj 154 202 *~;
#X obj 141 7 tgl 15 0 empty empty Dac 19 7 0 10 -262144 -1 -1 1 1;
#X obj 155 238 dac~;
#X obj 1 -41 loadbang;
#X text 59 -43 Bus0 mutes;
#X msg 1 -23 options Bus0 Bus1 Bus2 Bus3 Bus4 Bus5 Bus6 Bus7 Bus8 Bus9
Bus10 Bus11 Bus12 Bus13 Bus14 Bus15 Bus16;
#X connect 0 0 2 0;
#X connect 1 0 6 0;
#X connect 1 0 9 0;
#X connect 2 0 5 0;
#X connect 3 0 6 0;
#X connect 4 0 3 0;
#X connect 5 0 4 0;
#X connect 7 0 8 0;
#X connect 8 1 2 0;
#X connect 9 0 11 0;
#X connect 9 0 11 1;
#X connect 10 0 9 1;
#X connect 12 0 14 0;
#X connect 14 0 7 0;
#X coords 0 1 100 -1 180 30 1 0 0;
#X restore 18 260 graph;
#N canvas 457 98 520 516 LiquidRF______ 0;
#X text 85 17 liquid with a pipe/vessel formant;
#X obj 141 207 osc~;
#X obj 141 180 line~;
#X obj 185 218 delta~;
#X obj 141 338 *~;
#X obj 184 314 *~;
#X obj 141 68 metro 6;
#X obj 141 46 tgl 15 0 empty empty empty 0 -6 0 8 -262144 -1 -1 1 1
;
#X obj 141 113 * 800;
#X obj 184 289 *~ 0.9;
#X obj 141 361 hip~ 10;
#X obj 141 159 pack 1 2;
#X obj 184 265 lop~ 10;
#N canvas 0 22 450 300 bilexp 0;
#X obj 56 166 expr exp($f1);
#X obj 55 71 random 8192;
#X obj 56 139 * 9;
#X obj 55 116 / 4096;
#X obj 123 91 > 4096;
#X obj 123 113 sel 0 1;
#X msg 115 141 -1;
#X msg 147 141 1;
#X obj 56 199 *;
#X obj 55 45 t b;
#X obj 55 21 inlet;
#X obj 56 248 outlet;
#X obj 56 225 / 8192;
#X obj 55 92 zexy/wrap 4096;
#X connect 0 0 8 0;
#X connect 1 0 4 0;
#X connect 1 0 13 0;
#X connect 2 0 0 0;
#X connect 3 0 2 0;
#X connect 4 0 5 0;
#X connect 5 0 6 0;
#X connect 5 1 7 0;
#X connect 6 0 8 1;
#X connect 7 0 8 1;
#X connect 8 0 12 0;
#X connect 9 0 1 0;
#X connect 10 0 9 0;
#X connect 12 0 11 0;
#X connect 13 0 3 0;
#X restore 141 91 pd bilexp;
#X obj 185 242 clip~ 0 1;
#X obj 138 444 *~ 2;
#X obj 23 415 bp~ 124 80;
#X obj 101 415 bp~ 345 80;
#X obj 178 415 bp~ 678 80;
#X obj 256 415 bp~ 987 80;
#X obj 141 383 *~ 1;
#X obj 141 135 + 800;
#N canvas 0 22 450 300 crossfader 0;
#X obj 122 29 inlet~;
#X obj 182 28 inlet~;
#X obj 252 27 inlet;
#X obj 257 104 -;
#X obj 252 52 t b f;
#X msg 238 78 1;
#X obj 141 146 *~;
#X obj 141 178 outlet~;
#X obj 173 146 *~;
#X connect 0 0 6 0;
#X connect 1 0 8 0;
#X connect 2 0 4 0;
#X connect 3 0 8 1;
#X connect 4 0 5 0;
#X connect 4 1 3 1;
#X connect 4 1 6 1;
#X connect 5 0 3 0;
#X connect 6 0 7 0;
#X connect 8 0 7 0;
#X restore 137 475 pd crossfader;
#X obj 288 506 ead~ 0 50;
#X obj 288 478 bng 15 250 50 0 empty empty empty 0 -6 0 8 -262144 -1
-1;
#X obj 178 515 *~;
#X obj 140 0 inlet;
#X obj 217 343 inlet;
#X obj 327 451 inlet;
#X obj 175 541 outlet~;
#X obj 271 368 inlet;
#X connect 1 0 4 0;
#X connect 2 0 1 0;
#X connect 2 0 3 0;
#X connect 3 0 14 0;
#X connect 4 0 10 0;
#X connect 5 0 4 1;
#X connect 6 0 13 0;
#X connect 7 0 6 0;
#X connect 8 0 21 0;
#X connect 9 0 5 0;
#X connect 9 0 5 1;
#X connect 10 0 20 0;
#X connect 10 0 22 1;
#X connect 11 0 2 0;
#X connect 12 0 9 0;
#X connect 13 0 8 0;
#X connect 14 0 12 0;
#X connect 15 0 22 0;
#X connect 16 0 15 0;
#X connect 17 0 15 0;
#X connect 18 0 15 0;
#X connect 19 0 15 0;
#X connect 20 0 16 0;
#X connect 20 0 17 0;
#X connect 20 0 18 0;
#X connect 20 0 19 0;
#X connect 21 0 11 0;
#X connect 22 0 25 0;
#X connect 23 0 25 1;
#X connect 24 0 23 0;
#X connect 25 0 29 0;
#X connect 26 0 7 0;
#X connect 27 0 24 0;
#X connect 28 0 23 1;
#X connect 30 0 22 2;
#X restore 18 242 pd LiquidRF______;
#X obj 9 200 bng 15 250 50 0 empty empty empty 17 7 0 10 -262144 -1
-1;
#N canvas 0 22 450 300 (subpatch) 0;
#X obj -30 22 spigot;
#X obj 2 3 tgl 15 0 empty empty empty 17 7 0 10 -262144 -1 -1 0 1;
#X obj -58 0 inlet;
#X obj -54 54 outlet;
#X connect 0 0 3 0;
#X connect 1 0 0 1;
#X connect 2 0 0 0;
#X coords 0 1 100 -1 20 20 1 0 0;
#X restore 51 101 graph;
#N canvas 0 22 450 300 (subpatch) 0;
#X obj -30 22 spigot;
#X obj 2 3 tgl 15 0 empty empty empty 17 7 0 10 -262144 -1 -1 0 1;
#X obj -58 0 inlet;
#X obj -54 54 outlet;
#X connect 0 0 3 0;
#X connect 1 0 0 1;
#X connect 2 0 0 0;
#X coords 0 1 100 -1 20 20 1 0 0;
#X restore 86 101 graph;
#N canvas 0 22 450 300 (subpatch) 0;
#X obj -30 22 spigot;
#X obj 2 3 tgl 15 0 empty empty empty 17 7 0 10 -262144 -1 -1 0 1;
#X obj -58 0 inlet;
#X obj -54 54 outlet;
#X connect 0 0 3 0;
#X connect 1 0 0 1;
#X connect 2 0 0 0;
#X coords 0 1 100 -1 20 20 1 0 0;
#X restore 131 101 graph;
#X connect 0 0 17 2;
#X connect 1 0 2 0;
#X connect 2 0 7 0;
#X connect 3 0 19 0;
#X connect 4 0 5 0;
#X connect 5 0 0 0;
#X connect 6 0 17 0;
#X connect 7 0 17 3;
#X connect 12 0 20 0;
#X connect 13 0 21 0;
#X connect 14 0 4 0;
#X connect 15 0 1 0;
#X connect 17 0 16 0;
#X connect 18 0 17 0;
#X connect 18 0 17 1;
#X connect 19 0 17 1;
#X connect 20 0 14 0;
#X connect 21 0 15 0;
