#N canvas 488 231 723 509 10;
#X obj 60 237 osc~;
#X obj 61 291 dac~;
#X obj 111 189 sig~ 1;
#X obj 111 213 -~;
#X obj 61 263 *~;
#X obj 60 189 *~ 230;
#X obj 111 236 lop~ 40;
#X obj 60 25 bng 15 250 50 0 empty empty empty 0 -6 0 8 -262144 -1
-1;
#X obj 60 68 + 20;
#X obj 61 212 +~ 120;
#X obj 60 47 random 120;
#X obj 97 105 * 6;
#N canvas 0 50 450 300 env-4pow-up 0;
#X obj 220 167 vline~;
#X obj 219 193 *~;
#X obj 219 218 *~;
#X obj 171 255 -~;
#X obj 171 279 outlet~;
#X msg 220 140 1 0 0 \, 0 \$1 0;
#X msg 171 222 1;
#X obj 190 113 t b f;
#X obj 190 84 inlet;
#X connect 0 0 1 0;
#X connect 0 0 1 1;
#X connect 1 0 2 0;
#X connect 1 0 2 1;
#X connect 2 0 3 1;
#X connect 3 0 4 0;
#X connect 5 0 0 0;
#X connect 6 0 3 0;
#X connect 7 0 6 0;
#X connect 7 1 5 0;
#X connect 8 0 7 0;
#X restore 59 147 pd env-4pow-up;
#X obj 88 7 loadbang;
#X connect 0 0 4 0;
#X connect 2 0 3 0;
#X connect 3 0 6 0;
#X connect 4 0 1 1;
#X connect 4 0 1 0;
#X connect 5 0 9 0;
#X connect 6 0 4 1;
#X connect 7 0 10 0;
#X connect 8 0 11 0;
#X connect 8 0 12 0;
#X connect 9 0 0 0;
#X connect 10 0 8 0;
#X connect 11 0 5 1;
#X connect 12 0 5 0;
#X connect 12 0 3 1;
#X connect 13 0 7 0;
