#N canvas 65 82 326 254 10;
#N canvas 336 218 474 412 Droplets______ 0;
#X obj 112 263 osc~;
#X obj 123 59 noise~;
#X obj 112 337 *~;
#X obj 150 262 *~;
#X obj 150 287 *~;
#X obj 112 441 *~ 0.01;
#X obj 113 463 lop~ 10000;
#X obj 124 155 bp~ 2.064 0.002;
#X obj 151 312 *~;
#X obj 111 371 *~ 0.3;
#X obj 125 178 *~ 3.2;
#X obj 112 396 hip~ 500;
#X obj 113 419 hip~ 500;
#X obj 78 210 *~ 344;
#X obj 79 234 +~ 3000;
#X obj 112 486 *~ 0.01;
#X obj 112 507 lop~ 12000;
#X text 143 349 droplets;
#X obj 112 562 outlet~;
#X connect 0 0 2 0;
#X connect 1 0 7 0;
#X connect 2 0 9 0;
#X connect 3 0 4 0;
#X connect 3 0 4 1;
#X connect 4 0 8 0;
#X connect 4 0 8 1;
#X connect 5 0 6 0;
#X connect 6 0 15 0;
#X connect 7 0 10 0;
#X connect 8 0 2 1;
#X connect 9 0 11 0;
#X connect 10 0 3 0;
#X connect 10 0 3 1;
#X connect 10 0 13 0;
#X connect 11 0 12 0;
#X connect 12 0 5 0;
#X connect 13 0 14 0;
#X connect 14 0 0 0;
#X connect 15 0 16 0;
#X connect 16 0 18 0;
#X restore 20 36 pd Droplets______;
#X obj 16 93 *~;
#X obj 16 115 dac~;
#X obj 32 74 lop~ 10;
#X obj 32 57 tgl 15 0 empty empty empty 17 7 0 10 -262144 -1 -1 1 1
;
#X connect 0 0 1 0;
#X connect 1 0 2 0;
#X connect 1 0 2 1;
#X connect 3 0 1 1;
#X connect 4 0 3 0;
