#N canvas 0 22 822 582 10;
#X obj 13 -148 tgl 15 0 empty empty empty 0 -6 0 8 -262144 -1 -1 0
1;
#X obj 210 184 vsl 15 128 0.04 4 1 0 empty empty amp 0 -8 0 8 -250685
-1 -1 0 1;
#X obj 133 185 vsl 15 128 0.04 5000 1 0 empty empty base 0 -8 0 8 -24198
-1 -1 0 1;
#X obj 94 184 vsl 15 128 0.04 5000 0 0 empty empty range 0 -8 0 8 -62784
-1 -1 0 1;
#X obj 250 184 vsl 15 128 0.04 15000 0 0 empty empty hip 0 -8 0 8 -241291
-1 -1 0 1;
#X obj 173 185 vsl 15 128 0.04 20 1 0 empty empty slew 0 -8 0 8 -258699
-1 -1 0 1;
#X obj 56 184 vsl 15 128 5 50 0 0 empty empty rate 0 -8 0 8 -1109 -1
-1 0 1;
#X text 372 121 Parameters for rate \, base and range are pretty easy
to understand. They set the tempo at which new random liquid movements
happen \, the approximate middle frequency of the droplets and bubbles
and the low and high extremes of the random range. Have a play with
the controls and get a feel for the variety of liquid sounds possible.
A control that isn't so obvious is the slew. That's because it's codependent
with our tempo rate. If you set it too high \, slew > rate * 2 \, the
effect of running water is replaced by something like distant birds
singing. If you set it too low the drops become too percussive and
clicks will begin. Somewhere between slew = rate/2 and slew = rate
gets the best values for a sound that ranges between dripping and a
constantly poured liquid. We can change the rate at which the liquid
apparently flows.;
#X floatatom 289 110 5 0 0 0 - - -;
#X floatatom 330 110 5 0 0 0 - - -;
#X floatatom 289 299 5 0 0 0 - - -;
#X floatatom 330 299 5 0 0 0 - - -;
#X obj 289 132 * 10;
#X obj 330 132 * 50;
#X obj 26 -128 r bang;
#X floatatom 210 111 5 0 0 0 - - -;
#X floatatom 250 110 5 0 0 0 - - -;
#X floatatom 56 110 5 0 0 0 - - -;
#X floatatom 94 110 5 0 0 0 - - -;
#X floatatom 133 110 5 0 0 0 - - -;
#X floatatom 173 110 5 0 0 0 - - -;
#X obj 56 150 + 5;
#X obj 56 130 / 3;
#X obj 94 130 * 40;
#X obj 173 131 / 6;
#X obj 133 130 / 100;
#X obj 133 150 * 40;
#X obj 210 133 / 127;
#X obj 250 132 * 100;
#X obj 56 -107 r ctl1;
#X obj 94 -84 r ctl2;
#X obj 133 -64 r ctl3;
#X obj 173 -44 r ctl4;
#X obj 210 -24 r ctl5;
#X obj 250 -4 r ctl6;
#X obj 289 18 r ctl7;
#X obj 330 41 r ctl8;
#N canvas 431 195 450 300 LiquidFlowDrips 1;
#X obj 31 343 osc~;
#X obj 31 316 line~;
#X obj 75 354 delta~;
#X obj 31 474 *~;
#X obj 74 450 *~;
#X obj 31 197 metro 6;
#X obj 30 503 *~;
#X obj 31 271 + 800;
#X obj 31 249 * 800;
#X obj 74 425 *~ 0.9;
#X obj 30 533 hip~ 10;
#X obj 31 295 pack 1 2;
#X obj 74 401 lop~ 10;
#N canvas 0 22 263 285 bilexp 1;
#X obj 55 180 expr exp($f1);
#X obj 55 80 random 8192;
#X obj 55 153 * 9;
#X obj 55 130 / 4096;
#X obj 127 105 > 4096;
#X obj 127 127 sel 0 1;
#X msg 119 155 -1;
#X msg 151 155 1;
#X obj 55 204 *;
#X obj 55 59 t b;
#X obj 55 38 inlet;
#X obj 55 252 outlet;
#X text 36 6 bipolar exponential randoms;
#X obj 55 228 / 8192;
#X obj 55 108 zexy/wrap 4096;
#X connect 0 0 8 0;
#X connect 1 0 4 0;
#X connect 1 0 14 0;
#X connect 2 0 0 0;
#X connect 3 0 2 0;
#X connect 4 0 5 0;
#X connect 5 0 6 0;
#X connect 5 1 7 0;
#X connect 6 0 8 1;
#X connect 7 0 8 1;
#X connect 8 0 13 0;
#X connect 9 0 1 0;
#X connect 10 0 9 0;
#X connect 13 0 11 0;
#X connect 14 0 3 0;
#X restore 31 220 pd bilexp;
#X obj 75 378 clip~ 0 1;
#X text 38 178 exponential noise;
#X text 35 168 liquids using bilinear;
#X obj 197 528 ead~;
#X obj 184 503 bng 15 250 50 0 empty empty empty 17 7 0 10 -262144
-1 -1;
#X obj 182 550 *~;
#X obj 32 42 inlet;
#X obj 32 62 tgl 15 0 empty empty empty 0 -6 0 8 -262144 -1 -1 0 1
;
#X obj 68 61 inlet;
#X obj 97 82 inlet;
#X obj 114 105 inlet;
#X obj 130 133 inlet;
#X obj 193 316 inlet;
#X obj 207 355 inlet;
#X obj 230 391 inlet;
#X obj 266 426 inlet;
#X obj 288 454 inlet;
#X obj 182 572 outlet~;
#X connect 0 0 3 0;
#X connect 1 0 0 0;
#X connect 1 0 2 0;
#X connect 2 0 14 0;
#X connect 3 0 6 0;
#X connect 4 0 3 1;
#X connect 5 0 13 0;
#X connect 6 0 10 0;
#X connect 7 0 11 0;
#X connect 8 0 7 0;
#X connect 9 0 4 0;
#X connect 9 0 4 1;
#X connect 10 0 19 0;
#X connect 11 0 1 0;
#X connect 12 0 9 0;
#X connect 13 0 8 0;
#X connect 14 0 12 0;
#X connect 17 0 19 1;
#X connect 18 0 17 0;
#X connect 19 0 31 0;
#X connect 20 0 21 0;
#X connect 21 0 5 0;
#X connect 22 0 5 1;
#X connect 23 0 8 1;
#X connect 24 0 7 1;
#X connect 25 0 11 1;
#X connect 26 0 6 1;
#X connect 27 0 10 1;
#X connect 28 0 18 0;
#X connect 29 0 17 1;
#X connect 30 0 17 2;
#X restore 15 316 pd LiquidFlowDrips;
#X text 373 41 Decay;
#X text 334 18 Attack;
#X text 295 -4 Hip freq;
#X text 254 -26 Amp;
#X text 181 -65 Base;
#X text 101 -108 Rate;
#X text 141 -85 Range;
#X text 218 -46 Slew;
#X obj 56 81 knob 25 25 0 127 0 0 empty empty empty 0 -8 32 8 -1 -260097
-260097 0 1;
#X obj 94 81 knob 25 25 0 127 0 0 empty empty empty 0 -8 32 8 -1 -260097
-260097 0 1;
#X obj 133 81 knob 25 25 0 127 0 0 empty empty empty 0 -8 32 8 -1 -260097
-260097 0 1;
#X obj 172 81 knob 25 25 0 127 0 0 empty empty empty 0 -8 32 8 -1 -260097
-260097 0 1;
#X obj 210 82 knob 25 25 0 127 0 0 empty empty empty 0 -8 32 8 -1 -260097
-260097 0 1;
#X obj 250 81 knob 25 25 0 127 0 0 empty empty empty 0 -8 32 8 -1 -260097
-260097 0 1;
#X obj 289 81 knob 25 25 0 127 0 0 empty empty empty 0 -8 32 8 -1 -260097
-260097 0 1;
#X obj 330 81 knob 25 25 0 127 0 0 empty empty empty 0 -8 32 8 -1 -260097
-260097 0 1;
#N canvas 0 22 450 300 (subpatch) 0;
#X obj 59 155 inlet;
#X obj 3 89 inlet~;
#X obj 58 182 change;
#X msg 60 246 set \$1;
#X obj 60 227 tosymbol;
#X obj 59 204 sprintf Bus%d;
#X obj 3 282 throw~ Bus0;
#X obj 2 3 popup 124 25 #ffffff popup Bus0 Bus1 Bus2 Bus3 Bus4 Bus5
Bus6 Bus7 Bus8 Bus9 Bus10 Bus11 Bus12 Bus13 Bus14 Bus15 Bus16;
#X obj 1 32 route bang;
#X obj 154 202 *~;
#X obj 141 7 tgl 15 0 empty empty Dac 19 7 0 10 -262144 -1 -1 0 1;
#X obj 155 238 dac~;
#X obj 1 -41 loadbang;
#X text 59 -43 Bus0 mutes;
#X msg 1 -23 options Bus0 Bus1 Bus2 Bus3 Bus4 Bus5 Bus6 Bus7 Bus8 Bus9
Bus10 Bus11 Bus12 Bus13 Bus14 Bus15 Bus16;
#X connect 0 0 2 0;
#X connect 1 0 6 0;
#X connect 1 0 9 0;
#X connect 2 0 5 0;
#X connect 3 0 6 0;
#X connect 4 0 3 0;
#X connect 5 0 4 0;
#X connect 7 0 8 0;
#X connect 8 1 2 0;
#X connect 9 0 11 0;
#X connect 9 0 11 1;
#X connect 10 0 9 1;
#X connect 12 0 14 0;
#X connect 14 0 7 0;
#X coords 0 1 100 -1 180 30 1 0 0;
#X restore 15 333 graph;
#N canvas 0 22 450 300 (subpatch) 0;
#X obj -30 22 spigot;
#X obj 2 3 tgl 15 0 empty empty empty 17 7 0 10 -262144 -1 -1 0 1;
#X obj -58 0 inlet;
#X obj -54 54 outlet;
#X connect 0 0 3 0;
#X connect 1 0 0 1;
#X connect 2 0 0 0;
#X coords 0 1 100 -1 20 20 1 0 0;
#X restore 56 58 graph;
#N canvas 0 22 450 300 (subpatch) 0;
#X obj -30 22 spigot;
#X obj 2 3 tgl 15 0 empty empty empty 17 7 0 10 -262144 -1 -1 0 1;
#X obj -58 0 inlet;
#X obj -54 54 outlet;
#X connect 0 0 3 0;
#X connect 1 0 0 1;
#X connect 2 0 0 0;
#X coords 0 1 100 -1 20 20 1 0 0;
#X restore 94 58 graph;
#N canvas 0 22 450 300 (subpatch) 0;
#X obj -30 22 spigot;
#X obj 2 3 tgl 15 0 empty empty empty 17 7 0 10 -262144 -1 -1 0 1;
#X obj -58 0 inlet;
#X obj -54 54 outlet;
#X connect 0 0 3 0;
#X connect 1 0 0 1;
#X connect 2 0 0 0;
#X coords 0 1 100 -1 20 20 1 0 0;
#X restore 133 58 graph;
#N canvas 0 22 450 300 (subpatch) 0;
#X obj -30 22 spigot;
#X obj 2 3 tgl 15 0 empty empty empty 17 7 0 10 -262144 -1 -1 0 1;
#X obj -58 0 inlet;
#X obj -54 54 outlet;
#X connect 0 0 3 0;
#X connect 1 0 0 1;
#X connect 2 0 0 0;
#X coords 0 1 100 -1 20 20 1 0 0;
#X restore 172 58 graph;
#N canvas 0 22 450 300 (subpatch) 0;
#X obj -30 22 spigot;
#X obj 2 3 tgl 15 0 empty empty empty 17 7 0 10 -262144 -1 -1 0 1;
#X obj -58 0 inlet;
#X obj -54 54 outlet;
#X connect 0 0 3 0;
#X connect 1 0 0 1;
#X connect 2 0 0 0;
#X coords 0 1 100 -1 20 20 1 0 0;
#X restore 210 59 graph;
#N canvas 0 22 450 300 (subpatch) 0;
#X obj -30 22 spigot;
#X obj 2 3 tgl 15 0 empty empty empty 17 7 0 10 -262144 -1 -1 0 1;
#X obj -58 0 inlet;
#X obj -54 54 outlet;
#X connect 0 0 3 0;
#X connect 1 0 0 1;
#X connect 2 0 0 0;
#X coords 0 1 100 -1 20 20 1 0 0;
#X restore 250 58 graph;
#N canvas 0 22 450 300 (subpatch) 0;
#X obj -30 22 spigot;
#X obj 2 3 tgl 15 0 empty empty empty 17 7 0 10 -262144 -1 -1 0 1;
#X obj -58 0 inlet;
#X obj -54 54 outlet;
#X connect 0 0 3 0;
#X connect 1 0 0 1;
#X connect 2 0 0 0;
#X coords 0 1 100 -1 20 20 1 0 0;
#X restore 289 58 graph;
#N canvas 0 22 450 300 (subpatch) 0;
#X obj -30 22 spigot;
#X obj 2 3 tgl 15 0 empty empty empty 17 7 0 10 -262144 -1 -1 0 1;
#X obj -58 0 inlet;
#X obj -54 54 outlet;
#X connect 0 0 3 0;
#X connect 1 0 0 1;
#X connect 2 0 0 0;
#X coords 0 1 100 -1 20 20 1 0 0;
#X restore 330 58 graph;
#N canvas 0 22 450 300 (subpatch) 0;
#X obj -30 22 spigot;
#X obj 2 3 tgl 15 0 empty empty empty 17 7 0 10 -262144 -1 -1 0 1;
#X obj -58 0 inlet;
#X obj -54 54 outlet;
#X connect 0 0 3 0;
#X connect 1 0 0 1;
#X connect 2 0 0 0;
#X coords 0 1 100 -1 20 20 1 0 0;
#X restore 26 58 graph;
#X connect 0 0 37 0;
#X connect 1 0 37 6;
#X connect 2 0 37 4;
#X connect 3 0 37 3;
#X connect 4 0 37 7;
#X connect 5 0 37 5;
#X connect 6 0 37 2;
#X connect 8 0 12 0;
#X connect 9 0 13 0;
#X connect 10 0 37 8;
#X connect 11 0 37 9;
#X connect 12 0 10 0;
#X connect 13 0 11 0;
#X connect 14 0 63 0;
#X connect 15 0 27 0;
#X connect 16 0 28 0;
#X connect 17 0 22 0;
#X connect 18 0 23 0;
#X connect 19 0 25 0;
#X connect 20 0 24 0;
#X connect 21 0 6 0;
#X connect 22 0 21 0;
#X connect 23 0 3 0;
#X connect 24 0 5 0;
#X connect 25 0 26 0;
#X connect 26 0 2 0;
#X connect 27 0 1 0;
#X connect 28 0 4 0;
#X connect 29 0 55 0;
#X connect 30 0 56 0;
#X connect 31 0 57 0;
#X connect 32 0 58 0;
#X connect 33 0 59 0;
#X connect 34 0 60 0;
#X connect 35 0 61 0;
#X connect 36 0 62 0;
#X connect 37 0 54 0;
#X connect 46 0 17 0;
#X connect 47 0 18 0;
#X connect 48 0 19 0;
#X connect 49 0 20 0;
#X connect 50 0 15 0;
#X connect 51 0 16 0;
#X connect 52 0 8 0;
#X connect 53 0 9 0;
#X connect 55 0 46 0;
#X connect 56 0 47 0;
#X connect 57 0 48 0;
#X connect 58 0 49 0;
#X connect 59 0 50 0;
#X connect 60 0 51 0;
#X connect 61 0 52 0;
#X connect 62 0 53 0;
#X connect 63 0 37 1;
