#N canvas 65 82 433 358 10;
#X text 78 87 set lop filter frquency;
#X floatatom 44 169 5 0 0 0 - - -, f 5;
#X obj 44 148 * 200;
#X floatatom 45 87 5 0 0 0 - - -, f 5;
#N canvas 65 54 1301 714 Drips_______________ 0;
#X obj 257 79 noise~;
#X obj 143 79 noise~;
#X obj 371 78 noise~;
#X obj 155 112 lop~ 16;
#X obj 519 215 /~;
#X obj 518 322 clip~ 0 0.9;
#X obj 518 522 lop~ 12000;
#X obj 271 105 lop~ 0.01;
#X obj 518 240 hip~ 10000;
#X obj 449 107 lop~ 1900;
#X obj 519 301 *~;
#X obj 520 276 *~ 0.03;
#X obj 518 433 vcf~ 3333 30;
#X obj 557 365 +~ 1000;
#X obj 156 138 *~ 300000;
#X obj 556 401 clip~ 1000 10000;
#X obj 515 460 *~ 0.7;
#X text 514 485 drips;
#X obj 567 636 outlet~;
#X obj 648 261 loadbang, f 14;
#X msg 648 283 30;
#X obj 646 485 inlet, f 14;
#X connect 0 0 7 0;
#X connect 1 0 3 0;
#X connect 2 0 9 0;
#X connect 3 0 14 0;
#X connect 4 0 8 0;
#X connect 5 0 12 0;
#X connect 6 0 18 0;
#X connect 7 0 4 0;
#X connect 8 0 11 0;
#X connect 9 0 4 1;
#X connect 10 0 5 0;
#X connect 11 0 10 0;
#X connect 11 0 10 1;
#X connect 12 0 16 0;
#X connect 13 0 15 0;
#X connect 14 0 13 0;
#X connect 15 0 12 1;
#X connect 16 0 6 0;
#X connect 19 0 20 0;
#X connect 20 0 16 1;
#X connect 21 0 6 1;
#X restore 8 185 pd Drips_______________;
#X obj 8 254 *~;
#X obj 8 276 dac~;
#X obj 24 235 lop~ 10;
#X obj 24 218 tgl 15 0 empty empty empty 17 7 0 10 -262144 -1 -1 1
1;
#X connect 2 0 1 0;
#X connect 2 0 4 0;
#X connect 3 0 2 0;
#X connect 4 0 5 0;
#X connect 5 0 6 0;
#X connect 5 0 6 1;
#X connect 7 0 5 1;
#X connect 8 0 7 0;
