#N canvas 0 22 320 298 10;
#X floatatom 151 161 5 0 0 0 - - -;
#X obj 151 181 / 100;
#X floatatom -9 160 5 0 0 0 - - -;
#X obj -9 6 ctlin 1;
#X floatatom 29 160 5 0 0 0 - - -;
#X floatatom 68 160 5 0 0 0 - - -;
#X floatatom 111 160 5 0 0 0 - - -;
#X obj 151 86 ctlin 5;
#X obj 29 26 ctlin 2;
#X obj 68 46 ctlin 3;
#X obj 111 65 ctlin 4;
#X obj -9 180 * 5;
#X obj 29 180 * 1;
#X obj 111 180 * 100;
#X obj 68 180 * 200;
#X floatatom 151 201 5 0 0 0 - - -;
#X floatatom -9 201 5 0 0 0 - - -;
#X floatatom 29 201 5 0 0 0 - - -;
#X floatatom 68 201 5 0 0 0 - - -;
#X floatatom 111 201 5 0 0 0 - - -;
#X obj 151 132 knob 25 25 0 127 0 0 empty empty empty 0 -8 32 8 -1
-260097 -260097 1800 1;
#X obj 111 131 knob 25 25 0 127 0 0 empty empty empty 0 -8 32 8 -1
-260097 -260097 1600 1;
#X obj 68 131 knob 25 25 0 127 0 0 empty empty empty 0 -8 32 8 -1 -260097
-260097 800 1;
#X obj 29 131 knob 25 25 0 127 0 0 empty empty empty 0 -8 32 8 -1 -260097
-260097 2200 1;
#X obj -9 131 knob 25 25 0 127 0 0 empty empty empty 0 -8 32 8 -1 -260097
-260097 500 1;
#N canvas 422 157 450 300 Rumble------ 0;
#X obj 241 367 noise~;
#X obj 180 412 *~;
#X obj 179 377 lop~ 16;
#X obj 232 534 lop~ 12000;
#X text 236 417 rumble;
#X obj 177 322 noise~;
#X obj 231 437 bp~ 440 10;
#X obj 233 496 *~ 1.4;
#X obj 223 291 inlet;
#X obj 269 291 inlet;
#X obj 313 293 inlet;
#X obj 359 293 inlet;
#X obj 411 294 inlet;
#X obj 232 554 outlet~;
#X obj 183 344 *~;
#X obj 240 389 *~;
#X connect 0 0 15 0;
#X connect 0 0 15 1;
#X connect 1 0 6 0;
#X connect 2 0 1 0;
#X connect 3 0 13 0;
#X connect 5 0 14 0;
#X connect 5 0 14 1;
#X connect 6 0 7 0;
#X connect 7 0 3 0;
#X connect 8 0 6 1;
#X connect 9 0 6 2;
#X connect 10 0 2 1;
#X connect 11 0 3 1;
#X connect 12 0 7 1;
#X connect 14 0 2 0;
#X connect 15 0 1 1;
#X restore -9 217 pd Rumble------;
#N canvas 0 22 450 300 (subpatch) 0;
#X obj 59 155 inlet;
#X obj 3 89 inlet~;
#X obj 58 182 change;
#X msg 60 246 set \$1;
#X obj 60 227 tosymbol;
#X obj 59 204 sprintf Bus%d;
#X obj 3 282 throw~ Bus0;
#X obj 2 3 popup 124 25 #ffffff popup Bus0 Bus1 Bus2 Bus3 Bus4 Bus5
Bus6 Bus7 Bus8 Bus9 Bus10 Bus11 Bus12 Bus13 Bus14 Bus15 Bus16;
#X obj 1 32 route bang;
#X obj 154 202 *~;
#X obj 141 7 tgl 15 0 empty empty Dac 19 7 0 10 -262144 -1 -1 1 1;
#X obj 155 238 dac~;
#X obj 1 -41 loadbang;
#X text 59 -43 Bus0 mutes;
#X msg 1 -23 options Bus0 Bus1 Bus2 Bus3 Bus4 Bus5 Bus6 Bus7 Bus8 Bus9
Bus10 Bus11 Bus12 Bus13 Bus14 Bus15 Bus16;
#X connect 0 0 2 0;
#X connect 1 0 6 0;
#X connect 1 0 9 0;
#X connect 2 0 5 0;
#X connect 3 0 6 0;
#X connect 4 0 3 0;
#X connect 5 0 4 0;
#X connect 7 0 8 0;
#X connect 8 1 2 0;
#X connect 9 0 11 0;
#X connect 9 0 11 1;
#X connect 10 0 9 1;
#X connect 12 0 14 0;
#X connect 14 0 7 0;
#X coords 0 1 100 -1 180 30 1 0 0;
#X restore -9 234 graph;
#X text 40 7 BP Freq (440);
#X text 79 27 BP Q (10);
#X text 118 46 LOP 1 (16);
#X text 203 87 Amp (1.4);
#X text 160 66 LOP 2 (12000);
#N canvas 0 22 450 300 (subpatch) 0;
#X obj -30 22 spigot;
#X obj 2 3 tgl 15 0 empty empty empty 17 7 0 10 -262144 -1 -1 0 1;
#X obj -58 0 inlet;
#X obj -54 54 outlet;
#X connect 0 0 3 0;
#X connect 1 0 0 1;
#X connect 2 0 0 0;
#X coords 0 1 100 -1 20 20 1 0 0;
#X restore 151 109 graph;
#N canvas 0 22 450 300 (subpatch) 0;
#X obj -30 22 spigot;
#X obj 2 3 tgl 15 0 empty empty empty 17 7 0 10 -262144 -1 -1 0 1;
#X obj -58 0 inlet;
#X obj -54 54 outlet;
#X connect 0 0 3 0;
#X connect 1 0 0 1;
#X connect 2 0 0 0;
#X coords 0 1 100 -1 20 20 1 0 0;
#X restore 111 108 graph;
#N canvas 0 22 450 300 (subpatch) 0;
#X obj -30 22 spigot;
#X obj 2 3 tgl 15 0 empty empty empty 17 7 0 10 -262144 -1 -1 0 1;
#X obj -58 0 inlet;
#X obj -54 54 outlet;
#X connect 0 0 3 0;
#X connect 1 0 0 1;
#X connect 2 0 0 0;
#X coords 0 1 100 -1 20 20 1 0 0;
#X restore 68 108 graph;
#N canvas 0 22 450 300 (subpatch) 0;
#X obj -30 22 spigot;
#X obj 2 3 tgl 15 0 empty empty empty 17 7 0 10 -262144 -1 -1 0 1;
#X obj -58 0 inlet;
#X obj -54 54 outlet;
#X connect 0 0 3 0;
#X connect 1 0 0 1;
#X connect 2 0 0 0;
#X coords 0 1 100 -1 20 20 1 0 0;
#X restore 29 108 graph;
#N canvas 0 22 450 300 (subpatch) 0;
#X obj -30 22 spigot;
#X obj 2 3 tgl 15 0 empty empty empty 17 7 0 10 -262144 -1 -1 0 1;
#X obj -58 0 inlet;
#X obj -54 54 outlet;
#X connect 0 0 3 0;
#X connect 1 0 0 1;
#X connect 2 0 0 0;
#X coords 0 1 100 -1 20 20 1 0 0;
#X restore -9 108 graph;
#X connect 0 0 1 0;
#X connect 1 0 15 0;
#X connect 2 0 11 0;
#X connect 3 0 36 0;
#X connect 4 0 12 0;
#X connect 5 0 14 0;
#X connect 6 0 13 0;
#X connect 7 0 32 0;
#X connect 8 0 35 0;
#X connect 9 0 34 0;
#X connect 10 0 33 0;
#X connect 11 0 16 0;
#X connect 12 0 17 0;
#X connect 13 0 19 0;
#X connect 14 0 18 0;
#X connect 15 0 25 4;
#X connect 16 0 25 0;
#X connect 17 0 25 1;
#X connect 18 0 25 2;
#X connect 19 0 25 3;
#X connect 20 0 0 0;
#X connect 21 0 6 0;
#X connect 22 0 5 0;
#X connect 23 0 4 0;
#X connect 24 0 2 0;
#X connect 25 0 26 0;
#X connect 32 0 20 0;
#X connect 33 0 21 0;
#X connect 34 0 22 0;
#X connect 35 0 23 0;
#X connect 36 0 24 0;
