#N canvas 296 136 703 475 10;
#N canvas 330 102 1024 686 Stream_______________________ 0;
#X obj 66 202 osc~;
#X obj 65 169 line~;
#X obj 65 122 + 800;
#X obj 65 98 random 1600;
#X obj 49 260 *~;
#X obj 9 226 lop~ 10;
#X obj 178 203 osc~;
#X obj 177 170 line~;
#X obj 161 261 *~;
#X obj 121 227 lop~ 10;
#X obj 177 123 + 600;
#X obj 154 332 *~;
#X obj 177 99 random 1200;
#X obj 96 362 *~ 0.04;
#X obj 208 363 *~ 0.05;
#X obj 154 362 *~ 0.2;
#X obj 402 202 osc~;
#X obj 401 169 line~;
#X obj 385 260 *~;
#X obj 345 226 lop~ 10;
#X obj 569 203 osc~;
#X obj 568 170 line~;
#X obj 552 261 *~;
#X obj 662 218 lop~ 10;
#X obj 376 332 *~;
#X obj 376 362 *~ 0.2;
#X obj 286 461 *~;
#X obj 401 122 + 900;
#X obj 568 99 random 2200;
#X obj 568 123 + 1100;
#X obj 318 362 *~ 0.1;
#X obj 430 363 *~ 0.1;
#X obj 401 98 random 1800;
#X obj 402 70 metro 5;
#X obj 66 70 metro 3;
#X obj 286 509 hip~ 1000;
#X obj 286 485 bp~ 1000 8;
#X obj 167 28 loadbang;
#X msg 167 49 1;
#X obj 373 461 *~ 0.003;
#X obj 151 458 *~ 0.006;
#X obj 286 561 hip~ 800;
#X obj 285 532 *~ 0.4;
#X obj 286 587 *~ 20;
#X obj 65 144 pack 1 11;
#X obj 178 145 pack 1 11;
#X obj 401 144 pack 1 11;
#X obj 568 145 pack 1 11;
#X obj 153 392 hip~ 1000;
#X obj 375 394 hip~ 1000;
#X obj 374 419 bp~ 2000 0.5;
#X obj 152 419 bp~ 1700 0.5;
#X text 155 -1 stream try 4;
#X obj 292 698 *~;
#X obj -119 457 inlet;
#X obj -60 420 inlet;
#X obj 269 406 inlet;
#X obj 312 411 inlet;
#X obj 485 363 inlet;
#X obj 528 368 inlet;
#X obj 609 638 inlet;
#X obj 291 720 outlet~;
#X msg 799 85 bang;
#X obj 779 108 samplerate~;
#X obj 779 179 /;
#X obj 779 127 t b f;
#X obj 779 64 loadbang;
#X msg 779 151 1000;
#X obj 662 173 delwrite~ \$0-a 10;
#X obj 663 196 delread~ \$0-a;
#X obj 457 186 delwrite~ \$0-b 10;
#X obj 458 209 delread~ \$0-b;
#X obj 224 195 delwrite~ \$0-c 10;
#X obj 225 218 delread~ \$0-c;
#X obj -73 196 delread~ \$0-d;
#X obj -74 173 delwrite~ \$0-d 10;
#X obj 282 621 clip~ -0.5 0.5;
#X connect 0 0 4 1;
#X connect 1 0 0 0;
#X connect 1 0 75 0;
#X connect 2 0 44 0;
#X connect 3 0 2 0;
#X connect 4 0 11 0;
#X connect 4 0 13 0;
#X connect 5 0 4 0;
#X connect 6 0 8 1;
#X connect 7 0 6 0;
#X connect 7 0 72 0;
#X connect 8 0 11 1;
#X connect 8 0 14 0;
#X connect 9 0 8 0;
#X connect 10 0 45 0;
#X connect 11 0 15 0;
#X connect 12 0 10 0;
#X connect 13 0 51 0;
#X connect 14 0 51 0;
#X connect 15 0 48 0;
#X connect 16 0 18 1;
#X connect 17 0 16 0;
#X connect 17 0 70 0;
#X connect 18 0 24 0;
#X connect 18 0 30 0;
#X connect 19 0 18 0;
#X connect 20 0 22 1;
#X connect 21 0 20 0;
#X connect 21 0 68 0;
#X connect 22 0 24 1;
#X connect 22 0 31 0;
#X connect 23 0 22 0;
#X connect 24 0 25 0;
#X connect 25 0 49 0;
#X connect 26 0 36 0;
#X connect 27 0 46 0;
#X connect 28 0 29 0;
#X connect 29 0 47 0;
#X connect 30 0 50 0;
#X connect 31 0 50 0;
#X connect 32 0 27 0;
#X connect 33 0 28 0;
#X connect 33 0 32 0;
#X connect 34 0 3 0;
#X connect 34 0 12 0;
#X connect 35 0 42 0;
#X connect 36 0 35 0;
#X connect 37 0 38 0;
#X connect 38 0 34 0;
#X connect 38 0 33 0;
#X connect 39 0 41 0;
#X connect 40 0 41 0;
#X connect 41 0 43 0;
#X connect 42 0 41 0;
#X connect 43 0 76 0;
#X connect 44 0 1 0;
#X connect 45 0 7 0;
#X connect 46 0 17 0;
#X connect 47 0 21 0;
#X connect 48 0 51 0;
#X connect 49 0 50 0;
#X connect 50 0 26 1;
#X connect 50 0 39 0;
#X connect 51 0 26 0;
#X connect 51 0 40 0;
#X connect 53 0 61 0;
#X connect 54 0 51 1;
#X connect 55 0 51 2;
#X connect 56 0 36 1;
#X connect 57 0 36 2;
#X connect 58 0 50 1;
#X connect 59 0 50 2;
#X connect 60 0 53 1;
#X connect 62 0 63 0;
#X connect 63 0 65 0;
#X connect 64 0 69 0;
#X connect 64 0 71 0;
#X connect 64 0 73 0;
#X connect 64 0 74 0;
#X connect 65 0 67 0;
#X connect 65 1 64 1;
#X connect 66 0 63 0;
#X connect 67 0 64 0;
#X connect 69 0 23 0;
#X connect 71 0 19 0;
#X connect 73 0 9 0;
#X connect 74 0 5 0;
#X connect 76 0 53 0;
#X restore 93 259 pd Stream_______________________;
#X floatatom 251 124 5 0 0 0 - - -, f 5;
#X floatatom 301 143 5 0 0 0 - - -, f 5;
#X floatatom 402 176 5 0 0 0 - - -, f 5;
#X floatatom 99 75 5 0 0 0 - - -, f 5;
#X floatatom 150 93 5 0 0 0 - - -, f 5;
#X floatatom 199 111 5 0 0 0 - - -, f 5;
#X floatatom 353 159 5 0 0 0 - - -, f 5;
#X text 451 175 Vol;
#X text 150 72 BP F1 (1700);
#X text 199 92 BP Q1 (0.5);
#X text 253 106 BP F2 (1000);
#X text 302 126 BP Q2 (8);
#X text 354 140 BP F3 (2000);
#X text 403 158 BP Q3 (0.5);
#X obj 93 320 *~;
#X obj 93 342 dac~;
#X obj 109 301 lop~ 10;
#X obj 109 284 tgl 15 0 empty empty empty 17 7 0 10 -262144 -1 -1 1
1;
#X obj 357 218 / 127;
#X connect 0 0 15 0;
#X connect 1 0 0 3;
#X connect 2 0 0 4;
#X connect 3 0 19 0;
#X connect 4 0 0 0;
#X connect 5 0 0 1;
#X connect 6 0 0 2;
#X connect 7 0 0 5;
#X connect 15 0 16 0;
#X connect 15 0 16 1;
#X connect 17 0 15 1;
#X connect 18 0 17 0;
#X connect 19 0 0 6;
