#N canvas 0 22 703 475 10;
#X floatatom 250 189 5 0 0 0 - - -;
#X floatatom 300 189 5 0 0 0 - - -;
#X floatatom 401 189 5 0 0 0 - - -;
#X floatatom 98 188 5 0 0 0 - - -;
#X floatatom 149 189 5 0 0 0 - - -;
#X floatatom 198 189 5 0 0 0 - - -;
#X obj 402 212 / 127;
#X obj 99 211 * 20;
#X obj 98 20 ctlin 1;
#X obj 149 37 ctlin 2;
#X obj 401 119 ctlin 8;
#X obj 199 212 * 20;
#X obj 251 212 * 1;
#X obj 301 212 * 20;
#X floatatom 352 189 5 0 0 0 - - -;
#X obj 198 54 ctlin 3;
#X obj 250 72 ctlin 4;
#X obj 300 87 ctlin 5;
#X obj 352 104 ctlin 6;
#X obj 353 212 / 10;
#X obj 300 160 knob 25 25 0 127 0 0 empty empty empty 0 -8 32 8 -1
-260097 -260097 0 1;
#X obj 250 160 knob 25 25 0 127 0 0 empty empty empty 0 -8 32 8 -1
-260097 -260097 0 1;
#X obj 198 160 knob 25 25 0 127 0 0 empty empty empty 0 -8 32 8 -1
-260097 -260097 0 1;
#X obj 149 160 knob 25 25 0 127 0 0 empty empty empty 0 -8 32 8 -1
-260097 -260097 0 1;
#X obj 98 159 knob 25 25 0 127 0 0 empty empty empty 0 -8 32 8 -1 -260097
-260097 0 1;
#N canvas 360 108 1024 720 Stream_______________________ 0;
#X obj 66 202 osc~;
#X obj 65 169 line~;
#X obj 65 122 + 800;
#X obj 65 98 random 1600;
#X obj 16 201 delta~;
#X obj 49 260 *~;
#X obj 9 226 lop~ 10;
#X obj 178 203 osc~;
#X obj 177 170 line~;
#X obj 128 202 delta~;
#X obj 161 261 *~;
#X obj 121 227 lop~ 10;
#X obj 177 123 + 600;
#X obj 107 290 *~;
#X obj 177 99 random 1200;
#X obj 49 320 *~ 0.04;
#X obj 161 321 *~ 0.05;
#X obj 107 320 *~ 0.2;
#X obj 288 202 osc~;
#X obj 287 169 line~;
#X obj 238 201 delta~;
#X obj 271 260 *~;
#X obj 231 226 lop~ 10;
#X obj 400 203 osc~;
#X obj 399 170 line~;
#X obj 350 202 delta~;
#X obj 383 261 *~;
#X obj 343 227 lop~ 10;
#X obj 329 290 *~;
#X obj 329 320 *~ 0.2;
#X obj 239 419 *~;
#X obj 287 122 + 900;
#X obj 399 99 random 2200;
#X obj 399 123 + 1100;
#X obj 271 320 *~ 0.1;
#X obj 383 321 *~ 0.1;
#X obj 287 98 random 1800;
#X obj 288 70 metro 5;
#X obj 66 70 metro 3;
#X obj 239 467 hip~ 1000;
#X obj 239 443 bp~ 1000 8;
#X obj 167 28 loadbang;
#X msg 167 49 1;
#X obj 326 419 *~ 0.003;
#X obj 104 416 *~ 0.006;
#X obj 239 519 hip~ 800;
#X obj 238 490 *~ 0.4;
#X obj 239 545 *~ 20;
#X obj 65 144 pack 1 11;
#X obj 178 145 pack 1 11;
#X obj 287 144 pack 1 11;
#X obj 399 145 pack 1 11;
#X obj 106 350 hip~ 1000;
#X obj 328 352 hip~ 1000;
#X obj 327 377 bp~ 2000 0.5;
#X obj 105 377 bp~ 1700 0.5;
#X text 155 -1 stream try 4;
#X obj 250 578 *~;
#X obj -161 337 inlet;
#X obj -102 300 inlet;
#X obj 222 364 inlet;
#X obj 265 369 inlet;
#X obj 438 321 inlet;
#X obj 481 326 inlet;
#X obj 567 518 inlet;
#X obj 249 600 outlet~;
#X connect 0 0 5 1;
#X connect 1 0 0 0;
#X connect 1 0 4 0;
#X connect 2 0 48 0;
#X connect 3 0 2 0;
#X connect 4 0 6 0;
#X connect 5 0 13 0;
#X connect 5 0 15 0;
#X connect 6 0 5 0;
#X connect 7 0 10 1;
#X connect 8 0 7 0;
#X connect 8 0 9 0;
#X connect 9 0 11 0;
#X connect 10 0 13 1;
#X connect 10 0 16 0;
#X connect 11 0 10 0;
#X connect 12 0 49 0;
#X connect 13 0 17 0;
#X connect 14 0 12 0;
#X connect 15 0 55 0;
#X connect 16 0 55 0;
#X connect 17 0 52 0;
#X connect 18 0 21 1;
#X connect 19 0 18 0;
#X connect 19 0 20 0;
#X connect 20 0 22 0;
#X connect 21 0 28 0;
#X connect 21 0 34 0;
#X connect 22 0 21 0;
#X connect 23 0 26 1;
#X connect 24 0 23 0;
#X connect 24 0 25 0;
#X connect 25 0 27 0;
#X connect 26 0 28 1;
#X connect 26 0 35 0;
#X connect 27 0 26 0;
#X connect 28 0 29 0;
#X connect 29 0 53 0;
#X connect 30 0 40 0;
#X connect 31 0 50 0;
#X connect 32 0 33 0;
#X connect 33 0 51 0;
#X connect 34 0 54 0;
#X connect 35 0 54 0;
#X connect 36 0 31 0;
#X connect 37 0 32 0;
#X connect 37 0 36 0;
#X connect 38 0 3 0;
#X connect 38 0 14 0;
#X connect 39 0 46 0;
#X connect 40 0 39 0;
#X connect 41 0 42 0;
#X connect 42 0 38 0;
#X connect 42 0 37 0;
#X connect 43 0 45 0;
#X connect 44 0 45 0;
#X connect 45 0 47 0;
#X connect 46 0 45 0;
#X connect 47 0 57 0;
#X connect 48 0 1 0;
#X connect 49 0 8 0;
#X connect 50 0 19 0;
#X connect 51 0 24 0;
#X connect 52 0 55 0;
#X connect 53 0 54 0;
#X connect 54 0 30 1;
#X connect 54 0 43 0;
#X connect 55 0 30 0;
#X connect 55 0 44 0;
#X connect 57 0 65 0;
#X connect 58 0 55 1;
#X connect 59 0 55 2;
#X connect 60 0 40 1;
#X connect 61 0 40 2;
#X connect 62 0 54 1;
#X connect 63 0 54 2;
#X connect 64 0 57 1;
#X restore 99 250 pd Stream_______________________;
#X floatatom 251 234 5 0 0 0 - - -;
#X floatatom 301 234 5 0 0 0 - - -;
#X floatatom 402 234 5 0 0 0 - - -;
#X floatatom 99 233 5 0 0 0 - - -;
#X floatatom 150 234 5 0 0 0 - - -;
#X floatatom 199 234 5 0 0 0 - - -;
#X floatatom 353 234 5 0 0 0 - - -;
#X obj 401 160 knob 25 25 0 127 0 0 empty empty empty 0 -8 32 8 -1
-260097 -260097 0 1;
#X obj 352 160 knob 25 25 0 127 0 0 empty empty empty 0 -8 32 8 -1
-260097 -260097 0 1;
#X text 451 120 Vol;
#N canvas 0 22 450 300 (subpatch) 0;
#X obj 59 155 inlet;
#X obj 3 89 inlet~;
#X obj 58 182 change;
#X msg 60 246 set \$1;
#X obj 60 227 tosymbol;
#X obj 59 204 sprintf Bus%d;
#X obj 3 282 throw~ Bus0;
#X obj 2 3 popup 124 25 #ffffff popup Bus0 Bus1 Bus2 Bus3 Bus4 Bus5
;
#X obj 1 32 route bang;
#X obj 154 202 *~;
#X obj 141 7 tgl 15 0 empty empty Dac 19 7 0 10 -262144 -1 -1 0 1;
#X obj 155 238 dac~;
#X obj 1 -41 loadbang;
#X text 59 -43 Bus0 mutes;
#X msg 1 -23 options Bus0 Bus1 Bus2 Bus3 Bus4 Bus5 Bus6 Bus7 Bus8 Bus9
Bus10 Bus11 Bus12 Bus13 Bus14 Bus15 Bus16;
#X connect 0 0 2 0;
#X connect 1 0 6 0;
#X connect 1 0 9 0;
#X connect 2 0 5 0;
#X connect 3 0 6 0;
#X connect 4 0 3 0;
#X connect 5 0 4 0;
#X connect 7 0 8 0;
#X connect 8 1 2 0;
#X connect 9 0 11 0;
#X connect 9 0 11 1;
#X connect 10 0 9 1;
#X connect 12 0 14 0;
#X connect 14 0 7 0;
#X coords 0 1 100 -1 180 30 1 0 0;
#X restore 99 267 graph;
#X text 150 17 BP F1 (1700);
#X obj 150 212 / 10;
#X text 199 37 BP Q1 (0.5);
#X text 253 51 BP F2 (1000);
#X text 302 71 BP Q2 (8);
#X text 354 85 BP F3 (2000);
#X text 403 103 BP Q3 (0.5);
#N canvas 0 22 450 300 (subpatch) 0;
#X obj -30 22 spigot;
#X obj 2 3 tgl 15 0 empty empty empty 17 7 0 10 -262144 -1 -1 0 1;
#X obj -58 0 inlet;
#X obj -54 54 outlet;
#X connect 0 0 3 0;
#X connect 1 0 0 1;
#X connect 2 0 0 0;
#X coords 0 1 100 -1 20 20 1 0 0;
#X restore 401 137 graph;
#N canvas 0 22 450 300 (subpatch) 0;
#X obj -30 22 spigot;
#X obj 2 3 tgl 15 0 empty empty empty 17 7 0 10 -262144 -1 -1 0 1;
#X obj -58 0 inlet;
#X obj -54 54 outlet;
#X connect 0 0 3 0;
#X connect 1 0 0 1;
#X connect 2 0 0 0;
#X coords 0 1 100 -1 20 20 1 0 0;
#X restore 352 137 graph;
#N canvas 0 22 450 300 (subpatch) 0;
#X obj -30 22 spigot;
#X obj 2 3 tgl 15 0 empty empty empty 17 7 0 10 -262144 -1 -1 0 1;
#X obj -58 0 inlet;
#X obj -54 54 outlet;
#X connect 0 0 3 0;
#X connect 1 0 0 1;
#X connect 2 0 0 0;
#X coords 0 1 100 -1 20 20 1 0 0;
#X restore 300 137 graph;
#N canvas 0 22 450 300 (subpatch) 0;
#X obj -30 22 spigot;
#X obj 2 3 tgl 15 0 empty empty empty 17 7 0 10 -262144 -1 -1 0 1;
#X obj -58 0 inlet;
#X obj -54 54 outlet;
#X connect 0 0 3 0;
#X connect 1 0 0 1;
#X connect 2 0 0 0;
#X coords 0 1 100 -1 20 20 1 0 0;
#X restore 250 137 graph;
#N canvas 0 22 450 300 (subpatch) 0;
#X obj -30 22 spigot;
#X obj 2 3 tgl 15 0 empty empty empty 17 7 0 10 -262144 -1 -1 0 1;
#X obj -58 0 inlet;
#X obj -54 54 outlet;
#X connect 0 0 3 0;
#X connect 1 0 0 1;
#X connect 2 0 0 0;
#X coords 0 1 100 -1 20 20 1 0 0;
#X restore 198 137 graph;
#N canvas 0 22 450 300 (subpatch) 0;
#X obj -30 22 spigot;
#X obj 2 3 tgl 15 0 empty empty empty 17 7 0 10 -262144 -1 -1 0 1;
#X obj -58 0 inlet;
#X obj -54 54 outlet;
#X connect 0 0 3 0;
#X connect 1 0 0 1;
#X connect 2 0 0 0;
#X coords 0 1 100 -1 20 20 1 0 0;
#X restore 149 137 graph;
#N canvas 0 22 450 300 (subpatch) 0;
#X obj -30 22 spigot;
#X obj 2 3 tgl 15 0 empty empty empty 17 7 0 10 -262144 -1 -1 0 1;
#X obj -58 0 inlet;
#X obj -54 54 outlet;
#X connect 0 0 3 0;
#X connect 1 0 0 1;
#X connect 2 0 0 0;
#X coords 0 1 100 -1 20 20 1 0 0;
#X restore 98 136 graph;
#X connect 0 0 12 0;
#X connect 1 0 13 0;
#X connect 2 0 6 0;
#X connect 3 0 7 0;
#X connect 4 0 38 0;
#X connect 5 0 11 0;
#X connect 6 0 28 0;
#X connect 7 0 29 0;
#X connect 8 0 50 0;
#X connect 9 0 49 0;
#X connect 10 0 44 0;
#X connect 11 0 31 0;
#X connect 12 0 26 0;
#X connect 13 0 27 0;
#X connect 14 0 19 0;
#X connect 15 0 48 0;
#X connect 16 0 47 0;
#X connect 17 0 46 0;
#X connect 18 0 45 0;
#X connect 19 0 32 0;
#X connect 20 0 1 0;
#X connect 21 0 0 0;
#X connect 22 0 5 0;
#X connect 23 0 4 0;
#X connect 24 0 3 0;
#X connect 25 0 36 0;
#X connect 26 0 25 3;
#X connect 27 0 25 4;
#X connect 28 0 25 6;
#X connect 29 0 25 0;
#X connect 30 0 25 1;
#X connect 31 0 25 2;
#X connect 32 0 25 5;
#X connect 33 0 2 0;
#X connect 34 0 14 0;
#X connect 38 0 30 0;
#X connect 44 0 33 0;
#X connect 45 0 34 0;
#X connect 46 0 20 0;
#X connect 47 0 21 0;
#X connect 48 0 22 0;
#X connect 49 0 23 0;
#X connect 50 0 24 0;
