#N canvas 385 113 320 298 10;
#X floatatom 151 160 5 0 0 0 - - -, f 5;
#X floatatom -9 82 5 0 0 0 - - -, f 5;
#X floatatom 29 100 5 0 0 0 - - -, f 5;
#X floatatom 68 121 5 0 0 0 - - -, f 5;
#X floatatom 111 136 5 0 0 0 - - -, f 5;
#N canvas 419 162 574 459 Rumble------ 0;
#X obj 241 367 noise~;
#X obj 180 412 *~;
#X obj 179 377 lop~ 16;
#X obj 232 534 lop~ 12000;
#X text 236 417 rumble;
#X obj 177 322 noise~;
#X obj 231 437 bp~ 440 10;
#X obj 233 496 *~ 1.4;
#X obj 223 291 inlet;
#X obj 269 291 inlet;
#X obj 313 293 inlet;
#X obj 359 293 inlet;
#X obj 411 294 inlet;
#X obj 232 554 outlet~;
#X obj 183 344 *~;
#X obj 240 389 *~;
#X connect 0 0 15 0;
#X connect 0 0 15 1;
#X connect 1 0 6 0;
#X connect 2 0 1 0;
#X connect 3 0 13 0;
#X connect 5 0 14 0;
#X connect 5 0 14 1;
#X connect 6 0 7 0;
#X connect 7 0 3 0;
#X connect 8 0 6 1;
#X connect 9 0 6 2;
#X connect 10 0 2 1;
#X connect 11 0 3 1;
#X connect 12 0 7 1;
#X connect 14 0 2 0;
#X connect 15 0 1 1;
#X restore -9 217 pd Rumble------;
#X text 32 81 BP Freq (440);
#X text 71 101 BP Q (10);
#X text 110 120 LOP 1 (16);
#X text 195 161 Amp (1.4);
#X text 152 140 LOP 2 (12000);
#X obj -4 280 *~;
#X obj -4 302 dac~;
#X obj 12 261 lop~ 10;
#X obj 12 244 tgl 15 0 empty empty empty 17 7 0 10 -262144 -1 -1 1
1;
#X connect 0 0 5 4;
#X connect 1 0 5 0;
#X connect 2 0 5 1;
#X connect 3 0 5 2;
#X connect 4 0 5 3;
#X connect 5 0 11 0;
#X connect 11 0 12 0;
#X connect 11 0 12 1;
#X connect 13 0 11 1;
#X connect 14 0 13 0;
