#N canvas 0 22 348 322 10;
#X obj -15 -134 r bang;
#X floatatom 17 39 5 0 0 0 - - -;
#X obj 17 62 * 20;
#X floatatom 58 39 5 0 0 0 - - -;
#X floatatom 97 39 5 0 0 0 - - -;
#X floatatom 135 40 5 0 0 0 - - -;
#X floatatom 97 84 5 0 0 0 - - -;
#X floatatom 135 84 5 0 0 0 - - -;
#X obj 97 62 * 10;
#X obj 135 63 * 50;
#X obj 58 62 * 1;
#X floatatom 58 83 5 0 0 0 - - -;
#N canvas 0 22 1009 720 laser 0;
#X obj 116 472 *~;
#X obj 53 441 phasor~;
#X obj 116 444 phasor~;
#X obj 186 444 phasor~;
#X obj 115 496 osc~;
#X obj 115 518 *~ 0.08;
#X obj 130 362 line~;
#X obj 43 60 vsl 12 256 0 250 0 0 empty empty f2 0 -8 0 8 -258699 -1
-1 0 1;
#X obj 15 60 vsl 12 256 0 250 0 0 empty empty f1 0 -8 0 8 -258699 -1
-1 0 1;
#X obj 71 60 vsl 12 256 0 250 0 0 empty empty f3 0 -8 0 8 -258699 -1
-1 0 1;
#X obj 52 395 *~;
#X obj 116 393 *~;
#X obj 185 393 *~;
#X obj 219 60 vsl 12 256 0 250 0 0 empty empty l2 0 -8 0 8 -260818
-1 -1 0 1;
#X obj 191 60 vsl 12 256 0 250 0 0 empty empty l1 0 -8 0 8 -260818
-1 -1 0 1;
#X obj 247 60 vsl 12 256 0 250 0 0 empty empty l3 0 -8 0 8 -260818
-1 -1 0 1;
#X obj 187 419 +~;
#X obj 117 419 +~;
#X obj 53 418 +~;
#X obj 130 59 vsl 12 256 500 2000 0 0 empty empty cf 0 -8 0 8 -241291
-1 -1 0 1;
#X msg 130 340 \$1 10;
#X text 52 25 Forcefield and laser beam generator;
#X text 150 476 ajf2005;
#X obj 14 -75 random 250;
#X obj 28 -51 random 250;
#X obj 34 -32 random 250;
#X obj 177 -78 random 250;
#X obj 184 -50 random 250;
#X obj 194 -30 random 250;
#X obj -22 5 line;
#X obj 18 14 line;
#X obj 64 17 line;
#X obj 162 7 line;
#X obj 204 17 line;
#X obj 247 19 line;
#X obj 103 -85 bng 15 250 50 0 empty empty empty 17 7 0 10 -262144
-1 -1;
#X obj 178 549 *~;
#X msg 244 -5 \$1 1000;
#X msg 204 -5 \$1 1000;
#X msg 162 -15 \$1 1000;
#X msg 64 -5 \$1 1000;
#X msg 18 -8 \$1 1000;
#X msg -22 -17 \$1 1000;
#N canvas 0 22 450 300 eald~ 0;
#X msg 488 199 bang;
#X obj 510 340 line~;
#X obj 514 271 del 200;
#X obj 510 378 *~;
#X obj 510 407 *~;
#X text 492 167 ENVELOPE SECTION;
#X text 519 201 trigger envelope;
#X text 563 305 decay time (1000 ms to get to zero);
#X text 511 240 attack time (50 ms to get to 1);
#X text 568 271 note length (200);
#X text 550 340 controls envelope level;
#X text 559 389 envelope bangs the line to raise the envelope;
#X text 559 404 then after a delay (note length);
#X text 559 418 it sends a fade signal to the line object;
#X floatatom 445 67 5 0 0 0 - - -;
#X floatatom 496 66 5 0 0 0 - - -;
#X floatatom 546 66 5 0 0 0 - - -;
#X msg 472 242 1 \$1;
#X msg 514 307 0 \$1;
#X text 461 15 "ALD" enveloppe;
#X obj 445 42 inlet;
#X obj 496 41 inlet;
#X obj 546 41 inlet;
#X obj 398 42 inlet;
#X obj 510 441 outlet~;
#X connect 0 0 2 0;
#X connect 0 0 17 0;
#X connect 1 0 3 0;
#X connect 1 0 3 1;
#X connect 2 0 18 0;
#X connect 3 0 4 0;
#X connect 3 0 4 1;
#X connect 4 0 24 0;
#X connect 14 0 17 0;
#X connect 15 0 2 1;
#X connect 16 0 18 0;
#X connect 17 0 1 0;
#X connect 18 0 1 0;
#X connect 20 0 14 0;
#X connect 21 0 15 0;
#X connect 22 0 16 0;
#X connect 23 0 0 0;
#X restore 394 456 pd eald~;
#X obj 29 -109 inlet;
#X obj 289 -50 inlet;
#X obj 117 593 outlet~;
#X obj 406 246 inlet;
#X obj 434 281 inlet;
#X obj 470 342 inlet;
#X connect 0 0 4 0;
#X connect 1 0 0 0;
#X connect 2 0 0 0;
#X connect 3 0 0 0;
#X connect 4 0 5 0;
#X connect 5 0 36 0;
#X connect 6 0 0 1;
#X connect 6 0 10 0;
#X connect 6 0 11 0;
#X connect 6 0 12 0;
#X connect 7 0 11 1;
#X connect 8 0 10 1;
#X connect 9 0 12 1;
#X connect 10 0 18 0;
#X connect 11 0 17 0;
#X connect 12 0 16 0;
#X connect 13 0 17 1;
#X connect 14 0 18 1;
#X connect 15 0 16 1;
#X connect 16 0 3 0;
#X connect 17 0 2 0;
#X connect 18 0 1 0;
#X connect 19 0 20 0;
#X connect 20 0 6 0;
#X connect 23 0 42 0;
#X connect 24 0 41 0;
#X connect 25 0 40 0;
#X connect 26 0 39 0;
#X connect 27 0 38 0;
#X connect 28 0 37 0;
#X connect 29 0 8 0;
#X connect 30 0 7 0;
#X connect 31 0 9 0;
#X connect 32 0 14 0;
#X connect 33 0 13 0;
#X connect 34 0 15 0;
#X connect 35 0 43 0;
#X connect 35 0 23 0;
#X connect 35 0 24 0;
#X connect 35 0 25 0;
#X connect 35 0 26 0;
#X connect 35 0 27 0;
#X connect 35 0 28 0;
#X connect 36 0 46 0;
#X connect 37 0 34 0;
#X connect 38 0 33 0;
#X connect 39 0 32 0;
#X connect 40 0 31 0;
#X connect 41 0 30 0;
#X connect 42 0 29 0;
#X connect 43 0 36 1;
#X connect 44 0 35 0;
#X connect 45 0 19 0;
#X connect 47 0 43 1;
#X connect 48 0 43 2;
#X connect 49 0 43 3;
#X restore -15 103 pd laser;
#X floatatom 17 83 5 0 0 0 - - -;
#X text 63 -110 center frequency;
#X text 105 -90 attack;
#X text 141 -70 length;
#X text 184 -48 Decay;
#X obj 17 10 knob 25 25 0 127 0 0 empty empty empty 0 -8 32 8 -1 -260097
-260097 0 1;
#X obj 58 10 knob 25 25 0 127 0 0 empty empty empty 0 -8 32 8 -1 -260097
-260097 0 1;
#X obj 97 10 knob 25 25 0 127 0 0 empty empty empty 0 -8 32 8 -1 -260097
-260097 0 1;
#X obj 135 11 knob 25 25 0 127 0 0 empty empty empty 0 -8 32 8 -1 -260097
-260097 0 1;
#N canvas 0 22 450 300 (subpatch) 0;
#X obj 59 155 inlet;
#X obj 3 89 inlet~;
#X obj 58 182 change;
#X msg 60 246 set \$1;
#X obj 60 227 tosymbol;
#X obj 59 204 sprintf Bus%d;
#X obj 3 282 throw~ Bus0;
#X obj 2 3 popup 124 25 #ffffff popup Bus0 Bus1 Bus2 Bus3 Bus4 Bus5
;
#X obj 1 32 route bang;
#X obj 154 202 *~;
#X obj 141 7 tgl 15 0 empty empty Dac 19 7 0 10 -262144 -1 -1 0 1;
#X obj 155 238 dac~;
#X obj -1 -67 loadbang;
#X text 57 -69 Bus0 mutes;
#X msg -1 -49 options Bus0 Bus1 Bus2 Bus3 Bus4 Bus5 Bus6 Bus7 Bus8
Bus9 Bus10 Bus11 Bus12 Bus13 Bus14 Bus15 Bus16;
#X connect 0 0 2 0;
#X connect 1 0 6 0;
#X connect 1 0 9 0;
#X connect 2 0 5 0;
#X connect 3 0 6 0;
#X connect 4 0 3 0;
#X connect 5 0 4 0;
#X connect 7 0 8 0;
#X connect 8 1 2 0;
#X connect 9 0 11 0;
#X connect 9 0 11 1;
#X connect 10 0 9 1;
#X connect 12 0 14 0;
#X connect 14 0 7 0;
#X coords 0 1 100 -1 180 30 1 0 0;
#X restore -16 122 graph;
#X obj -30 88 bng 15 250 50 0 empty empty empty 17 7 0 10 -262144 -1
-1;
#N canvas 0 22 450 300 (subpatch) 0;
#X obj -30 22 spigot;
#X obj 2 3 tgl 15 0 empty empty empty 17 7 0 10 -262144 -1 -1 0 1;
#X obj -58 0 inlet;
#X obj -54 54 outlet;
#X connect 0 0 3 0;
#X connect 1 0 0 1;
#X connect 2 0 0 0;
#X coords 0 1 100 -1 20 20 1 0 0;
#X restore 17 -32 graph;
#N canvas 0 22 450 300 (subpatch) 0;
#X obj -30 22 spigot;
#X obj 2 3 tgl 15 0 empty empty empty 17 7 0 10 -262144 -1 -1 0 1;
#X obj -58 0 inlet;
#X obj -54 54 outlet;
#X connect 0 0 3 0;
#X connect 1 0 0 1;
#X connect 2 0 0 0;
#X coords 0 1 100 -1 20 20 1 0 0;
#X restore 58 -31 graph;
#N canvas 0 22 450 300 (subpatch) 0;
#X obj -30 22 spigot;
#X obj 2 3 tgl 15 0 empty empty empty 17 7 0 10 -262144 -1 -1 0 1;
#X obj -58 0 inlet;
#X obj -54 54 outlet;
#X connect 0 0 3 0;
#X connect 1 0 0 1;
#X connect 2 0 0 0;
#X coords 0 1 100 -1 20 20 1 0 0;
#X restore 97 -31 graph;
#N canvas 0 22 450 300 (subpatch) 0;
#X obj -30 22 spigot;
#X obj 2 3 tgl 15 0 empty empty empty 17 7 0 10 -262144 -1 -1 0 1;
#X obj -58 0 inlet;
#X obj -54 54 outlet;
#X connect 0 0 3 0;
#X connect 1 0 0 1;
#X connect 2 0 0 0;
#X coords 0 1 100 -1 20 20 1 0 0;
#X restore 135 -31 graph;
#X obj 17 -111 ctlin 1;
#X obj 58 -91 ctlin 6;
#X obj 97 -70 ctlin 7;
#X obj 135 -49 ctlin 8;
#N canvas 0 22 450 300 (subpatch) 0;
#X obj -30 22 spigot;
#X obj 2 3 tgl 15 0 empty empty empty 17 7 0 10 -262144 -1 -1 0 1;
#X obj -58 0 inlet;
#X obj -54 54 outlet;
#X connect 0 0 3 0;
#X connect 1 0 0 1;
#X connect 2 0 0 0;
#X coords 0 1 100 -1 20 20 1 0 0;
#X restore -15 -33 graph;
#X connect 0 0 32 0;
#X connect 1 0 2 0;
#X connect 2 0 13 0;
#X connect 3 0 10 0;
#X connect 4 0 8 0;
#X connect 5 0 9 0;
#X connect 6 0 12 3;
#X connect 7 0 12 4;
#X connect 8 0 6 0;
#X connect 9 0 7 0;
#X connect 10 0 11 0;
#X connect 11 0 12 2;
#X connect 12 0 22 0;
#X connect 13 0 12 1;
#X connect 18 0 1 0;
#X connect 19 0 3 0;
#X connect 20 0 4 0;
#X connect 21 0 5 0;
#X connect 23 0 12 0;
#X connect 24 0 18 0;
#X connect 25 0 19 0;
#X connect 26 0 20 0;
#X connect 27 0 21 0;
#X connect 28 0 24 0;
#X connect 29 0 25 0;
#X connect 30 0 26 0;
#X connect 31 0 27 0;
#X connect 32 0 12 0;
