#N canvas 472 313 595 396 10;
#X obj 355 304 soundfiler;
#X obj 354 332 table \$0-sample;
#X obj 407 184 f \$0;
#X obj 355 157 t a b;
#X obj 84 284 outlet~;
#X obj 16 67 inlet;
#X obj 83 185 list prepend \$0-sample;
#X obj 355 134 symbol \$1;
#X msg 355 275 read -resize \$1 \$2-sample;
#X obj 355 207 pack s f;
#X obj 355 100 loadbang;
#X obj 16 102 route stop;
#X msg 16 136 stop;
#X obj 83 228 s_playtable;
#X msg 190 153 sr 44100;
#X connect 2 0 9 1;
#X connect 3 0 9 0;
#X connect 3 1 2 0;
#X connect 5 0 11 0;
#X connect 6 0 13 0;
#X connect 7 0 3 0;
#X connect 8 0 0 0;
#X connect 9 0 8 0;
#X connect 10 0 7 0;
#X connect 10 0 14 0;
#X connect 11 0 12 0;
#X connect 11 1 6 0;
#X connect 12 0 13 1;
#X connect 13 0 4 0;
#X connect 14 0 13 1;
