#N canvas 140 22 117 218 10;
#X obj 6 86 bp~ 2000 12;
#X obj 5 124 bp~ 400 7;
#X obj 5 148 hip~ 90;
#X obj 5 172 hip~ 90;
#X obj 5 4 inlet~ thisend;
#X obj 5 196 outlet~ thatend;
#X obj 6 62 clip~ -0.9 0.9;
#X obj 5 105 *~ 1.2;
#X obj 7 27 *~;
#X obj 93 24 inlet;
#X connect 0 0 7 0;
#X connect 1 0 2 0;
#X connect 2 0 3 0;
#X connect 3 0 5 0;
#X connect 4 0 8 0;
#X connect 6 0 0 0;
#X connect 7 0 1 0;
#X connect 8 0 6 0;
#X connect 9 0 8 1;
