#N canvas 140 22 280 345 10;
#X obj 143 173 sig~ 2.71828;
#X obj 166 127 sig~ 1;
#X obj 166 151 -~;
#X obj 50 173 sig~ 2.71828;
#X obj 34 279 +~;
#X obj 128 53 *~ 2;
#X obj 73 122 sig~ 1;
#X obj 73 149 -~;
#X obj 182 102 -~ 1;
#X obj 34 227 sig~ 1;
#X obj 34 253 -~;
#X obj 34 325 outlet~ signal;
#X obj 34 303 -~ 1;
#X obj 89 101 min~ 1;
#X obj 182 79 max~ 1;
#X obj 128 31 phasor~ 3;
#X obj 142 218 sqrt~;
#X obj 128 7 inlet~ frequency;
#X obj 50 199 cyclone/pow~;
#X obj 143 196 cyclone/pow~;
#X connect 0 0 19 0;
#X connect 1 0 2 0;
#X connect 2 0 19 1;
#X connect 3 0 18 0;
#X connect 4 0 12 0;
#X connect 5 0 13 0;
#X connect 5 0 14 0;
#X connect 6 0 7 0;
#X connect 7 0 18 1;
#X connect 8 0 2 1;
#X connect 9 0 10 0;
#X connect 10 0 4 0;
#X connect 12 0 11 0;
#X connect 13 0 7 1;
#X connect 14 0 8 0;
#X connect 15 0 5 0;
#X connect 16 0 4 1;
#X connect 17 0 15 0;
#X connect 18 0 10 1;
#X connect 19 0 16 0;
