#N canvas 55 220 983 480 10;
#X obj 533 177 list trim;
#X obj 36 85 bng 15 250 50 0 empty empty single_iteration 17 7 0 10
-262144 -1 -1;
#X floatatom 148 153 5 0 0 0 - - -;
#X msg 218 262 cluster \$1;
#X floatatom 218 238 5 0 0 0 - - -;
#X msg 327 262 centroids;
#X msg 148 177 nrClusters \$1;
#X msg 163 262 dump;
#X msg 352 177 elbowCurve 1 10;
#X floatatom 254 153 5 0 0 0 - - -;
#X msg 254 177 dimensions \$1;
#X msg 90 177 clear;
#X obj 533 154 list prepend add;
#X text 467 358 cluster number;
#X text 467 380 feature vector;
#X text 467 336 outlets:;
#X obj 703 423 nbx 10 14 -1e+37 1e+37 0 0 empty \$0-distortion distortion
110 7 0 10 -262144 -1 -1 0 256;
#N canvas 149 310 826 297 plotGraphics 0;
#X obj 397 139 pointer;
#X obj -199 97 unpack 0 0 0;
#X obj 397 45 t b b;
#N canvas 234 165 486 132 pt-template 0;
#X obj 14 49 filledpolygon q q 0 -1 -1 1 -1 1 1 -1 1 -1 -1;
#X obj 6 8 struct \$0-pt float x float y float q;
#X restore -214 229 pd pt-template;
#N canvas 1 31 440 185 mean-template 0;
#X obj 25 56 filledpolygon q 0 3 -2 0 0 -2 2 0 0 2 -2 0;
#X obj 6 8 struct \$0-mean float x float y float q;
#X restore -214 258 pd mean-template;
#X obj -199 12 inlet;
#X obj 397 8 inlet;
#X obj -136 11 inlet;
#X obj -58 97 unpack 0 0 0;
#X obj 118 136 s \$0-elbowCurve;
#X obj 88 63 s \$0-distortion;
#X obj 342 264 s \$0-elbowCurve;
#X obj 342 212 loadbang;
#X msg 342 238 xticks 1 1 1 \, xlabel -0.1 1 2 3 4 5 6 7 8 9;
#N canvas 0 22 450 300 centroidColors 0;
#X obj 62 169 90;
#X obj 76 143 88;
#X obj 90 118 838;
#X obj 104 91 830;
#X obj 21 42 sel 0 1 2 3 4 5 6 7;
#X obj 21 14 inlet;
#X obj 130 269 outlet;
#X obj 21 252 900;
#X obj 34 225 990;
#X obj 48 196 209;
#X obj 118 67 306;
#X connect 0 0 6 0;
#X connect 1 0 6 0;
#X connect 2 0 6 0;
#X connect 3 0 6 0;
#X connect 4 0 7 0;
#X connect 4 1 8 0;
#X connect 4 2 9 0;
#X connect 4 3 0 0;
#X connect 4 4 1 0;
#X connect 4 5 2 0;
#X connect 4 6 3 0;
#X connect 4 7 10 0;
#X connect 5 0 4 0;
#X connect 7 0 6 0;
#X connect 8 0 6 0;
#X connect 9 0 6 0;
#X connect 10 0 6 0;
#X restore -199 124 pd centroidColors;
#N canvas 0 22 450 300 centroidColors 0;
#X obj 62 169 90;
#X obj 76 143 88;
#X obj 90 118 838;
#X obj 104 91 830;
#X obj 21 42 sel 0 1 2 3 4 5 6 7;
#X obj 21 14 inlet;
#X obj 130 269 outlet;
#X obj 21 252 900;
#X obj 34 225 990;
#X obj 48 196 209;
#X obj 118 67 306;
#X connect 0 0 6 0;
#X connect 1 0 6 0;
#X connect 2 0 6 0;
#X connect 3 0 6 0;
#X connect 4 0 7 0;
#X connect 4 1 8 0;
#X connect 4 2 9 0;
#X connect 4 3 0 0;
#X connect 4 4 1 0;
#X connect 4 5 2 0;
#X connect 4 6 3 0;
#X connect 4 7 10 0;
#X connect 5 0 4 0;
#X connect 7 0 6 0;
#X connect 8 0 6 0;
#X connect 9 0 6 0;
#X connect 10 0 6 0;
#X restore -58 124 pd centroidColors;
#X obj -199 156 append \$0-pt q x y;
#X obj -58 156 append \$0-mean q x y;
#X msg 446 62 clear;
#X obj 446 85 s pd-\$0-plot;
#X obj 397 85 \$0;
#X msg 397 112 traverse pd-\$1-plot \, bang;
#X obj -58 13 inlet;
#X text -61 184 (plot centroids);
#X text -197 186 (plot points);
#X obj 118 110 list prepend 1;
#X obj -58 39 route centroids elbowCurve distortion;
#X obj -199 39 list append;
#X obj 446 34 loadbang;
#X connect 0 0 16 3;
#X connect 0 0 17 3;
#X connect 1 0 14 0;
#X connect 1 1 16 1;
#X connect 1 2 16 2;
#X connect 2 0 20 0;
#X connect 2 1 18 0;
#X connect 5 0 27 0;
#X connect 6 0 2 0;
#X connect 7 0 27 1;
#X connect 8 0 15 0;
#X connect 8 1 17 1;
#X connect 8 2 17 2;
#X connect 12 0 13 0;
#X connect 13 0 11 0;
#X connect 14 0 16 0;
#X connect 15 0 17 0;
#X connect 18 0 19 0;
#X connect 20 0 21 0;
#X connect 21 0 0 0;
#X connect 22 0 26 0;
#X connect 25 0 9 0;
#X connect 26 0 8 0;
#X connect 26 1 25 0;
#X connect 26 2 10 0;
#X connect 27 0 1 0;
#X connect 28 0 18 0;
#X restore 36 347 pd plotGraphics;
#X text 467 425 centroids/ elbowCurve/ distortion;
#N canvas 0 22 450 300 (subpatch) 0;
#X array \$0-elbowCurve 10 float 0;
#X coords 0 1 9 0 250 70 1;
#X restore 701 76 graph;
#N canvas 0 22 629 468 listRandom 0;
#X obj 84 4 inlet;
#X msg 83 121 seed \$1;
#X obj 171 362 list prepend;
#X obj 264 363 t a;
#X obj 171 266 until;
#X obj 148 119 t b b b;
#X obj 148 383 list;
#X obj 266 41 inlet;
#X obj 83 96 route seed;
#X obj 148 416 outlet;
#X text 84 -22 seed/bang;
#X text 267 17 length;
#X obj 171 245 f 1;
#X obj 266 140 max 1;
#X obj 84 45 until;
#X obj 171 332 + 1;
#X obj 171 300 random 98;
#X connect 0 0 14 0;
#X connect 1 0 16 0;
#X connect 2 0 3 0;
#X connect 2 0 6 1;
#X connect 3 0 2 1;
#X connect 4 0 16 0;
#X connect 5 0 6 0;
#X connect 5 1 12 0;
#X connect 5 2 2 1;
#X connect 6 0 9 0;
#X connect 7 0 13 0;
#X connect 8 0 1 0;
#X connect 8 1 5 0;
#X connect 12 0 4 0;
#X connect 13 0 12 1;
#X connect 14 0 8 0;
#X connect 15 0 2 0;
#X connect 16 0 15 0;
#X restore 533 129 pd listRandom;
#X floatatom 608 104 5 0 0 0 - - -;
#X floatatom 533 104 5 0 0 0 - - -;
#X obj 7 -6 cnv 15 950 60 empty empty K-means 20 12 0 14 -233017 -66577
0;
#N canvas 51 164 477 398 \$0-plot 0;
#X coords -1 -1 100 100 250 250 1;
#X restore 701 161 pd \$0-plot;
#X text 240 360 number of dimensions (default: 2);
#X text 241 382 number of clusters (default: 4);
#X msg 65 109 run;
#X obj 36 279 k-means 2 4;
#X obj 99 303 bng 15 250 50 0 empty empty EOI 17 7 0 10 -262144 -1
-1;
#X text 406 261 -- retrieve messages --;
#X obj 36 177 t a b;
#X text 95 109 iterate_until_convergence;
#X msg 466 177 autoK \$1;
#X obj 466 155 tgl 15 0 empty empty empty 17 7 0 10 -262144 -1 -1 0
1;
#X text 467 403 feature number;
#X text 468 448 end of iteration;
#X text 241 334 arg:;
#N canvas 539 22 494 344 META 0;
#X text 12 45 LICENSE GPL v3;
#X text 12 254 RELEASE_DATE 2013;
#X text 12 237 WEBSITE https://sites.google.com/site/eargram/;
#X text 12 218 AUTHOR Gilberto Bernardes;
#X text 12 199 LIBRARY earGram_abs;
#X text 12 64 DESCRIPTION cluster elements according to k clusters
;
#X text 12 113 OUTLET_0 float (cluster number);
#X text 12 132 OUTLET_1 float (feature vector);
#X text 12 149 OUTLET_2 float (feature number);
#X text 13 182 OUTLET_4 bang (end of iteration);
#X text 13 167 OUTLET_3 float (centroids/ elbowCurve/ distortion);
#X text 12 82 INLET_0 run list bang clear nrClusters dimensions elbowCurve
autoK dump cluster centroids;
#X restore 925 447 pd META;
#X text 25 33 cluster elements according to k clusters;
#X text 806 35 2013 Gilberto Bernardes;
#X connect 0 0 28 0;
#X connect 1 0 31 0;
#X connect 2 0 6 0;
#X connect 3 0 28 0;
#X connect 4 0 3 0;
#X connect 5 0 28 0;
#X connect 6 0 28 0;
#X connect 7 0 28 0;
#X connect 8 0 28 0;
#X connect 9 0 10 0;
#X connect 10 0 28 0;
#X connect 11 0 28 0;
#X connect 12 0 0 0;
#X connect 20 0 12 0;
#X connect 21 0 20 1;
#X connect 22 0 20 0;
#X connect 27 0 31 0;
#X connect 28 0 17 0;
#X connect 28 1 17 1;
#X connect 28 3 17 2;
#X connect 28 4 29 0;
#X connect 31 0 28 0;
#X connect 31 1 17 3;
#X connect 33 0 28 0;
#X connect 34 0 33 0;
