#N canvas 625 22 655 587 10;
#X obj 19 27 inlet;
#X obj 106 264 b;
#X obj 158 518 outlet;
#X obj 228 518 outlet;
#N canvas 234 389 456 299 storeData 0;
#X obj 99 106 f;
#X obj 128 106 + 1;
#X obj 114 81 0;
#X obj 48 58 inlet;
#X obj 48 262 table \$0-data;
#X obj 48 89 t a b;
#X obj 114 57 r \$0-clear;
#X text 264 120 (number of vectors in total);
#X obj 186 123 s \$0-nrCases;
#X obj 288 98 s \$0-data;
#X msg 288 74 const 0;
#X obj 48 240 2d.tabwrite \$0-data 1000 2;
#X obj 99 137 t f f;
#X obj 126 164 moses 1000;
#X obj 201 216 r \$0-dimensions;
#X connect 0 0 1 0;
#X connect 0 0 8 0;
#X connect 0 0 12 0;
#X connect 1 0 0 1;
#X connect 2 0 0 1;
#X connect 3 0 5 0;
#X connect 5 0 11 0;
#X connect 5 1 0 0;
#X connect 6 0 2 0;
#X connect 6 0 10 0;
#X connect 10 0 9 0;
#X connect 12 0 11 1;
#X connect 12 1 13 0;
#X connect 13 1 11 2;
#X connect 14 0 11 3;
#X restore 77 312 pd storeData;
#X obj 106 287 s \$0-clear;
#X text 468 527 2011 Gilberto Bernardes;
#X obj 223 187 s \$0-centroids;
#X obj 299 518 outlet;
#N canvas 614 22 472 379 runIterativeAlgorithm 0;
#X obj 207 2 inlet;
#X obj 224 162 t a a;
#N canvas 181 22 562 528 updateCentroids 0;
#X obj -37 209 -;
#X obj -37 243 /;
#X obj -37 269 +;
#X text -9 208 (delta);
#X obj -54 -24 inlet;
#X obj 134 16 + 1;
#X obj 297 -24 inlet;
#X obj 79 226 + 1;
#X obj -37 299 list prepend;
#X text -7 266 (mean);
#X obj 53 316 t l;
#X obj -54 326 list;
#X obj -37 175 list-dripslow;
#X obj -37 112 list-drip;
#X obj -37 141 t b f;
#X text 111 225 (n+1);
#X obj 135 438 + 1;
#X text 341 -24 (current features list);
#X text -12 -25 (means list);
#X obj -37 40 2d.tabread \$0-tempCentroids 3;
#X obj 135 416 r \$0-dimensions;
#X obj 134 -11 r \$0-dimensions;
#X obj -37 78 list split 1;
#X obj 72 391 r \$0-nrClusters;
#X obj -54 3 t b f f b;
#X obj -54 374 list append;
#X obj -54 462 2d.tabwrite \$0-tempCentroids 4 3;
#X connect 0 0 1 0;
#X connect 1 0 2 0;
#X connect 2 0 8 0;
#X connect 4 0 24 0;
#X connect 5 0 19 1;
#X connect 6 0 12 1;
#X connect 7 0 1 1;
#X connect 7 0 25 1;
#X connect 8 0 10 0;
#X connect 8 0 11 1;
#X connect 10 0 8 1;
#X connect 11 0 25 0;
#X connect 12 0 0 0;
#X connect 13 0 14 0;
#X connect 14 0 12 0;
#X connect 14 1 2 1;
#X connect 14 1 0 1;
#X connect 16 0 26 3;
#X connect 19 0 22 0;
#X connect 20 0 16 0;
#X connect 21 0 5 0;
#X connect 21 0 22 1;
#X connect 22 0 13 0;
#X connect 22 1 7 0;
#X connect 23 0 26 2;
#X connect 24 0 11 0;
#X connect 24 1 19 0;
#X connect 24 2 26 1;
#X connect 24 3 8 1;
#X connect 25 0 26 0;
#X restore 78 285 pd updateCentroids;
#X obj 42 5 table \$0-tempCentroids;
#X obj 51 179 nearestPoint 2;
#X obj 258 71 s \$0-newIter;
#N canvas 0 22 450 300 dumpData 0;
#X obj 70 70 r \$0-nrCases;
#X obj 55 119 until;
#X obj 55 146 f;
#X obj 86 146 + 1;
#X obj 55 228 2d.tabread \$0-data \$1;
#X obj 119 129 0;
#X obj 55 172 t f f;
#X obj 82 198 s \$0-iterNr;
#X obj 55 94 f 0;
#X obj 55 16 inlet;
#X obj 55 41 t b b;
#X obj 55 253 outlet;
#X obj 178 202 r \$0-dimensions;
#X connect 0 0 8 1;
#X connect 1 0 2 0;
#X connect 2 0 3 0;
#X connect 2 0 6 0;
#X connect 3 0 2 1;
#X connect 4 0 11 0;
#X connect 5 0 2 1;
#X connect 6 0 4 0;
#X connect 6 1 7 0;
#X connect 8 0 1 0;
#X connect 9 0 10 0;
#X connect 10 0 8 0;
#X connect 10 1 5 0;
#X connect 12 0 4 1;
#X restore 224 134 pd dumpData;
#N canvas 174 184 678 437 initCentroids 0;
#X obj -132 -73 inlet;
#X obj -115 102 until;
#X obj -115 127 f;
#X obj -82 127 + 1;
#X obj -100 53 r \$0-nrClusters;
#X obj -49 110 0;
#X text 13 54 (update centroid position at the beggining of each new
iteration);
#N canvas 393 224 492 450 firstIter 0;
#X obj 31 309 2d.tabread \$0-data \$1;
#X obj 219 210 loadbang;
#X obj 31 284 t f b;
#X obj 94 394 f;
#X obj 124 394 + 1;
#X obj 109 371 0;
#X obj 220 392 + 1;
#X obj 220 359 r \$0-dimensions;
#X obj 31 419 2d.tabwrite \$0-tempCentroids 2 3;
#X obj 189 293 moses 1;
#X obj 257 294 moses 1;
#X obj 256 269 \$1;
#X obj 189 268 \$2;
#X obj 31 337 list append 0;
#X obj 31 15 inlet;
#X obj 31 211 coll \$0-bestInitCentroids;
#C restore;
#X obj 31 235 list-drip;
#X obj 31 48 once;
#X obj 74 31 r \$0-clear;
#X obj 157 166 r \$0-nrClusters;
#X obj 155 31 r \$0-nrClusters;
#X obj 31 93 t b b b;
#N canvas 338 22 537 609 elbowCurve 0;
#X msg 257 244 clear;
#X obj 402 211 r \$0-dimensions;
#X obj 345 162 loadbang;
#X obj 345 187 \$1;
#X obj 345 211 moses 1;
#X obj 58 261 nearestPoint 2;
#X msg 384 244 dimensions \$1;
#X obj 257 217 r \$0-clear;
#N canvas 196 246 600 494 initCentroidsPos 0;
#X obj -132 -73 inlet;
#X obj -98 312 outlet;
#X obj -65 152 r \$0-nrCases;
#X obj -98 230 2d.tabread \$0-data \$1;
#X obj -132 7 until;
#X obj -98 177 random;
#X obj -98 117 until;
#X obj -98 93 f;
#X obj -132 342 outlet;
#X obj -81 283 outlet;
#X text -33 282 (reset for each new cluster);
#X text -46 311 (clusters centroids);
#X text -87 342 (done);
#X obj -132 -21 f 50;
#X text -95 -20 (50 iteration for each different number fo clusters)
;
#X obj 182 194 list prepend;
#X obj 278 211 t l;
#X obj -132 -48 t b f b;
#X text -86 -72 (number of elements in the current examined cluster)
;
#X obj 161 247 outlet;
#X text 205 248 (list of all initialization points);
#X obj 161 221 list;
#X obj -132 34 t b b b b;
#X connect 0 0 17 0;
#X connect 2 0 5 1;
#X connect 3 0 1 0;
#X connect 4 0 22 0;
#X connect 5 0 3 0;
#X connect 5 0 15 0;
#X connect 6 0 5 0;
#X connect 7 0 6 0;
#X connect 13 0 4 0;
#X connect 15 0 16 0;
#X connect 15 0 21 1;
#X connect 16 0 15 1;
#X connect 17 0 13 0;
#X connect 17 1 7 1;
#X connect 17 1 15 0;
#X connect 17 2 15 1;
#X connect 21 0 19 0;
#X connect 22 0 8 0;
#X connect 22 1 21 0;
#X connect 22 2 7 0;
#X connect 22 3 9 0;
#X restore 55 172 pd initCentroidsPos;
#X obj 36 90 until;
#X obj 57 340 list prepend;
#X obj 150 357 t l;
#X obj 36 370 list;
#X obj 36 395 list-minimum;
#X obj 36 114 f;
#X obj 67 114 + 1;
#X obj 139 296 runningAverage;
#X msg 238 279 reset;
#X obj 57 313 f;
#N canvas 70 51 450 300 dumpAllData 0;
#X obj 187 69 r \$0-nrCases;
#X obj 172 118 until;
#X obj 172 145 f;
#X obj 203 145 + 1;
#X obj 172 171 2d.tabread \$0-data \$1;
#X obj 236 128 0;
#X obj 172 93 f 0;
#X obj 172 18 inlet;
#X obj 172 40 t b b;
#X obj 172 198 outlet;
#X connect 0 0 6 1;
#X connect 1 0 2 0;
#X connect 2 0 3 0;
#X connect 2 0 4 0;
#X connect 3 0 2 1;
#X connect 4 0 9 0;
#X connect 5 0 2 1;
#X connect 6 0 1 0;
#X connect 7 0 8 0;
#X connect 8 0 6 0;
#X connect 8 1 5 0;
#X restore 82 217 pd dumpAllData;
#X obj 55 194 t b b;
#X obj 36 422 list prepend;
#X obj 128 439 t l;
#X obj 17 448 list;
#X obj 36 141 t b f b;
#N canvas 0 22 601 317 bestInitCentroids 0;
#X obj 24 10 inlet;
#X obj 321 8 inlet;
#X obj 321 39 list split 1;
#X obj 24 56 *;
#X obj 24 163 list split;
#X obj 52 193 list split;
#X obj 24 85 t b f;
#X obj 24 124 list;
#X obj 52 218 list prepend;
#X obj 52 243 list trim;
#X obj 52 268 coll \$0-bestInitCentroids;
#C restore;
#X obj 239 222 r \$0-clear;
#X msg 239 251 clear;
#X connect 0 0 3 0;
#X connect 1 0 2 0;
#X connect 2 0 3 1;
#X connect 2 0 5 1;
#X connect 2 0 8 1;
#X connect 2 1 7 1;
#X connect 3 0 6 0;
#X connect 4 1 5 0;
#X connect 5 0 8 0;
#X connect 6 0 7 0;
#X connect 6 1 4 1;
#X connect 7 0 4 0;
#X connect 8 0 9 0;
#X connect 9 0 10 0;
#X connect 11 0 12 0;
#X connect 12 0 10 0;
#X restore 314 412 pd bestInitCentroids;
#X obj 17 -19 inlet;
#X obj 321 4 swap;
#X obj 321 50 -;
#X obj 17 42 t b b b;
#X obj 321 -20 r \$0-elbowCurve;
#X obj 36 67 f 9;
#X obj 17 12 once;
#X obj 81 -5 r \$0-clear;
#X obj 342 27 min 1;
#X obj 107 97 f 1;
#X obj 17 550 s \$0-currentElbow;
#X obj 17 499 t l l;
#N canvas 0 22 219 492 bestK 0;
#X obj 10 18 inlet;
#X obj 10 43 t l b;
#X obj 10 73 list-drip;
#X obj 10 97 list-lastx 2;
#X obj 10 149 swap;
#X obj 10 175 -;
#X obj 10 277 once;
#X obj 10 304 f;
#X obj 93 287 f;
#X obj 121 287 + 1;
#X obj 108 260 1;
#X obj 10 201 abs;
#X obj 10 253 sel 1;
#X obj 10 125 t l b;
#X obj 37 357 s \$0-currentBestK;
#X obj 10 331 t f f;
#X obj 10 416 spigot;
#X obj 10 440 s \$0-nrClusters;
#X obj 43 392 r \$0-autoK;
#X obj 10 227 <= 0.1;
#X connect 0 0 1 0;
#X connect 1 0 2 0;
#X connect 1 1 3 1;
#X connect 1 1 6 1;
#X connect 1 1 10 0;
#X connect 2 0 3 0;
#X connect 3 0 13 0;
#X connect 4 0 5 0;
#X connect 4 1 5 1;
#X connect 5 0 11 0;
#X connect 6 0 7 0;
#X connect 7 0 15 0;
#X connect 8 0 9 0;
#X connect 8 0 7 1;
#X connect 9 0 8 1;
#X connect 10 0 8 1;
#X connect 11 0 19 0;
#X connect 12 0 6 0;
#X connect 13 0 4 0;
#X connect 13 1 8 0;
#X connect 15 0 16 0;
#X connect 15 1 14 0;
#X connect 16 0 17 0;
#X connect 18 0 16 1;
#X connect 19 0 12 0;
#X restore 44 521 pd bestK;
#N canvas 0 22 450 300 normalize 0;
#X obj 28 39 inlet;
#X obj 28 64 t l l;
#X obj 91 81 list-maximum;
#X obj 28 120 list-math /;
#X obj 28 144 outlet;
#X connect 0 0 1 0;
#X connect 1 0 3 0;
#X connect 1 1 2 0;
#X connect 2 0 3 1;
#X connect 3 0 4 0;
#X restore 17 474 pd normalize;
#X connect 0 0 5 0;
#X connect 1 0 6 0;
#X connect 2 0 3 0;
#X connect 3 0 4 0;
#X connect 4 1 6 0;
#X connect 5 1 16 0;
#X connect 6 0 5 0;
#X connect 7 0 0 0;
#X connect 8 0 20 0;
#X connect 8 1 5 0;
#X connect 8 2 0 0;
#X connect 8 2 17 0;
#X connect 8 3 25 1;
#X connect 9 0 14 0;
#X connect 10 0 11 0;
#X connect 10 0 12 1;
#X connect 11 0 10 1;
#X connect 12 0 13 0;
#X connect 13 0 21 0;
#X connect 13 1 25 0;
#X connect 14 0 15 0;
#X connect 14 0 24 0;
#X connect 15 0 14 1;
#X connect 16 0 18 1;
#X connect 17 0 16 0;
#X connect 18 0 10 0;
#X connect 19 0 5 1;
#X connect 20 0 18 0;
#X connect 20 1 19 0;
#X connect 21 0 22 0;
#X connect 21 0 23 1;
#X connect 22 0 21 1;
#X connect 23 0 39 0;
#X connect 24 0 12 0;
#X connect 24 1 8 0;
#X connect 24 2 10 1;
#X connect 26 0 32 0;
#X connect 27 0 28 0;
#X connect 27 1 34 0;
#X connect 28 0 31 1;
#X connect 29 0 23 0;
#X connect 29 1 31 0;
#X connect 29 2 21 1;
#X connect 29 2 35 0;
#X connect 30 0 27 0;
#X connect 31 0 9 0;
#X connect 32 0 29 0;
#X connect 33 0 32 1;
#X connect 34 0 35 1;
#X connect 34 0 28 1;
#X connect 35 0 14 1;
#X connect 37 0 36 0;
#X connect 37 1 38 0;
#X connect 39 0 37 0;
#X restore 70 121 pd elbowCurve;
#X obj 31 183 f 4;
#X connect 0 0 13 0;
#X connect 1 0 11 0;
#X connect 1 0 12 0;
#X connect 2 0 0 0;
#X connect 2 1 3 0;
#X connect 3 0 4 0;
#X connect 3 0 8 1;
#X connect 4 0 3 1;
#X connect 5 0 3 1;
#X connect 6 0 8 3;
#X connect 7 0 6 0;
#X connect 9 1 8 2;
#X connect 10 1 6 0;
#X connect 11 0 10 0;
#X connect 12 0 9 0;
#X connect 13 0 8 0;
#X connect 14 0 17 0;
#X connect 15 0 16 0;
#X connect 16 0 2 0;
#X connect 17 0 21 0;
#X connect 18 0 17 1;
#X connect 19 0 23 1;
#X connect 20 0 17 1;
#X connect 21 0 23 0;
#X connect 21 1 5 0;
#X connect 21 2 22 0;
#X connect 23 0 15 0;
#X restore 270 -20 pd firstIter;
#X obj 56 132 r \$0-dimensions;
#X obj 56 156 + 1;
#X obj -115 182 2d.tabread \$0-tempCentroids 3;
#X obj -115 210 list split 2;
#X obj -132 -37 t b b b b;
#X msg -132 281 const 0;
#X obj -132 305 s \$0-tempCentroids;
#X obj -115 78 f 4;
#X text 18 243 (initial centroids pos);
#X obj -115 244 s \$0-initCentroidsPos;
#X text 120 -57 (during the first iteration we compute the elbow curve
and the best initial centroids);
#X connect 0 0 12 0;
#X connect 1 0 2 0;
#X connect 2 0 3 0;
#X connect 2 0 10 0;
#X connect 3 0 2 1;
#X connect 4 0 15 1;
#X connect 5 0 2 1;
#X connect 8 0 9 0;
#X connect 8 0 11 1;
#X connect 9 0 10 1;
#X connect 10 0 11 0;
#X connect 11 0 17 0;
#X connect 12 0 13 0;
#X connect 12 1 15 0;
#X connect 12 2 5 0;
#X connect 12 3 7 0;
#X connect 13 0 14 0;
#X connect 15 0 1 0;
#X restore 241 102 pd initCentroids;
#N canvas 0 22 450 300 nearestPointSettings 0;
#X msg 104 164 clear;
#X obj 231 131 r \$0-dimensions;
#X msg 231 164 dimensions \$1;
#X obj 119 132 r \$0-clear;
#X obj 104 106 r \$0-newIter;
#X obj 11 181 outlet;
#X obj 11 44 r \$0-initCentroidsPos;
#X connect 0 0 5 0;
#X connect 1 0 2 0;
#X connect 2 0 5 0;
#X connect 3 0 0 0;
#X connect 4 0 0 0;
#X connect 6 0 5 0;
#X restore 51 146 pd nearestPointSettings;
#N canvas 815 22 450 300 distortion 0;
#X obj -4 74 runningAverage;
#X msg 106 57 reset;
#X obj 106 33 r \$0-newIter;
#X obj 8 154 s \$0-currentDist;
#X obj -19 129 t f f;
#X obj -19 182 outlet;
#X obj -4 -18 inlet;
#X obj -19 103 f;
#X obj 34 -17 inlet;
#X connect 0 0 7 1;
#X connect 1 0 0 0;
#X connect 2 0 1 0;
#X connect 4 0 5 0;
#X connect 4 1 3 0;
#X connect 6 0 0 0;
#X connect 7 0 4 0;
#X connect 8 0 7 0;
#X restore 132 203 pd distortion;
#N canvas 0 22 456 187 storeClusterNr 0;
#X obj 32 22 inlet;
#X msg 286 32 resize \$1;
#X obj 286 7 r \$0-nrCases;
#X obj 32 62 t f b;
#X obj 170 23 r \$0-newIter;
#X obj 170 51 0;
#X obj 155 79 f;
#X obj 184 78 + 1;
#X obj 32 107 tabwrite \$0-clusterNr;
#X obj 286 82 table \$0-clusterNr;
#X obj 286 56 s \$0-clusterNr;
#X connect 0 0 3 0;
#X connect 1 0 10 0;
#X connect 2 0 1 0;
#X connect 3 0 8 0;
#X connect 3 1 6 0;
#X connect 4 0 5 0;
#X connect 5 0 6 1;
#X connect 6 0 7 0;
#X connect 6 0 8 1;
#X connect 7 0 6 1;
#X restore 51 316 pd storeClusterNr;
#X obj 132 226 outlet;
#X obj 51 203 t f f;
#X obj 207 26 t b b b b;
#X connect 0 0 13 0;
#X connect 1 0 4 1;
#X connect 1 1 2 1;
#X connect 4 0 12 0;
#X connect 4 1 9 0;
#X connect 6 0 1 0;
#X connect 8 0 4 0;
#X connect 9 0 11 0;
#X connect 12 0 10 0;
#X connect 12 1 2 0;
#X connect 13 0 9 1;
#X connect 13 1 6 0;
#X connect 13 2 7 0;
#X connect 13 3 5 0;
#X restore 75 405 pd runIterativeAlgorithm;
#X obj 252 162 s \$0-elbowCurve;
#N canvas 0 22 450 300 dimensions 0;
#X obj -18 -7 loadbang;
#X obj -18 15 \$1;
#X obj -18 38 moses 1;
#X obj -60 -7 inlet;
#X obj -60 104 s \$0-dimensions;
#X connect 0 0 1 0;
#X connect 1 0 2 0;
#X connect 2 1 4 0;
#X connect 3 0 4 0;
#X restore 164 237 pd dimensions;
#X text 406 64 number of dimensions (default: 2);
#X obj 194 212 s \$0-cluster;
#N canvas 0 22 450 300 nrClusters 0;
#X obj -30 8 loadbang;
#X obj -30 54 moses 1;
#X obj -30 31 \$2;
#X obj -79 8 inlet;
#X obj -79 165 s \$0-nrClusters;
#X obj -30 82 sel -1;
#X obj -30 109 1;
#X obj -30 136 s \$0-autoK;
#X obj 99 66 r \$0-autoK;
#X obj 99 91 sel 0;
#X obj 99 148 f;
#X obj 114 123 r \$0-nrClusters;
#X connect 0 0 2 0;
#X connect 1 0 5 0;
#X connect 1 1 4 0;
#X connect 2 0 1 0;
#X connect 3 0 4 0;
#X connect 5 0 6 0;
#X connect 6 0 7 0;
#X connect 8 0 9 0;
#X connect 9 0 10 0;
#X connect 10 0 4 0;
#X connect 11 0 10 1;
#X restore 135 262 pd nrClusters;
#X text 407 86 number of clusters (default: 4);
#X obj 19 518 outlet;
#X obj 89 518 outlet;
#N canvas 450 22 445 331 run 0;
#X obj 27 5 inlet;
#X obj 284 6 inlet;
#X obj 284 168 -;
#X obj 284 196 sel 0;
#X text 349 302 (end);
#X obj 353 117 r \$0-clear;
#X obj 284 303 s \$0-dump;
#X text 73 5 (first iter);
#X obj 284 108 spigot;
#X obj 66 91 0;
#X obj 284 143 list-lastx 2;
#X obj 27 243 outlet;
#X obj 317 49 1;
#X obj 311 226 b;
#X obj 46 126 0;
#X obj 27 32 t b b b;
#X connect 0 0 15 0;
#X connect 1 0 8 0;
#X connect 2 0 3 0;
#X connect 3 0 6 0;
#X connect 3 0 9 0;
#X connect 3 1 13 0;
#X connect 5 0 10 1;
#X connect 8 0 10 0;
#X connect 9 0 8 1;
#X connect 10 0 2 0;
#X connect 12 0 8 1;
#X connect 13 0 11 0;
#X connect 14 0 10 0;
#X connect 15 0 11 0;
#X connect 15 1 14 0;
#X connect 15 2 9 0;
#X connect 15 2 12 0;
#X restore 19 388 pd run;
#X obj 48 361 s \$0-dump;
#N canvas 220 70 643 357 dumpOutput 0;
#X obj 165 254 outlet;
#X obj 28 250 outlet;
#X obj 326 249 outlet;
#X obj 165 230 2d.tabread \$0-data 2;
#X obj 282 204 r \$0-dimensions;
#X obj 28 124 f;
#X obj 43 101 r \$0-nrCases;
#X obj 13 -23 r \$0-dump;
#X obj 404 253 outlet;
#N canvas 0 22 638 469 dumpCentroids 0;
#X obj 423 226 + 1;
#X obj 423 173 r \$0-dimensions;
#X obj 251 126 r \$0-nrClusters;
#X obj 205 243 2d.tabread \$0-tempCentroids 3;
#X obj 205 166 until;
#X obj 205 192 f;
#X obj 236 192 + 1;
#X obj 205 92 t b b;
#X obj 274 175 0;
#X obj 205 270 list split 2;
#X obj 205 367 outlet;
#X obj 205 295 list prepend;
#X obj 205 217 t f f;
#X obj 306 75 r \$0-centroids;
#X obj 205 143 f 4;
#X text 408 75 (outputs all the centroids);
#X obj 205 28 inlet;
#X obj 205 320 list prepend centroids;
#X obj 205 343 list trim;
#X connect 0 0 3 1;
#X connect 1 0 0 0;
#X connect 1 0 9 1;
#X connect 2 0 14 1;
#X connect 3 0 9 0;
#X connect 4 0 5 0;
#X connect 5 0 6 0;
#X connect 5 0 12 0;
#X connect 6 0 5 1;
#X connect 7 0 14 0;
#X connect 7 1 8 0;
#X connect 8 0 5 1;
#X connect 9 0 11 0;
#X connect 11 0 17 0;
#X connect 12 0 3 0;
#X connect 12 1 11 1;
#X connect 13 0 7 0;
#X connect 14 0 4 0;
#X connect 16 0 7 0;
#X connect 17 0 18 0;
#X connect 18 0 10 0;
#X restore 401 137 pd dumpCentroids;
#X obj 28 148 until;
#X obj 28 172 f;
#X obj 56 172 + 1;
#X obj 97 155 0;
#X obj 28 195 t f f f;
#X obj 477 256 outlet;
#X text 22 287 (clusterNr \, featureVector \, featureNr \, distortion/centroids/elbowCurve
\, EOI);
#X obj 13 11 t b b b b b b;
#N canvas 0 22 450 300 distortion 0;
#X obj -52 91 f;
#X obj -37 63 r \$0-currentDist;
#X obj -52 116 list prepend distortion;
#X obj -52 141 list trim;
#X obj -52 28 inlet;
#X obj -52 170 outlet;
#X connect 0 0 2 0;
#X connect 1 0 0 1;
#X connect 2 0 3 0;
#X connect 3 0 5 0;
#X connect 4 0 0 0;
#X restore 392 164 pd distortion;
#N canvas 0 22 450 300 elbowCurve 0;
#X obj 37 116 list;
#X obj 58 90 r \$0-currentElbow;
#X obj 37 139 list prepend elbowCurve;
#X obj 37 163 list trim;
#X obj 37 189 outlet;
#X obj 37 35 inlet;
#X connect 0 0 2 0;
#X connect 1 0 0 1;
#X connect 2 0 3 0;
#X connect 3 0 4 0;
#X connect 5 0 0 0;
#X restore 420 108 pd elbowCurve;
#X obj 28 229 tabread \$0-clusterNr;
#X connect 3 0 0 0;
#X connect 4 0 3 1;
#X connect 5 0 10 0;
#X connect 6 0 5 1;
#X connect 7 0 17 0;
#X connect 9 0 8 0;
#X connect 10 0 11 0;
#X connect 11 0 12 0;
#X connect 11 0 14 0;
#X connect 12 0 11 1;
#X connect 13 0 11 1;
#X connect 14 0 20 0;
#X connect 14 1 3 0;
#X connect 14 2 2 0;
#X connect 17 0 15 0;
#X connect 17 1 5 0;
#X connect 17 2 13 0;
#X connect 17 3 18 0;
#X connect 17 4 9 0;
#X connect 17 5 19 0;
#X connect 18 0 8 0;
#X connect 19 0 8 0;
#X connect 20 0 1 0;
#X restore 19 443 pd dumpOutput;
#X obj 281 135 s \$0-dump;
#X text 15 543 (clusterNr \, featureVector \, featureNr \, distortion/centroids/elbowCurve
\, EOI);
#X text 407 43 arguments:;
#X obj 48 336 t b b;
#X obj 19 66 route run bang add clear nrClusters dimensions cluster
centroids elbowCurve dump autoK;
#X obj 310 110 s \$0-autoK;
#X connect 0 0 25 0;
#X connect 1 0 5 0;
#X connect 9 0 18 1;
#X connect 18 0 9 0;
#X connect 20 0 16 0;
#X connect 20 1 17 0;
#X connect 20 2 2 0;
#X connect 20 3 3 0;
#X connect 20 4 8 0;
#X connect 24 0 19 0;
#X connect 24 1 9 0;
#X connect 25 0 18 0;
#X connect 25 1 24 0;
#X connect 25 2 4 0;
#X connect 25 3 1 0;
#X connect 25 4 14 0;
#X connect 25 5 11 0;
#X connect 25 6 13 0;
#X connect 25 7 7 0;
#X connect 25 8 10 0;
#X connect 25 9 21 0;
#X connect 25 10 26 0;
