#N canvas 0 22 489 489 10;
#X obj 69 41 inlet;
#X obj 299 50 inlet;
#X obj 69 442 outlet;
#X obj 86 140 list-drip;
#X obj 278 153 list;
#X obj 203 236 list-dripslow;
#X obj 86 289 route float;
#X obj 203 263 route float;
#X obj 69 68 t b a b b;
#X obj 86 359 +;
#X obj 69 387 f;
#X obj 118 358 f 0;
#X obj 165 341 0;
#X obj 86 164 t a b;
#X obj 69 414 sqrt;
#X obj 86 315 expr pow($f1-$f2 \, 2);
#X connect 0 0 8 0;
#X connect 1 0 4 1;
#X connect 3 0 13 0;
#X connect 4 0 5 1;
#X connect 5 0 7 0;
#X connect 6 0 15 0;
#X connect 7 0 15 1;
#X connect 8 0 10 0;
#X connect 8 1 3 0;
#X connect 8 2 4 0;
#X connect 8 3 12 0;
#X connect 9 0 11 0;
#X connect 9 0 10 1;
#X connect 10 0 14 0;
#X connect 11 0 9 1;
#X connect 12 0 11 0;
#X connect 13 0 6 0;
#X connect 13 1 5 0;
#X connect 14 0 2 0;
#X connect 15 0 9 0;
