#N canvas 0 22 509 293 10;
#X obj 28 165 list-maximum;
#X msg 28 131 3 4 9 1 0 4;
#X floatatom 28 210 5 0 0 0 - - -;
#X floatatom 97 210 5 0 0 0 - - -;
#X obj 2 5 cnv 15 500 60 empty empty list-maximum 20 12 0 14 -233017
-66577 0;
#X text 18 44 reports maximum element of a list (value and index);
#X text 352 43 2013 Gilberto Bernardes;
#N canvas 648 411 494 344 META 0;
#X text 12 45 LICENSE GPL v3;
#X text 12 203 RELEASE_DATE 2013;
#X text 12 184 WEBSITE https://sites.google.com/site/eargram/;
#X text 12 165 AUTHOR Gilberto Bernardes;
#X text 12 146 LIBRARY earGram_abs;
#X text 12 92 INLET_0 list;
#X text 12 64 DESCRIPTION reports maximum element of a list (value
and index);
#X text 12 110 OUTLET_0 float (maximum value);
#X text 13 127 OUTLET_1 float (index of maximum value);
#X restore 448 264 pd META;
#X connect 0 0 2 0;
#X connect 0 1 3 0;
#X connect 1 0 0 0;
