#N struct 1017-f float x float pos;
#N canvas 327 22 953 734 10;
#N canvas 0 22 450 300 \$0-f 0;
#X obj 59 51 struct \$0-f float x float pos;
#X restore 453 61 pd \$0-f;
#N canvas 0 22 450 300 \$0-sort 0;
#X scalar 1017-f 0 480 \;;
#X scalar 1017-f 31.0644 566 \;;
#X scalar 1017-f 34.176 123 \;;
#X scalar 1017-f 34.2053 77 \;;
#X scalar 1017-f 37.1214 162 \;;
#X scalar 1017-f 38.2099 371 \;;
#X scalar 1017-f 40.7063 258 \;;
#X scalar 1017-f 40.7922 235 \;;
#X scalar 1017-f 42.4382 549 \;;
#X scalar 1017-f 42.5793 582 \;;
#X scalar 1017-f 44.2945 550 \;;
#X scalar 1017-f 44.5533 380 \;;
#X scalar 1017-f 47.5395 392 \;;
#X scalar 1017-f 47.927 432 \;;
#X scalar 1017-f 48.0104 173 \;;
#X scalar 1017-f 49.2544 545 \;;
#X scalar 1017-f 52.2398 210 \;;
#X scalar 1017-f 53.2259 246 \;;
#X scalar 1017-f 62.2896 128 \;;
#X scalar 1017-f 66.8506 101 \;;
#X scalar 1017-f 71.5122 387 \;;
#X scalar 1017-f 72.0902 196 \;;
#X scalar 1017-f 73.1642 327 \;;
#X scalar 1017-f 77.0065 567 \;;
#X scalar 1017-f 78.8733 423 \;;
#X scalar 1017-f 79.1202 412 \;;
#X scalar 1017-f 81.9878 343 \;;
#X scalar 1017-f 84.4038 70 \;;
#X scalar 1017-f 86.0233 250 \;;
#X scalar 1017-f 87.0057 178 \;;
#X scalar 1017-f 87.0919 92 \;;
#X scalar 1017-f 97.1648 267 \;;
#X scalar 1017-f 99.2018 397 \;;
#X scalar 1017-f 99.925 441 \;;
#X scalar 1017-f 100.225 289 \;;
#X scalar 1017-f 103.966 153 \;;
#X scalar 1017-f 108.268 506 \;;
#X scalar 1017-f 108.467 510 \;;
#X scalar 1017-f 108.724 394 \;;
#X scalar 1017-f 111.803 237 \;;
#X scalar 1017-f 112.614 329 \;;
#X scalar 1017-f 112.681 208 \;;
#X scalar 1017-f 112.929 436 \;;
#X scalar 1017-f 113.217 151 \;;
#X scalar 1017-f 113.991 117 \;;
#X scalar 1017-f 115.953 216 \;;
#X scalar 1017-f 116.245 594 \;;
#X scalar 1017-f 116.902 251 \;;
#X scalar 1017-f 117.154 356 \;;
#X scalar 1017-f 117.886 89 \;;
#X scalar 1017-f 118.811 28 \;;
#X scalar 1017-f 119.252 189 \;;
#X scalar 1017-f 119.549 69 \;;
#X scalar 1017-f 121.696 245 \;;
#X scalar 1017-f 122.801 322 \;;
#X scalar 1017-f 125.634 22 \;;
#X scalar 1017-f 127.566 583 \;;
#X scalar 1017-f 129.85 519 \;;
#X scalar 1017-f 131.32 467 \;;
#X scalar 1017-f 134.302 132 \;;
#X scalar 1017-f 134.373 104 \;;
#X scalar 1017-f 135.148 413 \;;
#X scalar 1017-f 135.871 496 \;;
#X scalar 1017-f 140.357 50 \;;
#X scalar 1017-f 140.357 242 \;;
#X scalar 1017-f 144.062 459 \;;
#X scalar 1017-f 145.207 209 \;;
#X scalar 1017-f 146.605 192 \;;
#X scalar 1017-f 148.691 336 \;;
#X scalar 1017-f 150.207 499 \;;
#X scalar 1017-f 151.822 354 \;;
#X scalar 1017-f 153.395 103 \;;
#X scalar 1017-f 153.574 90 \;;
#X scalar 1017-f 154.871 40 \;;
#X scalar 1017-f 158.146 297 \;;
#X scalar 1017-f 158.66 161 \;;
#X scalar 1017-f 158.685 422 \;;
#X scalar 1017-f 162.099 120 \;;
#X scalar 1017-f 163.218 263 \;;
#X scalar 1017-f 163.453 345 \;;
#X scalar 1017-f 164.344 434 \;;
#X scalar 1017-f 165.197 460 \;;
#X scalar 1017-f 166.397 85 \;;
#X scalar 1017-f 166.469 88 \;;
#X scalar 1017-f 168.372 64 \;;
#X scalar 1017-f 168.76 17 \;;
#X scalar 1017-f 170.496 219 \;;
#X scalar 1017-f 170.848 36 \;;
#X scalar 1017-f 172.29 286 \;;
#X scalar 1017-f 172.627 516 \;;
#X scalar 1017-f 173.77 163 \;;
#X scalar 1017-f 174.485 61 \;;
#X scalar 1017-f 176.026 7 \;;
#X scalar 1017-f 176.185 311 \;;
#X scalar 1017-f 177.102 449 \;;
#X scalar 1017-f 178.664 390 \;;
#X scalar 1017-f 179.287 411 \;;
#X scalar 1017-f 179.513 72 \;;
#X scalar 1017-f 179.947 491 \;;
#X scalar 1017-f 181.912 213 \;;
#X scalar 1017-f 182.332 581 \;;
#X scalar 1017-f 182.65 437 \;;
#X scalar 1017-f 183.807 452 \;;
#X scalar 1017-f 184.394 443 \;;
#X scalar 1017-f 185.408 234 \;;
#X scalar 1017-f 186.936 225 \;;
#X scalar 1017-f 187.003 560 \;;
#X scalar 1017-f 187.072 453 \;;
#X scalar 1017-f 187.11 365 \;;
#X scalar 1017-f 188.247 362 \;;
#X scalar 1017-f 188.733 539 \;;
#X scalar 1017-f 189.233 393 \;;
#X scalar 1017-f 189.433 144 \;;
#X scalar 1017-f 190.541 190 \;;
#X scalar 1017-f 192.096 598 \;;
#X scalar 1017-f 195.167 52 \;;
#X scalar 1017-f 197.942 232 \;;
#X scalar 1017-f 197.952 94 \;;
#X scalar 1017-f 198.98 278 \;;
#X scalar 1017-f 199.822 131 \;;
#X scalar 1017-f 200.003 181 \;;
#X scalar 1017-f 200.125 551 \;;
#X scalar 1017-f 200.532 108 \;;
#X scalar 1017-f 202.83 24 \;;
#X scalar 1017-f 205.244 68 \;;
#X scalar 1017-f 207.966 376 \;;
#X scalar 1017-f 209.029 191 \;;
#X scalar 1017-f 209.497 396 \;;
#X scalar 1017-f 211.341 384 \;;
#X scalar 1017-f 212.047 574 \;;
#X scalar 1017-f 212.603 109 \;;
#X scalar 1017-f 212.709 416 \;;
#X scalar 1017-f 213.965 328 \;;
#X scalar 1017-f 214.553 561 \;;
#X scalar 1017-f 214.758 112 \;;
#X scalar 1017-f 216.012 177 \;;
#X scalar 1017-f 216.529 382 \;;
#X scalar 1017-f 218.36 373 \;;
#X scalar 1017-f 219.513 461 \;;
#X scalar 1017-f 219.784 261 \;;
#X scalar 1017-f 220.204 198 \;;
#X scalar 1017-f 222.225 79 \;;
#X scalar 1017-f 222.874 477 \;;
#X scalar 1017-f 223.224 145 \;;
#X scalar 1017-f 223.654 62 \;;
#X scalar 1017-f 223.665 505 \;;
#X scalar 1017-f 224.129 150 \;;
#X scalar 1017-f 224.397 149 \;;
#X scalar 1017-f 225.142 133 \;;
#X scalar 1017-f 226.106 135 \;;
#X scalar 1017-f 227.669 308 \;;
#X scalar 1017-f 227.706 495 \;;
#X scalar 1017-f 228.178 215 \;;
#X scalar 1017-f 229.107 317 \;;
#X scalar 1017-f 230.152 49 \;;
#X scalar 1017-f 230.638 102 \;;
#X scalar 1017-f 231.625 84 \;;
#X scalar 1017-f 235.009 463 \;;
#X scalar 1017-f 235.032 143 \;;
#X scalar 1017-f 235.44 272 \;;
#X scalar 1017-f 235.85 187 \;;
#X scalar 1017-f 236.028 555 \;;
#X scalar 1017-f 236.174 442 \;;
#X scalar 1017-f 236.637 203 \;;
#X scalar 1017-f 236.783 207 \;;
#X scalar 1017-f 237.607 280 \;;
#X scalar 1017-f 238.533 137 \;;
#X scalar 1017-f 239.76 500 \;;
#X scalar 1017-f 240.277 167 \;;
#X scalar 1017-f 240.616 323 \;;
#X scalar 1017-f 241.299 185 \;;
#X scalar 1017-f 242.835 513 \;;
#X scalar 1017-f 243.008 202 \;;
#X scalar 1017-f 243.707 83 \;;
#X scalar 1017-f 245.392 76 \;;
#X scalar 1017-f 246.045 239 \;;
#X scalar 1017-f 246.678 448 \;;
#X scalar 1017-f 246.984 221 \;;
#X scalar 1017-f 247.212 256 \;;
#X scalar 1017-f 248.485 266 \;;
#X scalar 1017-f 248.928 30 \;;
#X scalar 1017-f 251.412 180 \;;
#X scalar 1017-f 253.061 375 \;;
#X scalar 1017-f 253.314 565 \;;
#X scalar 1017-f 254.049 472 \;;
#X scalar 1017-f 255.441 527 \;;
#X scalar 1017-f 255.486 578 \;;
#X scalar 1017-f 256.702 158 \;;
#X scalar 1017-f 258.211 21 \;;
#X scalar 1017-f 259.131 59 \;;
#X scalar 1017-f 259.401 8 \;;
#X scalar 1017-f 259.856 141 \;;
#X scalar 1017-f 260.248 95 \;;
#X scalar 1017-f 260.509 54 \;;
#X scalar 1017-f 260.762 349 \;;
#X scalar 1017-f 260.783 417 \;;
#X scalar 1017-f 261.09 295 \;;
#X scalar 1017-f 261.358 374 \;;
#X scalar 1017-f 262.498 304 \;;
#X scalar 1017-f 265.611 300 \;;
#X scalar 1017-f 266.327 99 \;;
#X scalar 1017-f 267.03 494 \;;
#X scalar 1017-f 269.357 420 \;;
#X scalar 1017-f 269.459 502 \;;
#X scalar 1017-f 269.462 523 \;;
#X scalar 1017-f 269.683 212 \;;
#X scalar 1017-f 272.36 364 \;;
#X scalar 1017-f 273.359 497 \;;
#X scalar 1017-f 274.39 195 \;;
#X scalar 1017-f 275.049 511 \;;
#X scalar 1017-f 275.289 73 \;;
#X scalar 1017-f 276.725 27 \;;
#X scalar 1017-f 276.798 546 \;;
#X scalar 1017-f 277.137 124 \;;
#X scalar 1017-f 277.683 471 \;;
#X scalar 1017-f 278.173 292 \;;
#X scalar 1017-f 278.729 475 \;;
#X scalar 1017-f 278.987 419 \;;
#X scalar 1017-f 279.401 478 \;;
#X scalar 1017-f 279.614 341 \;;
#X scalar 1017-f 280.863 243 \;;
#X scalar 1017-f 281.178 127 \;;
#X scalar 1017-f 282.124 585 \;;
#X scalar 1017-f 282.448 240 \;;
#X scalar 1017-f 284.016 271 \;;
#X scalar 1017-f 284.074 264 \;;
#X scalar 1017-f 285.412 542 \;;
#X scalar 1017-f 285.498 318 \;;
#X scalar 1017-f 286.527 547 \;;
#X scalar 1017-f 286.944 33 \;;
#X scalar 1017-f 288.028 299 \;;
#X scalar 1017-f 288.111 481 \;;
#X scalar 1017-f 288.846 223 \;;
#X scalar 1017-f 290.689 456 \;;
#X scalar 1017-f 291.988 433 \;;
#X scalar 1017-f 292.25 368 \;;
#X scalar 1017-f 292.289 357 \;;
#X scalar 1017-f 292.576 14 \;;
#X scalar 1017-f 292.617 197 \;;
#X scalar 1017-f 294.391 462 \;;
#X scalar 1017-f 294.839 107 \;;
#X scalar 1017-f 296.366 543 \;;
#X scalar 1017-f 296.624 41 \;;
#X scalar 1017-f 296.933 522 \;;
#X scalar 1017-f 297.204 398 \;;
#X scalar 1017-f 297.968 554 \;;
#X scalar 1017-f 298.377 532 \;;
#X scalar 1017-f 298.439 568 \;;
#X scalar 1017-f 299.06 19 \;;
#X scalar 1017-f 299.708 294 \;;
#X scalar 1017-f 300.048 199 \;;
#X scalar 1017-f 301.935 395 \;;
#X scalar 1017-f 302.352 29 \;;
#X scalar 1017-f 306.217 172 \;;
#X scalar 1017-f 307.189 528 \;;
#X scalar 1017-f 308.08 439 \;;
#X scalar 1017-f 308.715 169 \;;
#X scalar 1017-f 308.735 269 \;;
#X scalar 1017-f 309.932 238 \;;
#X scalar 1017-f 310.91 66 \;;
#X scalar 1017-f 311.27 201 \;;
#X scalar 1017-f 312.195 290 \;;
#X scalar 1017-f 314.612 438 \;;
#X scalar 1017-f 315.078 530 \;;
#X scalar 1017-f 316.811 255 \;;
#X scalar 1017-f 317.191 595 \;;
#X scalar 1017-f 317.605 86 \;;
#X scalar 1017-f 317.77 179 \;;
#X scalar 1017-f 318.308 557 \;;
#X scalar 1017-f 318.901 361 \;;
#X scalar 1017-f 319.401 39 \;;
#X scalar 1017-f 319.725 184 \;;
#X scalar 1017-f 320.989 325 \;;
#X scalar 1017-f 321.126 205 \;;
#X scalar 1017-f 321.223 31 \;;
#X scalar 1017-f 323.396 381 \;;
#X scalar 1017-f 323.52 320 \;;
#X scalar 1017-f 324.82 330 \;;
#X scalar 1017-f 326.014 25 \;;
#X scalar 1017-f 326.314 134 \;;
#X scalar 1017-f 326.333 244 \;;
#X scalar 1017-f 326.731 531 \;;
#X scalar 1017-f 327.831 577 \;;
#X scalar 1017-f 327.844 80 \;;
#X scalar 1017-f 329.038 552 \;;
#X scalar 1017-f 329.844 402 \;;
#X scalar 1017-f 329.953 573 \;;
#X scalar 1017-f 330.504 508 \;;
#X scalar 1017-f 331.151 75 \;;
#X scalar 1017-f 331.423 57 \;;
#X scalar 1017-f 331.67 96 \;;
#X scalar 1017-f 331.789 78 \;;
#X scalar 1017-f 331.931 126 \;;
#X scalar 1017-f 332.024 403 \;;
#X scalar 1017-f 332.096 44 \;;
#X scalar 1017-f 332.916 429 \;;
#X scalar 1017-f 333.486 335 \;;
#X scalar 1017-f 333.708 125 \;;
#X scalar 1017-f 334.512 440 \;;
#X scalar 1017-f 334.763 211 \;;
#X scalar 1017-f 334.773 535 \;;
#X scalar 1017-f 336.149 71 \;;
#X scalar 1017-f 336.387 67 \;;
#X scalar 1017-f 337.095 206 \;;
#X scalar 1017-f 337.854 233 \;;
#X scalar 1017-f 339.695 533 \;;
#X scalar 1017-f 339.872 563 \;;
#X scalar 1017-f 339.996 5 \;;
#X scalar 1017-f 342.243 358 \;;
#X scalar 1017-f 342.864 130 \;;
#X scalar 1017-f 343.281 355 \;;
#X scalar 1017-f 343.641 553 \;;
#X scalar 1017-f 344.093 406 \;;
#X scalar 1017-f 344.768 51 \;;
#X scalar 1017-f 345.589 540 \;;
#X scalar 1017-f 347.086 310 \;;
#X scalar 1017-f 347.669 592 \;;
#X scalar 1017-f 348.604 426 \;;
#X scalar 1017-f 348.967 116 \;;
#X scalar 1017-f 349.242 414 \;;
#X scalar 1017-f 349.382 344 \;;
#X scalar 1017-f 349.452 55 \;;
#X scalar 1017-f 350.705 154 \;;
#X scalar 1017-f 351.46 15 \;;
#X scalar 1017-f 351.82 11 \;;
#X scalar 1017-f 352.165 451 \;;
#X scalar 1017-f 352.363 484 \;;
#X scalar 1017-f 352.598 504 \;;
#X scalar 1017-f 354.775 284 \;;
#X scalar 1017-f 355.196 313 \;;
#X scalar 1017-f 355.63 428 \;;
#X scalar 1017-f 356.546 136 \;;
#X scalar 1017-f 356.553 285 \;;
#X scalar 1017-f 358.068 214 \;;
#X scalar 1017-f 358.095 3 \;;
#X scalar 1017-f 358.336 6 \;;
#X scalar 1017-f 358.578 324 \;;
#X scalar 1017-f 360.272 485 \;;
#X scalar 1017-f 360.762 262 \;;
#X scalar 1017-f 361.068 182 \;;
#X scalar 1017-f 361.437 469 \;;
#X scalar 1017-f 362.012 570 \;;
#X scalar 1017-f 363.743 87 \;;
#X scalar 1017-f 364.216 445 \;;
#X scalar 1017-f 365.483 9 \;;
#X scalar 1017-f 365.925 106 \;;
#X scalar 1017-f 366.16 537 \;;
#X scalar 1017-f 366.695 91 \;;
#X scalar 1017-f 367.404 576 \;;
#X scalar 1017-f 368.49 465 \;;
#X scalar 1017-f 369.152 114 \;;
#X scalar 1017-f 370.062 139 \;;
#X scalar 1017-f 370.417 457 \;;
#X scalar 1017-f 371.238 334 \;;
#X scalar 1017-f 371.571 352 \;;
#X scalar 1017-f 371.849 331 \;;
#X scalar 1017-f 372.759 418 \;;
#X scalar 1017-f 373.012 405 \;;
#X scalar 1017-f 374.039 252 \;;
#X scalar 1017-f 374.286 115 \;;
#X scalar 1017-f 375.225 236 \;;
#X scalar 1017-f 375.353 590 \;;
#X scalar 1017-f 375.588 501 \;;
#X scalar 1017-f 376.021 253 \;;
#X scalar 1017-f 377.69 332 \;;
#X scalar 1017-f 378.132 119 \;;
#X scalar 1017-f 381.058 274 \;;
#X scalar 1017-f 381.241 82 \;;
#X scalar 1017-f 382.012 444 \;;
#X scalar 1017-f 382.173 424 \;;
#X scalar 1017-f 382.832 4 \;;
#X scalar 1017-f 382.897 407 \;;
#X scalar 1017-f 383.818 63 \;;
#X scalar 1017-f 384.294 282 \;;
#X scalar 1017-f 384.376 122 \;;
#X scalar 1017-f 386.743 226 \;;
#X scalar 1017-f 387.001 171 \;;
#X scalar 1017-f 387.621 597 \;;
#X scalar 1017-f 388.402 273 \;;
#X scalar 1017-f 388.417 503 \;;
#X scalar 1017-f 390.012 204 \;;
#X scalar 1017-f 390.387 37 \;;
#X scalar 1017-f 390.448 430 \;;
#X scalar 1017-f 390.633 389 \;;
#X scalar 1017-f 390.702 473 \;;
#X scalar 1017-f 391.004 404 \;;
#X scalar 1017-f 391.152 193 \;;
#X scalar 1017-f 391.368 431 \;;
#X scalar 1017-f 391.812 166 \;;
#X scalar 1017-f 393.011 288 \;;
#X scalar 1017-f 394.062 556 \;;
#X scalar 1017-f 394.393 186 \;;
#X scalar 1017-f 394.808 302 \;;
#X scalar 1017-f 395.133 283 \;;
#X scalar 1017-f 395.895 514 \;;
#X scalar 1017-f 396.461 224 \;;
#X scalar 1017-f 397.102 521 \;;
#X scalar 1017-f 397.847 482 \;;
#X scalar 1017-f 398.554 176 \;;
#X scalar 1017-f 399.125 183 \;;
#X scalar 1017-f 403.868 98 \;;
#X scalar 1017-f 404.022 74 \;;
#X scalar 1017-f 404.505 591 \;;
#X scalar 1017-f 405.291 138 \;;
#X scalar 1017-f 405.357 42 \;;
#X scalar 1017-f 406.753 160 \;;
#X scalar 1017-f 406.754 559 \;;
#X scalar 1017-f 406.951 492 \;;
#X scalar 1017-f 407.355 377 \;;
#X scalar 1017-f 407.46 265 \;;
#X scalar 1017-f 407.735 248 \;;
#X scalar 1017-f 408.032 10 \;;
#X scalar 1017-f 408.256 564 \;;
#X scalar 1017-f 409.258 32 \;;
#X scalar 1017-f 409.664 558 \;;
#X scalar 1017-f 409.718 188 \;;
#X scalar 1017-f 410.371 316 \;;
#X scalar 1017-f 412.565 342 \;;
#X scalar 1017-f 412.827 584 \;;
#X scalar 1017-f 413.417 247 \;;
#X scalar 1017-f 414.367 20 \;;
#X scalar 1017-f 415.086 100 \;;
#X scalar 1017-f 416.857 526 \;;
#X scalar 1017-f 417.235 60 \;;
#X scalar 1017-f 417.637 277 \;;
#X scalar 1017-f 418.043 281 \;;
#X scalar 1017-f 418.656 351 \;;
#X scalar 1017-f 419.058 483 \;;
#X scalar 1017-f 421.84 270 \;;
#X scalar 1017-f 422.412 148 \;;
#X scalar 1017-f 422.707 48 \;;
#X scalar 1017-f 422.765 175 \;;
#X scalar 1017-f 422.871 399 \;;
#X scalar 1017-f 423.005 534 \;;
#X scalar 1017-f 424.76 388 \;;
#X scalar 1017-f 425.231 156 \;;
#X scalar 1017-f 425.688 291 \;;
#X scalar 1017-f 426.808 515 \;;
#X scalar 1017-f 426.919 118 \;;
#X scalar 1017-f 427.011 538 \;;
#X scalar 1017-f 427.155 529 \;;
#X scalar 1017-f 427.479 217 \;;
#X scalar 1017-f 429.214 326 \;;
#X scalar 1017-f 429.382 447 \;;
#X scalar 1017-f 430.001 454 \;;
#X scalar 1017-f 430.116 450 \;;
#X scalar 1017-f 430.265 488 \;;
#X scalar 1017-f 430.554 391 \;;
#X scalar 1017-f 431.158 587 \;;
#X scalar 1017-f 431.366 446 \;;
#X scalar 1017-f 432.515 155 \;;
#X scalar 1017-f 432.561 569 \;;
#X scalar 1017-f 433.042 571 \;;
#X scalar 1017-f 433.853 536 \;;
#X scalar 1017-f 434.226 168 \;;
#X scalar 1017-f 435.129 194 \;;
#X scalar 1017-f 435.561 146 \;;
#X scalar 1017-f 436.4 254 \;;
#X scalar 1017-f 436.858 524 \;;
#X scalar 1017-f 438.427 13 \;;
#X scalar 1017-f 438.516 470 \;;
#X scalar 1017-f 438.617 1 \;;
#X scalar 1017-f 438.737 231 \;;
#X scalar 1017-f 439.256 46 \;;
#X scalar 1017-f 439.331 360 \;;
#X scalar 1017-f 440.183 111 \;;
#X scalar 1017-f 440.732 16 \;;
#X scalar 1017-f 441.318 165 \;;
#X scalar 1017-f 442.652 548 \;;
#X scalar 1017-f 442.875 541 \;;
#X scalar 1017-f 442.902 512 \;;
#X scalar 1017-f 443.717 56 \;;
#X scalar 1017-f 444.389 97 \;;
#X scalar 1017-f 445.001 268 \;;
#X scalar 1017-f 445.395 486 \;;
#X scalar 1017-f 445.745 421 \;;
#X scalar 1017-f 445.929 312 \;;
#X scalar 1017-f 445.942 458 \;;
#X scalar 1017-f 446.055 279 \;;
#X scalar 1017-f 446.831 34 \;;
#X scalar 1017-f 446.861 200 \;;
#X scalar 1017-f 447.153 43 \;;
#X scalar 1017-f 448.693 338 \;;
#X scalar 1017-f 450.419 35 \;;
#X scalar 1017-f 451.842 121 \;;
#X scalar 1017-f 454.274 409 \;;
#X scalar 1017-f 454.44 65 \;;
#X scalar 1017-f 454.579 105 \;;
#X scalar 1017-f 454.802 113 \;;
#X scalar 1017-f 455.036 38 \;;
#X scalar 1017-f 455.083 259 \;;
#X scalar 1017-f 455.267 580 \;;
#X scalar 1017-f 456.207 562 \;;
#X scalar 1017-f 457.054 476 \;;
#X scalar 1017-f 457.551 589 \;;
#X scalar 1017-f 457.866 0 \;;
#X scalar 1017-f 457.961 400 \;;
#X scalar 1017-f 458.193 579 \;;
#X scalar 1017-f 458.628 370 \;;
#X scalar 1017-f 460.027 218 \;;
#X scalar 1017-f 460.245 301 \;;
#X scalar 1017-f 461.069 372 \;;
#X scalar 1017-f 461.65 518 \;;
#X scalar 1017-f 461.706 366 \;;
#X scalar 1017-f 463.622 314 \;;
#X scalar 1017-f 464.321 493 \;;
#X scalar 1017-f 464.812 12 \;;
#X scalar 1017-f 465.053 45 \;;
#X scalar 1017-f 466.154 379 \;;
#X scalar 1017-f 466.744 346 \;;
#X scalar 1017-f 466.859 466 \;;
#X scalar 1017-f 467.732 517 \;;
#X scalar 1017-f 469.666 47 \;;
#X scalar 1017-f 471.161 110 \;;
#X scalar 1017-f 471.343 147 \;;
#X scalar 1017-f 471.682 383 \;;
#X scalar 1017-f 472.979 369 \;;
#X scalar 1017-f 473.295 305 \;;
#X scalar 1017-f 473.473 435 \;;
#X scalar 1017-f 473.608 588 \;;
#X scalar 1017-f 474.322 468 \;;
#X scalar 1017-f 476.072 296 \;;
#X scalar 1017-f 476.114 347 \;;
#X scalar 1017-f 476.501 525 \;;
#X scalar 1017-f 477.218 427 \;;
#X scalar 1017-f 477.914 520 \;;
#X scalar 1017-f 478.774 81 \;;
#X scalar 1017-f 479.401 464 \;;
#X scalar 1017-f 479.654 230 \;;
#X scalar 1017-f 483.935 293 \;;
#X scalar 1017-f 484.373 164 \;;
#X scalar 1017-f 485.077 353 \;;
#X scalar 1017-f 485.272 378 \;;
#X scalar 1017-f 485.391 315 \;;
#X scalar 1017-f 486.121 228 \;;
#X scalar 1017-f 488.083 359 \;;
#X scalar 1017-f 489.745 93 \;;
#X scalar 1017-f 491.501 309 \;;
#X scalar 1017-f 493.579 276 \;;
#X scalar 1017-f 495.618 410 \;;
#X scalar 1017-f 496.139 509 \;;
#X scalar 1017-f 497.966 303 \;;
#X scalar 1017-f 498.197 586 \;;
#X scalar 1017-f 498.407 544 \;;
#X scalar 1017-f 498.754 340 \;;
#X scalar 1017-f 499.577 129 \;;
#X scalar 1017-f 499.602 170 \;;
#X scalar 1017-f 501.339 593 \;;
#X scalar 1017-f 502.669 18 \;;
#X scalar 1017-f 503.513 487 \;;
#X scalar 1017-f 504.009 174 \;;
#X scalar 1017-f 505.253 575 \;;
#X scalar 1017-f 505.586 275 \;;
#X scalar 1017-f 506.537 507 \;;
#X scalar 1017-f 507.241 350 \;;
#X scalar 1017-f 508.957 479 \;;
#X scalar 1017-f 509.389 455 \;;
#X scalar 1017-f 510.064 489 \;;
#X scalar 1017-f 510.271 23 \;;
#X scalar 1017-f 513.85 339 \;;
#X scalar 1017-f 515.388 425 \;;
#X scalar 1017-f 516.653 333 \;;
#X scalar 1017-f 517.282 241 \;;
#X scalar 1017-f 517.889 572 \;;
#X scalar 1017-f 519.479 298 \;;
#X scalar 1017-f 521.329 367 \;;
#X scalar 1017-f 522.536 227 \;;
#X scalar 1017-f 526.409 157 \;;
#X scalar 1017-f 527.094 140 \;;
#X scalar 1017-f 530.79 474 \;;
#X scalar 1017-f 531.806 229 \;;
#X scalar 1017-f 536.456 58 \;;
#X scalar 1017-f 540.224 257 \;;
#X scalar 1017-f 540.833 401 \;;
#X scalar 1017-f 542.8 408 \;;
#X scalar 1017-f 543.415 385 \;;
#X scalar 1017-f 546.726 498 \;;
#X scalar 1017-f 551.058 306 \;;
#X scalar 1017-f 552.268 287 \;;
#X scalar 1017-f 552.342 222 \;;
#X scalar 1017-f 558.622 319 \;;
#X scalar 1017-f 560.43 348 \;;
#X scalar 1017-f 562.02 386 \;;
#X scalar 1017-f 562.254 596 \;;
#X scalar 1017-f 562.854 159 \;;
#X scalar 1017-f 567.144 337 \;;
#X scalar 1017-f 569.604 307 \;;
#X scalar 1017-f 575.407 415 \;;
#X scalar 1017-f 575.647 260 \;;
#X scalar 1017-f 583.042 152 \;;
#X scalar 1017-f 585.358 53 \;;
#X scalar 1017-f 590.621 321 \;;
#X scalar 1017-f 590.811 249 \;;
#X scalar 1017-f 592.638 220 \;;
#X scalar 1017-f 597.576 142 \;;
#X scalar 1017-f 608.067 26 \;;
#X scalar 1017-f 609.552 2 \;;
#X scalar 1017-f 618.169 490 \;;
#X scalar 1017-f 639.113 363 \;;
#X restore 453 91 pd \$0-sort;
#X obj 245 238 pointer;
#X msg 245 214 traverse \$1 \, bang;
#X msg 372 190 clear;
#X obj 372 214 s pd-\$0-sort;
#X obj 103 138 t b a b b;
#X obj 348 407 s pd-\$0-sort;
#X msg 348 384 sort;
#X obj 103 53 inlet;
#X obj 245 190 symbol pd-\$0-sort;
#X obj 120 448 pointer;
#X obj 120 400 symbol pd-\$0-sort;
#X msg 120 424 traverse \$1 \, next;
#X obj 147 610 list prepend;
#X obj 242 610 t a;
#X obj 103 650 list;
#X msg 181 448 next;
#X obj 120 475 t b p;
#X obj 103 675 outlet;
#X obj 376 610 t a;
#X obj 665 21 loadbang;
#X obj 593 59 inlet;
#X obj 593 196 s \$0-direction;
#X obj 281 610 list append;
#N canvas 0 22 552 424 direction 0;
#X obj 40 52 inlet;
#X obj 255 49 inlet;
#X obj 40 266 spigot 1;
#X obj 153 266 spigot;
#X obj 255 223 unpack 0 0;
#X msg 255 177 1 0;
#X msg 306 195 0 1;
#X obj 357 92 select 0;
#X obj 255 70 select asc desc;
#X obj 40 317 outlet;
#X obj 153 322 outlet;
#X connect 0 0 2 0;
#X connect 0 0 3 0;
#X connect 1 0 8 0;
#X connect 2 0 9 0;
#X connect 3 0 10 0;
#X connect 4 0 2 1;
#X connect 4 1 3 1;
#X connect 5 0 4 0;
#X connect 6 0 4 0;
#X connect 7 0 5 0;
#X connect 7 1 6 0;
#X connect 8 0 5 0;
#X connect 8 1 6 0;
#X connect 8 2 7 0;
#X restore 147 534 pd direction;
#X obj 437 503 r \$0-direction;
#N canvas 0 22 450 300 list-drip 0;
#X obj 162 88 t a b;
#N canvas 473 338 450 300 count 0;
#X obj 131 154 f 0;
#X obj 156 153 + 1;
#X msg 147 133 0;
#X obj 131 183 outlet;
#X obj 131 59 inlet;
#X obj 131 96 b;
#X obj 178 61 inlet;
#X obj 178 98 b;
#X connect 0 0 1 0;
#X connect 0 0 3 0;
#X connect 1 0 0 1;
#X connect 2 0 0 1;
#X connect 4 0 5 0;
#X connect 5 0 0 0;
#X connect 6 0 7 0;
#X connect 7 0 2 0;
#X restore 241 180 pd count;
#X obj 162 138 t a b;
#X obj 162 58 inlet;
#X obj 162 206 list prepend;
#X obj 162 234 outlet;
#X obj 220 234 outlet;
#N canvas 0 22 450 300 list-drip 0;
#X obj 73 94 t a a;
#X obj 73 251 spigot;
#X obj 112 159 bang;
#X obj 112 178 1;
#X obj 233 159 route bang;
#X obj 193 160 bang;
#X obj 193 179 0;
#X obj 112 124 list split 2;
#X obj 242 389 list split;
#X obj 309 338 list length;
#X obj 309 360 >> 1;
#X obj 73 270 t a a a a;
#X obj 73 456 list split;
#X obj 140 408 list length;
#X obj 140 433 >> 1;
#X obj 41 29 inlet;
#X obj 300 185 outlet;
#X text 83 29 Copyright 2009 by Mathieu Bouchard;
#X obj 41 63 t b a;
#X obj 475 129 outlet;
#X text 530 131 signal end of list;
#X text 391 33 made compatible with [list-drip]: fbar 2009;
#X connect 0 0 1 0;
#X connect 0 1 7 0;
#X connect 1 0 11 0;
#X connect 2 0 3 0;
#X connect 3 0 1 1;
#X connect 4 1 16 0;
#X connect 5 0 6 0;
#X connect 6 0 1 1;
#X connect 7 0 2 0;
#X connect 7 2 4 0;
#X connect 7 2 5 0;
#X connect 8 0 0 0;
#X connect 9 0 10 0;
#X connect 10 0 8 1;
#X connect 11 0 12 0;
#X connect 11 1 13 0;
#X connect 11 2 8 0;
#X connect 11 3 9 0;
#X connect 12 1 0 0;
#X connect 13 0 14 0;
#X connect 14 0 12 1;
#X connect 15 0 18 0;
#X connect 18 0 19 0;
#X connect 18 1 0 0;
#X restore 162 113 pd list-drip;
#X connect 0 0 7 0;
#X connect 0 1 1 1;
#X connect 1 0 4 1;
#X connect 2 0 4 0;
#X connect 2 1 1 0;
#X connect 3 0 0 0;
#X connect 4 0 5 0;
#X connect 7 0 2 0;
#X connect 7 1 6 0;
#X restore 120 179 pd list-drip;
#X text 694 497 2011 Frank Barknecht;
#X obj 147 503 get \$0-f x pos;
#X obj 334 556 list prepend;
#X obj 429 556 t a;
#X obj 563 556 t a;
#X obj 468 556 list append;
#N canvas 0 22 552 424 direction 0;
#X obj 40 52 inlet;
#X obj 255 49 inlet;
#X obj 40 266 spigot 1;
#X obj 153 266 spigot;
#X obj 255 223 unpack 0 0;
#X msg 255 177 1 0;
#X msg 306 195 0 1;
#X obj 357 92 select 0;
#X obj 255 70 select asc desc;
#X obj 40 317 outlet;
#X obj 153 322 outlet;
#X connect 0 0 2 0;
#X connect 0 0 3 0;
#X connect 1 0 8 0;
#X connect 2 0 9 0;
#X connect 3 0 10 0;
#X connect 4 0 2 1;
#X connect 4 1 3 1;
#X connect 5 0 4 0;
#X connect 6 0 4 0;
#X connect 7 0 5 0;
#X connect 7 1 6 0;
#X connect 8 0 5 0;
#X connect 8 1 6 0;
#X connect 8 2 7 0;
#X restore 296 520 pd direction;
#X obj 456 666 list;
#X obj 456 690 outlet;
#X obj 120 255 append \$0-f pos x;
#X obj 593 87 t b a;
#X obj 593 168 list append;
#X obj 665 70 symbol \$1;
#X obj 620 114 route symbol;
#X obj 734 70 symbol asc;
#X obj 665 45 t b b;
#X text 503 685 (indexes);
#X text 150 674 (sorted list);
#X obj 103 328 t b b b b b;
#X connect 2 0 37 2;
#X connect 3 0 2 0;
#X connect 4 0 5 0;
#X connect 6 0 46 0;
#X connect 6 1 27 0;
#X connect 6 2 10 0;
#X connect 6 3 4 0;
#X connect 8 0 7 0;
#X connect 9 0 6 0;
#X connect 10 0 3 0;
#X connect 11 0 18 0;
#X connect 12 0 13 0;
#X connect 13 0 11 0;
#X connect 14 0 15 0;
#X connect 14 0 16 1;
#X connect 15 0 14 1;
#X connect 16 0 19 0;
#X connect 17 0 11 0;
#X connect 18 0 17 0;
#X connect 18 1 29 0;
#X connect 20 0 24 1;
#X connect 21 0 43 0;
#X connect 22 0 38 0;
#X connect 24 0 20 0;
#X connect 24 0 16 1;
#X connect 25 0 14 0;
#X connect 25 1 24 0;
#X connect 26 0 25 1;
#X connect 26 0 34 1;
#X connect 27 0 37 0;
#X connect 29 0 25 0;
#X connect 29 1 34 0;
#X connect 30 0 31 0;
#X connect 30 0 35 1;
#X connect 31 0 30 1;
#X connect 32 0 33 1;
#X connect 33 0 32 0;
#X connect 33 0 35 1;
#X connect 34 0 30 0;
#X connect 34 1 33 0;
#X connect 35 0 36 0;
#X connect 38 0 39 0;
#X connect 38 1 41 0;
#X connect 39 0 23 0;
#X connect 40 0 38 0;
#X connect 41 0 39 1;
#X connect 42 0 38 0;
#X connect 43 0 40 0;
#X connect 43 1 42 0;
#X connect 46 0 16 0;
#X connect 46 1 35 0;
#X connect 46 2 12 0;
#X connect 46 3 14 1;
#X connect 46 3 24 1;
#X connect 46 3 30 1;
#X connect 46 3 33 1;
#X connect 46 4 8 0;
