#N canvas 515 22 528 475 10;
#X floatatom 155 384 15 0 0 1 std - -;
#X floatatom 164 358 15 0 0 1 variance - -;
#X floatatom 174 330 15 0 0 1 variance_n - -;
#X floatatom 183 304 15 0 0 1 mean - -;
#X msg 186 160 1 2 9;
#X msg 173 128 4 7 5;
#X obj 155 193 list-stats;
#X msg 155 99 5 9 4 8 10 14;
#X floatatom 193 277 15 0 0 1 min - -;
#X floatatom 202 249 15 0 0 1 max - -;
#X floatatom 212 223 15 0 0 1 n - -;
#X obj 7 8 cnv 15 500 60 empty empty list-stats 20 12 0 14 -233017
-66577 0;
#X text 355 46 2013 Gilberto Bernardes;
#N canvas 917 234 494 344 META 0;
#X text 12 45 LICENSE GPL v3;
#X text 12 304 RELEASE_DATE 2013;
#X text 12 284 WEBSITE https://sites.google.com/site/eargram/;
#X text 12 264 AUTHOR Gilberto Bernardes;
#X text 12 25 KEYWORDS;
#X text 12 244 LIBRARY earGram_abs;
#X text 12 105 OUTLET_0 float (std);
#X text 13 125 OUTLET_1 float (variance);
#X text 14 145 OUTLET_2 float (variance/n);
#X text 15 165 OUTLET_3 float (mean);
#X text 12 65 DESCRIPTION calculates basic statistics of a list of
floats;
#X text 12 86 INLET_0 list;
#X text 16 222 OUTLET_6 float (nr of occurrences);
#X text 15 184 OUTLET_4 float (min);
#X text 16 204 OUTLET_5 float (max);
#X restore 470 446 pd META;
#X text 23 47 calculates basic statistics of a list of floats;
#X connect 4 0 6 0;
#X connect 5 0 6 0;
#X connect 6 0 0 0;
#X connect 6 1 1 0;
#X connect 6 2 2 0;
#X connect 6 3 3 0;
#X connect 6 4 8 0;
#X connect 6 5 9 0;
#X connect 6 6 10 0;
#X connect 7 0 6 0;
