#N canvas 335 22 616 308 10;
#X obj 24 147 list-bounds 1 34 67;
#X obj 24 204 print inRange;
#X obj 79 177 print outRange;
#X obj 7 2 cnv 15 600 60 empty empty list-bounds 20 12 0 14 -233017
-66577 0;
#X text 452 42 2013 Gilberto Bernardes;
#X msg 24 119 2 3 4 5 5;
#X msg 95 119 34 35 36 37 38;
#X text 245 168 min comparison value;
#X text 245 186 max comparison value;
#X text 242 129 arg:;
#X text 243 150 which element to compare (zero based);
#N canvas 648 411 494 344 META 0;
#X text 12 45 LICENSE GPL v3;
#X text 12 265 RELEASE_DATE 2013;
#X text 12 246 WEBSITE https://sites.google.com/site/eargram/;
#X text 12 227 AUTHOR Gilberto Bernardes;
#X text 12 208 LIBRARY earGram_abs;
#X text 12 64 DESCRIPTION check if an element ia a list fits the specified
range;
#X text 12 96 INLET_0 list;
#X text 12 115 INLET_1 float (index of element to compare);
#X text 12 134 INLET_2 float (min comparison value);
#X text 12 153 INLET_3 float (max comparison value);
#X text 12 172 OUTLET_0 float (value within the range);
#X text 13 189 OUTLET_1 float (value outside the range);
#X restore 558 278 pd META;
#X text 25 39 check if an element ia a list fits the specified range
;
#X connect 0 0 1 0;
#X connect 0 1 2 0;
#X connect 5 0 0 0;
#X connect 6 0 0 0;
