#N canvas 0 22 592 489 10;
#X obj 153 127 list-drip;
#X obj 153 150 route float;
#X obj 184 247 f;
#X obj 136 424 outlet;
#X obj 136 40 inlet;
#X obj 136 396 f;
#N canvas 0 22 450 300 once 0;
#X obj 110 75 inlet;
#X obj 105 187 spigot 1;
#X obj 110 104 t b f;
#X msg 125 151 0;
#X msg 165 99 1;
#X obj 165 63 inlet;
#X obj 86 234 outlet;
#X connect 0 0 2 0;
#X connect 1 0 6 0;
#X connect 2 0 3 0;
#X connect 2 1 1 0;
#X connect 3 0 1 1;
#X connect 4 0 1 1;
#X connect 5 0 4 0;
#X restore 290 213 pd once;
#X obj 136 335 t b b;
#X obj 153 180 t a a b;
#X obj 299 295 + 1;
#X obj 136 60 t b a b b;
#X obj 271 295 f 0;
#X obj 256 325 f;
#X obj 236 394 f;
#X obj 153 308 t f b;
#X obj 236 419 outlet;
#X obj 187 105 0;
#X obj 153 276 change;
#X obj 153 247 max;
#X text 351 213 prime [max] with first item once;
#X connect 0 0 1 0;
#X connect 1 0 8 0;
#X connect 2 0 18 1;
#X connect 4 0 10 0;
#X connect 5 0 3 0;
#X connect 6 0 18 1;
#X connect 7 0 5 0;
#X connect 7 1 13 0;
#X connect 8 0 18 0;
#X connect 8 1 6 0;
#X connect 8 2 11 0;
#X connect 9 0 11 1;
#X connect 10 0 7 0;
#X connect 10 1 0 0;
#X connect 10 2 6 1;
#X connect 10 3 16 0;
#X connect 11 0 9 0;
#X connect 11 0 12 1;
#X connect 12 0 13 1;
#X connect 13 0 15 0;
#X connect 14 0 5 1;
#X connect 14 1 12 0;
#X connect 16 0 11 1;
#X connect 17 0 14 0;
#X connect 18 0 2 0;
#X connect 18 0 17 0;
