#N canvas 0 22 398 452 10;
#X obj 77 42 inlet;
#X obj 77 348 list;
#X obj 200 256 list append;
#X obj 276 255 t a;
#N canvas 42 461 295 369 get_random_element 0;
#X obj 101 82 list length;
#X obj 101 130 random;
#X obj 44 177 list split;
#X obj 44 253 list append;
#X obj 44 55 t a a;
#X obj 44 25 inlet;
#X obj 44 293 outlet;
#X obj 196 291 outlet;
#X text 196 311 element;
#X text 30 315 remaining list;
#X obj 101 107 t b a;
#X obj 82 209 list split 1;
#X text 93 149 random list index;
#X connect 0 0 10 0;
#X connect 1 0 2 1;
#X connect 2 0 3 0;
#X connect 2 1 11 0;
#X connect 3 0 6 0;
#X connect 4 0 2 0;
#X connect 4 1 0 0;
#X connect 5 0 4 0;
#X connect 10 0 1 0;
#X connect 10 1 1 1;
#X connect 11 0 7 0;
#X connect 11 1 3 1;
#X restore 77 224 pd get_random_element;
#X obj 77 258 route bang;
#X obj 77 198 t a b;
#X obj 134 390 outlet;
#X obj 77 170 route list;
#X text 187 274 add element to new list;
#X text 175 207 get a random element;
#X text 71 275 repeat until;
#X text 54 288 remainder is empty;
#X connect 0 0 8 0;
#X connect 1 0 7 0;
#X connect 2 0 3 0;
#X connect 2 0 1 1;
#X connect 3 0 2 1;
#X connect 4 0 5 0;
#X connect 4 1 2 0;
#X connect 5 0 1 0;
#X connect 5 1 4 0;
#X connect 6 0 4 0;
#X connect 6 1 2 1;
#X connect 8 0 6 0;
#X connect 8 1 7 0;
