#N canvas 572 68 464 592 10;
#X obj 22 5 inlet;
#X obj 108 5 inlet;
#X obj 41 357 list;
#X obj 41 387 list-drip;
#X obj 335 379 list append;
#X obj 314 421 list;
#X obj 335 341 list split 1;
#X obj 41 555 outlet;
#X obj 41 423 list prepend;
#X obj 41 324 t b l l;
#X obj 108 30 - 1;
#X obj 41 147 until;
#X obj 41 174 list;
#X obj 41 198 t l l;
#X obj 211 157 list split 1;
#X obj 41 56 list length;
#X obj 41 274 list split 2;
#X obj 41 121 - 2;
#X obj 186 555 outlet;
#X obj 41 81 t f f;
#N canvas 0 22 450 300 nrCases 0;
#X obj 32 14 inlet;
#X restore 225 98 pd nrCases;
#X obj 242 404 spigot;
#X obj 275 366 > 1;
#X obj 22 30 t b l l;
#X connect 0 0 23 0;
#X connect 1 0 10 0;
#X connect 2 0 3 0;
#X connect 3 0 8 0;
#X connect 3 1 21 0;
#X connect 4 0 5 1;
#X connect 5 0 16 0;
#X connect 6 0 4 0;
#X connect 8 0 7 0;
#X connect 9 0 2 0;
#X connect 9 1 8 1;
#X connect 9 2 6 0;
#X connect 10 0 16 1;
#X connect 10 0 22 0;
#X connect 11 0 12 0;
#X connect 12 0 13 0;
#X connect 13 0 16 0;
#X connect 13 1 14 0;
#X connect 14 1 12 1;
#X connect 15 0 19 0;
#X connect 16 0 9 0;
#X connect 16 1 2 1;
#X connect 16 1 4 1;
#X connect 17 0 11 0;
#X connect 19 0 17 0;
#X connect 19 1 20 0;
#X connect 21 0 5 0;
#X connect 22 0 21 1;
#X connect 23 0 18 0;
#X connect 23 1 15 0;
#X connect 23 2 12 1;
