#N canvas 0 22 575 484 10;
#X obj 76 73 inlet;
#X obj 274 93 inlet;
#X obj 325 185 inlet;
#X obj 211 158 route float;
#X obj 76 409 outlet;
#X obj 100 379 outlet;
#X obj 76 100 t a a;
#X obj 124 348 outlet;
#X obj 466 222 b;
#X obj 76 288 list prepend 2;
#X obj 466 254 2;
#X obj 76 318 route 0 1 2;
#X text 175 21 arg1: which element to compare (zero based);
#X text 175 39 arg2: min comparison value;
#X text 175 57 arg3: max comparison value;
#X obj 211 252 expr if($f1>=$f2 && $f1<=$f3 \, 0 \, 1);
#X obj 379 183 inlet;
#X obj 435 90 loadbang;
#X obj 436 115 \$2;
#X obj 464 116 \$3;
#X obj 211 130 list-idx \$1;
#X connect 0 0 6 0;
#X connect 1 0 20 1;
#X connect 2 0 15 1;
#X connect 3 0 15 0;
#X connect 3 1 8 0;
#X connect 6 0 9 0;
#X connect 6 1 20 0;
#X connect 8 0 10 0;
#X connect 9 0 11 0;
#X connect 10 0 9 1;
#X connect 11 0 4 0;
#X connect 11 1 5 0;
#X connect 11 2 7 0;
#X connect 15 0 9 1;
#X connect 16 0 15 2;
#X connect 17 0 18 0;
#X connect 17 0 19 0;
#X connect 18 0 15 1;
#X connect 19 0 15 2;
#X connect 20 0 3 0;
