#N canvas 0 22 515 315 10;
#X obj 26 163 list-permute;
#X msg 26 136 1 2 3 4 5;
#X obj 26 190 list prepend set;
#X obj 26 217 list trim;
#X msg 26 244 3 4 5 2 1;
#X obj 6 7 cnv 15 500 60 empty empty list-permut 20 12 0 14 -233017
-66577 0;
#X text 20 47 randomlly permutates a list of floats;
#X text 359 46 2013 Gilberto Bernardes;
#N canvas 648 411 494 344 META 0;
#X text 12 45 LICENSE GPL v3;
#X text 12 179 RELEASE_DATE 2013;
#X text 12 160 WEBSITE https://sites.google.com/site/eargram/;
#X text 12 141 AUTHOR Gilberto Bernardes;
#X text 12 122 LIBRARY earGram_abs;
#X text 12 81 INLET_0 list;
#X text 12 64 DESCRIPTION randomlly permutates a list of floats;
#X text 12 99 OUTLET_0 list;
#X restore 447 283 pd META;
#X connect 0 0 2 0;
#X connect 1 0 0 0;
#X connect 2 0 3 0;
#X connect 3 0 4 0;
