#N struct 1017-f float x float pos;
#N canvas 163 22 510 315 10;
#X msg 36 113 20 40 50 10;
#X obj 160 161 list prepend set;
#X obj 160 190 list trim;
#X msg 160 219 2 1 0 3;
#X obj 36 190 list prepend set;
#X obj 36 219 list trim;
#N canvas 648 411 494 344 META 0;
#X text 12 45 LICENSE GPL v3;
#X text 12 192 RELEASE_DATE 2013;
#X text 12 173 WEBSITE https://sites.google.com/site/eargram/;
#X text 12 154 AUTHOR Gilberto Bernardes;
#X text 12 135 LIBRARY earGram_abs;
#X text 12 81 INLET_0 list;
#X text 12 64 DESCRIPTION sort items of a list;
#X text 13 116 OUTLET_1 list (sorted indexes);
#X text 12 99 OUTLET_0 list (sorted list);
#X restore 450 285 pd META;
#X msg 36 248 50 40 20 10;
#X obj 36 144 list-datasort asc;
#X text 320 144 arg:;
#X text 320 162 order (asc/desc);
#X obj 4 3 cnv 15 500 60 empty empty list-datasort 20 12 0 14 -233017
-66577 0;
#X text 356 28 2013 Gilberto Bernardes;
#X text 23 44 sort items of a list;
#X text 304 45 based on code by Frank Barknecht;
#X connect 0 0 8 0;
#X connect 1 0 2 0;
#X connect 2 0 3 0;
#X connect 4 0 5 0;
#X connect 5 0 7 0;
#X connect 8 0 4 0;
#X connect 8 1 1 0;
