#N canvas 205 189 517 305 10;
#X floatatom 100 49 5 0 0 0 - - -;
#X obj 19 107 print;
#X obj 19 76 list-sliding 4;
#X obj 19 -22 tgl 15 0 empty empty empty 17 7 0 10 -262144 -1 -1 0
1;
#X obj 19 36 f 0;
#X obj 46 36 + 1;
#X obj 19 6 metro 500;
#X obj 5 -133 cnv 15 500 60 empty empty list-sliding 20 12 0 14 -233017
-66577 0;
#X text 352 -91 2013 Gilberto Bernardes;
#N canvas 648 411 494 344 META 0;
#X text 12 45 LICENSE GPL v3;
#X text 12 204 RELEASE_DATE 2013;
#X text 12 185 WEBSITE https://sites.google.com/site/eargram/;
#X text 12 166 AUTHOR Gilberto Bernardes;
#X text 12 147 LIBRARY earGram_abs;
#X text 12 64 DESCRIPTION makes a list of the last x floats;
#X text 12 92 INLET_0 float;
#X text 12 110 INLET_1 float (nr of values per list);
#X text 13 128 OUTLET_1 list;
#X restore 458 144 pd META;
#X text 22 -92 make a list of the last x floats;
#X connect 0 0 2 1;
#X connect 2 0 1 0;
#X connect 3 0 6 0;
#X connect 4 0 2 0;
#X connect 4 0 5 0;
#X connect 5 0 4 1;
#X connect 6 0 4 0;
