#N canvas 0 22 450 300 10;
#X obj 58 -103 list prepend;
#X obj 214 -120 b;
#X obj 58 -71 list split 3;
#X obj 214 -151 inlet;
#X obj 58 -41 list split 1;
#X obj 58 -133 inlet;
#X obj 7 -9 outlet;
#X obj 303 -151 loadbang;
#X obj 303 -88 \$1;
#X connect 0 0 2 0;
#X connect 1 0 0 1;
#X connect 2 0 4 0;
#X connect 2 0 6 0;
#X connect 2 2 0 1;
#X connect 3 0 1 0;
#X connect 3 0 2 1;
#X connect 4 1 0 1;
#X connect 5 0 0 0;
#X connect 7 0 8 0;
#X connect 8 0 2 1;
