#N canvas 139 160 959 687 10;
#X obj 14 2 inlet;
#X text 634 255 variance = M2/(n-1);
#X text 634 289 variance_n = M2/n;
#X text 662 219 M2 = M2 + delta*(x-mean);
#X text 662 203 mean = mean + delta/n;
#X obj 227 149 f;
#X obj 256 149 + 1;
#X obj 65 475 /;
#X obj 212 527 /;
#X obj 142 202 -;
#X text 662 187 delta = x - mean;
#X text 662 171 n = n + 1;
#X text 236 200 n;
#X obj 94 475 - 1;
#X obj 353 132 0;
#X obj 277 300 /;
#X obj 277 323 +;
#X obj 308 323 f;
#X obj 108 406 +;
#X obj 136 405 f;
#X obj 142 226 t f f;
#X obj 108 358 f;
#X obj 145 365 -;
#X obj 108 382 *;
#X obj 65 553 outlet;
#X obj 212 553 outlet;
#X obj 65 423 f;
#X obj 227 176 + 1;
#X obj 65 527 sqrt;
#X obj 65 501 t f f;
#X obj 156 553 outlet;
#X text 65 578 std;
#X text 637 149 for x in data:;
#X text 616 49 def online_variance(data):;
#X text 639 83 mean = 0;
#X text 639 98 M2 = 0;
#X text 639 68 n = 0;
#X text 149 578 variance;
#X text 213 578 variance_n;
#X text 634 272 std = sqrt(variance);
#X text 636 314 return (std \, variance \, variance_n);
#X text 584 393 Donald E. Knuth (1998). The Art of Computer Programming
\, volume 2: Seminumerical Algorithms \, 3rd edn. \, p. 232 Boston:
Addison-Wesley.;
#X text 586 473 B. P. Welford (1962)."Note on a method for calculating
corrected sums of squares and products". Technometrics 4(3):419420.
;
#X text 583 559 taken from:;
#X text 584 578 http://en.wikipedia.org/wiki/Algorithms_for_calculating_variance
;
#X text 585 363 algorithm due to:;
#X text 587 447 that cites:;
#X obj 262 553 outlet;
#X text 285 578 mean;
#X text 110 424 M2;
#X text 289 342 mean;
#X text 143 246 delta;
#X obj 262 527 f;
#X text 519 25 pseudo-code algorithm for stats;
#X text 517 6 based on;
#X obj 14 33 t l b;
#X obj 14 67 list-drip;
#X obj 578 6 stats;
#X obj 14 93 route float;
#X obj 372 411 f;
#X obj 319 553 outlet;
#X obj 378 527 f;
#X obj 378 553 outlet;
#X obj 319 527 f;
#N canvas 0 22 450 300 once 0;
#X obj 110 75 inlet;
#X obj 105 187 spigot 1;
#X obj 110 104 t b f;
#X msg 125 151 0;
#X msg 165 99 1;
#X obj 165 63 inlet;
#X obj 102 219 outlet;
#X connect 0 0 2 0;
#X connect 1 0 6 0;
#X connect 2 0 3 0;
#X connect 2 1 1 0;
#X connect 3 0 1 1;
#X connect 4 0 1 1;
#X connect 5 0 4 0;
#X restore 473 338 pd once;
#X obj 488 413 f;
#X obj 457 412 max;
#X obj 341 411 min;
#X text 759 648 (c) 2011 Gilberto Bernardes;
#X obj 108 132 t b f f f f f b;
#X text 327 578 min;
#X text 387 578 max;
#X obj 443 525 f;
#X obj 443 551 outlet;
#X text 452 576 n;
#X obj 65 449 t f f b b b b;
#X connect 0 0 55 0;
#X connect 5 0 6 0;
#X connect 5 0 27 0;
#X connect 6 0 5 1;
#X connect 7 0 29 0;
#X connect 8 0 25 0;
#X connect 9 0 20 0;
#X connect 13 0 7 1;
#X connect 14 0 9 1;
#X connect 14 0 5 1;
#X connect 14 0 17 0;
#X connect 14 0 19 0;
#X connect 15 0 16 0;
#X connect 16 0 17 0;
#X connect 16 0 22 1;
#X connect 16 0 9 1;
#X connect 16 0 52 1;
#X connect 17 0 16 1;
#X connect 18 0 19 0;
#X connect 18 0 26 1;
#X connect 19 0 18 1;
#X connect 20 0 21 1;
#X connect 20 1 15 0;
#X connect 21 0 23 0;
#X connect 22 0 23 1;
#X connect 23 0 18 0;
#X connect 26 0 75 0;
#X connect 27 0 15 1;
#X connect 27 0 13 0;
#X connect 27 0 8 1;
#X connect 27 0 72 1;
#X connect 28 0 24 0;
#X connect 29 0 28 0;
#X connect 29 1 30 0;
#X connect 52 0 47 0;
#X connect 55 0 56 0;
#X connect 55 1 14 0;
#X connect 55 1 64 1;
#X connect 56 0 58 0;
#X connect 56 1 26 0;
#X connect 58 0 69 0;
#X connect 59 0 67 1;
#X connect 61 0 62 0;
#X connect 63 0 60 0;
#X connect 64 0 66 1;
#X connect 64 0 67 1;
#X connect 65 0 66 1;
#X connect 66 0 65 0;
#X connect 66 0 61 1;
#X connect 67 0 59 0;
#X connect 67 0 63 1;
#X connect 69 0 21 0;
#X connect 69 1 22 0;
#X connect 69 2 9 0;
#X connect 69 3 67 0;
#X connect 69 4 66 0;
#X connect 69 5 64 0;
#X connect 69 6 5 0;
#X connect 72 0 73 0;
#X connect 75 0 7 0;
#X connect 75 1 8 0;
#X connect 75 2 52 0;
#X connect 75 3 63 0;
#X connect 75 4 61 0;
#X connect 75 5 72 0;
