#N canvas 498 22 524 477 10;
#X obj -14 -54 inlet;
#X obj 83 217 list length;
#X obj 83 242 t b f;
#X obj 83 269 random;
#X obj -16 286 list-nth;
#X obj -16 321 outlet;
#N canvas 323 368 450 300 BucketListN 0;
#X obj 43 33 inlet;
#X obj 43 122 list-rev;
#X obj 43 163 outlet;
#X obj 43 81 list-lastx 2;
#X obj 112 32 loadbang;
#X obj 231 64 r \$1.order;
#X obj 112 57 value \$1.order.v;
#X connect 0 0 3 0;
#X connect 1 0 2 0;
#X connect 3 0 1 0;
#X connect 4 0 6 0;
#X connect 5 0 3 1;
#X connect 6 0 3 1;
#X restore 19 73 pd BucketListN;
#X obj 321 191 f;
#X obj -14 27 f;
#X obj -14 -30 route bang set;
#X obj 19 124 t b s b;
#X obj 267 -54 r \$1.once;
#X obj 330 117 0;
#X obj 349 161 1;
#X obj 321 216 sel 0;
#X obj 38 181 t l l b;
#X obj 260 15 t l b;
#X obj 259 42 list-drip;
#X obj 307 343 outlet;
#X obj 263 277 symbol;
#X obj 349 277 list split 1;
#X obj 349 315 list;
#X obj 359 346 list-drip;
#X obj 334 243 t b b b;
#X obj 38 155 cyclone/coll \$1;
#C restore;
#X obj 19 98 cyclone/tosymbol;
#X obj 349 18 cyclone/tosymbol;
#X connect 0 0 9 0;
#X connect 1 0 2 0;
#X connect 2 0 3 0;
#X connect 2 1 3 1;
#X connect 3 0 4 1;
#X connect 4 0 5 0;
#X connect 4 0 8 1;
#X connect 6 0 25 0;
#X connect 7 0 14 0;
#X connect 8 0 6 0;
#X connect 9 0 8 0;
#X connect 9 1 8 1;
#X connect 10 0 7 0;
#X connect 10 1 24 0;
#X connect 10 2 12 0;
#X connect 11 0 16 0;
#X connect 11 0 20 0;
#X connect 11 0 26 0;
#X connect 12 0 7 1;
#X connect 13 0 7 1;
#X connect 14 0 18 0;
#X connect 14 0 23 0;
#X connect 15 0 4 0;
#X connect 15 1 1 0;
#X connect 15 2 13 0;
#X connect 16 0 17 0;
#X connect 17 0 6 0;
#X connect 19 0 24 0;
#X connect 20 1 21 1;
#X connect 21 0 22 0;
#X connect 22 0 6 0;
#X connect 23 0 21 0;
#X connect 23 2 19 0;
#X connect 24 0 15 0;
#X connect 25 0 10 0;
#X connect 26 0 19 1;
