#N canvas 681 22 450 300 10;
#X obj 54 -25 inlet;
#X obj 54 56 t f f;
#X obj 54 146 pack s f;
#X obj 54 173 list prepend merge;
#X obj 55 200 list trim;
#N canvas 0 22 450 300 BucketListN 0;
#X obj 39 33 inlet;
#X obj 76 140 list-rev;
#X obj 43 105 list split 1;
#X obj 255 45 inlet;
#X obj 76 181 outlet;
#X obj 231 79 + 1;
#X obj 43 81 list-lastx 3;
#X connect 0 0 6 0;
#X connect 1 0 4 0;
#X connect 2 1 1 0;
#X connect 3 0 5 0;
#X connect 5 0 6 1;
#X connect 6 0 2 0;
#X restore 54 85 pd BucketListN;
#X obj 135 31 loadbang;
#X obj 135 56 \$2;
#X msg 193 209 clear;
#X obj 247 184 savepanel;
#X msg 247 209 write \$1;
#X obj 315 184 openpanel;
#X msg 315 209 read \$1;
#X obj 190 114 once;
#X obj 190 144 s \$1.once;
#X obj 55 226 cyclone/coll \$1;
#C restore;
#X obj 54 116 cyclone/tosymbol;
#X obj 54 -2 route float clear write read order;
#X obj 214 73 s \$1.order;
#X obj 289 73 v \$1.order.v;
#X connect 0 0 17 0;
#X connect 1 0 5 0;
#X connect 1 1 2 1;
#X connect 2 0 3 0;
#X connect 3 0 4 0;
#X connect 4 0 15 0;
#X connect 5 0 13 0;
#X connect 5 0 16 0;
#X connect 6 0 7 0;
#X connect 7 0 5 1;
#X connect 7 0 18 0;
#X connect 7 0 19 0;
#X connect 8 0 15 0;
#X connect 9 0 10 0;
#X connect 10 0 15 0;
#X connect 11 0 12 0;
#X connect 12 0 15 0;
#X connect 13 0 14 0;
#X connect 16 0 2 0;
#X connect 17 0 1 0;
#X connect 17 1 8 0;
#X connect 17 1 7 0;
#X connect 17 1 13 1;
#X connect 17 2 9 0;
#X connect 17 3 11 0;
#X connect 17 4 5 1;
#X connect 17 4 18 0;
#X connect 17 4 19 0;
