#N canvas 0 22 496 452 10;
#X obj 169 266 f;
#X obj 116 404 outlet;
#X obj 175 379 f;
#X obj 175 406 outlet;
#X obj 116 315 t b b;
#X obj 116 20 inlet;
#X obj 116 376 f;
#N canvas 0 22 450 300 once 0;
#X obj 110 75 inlet;
#X obj 105 187 spigot 1;
#X obj 110 104 t b f;
#X msg 125 151 0;
#X msg 165 99 1;
#X obj 165 63 inlet;
#X obj 102 219 outlet;
#X connect 0 0 2 0;
#X connect 1 0 6 0;
#X connect 2 0 3 0;
#X connect 2 1 1 0;
#X connect 3 0 1 1;
#X connect 4 0 1 1;
#X connect 5 0 4 0;
#X restore 270 193 pd once;
#X obj 285 268 f;
#X obj 254 267 max;
#X obj 138 266 min;
#X obj 116 84 t b f f;
#X obj 365 27 inlet;
#X obj 366 53 b;
#X connect 0 0 10 1;
#X connect 2 0 3 0;
#X connect 4 0 6 0;
#X connect 4 1 2 0;
#X connect 5 0 11 0;
#X connect 6 0 1 0;
#X connect 7 0 9 1;
#X connect 7 0 10 1;
#X connect 8 0 9 1;
#X connect 9 0 8 0;
#X connect 9 0 2 1;
#X connect 10 0 0 0;
#X connect 10 0 6 1;
#X connect 11 0 4 0;
#X connect 11 1 10 0;
#X connect 11 1 9 0;
#X connect 11 2 7 0;
#X connect 12 0 13 0;
#X connect 13 0 7 1;
