#N canvas 63 22 1146 707 10;
#X obj 55 -8 inlet;
#X text 830 241 variance = M2/(n-1);
#X text 830 275 variance_n = M2/n;
#X text 858 205 M2 = M2 + delta*(x-mean);
#X text 858 189 mean = mean + delta/n;
#X text 858 173 delta = x - mean;
#X text 858 157 n = n + 1;
#X text 833 135 for x in data:;
#X text 812 35 def online_variance(data):;
#X text 835 69 mean = 0;
#X text 835 84 M2 = 0;
#X text 835 54 n = 0;
#X text 830 258 std = sqrt(variance);
#X text 738 379 Donald E. Knuth (1998). The Art of Computer Programming
\, volume 2: Seminumerical Algorithms \, 3rd edn. \, p. 232 Boston:
Addison-Wesley.;
#X text 740 459 B. P. Welford (1962)."Note on a method for calculating
corrected sums of squares and products". Technometrics 4(3):419420.
;
#X text 737 545 taken from:;
#X text 738 564 http://en.wikipedia.org/wiki/Algorithms_for_calculating_variance
;
#X text 739 349 algorithm due to:;
#X text 741 433 that cites:;
#X obj 140 69 b;
#X text 955 634 2011 Gilberto Bernardes;
#X text 715 11 pseudo-code algorithm for stats;
#X text 737 613 see also:;
#X obj 97 165 t f b;
#X obj 124 189 f;
#X obj 153 189 + 1;
#X obj 184 172 0;
#X obj 97 114 t l b;
#X obj 55 489 outlet;
#X obj 158 489 outlet;
#X obj 106 489 outlet;
#X obj 208 489 outlet;
#X obj 434 69 table \$0-std \$1;
#X obj 434 93 table \$0-variance \$1;
#X obj 434 117 table \$0-variance_n \$1;
#X obj 434 21 table \$0-mean \$1;
#X obj 434 45 table \$0-m2 \$1;
#X obj 124 212 s \$0-collIdx;
#N canvas 652 22 504 646 computeStats 0;
#X obj 183 117 f;
#X obj 212 117 + 1;
#X obj 64 468 /;
#X obj 167 517 /;
#X obj 103 170 -;
#X obj 264 100 0;
#X obj 218 293 /;
#X obj 218 316 +;
#X obj 249 316 f;
#X obj 64 374 +;
#X obj 103 194 t f f;
#X obj 64 326 f;
#X obj 99 333 -;
#X obj 64 350 *;
#X obj 183 144 + 1;
#X obj 64 521 sqrt;
#X obj 64 495 t f f;
#X text 91 465 m2/(n-1);
#X text 286 318 (mean);
#X text 213 144 (n);
#X text 128 371 (m2);
#X obj 64 425 t f f;
#X obj 64 581 outlet;
#X obj 167 581 outlet;
#X obj 115 581 outlet;
#X obj 217 581 outlet;
#X obj 64 17 inlet;
#X obj 270 582 outlet;
#X obj 264 153 tabread \$0-mean;
#X obj 387 356 tabread \$0-m2;
#X obj 387 136 r \$0-collIdx;
#X text 145 196 (delta);
#X obj 64 100 t b f f;
#X obj 183 16 inlet;
#X obj 264 17 r \$0-reset;
#X connect 0 0 1 0;
#X connect 0 0 14 0;
#X connect 0 0 2 1;
#X connect 1 0 0 1;
#X connect 2 0 16 0;
#X connect 3 0 23 0;
#X connect 4 0 10 0;
#X connect 5 0 0 1;
#X connect 6 0 7 0;
#X connect 7 0 8 0;
#X connect 7 0 12 1;
#X connect 7 0 25 0;
#X connect 8 0 7 1;
#X connect 9 0 21 0;
#X connect 9 0 27 0;
#X connect 10 0 11 1;
#X connect 10 1 6 0;
#X connect 11 0 13 0;
#X connect 12 0 13 1;
#X connect 13 0 9 0;
#X connect 14 0 6 1;
#X connect 14 0 3 1;
#X connect 15 0 22 0;
#X connect 16 0 15 0;
#X connect 16 1 24 0;
#X connect 21 0 2 0;
#X connect 21 1 3 0;
#X connect 26 0 32 0;
#X connect 28 0 8 0;
#X connect 28 0 4 1;
#X connect 29 0 9 1;
#X connect 30 0 28 0;
#X connect 30 0 29 0;
#X connect 32 0 11 0;
#X connect 32 1 12 0;
#X connect 32 2 4 0;
#X connect 33 0 0 0;
#X connect 34 0 5 0;
#X restore 97 240 pd computeStats;
#X text 52 510 (std \, variance \, variance_n \, mean);
#X obj 74 371 until;
#X obj 74 347 f \$1;
#X obj 74 396 f;
#X obj 102 396 + 1;
#X obj 156 379 0;
#X obj 55 318 t b b b;
#N canvas 487 22 681 675 readTables 0;
#X obj 87 404 tabread \$0-std;
#X obj 168 297 tabread \$0-variance;
#X obj 241 199 tabread \$0-variance_n;
#X obj 343 106 tabread \$0-mean;
#X obj 87 89 inlet;
#X obj 87 428 list prepend;
#X obj 172 445 t l;
#X obj 168 321 list prepend;
#X obj 256 338 t l;
#X obj 241 223 list prepend;
#X obj 329 240 t l;
#X obj 343 131 list prepend;
#X obj 431 148 t l;
#X obj 417 522 list;
#X obj 372 522 list;
#X obj 327 522 list;
#X obj 283 522 list;
#X obj -53 505 inlet;
#X obj 283 546 outlet;
#X obj 327 546 outlet;
#X obj 372 546 outlet;
#X obj 417 546 outlet;
#X text -55 479 end bang;
#X text 85 65 coll nr;
#X obj 532 84 inlet;
#X connect 0 0 5 0;
#X connect 1 0 7 0;
#X connect 2 0 9 0;
#X connect 3 0 11 0;
#X connect 4 0 3 0;
#X connect 4 0 2 0;
#X connect 4 0 1 0;
#X connect 4 0 0 0;
#X connect 5 0 6 0;
#X connect 5 0 16 1;
#X connect 6 0 5 1;
#X connect 7 0 8 0;
#X connect 7 0 15 1;
#X connect 8 0 7 1;
#X connect 9 0 10 0;
#X connect 9 0 14 1;
#X connect 10 0 9 1;
#X connect 11 0 12 0;
#X connect 11 0 13 1;
#X connect 12 0 11 1;
#X connect 13 0 21 0;
#X connect 14 0 20 0;
#X connect 15 0 19 0;
#X connect 16 0 18 0;
#X connect 17 0 13 0;
#X connect 17 0 14 0;
#X connect 17 0 15 0;
#X connect 17 0 16 0;
#X connect 24 0 11 1;
#X connect 24 0 9 1;
#X connect 24 0 7 1;
#X connect 24 0 5 1;
#X restore 55 429 pd readTables;
#X obj 438 331 pack f \$0;
#X msg 438 355 \; \$2-mean resize \$1 \; \$2-m2 resize \$1 \; \$2-std
resize \$1 \; \$2-variance resize \$1 \; \$2-variance_n resize \$1
;
#X obj 436 173 \$0;
#X msg 436 197 \; \$1-mean const 0 \; \$1-m2 const 0 \; \$1-std const
0 \; \$1-variance const 0 \; \$1-variance_n const 0;
#X obj 140 92 s \$0-reset;
#X obj 436 149 r \$0-reset;
#X obj 123 330 r \$0-nrColls;
#X obj 183 46 s \$0-nrColls;
#X obj 438 307 r \$0-nrColls;
#X obj 55 21 route bang list reset nrColls;
#N canvas 0 22 450 300 write2tables 0;
#X obj 65 220 tabwrite \$0-std;
#X obj 108 197 tabwrite \$0-variance;
#X obj 149 174 tabwrite \$0-variance_n;
#X obj 188 151 tabwrite \$0-mean;
#X obj 365 111 r \$0-collIdx;
#X obj 229 128 tabwrite \$0-m2;
#X obj 65 41 inlet;
#X obj 108 41 inlet;
#X obj 149 41 inlet;
#X obj 188 41 inlet;
#X obj 229 41 inlet;
#X connect 4 0 1 1;
#X connect 4 0 0 1;
#X connect 4 0 2 1;
#X connect 4 0 3 1;
#X connect 4 0 5 1;
#X connect 6 0 0 0;
#X connect 7 0 1 0;
#X connect 8 0 2 0;
#X connect 9 0 3 0;
#X connect 10 0 5 0;
#X restore 97 273 pd write2tables;
#X obj 97 141 list-drip;
#X text 832 300 return (std \, variance \, variance_n \, mean);
#X obj 815 636 stats;
#X obj 740 637 list-stats;
#X connect 0 0 56 0;
#X connect 19 0 51 0;
#X connect 23 0 38 0;
#X connect 23 1 24 0;
#X connect 24 0 25 0;
#X connect 24 0 37 0;
#X connect 25 0 24 1;
#X connect 26 0 24 1;
#X connect 27 0 58 0;
#X connect 27 1 26 0;
#X connect 27 1 38 1;
#X connect 38 0 57 0;
#X connect 38 1 57 1;
#X connect 38 2 57 2;
#X connect 38 3 57 3;
#X connect 38 4 57 4;
#X connect 40 0 42 0;
#X connect 41 0 40 0;
#X connect 42 0 46 1;
#X connect 42 0 43 0;
#X connect 43 0 42 1;
#X connect 44 0 42 1;
#X connect 45 0 46 0;
#X connect 45 1 41 0;
#X connect 45 2 44 0;
#X connect 45 2 46 2;
#X connect 46 0 28 0;
#X connect 46 1 30 0;
#X connect 46 2 29 0;
#X connect 46 3 31 0;
#X connect 47 0 48 0;
#X connect 49 0 50 0;
#X connect 52 0 49 0;
#X connect 53 0 41 1;
#X connect 55 0 47 0;
#X connect 56 0 45 0;
#X connect 56 1 27 0;
#X connect 56 2 19 0;
#X connect 56 3 54 0;
#X connect 58 0 23 0;
