#N canvas 565 150 778 552 10;
#X obj 26 -2 inlet;
#X obj 26 132 unpack;
#X obj 26 92 t a b;
#X obj 101 109 f;
#X obj 133 109 + 1;
#X obj 26 181 tabwrite \$0-x;
#X obj 59 218 tabwrite \$0-y;
#X obj 308 64 b;
#X obj 306 88 0;
#X msg 661 228 resize \$1;
#X obj 246 226 s \$0-x;
#X obj 191 228 s \$0-y;
#X obj 457 233 tabdump \$0-x;
#X obj 457 259 sort;
#X obj 616 73 table \$0-x.o;
#X obj 617 105 table \$0-y.o;
#X obj 573 300 sort;
#X obj 573 274 tabdump \$0-y;
#X obj 458 421 tabwrite \$0-x.o;
#X obj 580 443 tabwrite \$0-y.o;
#X obj 478 318 t b f;
#X obj 458 394 f;
#X obj 492 393 +;
#X obj 593 350 t b f;
#X obj 580 415 f;
#X obj 614 414 +;
#X obj 661 258 s \$0-x.o;
#X obj 684 281 s \$0-y.o;
#X obj 124 415 tabread \$0-x.o;
#X obj 227 416 tabread \$0-y.o;
#X obj 122 371 f;
#X obj 153 368 + 1;
#X obj 122 342 until;
#X obj 124 449 pack;
#X obj 124 477 outlet;
#X obj 124 393 t f f;
#X obj 122 315 f;
#X obj 504 353 expr 100/$f1;
#X obj 478 287 drip;
#X obj 594 324 drip;
#X obj 26 34 route add bang clear;
#X obj 553 211 f;
#X obj 440 194 t b b b b;
#X obj 444 72 table \$0-x 5000;
#X obj 445 104 table \$0-y 5000;
#X obj 237 167 * 2;
#X msg 243 200 resize \$1;
#X obj 342 86 2499;
#X obj 149 150 moses 4998;
#X obj 191 346 0;
#X obj 118 287 t b b;
#X floatatom 161 209 5 0 0 0 - - -;
#X obj 704 317 s \$0-x;
#X obj 649 319 s \$0-y;
#X connect 0 0 40 0;
#X connect 1 0 5 0;
#X connect 1 1 6 0;
#X connect 2 0 1 0;
#X connect 2 1 3 0;
#X connect 3 0 4 0;
#X connect 3 0 5 1;
#X connect 3 0 6 1;
#X connect 3 0 36 1;
#X connect 3 0 41 1;
#X connect 3 0 48 0;
#X connect 3 0 51 0;
#X connect 4 0 3 1;
#X connect 7 0 8 0;
#X connect 7 0 47 0;
#X connect 8 0 3 1;
#X connect 8 0 21 1;
#X connect 8 0 24 1;
#X connect 9 0 26 0;
#X connect 9 0 27 0;
#X connect 9 0 53 0;
#X connect 9 0 52 0;
#X connect 12 0 13 0;
#X connect 13 1 38 0;
#X connect 16 1 39 0;
#X connect 17 0 16 0;
#X connect 20 0 21 0;
#X connect 20 1 18 1;
#X connect 21 0 22 0;
#X connect 21 0 18 0;
#X connect 22 0 21 1;
#X connect 23 0 24 0;
#X connect 23 1 19 1;
#X connect 24 0 25 0;
#X connect 24 0 19 0;
#X connect 25 0 24 1;
#X connect 28 0 33 0;
#X connect 29 0 33 1;
#X connect 30 0 31 0;
#X connect 30 0 35 0;
#X connect 31 0 30 1;
#X connect 32 0 30 0;
#X connect 33 0 34 0;
#X connect 35 0 28 0;
#X connect 35 1 29 0;
#X connect 36 0 32 0;
#X connect 37 0 22 1;
#X connect 37 0 25 1;
#X connect 38 0 20 0;
#X connect 39 0 23 0;
#X connect 40 0 2 0;
#X connect 40 1 42 0;
#X connect 40 2 7 0;
#X connect 41 0 9 0;
#X connect 41 0 37 0;
#X connect 42 0 50 0;
#X connect 42 1 12 0;
#X connect 42 2 17 0;
#X connect 42 3 41 0;
#X connect 45 0 46 0;
#X connect 45 0 48 1;
#X connect 46 0 10 0;
#X connect 46 0 11 0;
#X connect 47 0 45 0;
#X connect 48 1 45 0;
#X connect 49 0 30 1;
#X connect 50 0 36 0;
#X connect 50 1 49 0;
