#N struct 2290-pt float x float y;
#N canvas 122 182 995 467 10;
#X floatatom 151 111 5 0 0 1 number_of_cases - -;
#N canvas 51 164 477 398 \$0-plot 0;
#X scalar 2290-pt 89 90 \;;
#X scalar 2290-pt 40 65 \;;
#X scalar 2290-pt 54 41 \;;
#X scalar 2290-pt 44 83 \;;
#X scalar 2290-pt 50 40 \;;
#X scalar 2290-pt 1 12 \;;
#X scalar 2290-pt 70 33 \;;
#X scalar 2290-pt 23 98 \;;
#X scalar 2290-pt 94 89 \;;
#X scalar 2290-pt 36 10 \;;
#X scalar 2290-pt 8 18 \;;
#X scalar 2290-pt 45 27 \;;
#X scalar 2290-pt 40 11 \;;
#X scalar 2290-pt 43 6 \;;
#X scalar 2290-pt 3 18 \;;
#X scalar 2290-pt 95 26 \;;
#X scalar 2290-pt 36 84 \;;
#X scalar 2290-pt 50 14 \;;
#X scalar 2290-pt 38 37 \;;
#X scalar 2290-pt 78 25 \;;
#X scalar 2290-pt 4 22 \;;
#X scalar 2290-pt 49 26 \;;
#X scalar 2290-pt 19 28 \;;
#X scalar 2290-pt 37 36 \;;
#X scalar 2290-pt 21 20 \;;
#X scalar 2290-pt 56 32 \;;
#X scalar 2290-pt 33 44 \;;
#X scalar 2290-pt 2 5 \;;
#X scalar 2290-pt 25 24 \;;
#X scalar 2290-pt 5 36 \;;
#X scalar 2290-pt 21 13 \;;
#X scalar 2290-pt 8 56 \;;
#X scalar 2290-pt 50 23 \;;
#X scalar 2290-pt 46 29 \;;
#X scalar 2290-pt 44 17 \;;
#X scalar 2290-pt 63 49 \;;
#X scalar 2290-pt 34 10 \;;
#X scalar 2290-pt 4 60 \;;
#X scalar 2290-pt 84 27 \;;
#X scalar 2290-pt 25 42 \;;
#X scalar 2290-pt 43 30 \;;
#X scalar 2290-pt 30 48 \;;
#X scalar 2290-pt 72 50 \;;
#X scalar 2290-pt 17 30 \;;
#X scalar 2290-pt 9 21 \;;
#X scalar 2290-pt 30 19 \;;
#X scalar 2290-pt 31 24 \;;
#X scalar 2290-pt 35 11 \;;
#X scalar 2290-pt 4 59 \;;
#X scalar 2290-pt 65 45 \;;
#X scalar 2290-pt 48 43 \;;
#X scalar 2290-pt 71 82 \;;
#X scalar 2290-pt 68 16 \;;
#X scalar 2290-pt 71 41 \;;
#X scalar 2290-pt 26 51 \;;
#X scalar 2290-pt 14 83 \;;
#X scalar 2290-pt 2 68 \;;
#X scalar 2290-pt 36 12 \;;
#X scalar 2290-pt 34 13 \;;
#X scalar 2290-pt 3 65 \;;
#X scalar 2290-pt 30 32 \;;
#X scalar 2290-pt 37 10 \;;
#X scalar 2290-pt 29 38 \;;
#X scalar 2290-pt 32 31 \;;
#X scalar 2290-pt 79 99 \;;
#X scalar 2290-pt 1 20 \;;
#X scalar 2290-pt 13 4 \;;
#X scalar 2290-pt 13 25 \;;
#X scalar 2290-pt 50 49 \;;
#X scalar 2290-pt 46 16 \;;
#X scalar 2290-pt 13 21 \;;
#X scalar 2290-pt 6 89 \;;
#X scalar 2290-pt 90 32 \;;
#X scalar 2290-pt 40 49 \;;
#X scalar 2290-pt 48 50 \;;
#X scalar 2290-pt 46 43 \;;
#X scalar 2290-pt 47 29 \;;
#X scalar 2290-pt 42 48 \;;
#X scalar 2290-pt 29 35 \;;
#X scalar 2290-pt 13 14 \;;
#X scalar 2290-pt 96 28 \;;
#X scalar 2290-pt 22 19 \;;
#X scalar 2290-pt 1 21 \;;
#X scalar 2290-pt 7 26 \;;
#X scalar 2290-pt 11 11 \;;
#X scalar 2290-pt 30 60 \;;
#X scalar 2290-pt 26 20 \;;
#X scalar 2290-pt 17 85 \;;
#X scalar 2290-pt 14 62 \;;
#X scalar 2290-pt 48 97 \;;
#X scalar 2290-pt 24 9 \;;
#X scalar 2290-pt 41 69 \;;
#X scalar 2290-pt 31 15 \;;
#X scalar 2290-pt 40 30 \;;
#X scalar 2290-pt 26 31 \;;
#X scalar 2290-pt 50 63 \;;
#X scalar 2290-pt 3 37 \;;
#X scalar 2290-pt 47 47 \;;
#X scalar 2290-pt 18 2 \;;
#X scalar 2290-pt 11 10 \;;
#X coords -1 -1 100 100 250 250 2 0 0;
#X restore 402 107 pd \$0-plot;
#X obj 17 4 cnv 15 950 60 empty empty mtxOptimization 20 12 0 14 -233017
-66577 0;
#X text 816 45 2011 Gilberto Bernardes;
#N canvas 51 164 688 446 \$0-plot1 0;
#X scalar 2290-pt 94.9495 95.9596 \;;
#X scalar 2290-pt 59.596 84.8485 \;;
#X scalar 2290-pt 82.8283 63.6364 \;;
#X scalar 2290-pt 65.6566 89.899 \;;
#X scalar 2290-pt 81.8182 61.6162 \;;
#X scalar 2290-pt 1.0101 12.1212 \;;
#X scalar 2290-pt 87.8788 54.5455 \;;
#X scalar 2290-pt 31.3131 97.9798 \;;
#X scalar 2290-pt 96.9697 94.9495 \;;
#X scalar 2290-pt 51.5152 5.0505 \;;
#X scalar 2290-pt 14.1414 22.2222 \;;
#X scalar 2290-pt 67.6768 40.404 \;;
#X scalar 2290-pt 57.5758 9.09091 \;;
#X scalar 2290-pt 63.6364 3.0303 \;;
#X scalar 2290-pt 6.06061 21.2121 \;;
#X scalar 2290-pt 97.9798 38.3838 \;;
#X scalar 2290-pt 53.5354 91.9192 \;;
#X scalar 2290-pt 78.7879 16.1616 \;;
#X scalar 2290-pt 56.5657 58.5859 \;;
#X scalar 2290-pt 91.9192 36.3636 \;;
#X scalar 2290-pt 10.101 31.3131 \;;
#X scalar 2290-pt 76.7677 39.3939 \;;
#X scalar 2290-pt 27.2727 43.4344 \;;
#X scalar 2290-pt 55.5556 57.5758 \;;
#X scalar 2290-pt 28.2828 26.2626 \;;
#X scalar 2290-pt 83.8384 51.5152 \;;
#X scalar 2290-pt 47.4748 67.6768 \;;
#X scalar 2290-pt 3.0303 2.0202 \;;
#X scalar 2290-pt 34.3434 34.3434 \;;
#X scalar 2290-pt 11.1111 56.5657 \;;
#X scalar 2290-pt 29.2929 13.1313 \;;
#X scalar 2290-pt 15.1515 78.7879 \;;
#X scalar 2290-pt 79.798 32.3232 \;;
#X scalar 2290-pt 69.697 45.4546 \;;
#X scalar 2290-pt 66.6667 20.202 \;;
#X scalar 2290-pt 84.8485 72.7273 \;;
#X scalar 2290-pt 48.4849 7.07071 \;;
#X scalar 2290-pt 8.08081 80.8081 \;;
#X scalar 2290-pt 93.9394 41.4142 \;;
#X scalar 2290-pt 33.3333 64.6465 \;;
#X scalar 2290-pt 64.6465 47.4748 \;;
#X scalar 2290-pt 42.4243 70.7071 \;;
#X scalar 2290-pt 90.9091 75.7576 \;;
#X scalar 2290-pt 25.2525 48.4849 \;;
#X scalar 2290-pt 16.1616 30.303 \;;
#X scalar 2290-pt 43.4344 23.2323 \;;
#X scalar 2290-pt 44.4445 33.3333 \;;
#X scalar 2290-pt 50.5051 8.08081 \;;
#X scalar 2290-pt 9.09091 79.798 \;;
#X scalar 2290-pt 85.8586 68.6869 \;;
#X scalar 2290-pt 75.7576 65.6566 \;;
#X scalar 2290-pt 89.899 88.8889 \;;
#X scalar 2290-pt 86.8687 19.1919 \;;
#X scalar 2290-pt 88.8889 62.6263 \;;
#X scalar 2290-pt 37.3737 77.7778 \;;
#X scalar 2290-pt 23.2323 90.9091 \;;
#X scalar 2290-pt 4.0404 86.8687 \;;
#X scalar 2290-pt 52.5253 11.1111 \;;
#X scalar 2290-pt 49.495 14.1414 \;;
#X scalar 2290-pt 7.07071 85.8586 \;;
#X scalar 2290-pt 40.404 52.5253 \;;
#X scalar 2290-pt 54.5455 6.06061 \;;
#X scalar 2290-pt 38.3838 60.6061 \;;
#X scalar 2290-pt 46.4647 49.495 \;;
#X scalar 2290-pt 92.9293 98.9899 \;;
#X scalar 2290-pt 2.0202 25.2525 \;;
#X scalar 2290-pt 18.1818 1.0101 \;;
#X scalar 2290-pt 19.1919 35.3535 \;;
#X scalar 2290-pt 80.8081 73.7374 \;;
#X scalar 2290-pt 68.6869 18.1818 \;;
#X scalar 2290-pt 20.202 28.2828 \;;
#X scalar 2290-pt 12.1212 93.9394 \;;
#X scalar 2290-pt 95.9596 53.5354 \;;
#X scalar 2290-pt 58.5859 74.7475 \;;
#X scalar 2290-pt 73.7374 76.7677 \;;
#X scalar 2290-pt 70.7071 66.6667 \;;
#X scalar 2290-pt 71.7172 44.4445 \;;
#X scalar 2290-pt 62.6263 71.7172 \;;
#X scalar 2290-pt 39.3939 55.5556 \;;
#X scalar 2290-pt 21.2121 15.1515 \;;
#X scalar 2290-pt 98.9899 42.4243 \;;
#X scalar 2290-pt 30.303 24.2424 \;;
#X scalar 2290-pt 0 29.2929 \;;
#X scalar 2290-pt 13.1313 37.3737 \;;
#X scalar 2290-pt 17.1717 10.101 \;;
#X scalar 2290-pt 41.4142 81.8182 \;;
#X scalar 2290-pt 35.3535 27.2727 \;;
#X scalar 2290-pt 24.2424 92.9293 \;;
#X scalar 2290-pt 22.2222 82.8283 \;;
#X scalar 2290-pt 74.7475 96.9697 \;;
#X scalar 2290-pt 32.3232 4.0404 \;;
#X scalar 2290-pt 61.6162 87.8788 \;;
#X scalar 2290-pt 45.4546 17.1717 \;;
#X scalar 2290-pt 60.6061 46.4647 \;;
#X scalar 2290-pt 36.3636 50.5051 \;;
#X scalar 2290-pt 77.7778 83.8384 \;;
#X scalar 2290-pt 5.0505 59.596 \;;
#X scalar 2290-pt 72.7273 69.697 \;;
#X scalar 2290-pt 26.2626 0 \;;
#X coords -1 -1 100 100 250 250 2 0 0;
#X restore 687 107 pd \$0-plot1;
#X text 402 90 original;
#X text 688 90 optimized;
#N canvas 0 22 629 468 generateRandomLists 0;
#X obj 84 4 inlet;
#X msg 83 121 seed \$1;
#X obj 148 119 t b b b;
#X obj 148 383 list;
#X obj 83 96 route seed;
#X obj 148 416 outlet;
#X text 84 -22 seed/bang;
#X obj 84 45 until;
#X obj 171 332 + 1;
#X obj 167 227 random 100;
#X obj 169 278 b;
#X obj 221 280 b;
#X obj 171 308 random 50;
#X obj 238 308 random 50;
#X obj 234 337 + 50;
#X obj 165 256 moses 84;
#X obj 171 362 pack;
#X obj 349 316 + 1;
#X obj 345 211 random 100;
#X obj 347 262 b;
#X obj 399 264 b;
#X obj 349 292 random 50;
#X obj 416 292 random 50;
#X obj 412 321 + 50;
#X obj 343 240 moses 80;
#X connect 0 0 7 0;
#X connect 1 0 9 0;
#X connect 2 0 3 0;
#X connect 2 1 9 0;
#X connect 2 2 18 0;
#X connect 3 0 5 0;
#X connect 4 0 1 0;
#X connect 4 1 2 0;
#X connect 7 0 4 0;
#X connect 8 0 16 0;
#X connect 9 0 15 0;
#X connect 10 0 12 0;
#X connect 11 0 13 0;
#X connect 12 0 8 0;
#X connect 13 0 14 0;
#X connect 14 0 16 0;
#X connect 15 0 10 0;
#X connect 15 1 11 0;
#X connect 16 0 3 1;
#X connect 17 0 16 1;
#X connect 18 0 24 0;
#X connect 19 0 21 0;
#X connect 20 0 22 0;
#X connect 21 0 17 0;
#X connect 22 0 23 0;
#X connect 23 0 16 1;
#X connect 24 0 19 0;
#X connect 24 1 20 0;
#X restore 151 139 pd generateRandomLists;
#X obj 151 311 mtxOptimization;
#N canvas 465 459 420 357 plotOriginal 0;
#X obj -38 139 pointer;
#X obj -38 45 t b b;
#N canvas 234 165 486 132 pt-template 0;
#X obj 6 8 struct \$0-pt float x float y;
#X obj 14 49 filledpolygon 900 900 0 -1 -1 1 -1 1 1 -1 1 -1 -1;
#X restore -188 249 pd pt-template;
#X obj -197 10 inlet;
#X msg 11 62 clear;
#X obj 11 85 s pd-\$0-plot;
#X obj -38 85 \$0;
#X msg -38 112 traverse pd-\$1-plot \, bang;
#X text -195 186 (plot points);
#X obj 11 28 loadbang;
#N canvas 567 89 600 392 label-template 0;
#X obj 140 114 drawnumber n 0 0 0;
#X obj 145 63 struct \$0-label float x float y float n;
#X restore -187 283 pd label-template;
#X obj -197 117 unpack;
#X obj -38 12 inlet;
#X obj -197 156 append \$0-pt x y;
#X connect 0 0 13 2;
#X connect 1 0 6 0;
#X connect 1 1 4 0;
#X connect 3 0 11 0;
#X connect 4 0 5 0;
#X connect 6 0 7 0;
#X connect 7 0 0 0;
#X connect 9 0 1 0;
#X connect 11 0 13 0;
#X connect 11 1 13 1;
#X connect 12 0 1 0;
#X restore 26 380 pd plotOriginal;
#N canvas 50 424 410 227 plotOptimized 0;
#X obj -38 139 pointer;
#X obj -38 45 t b b;
#X obj -197 10 inlet;
#X msg 11 62 clear;
#X obj -38 85 \$0;
#X text -195 186 (plot points);
#X obj 12 28 loadbang;
#X obj -197 117 unpack;
#X obj -38 12 inlet;
#X msg -38 112 traverse pd-\$1-plot1 \, bang;
#X obj 11 85 s pd-\$0-plot1;
#X obj -197 156 append \$0-pt x y;
#X connect 0 0 11 2;
#X connect 1 0 4 0;
#X connect 1 1 3 0;
#X connect 2 0 7 0;
#X connect 3 0 10 0;
#X connect 4 0 9 0;
#X connect 6 0 1 0;
#X connect 7 0 11 0;
#X connect 7 1 11 1;
#X connect 8 0 1 0;
#X connect 9 0 0 0;
#X restore 151 380 pd plotOptimized;
#X obj 151 164 list prepend add;
#X obj 151 189 list trim;
#X obj 171 254 bng 15 250 50 0 empty empty compute 17 7 0 10 -262144
-1 -1;
#X msg 281 294 clear;
#N canvas 445 575 494 344 META 0;
#X text 12 45 LICENSE GPL v3;
#X text 12 25 KEYWORDS;
#X text 12 65 DESCRIPTION spreads a set of points throughout a space
;
#X text 12 87 INLET_0 list bang clear;
#X text 12 106 OUTLET_0 list;
#X text 12 189 RELEASE_DATE 2013;
#X text 12 169 WEBSITE https://sites.google.com/site/eargram/;
#X text 12 149 AUTHOR Gilberto Bernardes;
#X text 12 129 LIBRARY earGram_abs;
#X restore 935 435 pd META;
#X text 33 41 spreads a set of points throughout a space;
#X connect 0 0 7 0;
#X connect 7 0 9 0;
#X connect 7 0 11 0;
#X connect 8 0 10 0;
#X connect 11 0 12 0;
#X connect 12 0 8 0;
#X connect 13 0 8 0;
#X connect 14 0 8 0;
#X connect 14 0 9 1;
#X connect 14 0 10 1;
