#N canvas 11 22 969 421 10;
#X obj 552 157 list trim;
#X obj 36 120 bng 15 250 50 0 empty empty new_iteration 17 7 0 10 -262144
-1 -1;
#X floatatom 272 133 5 0 0 0 - - -;
#X msg 325 242 cluster \$1;
#X floatatom 325 218 5 0 0 0 - - -;
#X msg 231 242 dump;
#X floatatom 370 133 5 0 0 0 - - -;
#X msg 215 157 clear;
#X text 183 307 arguments:;
#X obj 552 134 list prepend add;
#X obj 36 149 t b b;
#N canvas 87 469 826 297 plotGraphics 0;
#X obj 590 137 pointer;
#X obj 33 67 unpack 0 0 0;
#X obj 590 37 t b b;
#N canvas 234 165 486 132 pt-template 0;
#X obj 6 8 struct pt float x float y float q;
#X obj 14 49 filledpolygon q q 0 -1 -1 1 -1 1 1 -1 1 -1 -1;
#X restore 32 228 pd pt-template;
#X obj 32 12 inlet;
#X obj 590 8 inlet;
#X obj 96 11 inlet;
#X obj 33 39 list append;
#X obj 33 154 append pt q x y;
#X msg 639 54 clear;
#X obj 590 62 \$0;
#X msg 590 112 traverse pd-\$1-plot \, bang;
#X obj 639 79 s pd-\$0-plot;
#N canvas 0 22 450 325 clusterColors 0;
#X obj 21 14 inlet;
#X obj 130 291 outlet;
#X obj 21 42 sel 0 1 2 3 4 5 6 7 8;
#X obj 130 65 306;
#X obj 116 89 830;
#X obj 103 113 838;
#X obj 89 141 88;
#X obj 75 165 90;
#X obj 62 191 209;
#X obj 48 218 990;
#X obj 34 247 900;
#X obj 21 274 0;
#X connect 0 0 2 0;
#X connect 2 0 11 0;
#X connect 2 1 10 0;
#X connect 2 2 9 0;
#X connect 2 3 8 0;
#X connect 2 4 7 0;
#X connect 2 5 6 0;
#X connect 2 6 5 0;
#X connect 2 7 4 0;
#X connect 2 8 3 0;
#X connect 3 0 1 0;
#X connect 4 0 1 0;
#X connect 5 0 1 0;
#X connect 6 0 1 0;
#X connect 7 0 1 0;
#X connect 8 0 1 0;
#X connect 9 0 1 0;
#X connect 10 0 1 0;
#X connect 11 0 1 0;
#X restore 33 102 pd clusterColors;
#X connect 0 0 8 3;
#X connect 1 0 13 0;
#X connect 1 1 8 1;
#X connect 1 2 8 2;
#X connect 2 0 10 0;
#X connect 2 1 9 0;
#X connect 4 0 7 0;
#X connect 5 0 2 0;
#X connect 6 0 7 1;
#X connect 7 0 1 0;
#X connect 9 0 12 0;
#X connect 10 0 11 0;
#X connect 11 0 0 0;
#X connect 13 0 8 0;
#X restore 36 306 pd plotGraphics;
#N canvas 0 22 629 468 listRandom 0;
#X obj 84 4 inlet;
#X msg 83 121 seed \$1;
#X obj 171 362 list prepend;
#X obj 264 363 t a;
#X obj 171 266 until;
#X obj 148 119 t b b b;
#X obj 148 383 list;
#X obj 266 41 inlet;
#X obj 83 96 route seed;
#X obj 148 416 outlet;
#X text 84 -22 seed/bang;
#X text 267 17 length;
#X obj 171 245 f 1;
#X obj 266 140 max 1;
#X obj 84 45 until;
#X obj 171 332 + 1;
#X obj 171 300 random 98;
#X connect 0 0 14 0;
#X connect 1 0 16 0;
#X connect 2 0 3 0;
#X connect 2 0 6 1;
#X connect 3 0 2 1;
#X connect 4 0 16 0;
#X connect 5 0 6 0;
#X connect 5 1 12 0;
#X connect 5 2 2 1;
#X connect 6 0 9 0;
#X connect 7 0 13 0;
#X connect 8 0 1 0;
#X connect 8 1 5 0;
#X connect 12 0 4 0;
#X connect 13 0 12 1;
#X connect 14 0 8 0;
#X connect 15 0 2 0;
#X connect 16 0 15 0;
#X restore 552 109 pd listRandom;
#X floatatom 627 84 5 0 0 0 - - -;
#X floatatom 552 84 5 0 0 0 - - -;
#X msg 272 157 threshold \$1;
#X floatatom 450 133 5 0 0 0 - - -;
#X msg 450 157 dimensions \$1;
#X obj 6 6 cnv 15 950 60 empty empty QT-clustering 20 12 0 14 -233017
-66577 0;
#X msg 370 157 minPts \$1;
#X text 183 329 dimentionality of each vector (default: 2);
#X text 183 351 distance threshold (default: 0.1);
#X text 183 373 min number of elements per cluster (default: 4);
#X obj 36 259 qt-clustering 2 20 7;
#N canvas 51 164 477 398 \$0-plot 0;
#X coords -1 -1 100 100 250 250 1;
#X restore 705 88 pd \$0-plot;
#X text 488 320 cluster number;
#X text 488 342 feature vector;
#X text 488 298 outlets:;
#X text 488 365 feature number;
#X text 489 388 end of iteration;
#X obj 153 287 bng 15 250 50 0 empty empty EOI 17 7 0 10 -262144 -1
-1;
#X text 806 45 2013 Gilberto Bernardes;
#N canvas 643 22 494 344 META 0;
#X text 12 45 LICENSE GPL v3;
#X text 12 250 RELEASE_DATE 2013;
#X text 12 233 WEBSITE https://sites.google.com/site/eargram/;
#X text 12 214 AUTHOR Gilberto Bernardes;
#X text 12 195 LIBRARY earGram_abs;
#X text 12 124 OUTLET_0 float (cluster number);
#X text 12 143 OUTLET_1 float (feature vector);
#X text 12 160 OUTLET_2 float (feature number);
#X text 12 64 DESCRIPTION cluster elements according to a quality threshold
andminimum elements per cluster;
#X text 12 93 INLET_0 list bang clear threshold dimensions minPts dump
cluster;
#X text 13 178 OUTLET_3 bang (end of iteration);
#X restore 913 394 pd META;
#X text 24 33 cluster elements according to a quality threshold and
minimum elements per cluster;
#X connect 0 0 23 0;
#X connect 1 0 10 0;
#X connect 2 0 15 0;
#X connect 3 0 23 0;
#X connect 4 0 3 0;
#X connect 5 0 23 0;
#X connect 6 0 19 0;
#X connect 7 0 23 0;
#X connect 9 0 0 0;
#X connect 10 0 23 0;
#X connect 10 1 11 2;
#X connect 12 0 9 0;
#X connect 13 0 12 1;
#X connect 14 0 12 0;
#X connect 15 0 23 0;
#X connect 16 0 17 0;
#X connect 17 0 23 0;
#X connect 19 0 23 0;
#X connect 23 0 11 0;
#X connect 23 1 11 1;
#X connect 23 3 30 0;
