#N canvas 468 86 702 628 10;
#X obj -440 -515 inlet;
#N canvas 571 22 635 663 runIterativeAlgorithm 0;
#X obj 6 -53 inlet;
#X obj 6 42 t b b b;
#X obj 255 195 list length;
#X obj 189 178 t l l;
#X obj 189 261 spigot;
#X obj 131 25 t b l;
#N canvas 322 217 859 497 euclidDstanceBetweenElements 0;
#X obj -63 97 list-euclid;
#X obj -63 27 inlet;
#X obj 117 27 inlet;
#X obj -63 237 list prepend;
#X obj 226 28 inlet;
#X obj 28 254 t l;
#X obj -140 254 list;
#X obj -338 27 inlet;
#X obj -338 461 outlet;
#X obj -63 215 f;
#X obj 157 215 f;
#X obj 157 237 list prepend;
#X obj 248 254 t l;
#X obj 79 254 list;
#X obj 226 55 b;
#X obj 131 296 list length;
#X obj 79 279 t l l;
#X obj 79 370 spigot;
#X obj 26 27 inlet;
#X text 28 -1 (element nr);
#X text 119 -1 (vector);
#X text 227 0 (element nr);
#X obj -338 429 list;
#X obj -63 170 sel 0 1;
#X obj -140 370 spigot;
#X obj -338 52 t b b;
#X text -342 -1 (end of a full iteration);
#X obj -127 461 outlet;
#X obj -127 429 list;
#X obj -140 29 inlet;
#X obj -140 54 t b b;
#X text -177 -1 (end of each comp);
#X obj 332 336 0;
#X text 324 -3 (begg of a full iteration);
#X obj 332 21 inlet;
#X text -309 427 (remaining elements);
#X text -90 427 (biggest list);
#X obj 195 370 sel 1;
#X obj 132 322 t f f;
#X obj 195 395 f;
#X obj 132 353 >=;
#X obj -16 127 r \$0-threshold;
#X obj -63 144 <= 0.1;
#X text -59 -2 (vector);
#X connect 0 0 42 0;
#X connect 1 0 0 0;
#X connect 2 0 0 1;
#X connect 3 0 5 0;
#X connect 3 0 6 1;
#X connect 4 0 14 0;
#X connect 5 0 3 1;
#X connect 6 0 24 0;
#X connect 7 0 25 0;
#X connect 9 0 3 0;
#X connect 10 0 11 0;
#X connect 11 0 12 0;
#X connect 11 0 13 1;
#X connect 12 0 11 1;
#X connect 13 0 16 0;
#X connect 14 0 3 1;
#X connect 14 0 11 1;
#X connect 14 0 13 1;
#X connect 14 0 6 1;
#X connect 15 0 38 0;
#X connect 16 0 17 0;
#X connect 16 1 15 0;
#X connect 17 0 28 1;
#X connect 18 0 9 1;
#X connect 18 0 10 1;
#X connect 22 0 8 0;
#X connect 23 0 9 0;
#X connect 23 1 10 0;
#X connect 24 0 22 1;
#X connect 25 0 22 0;
#X connect 25 1 28 0;
#X connect 28 0 27 0;
#X connect 29 0 30 0;
#X connect 30 0 6 0;
#X connect 30 1 13 0;
#X connect 32 0 40 1;
#X connect 34 0 32 0;
#X connect 37 0 39 0;
#X connect 38 0 40 0;
#X connect 38 1 39 1;
#X connect 39 0 40 1;
#X connect 40 0 17 1;
#X connect 40 0 24 1;
#X connect 40 0 37 0;
#X connect 41 0 42 1;
#X connect 42 0 23 0;
#X restore 6 149 pd euclidDstanceBetweenElements;
#X obj 6 312 list prepend;
#X obj 6 285 spigot;
#X obj 39 261 == 0;
#X obj 131 -1 spigot;
#X text 88 311 (unclassified elements);
#X obj 33 416 t l b;
#X obj 237 416 1;
#X obj 102 433 f 1;
#X obj 133 433 + 1;
#X obj 6 -26 t b b;
#X obj 33 -1 s \$0-reset;
#X obj 237 391 r \$0-reset;
#N canvas 0 22 575 373 dumpStoredData 0;
#X obj 49 145 2d.tabread \$0-data 2;
#X obj 4 -112 inlet;
#X obj 49 172 outlet;
#X obj 288 -112 inlet;
#X obj 288 145 2d.tabread \$0-data 2;
#X obj 288 172 outlet;
#N canvas 1 22 277 371 firstIter 0;
#X obj 34 5 until;
#X obj 34 45 f;
#X obj 66 45 + 1;
#X obj 103 28 0;
#X obj 34 -19 f;
#X obj 174 -36 r \$0-nrCases;
#X obj 34 -89 inlet;
#X obj 51 149 until;
#X obj 51 189 f;
#X obj 83 189 + 1;
#X obj 120 172 0;
#X obj 51 125 f;
#X obj 51 220 outlet;
#X obj 179 220 outlet;
#X obj -2 221 outlet;
#X obj 34 -60 t b b;
#X obj 34 76 t b b b f;
#X connect 0 0 1 0;
#X connect 1 0 2 0;
#X connect 1 0 16 0;
#X connect 2 0 1 1;
#X connect 3 0 1 1;
#X connect 4 0 0 0;
#X connect 5 0 4 1;
#X connect 5 0 11 1;
#X connect 6 0 15 0;
#X connect 7 0 8 0;
#X connect 8 0 9 0;
#X connect 8 0 12 0;
#X connect 9 0 8 1;
#X connect 10 0 8 1;
#X connect 11 0 7 0;
#X connect 15 0 4 0;
#X connect 15 1 3 0;
#X connect 16 0 14 0;
#X connect 16 1 11 0;
#X connect 16 2 10 0;
#X connect 16 3 13 0;
#X restore 4 27 pd firstIter;
#N canvas 0 22 450 300 once 0;
#X obj 38 34 inlet;
#X obj 171 34 inlet;
#X obj 65 175 outlet;
#X obj 110 112 0;
#X obj 171 60 1;
#X obj 202 61 0;
#X obj 223 114 1;
#X obj 180 177 outlet;
#X obj 38 63 t b a;
#X obj 65 145 spigot 1;
#X obj 180 153 spigot 0;
#X connect 0 0 8 0;
#X connect 1 0 4 0;
#X connect 1 0 5 0;
#X connect 3 0 9 1;
#X connect 4 0 9 1;
#X connect 5 0 10 1;
#X connect 6 0 10 1;
#X connect 8 0 3 0;
#X connect 8 0 6 0;
#X connect 8 1 9 0;
#X connect 8 1 10 0;
#X connect 9 0 2 0;
#X connect 10 0 7 0;
#X restore 4 -25 pd once;
#N canvas 1 22 314 373 remainingOnes 0;
#X obj 15 -89 inlet;
#X obj 15 220 outlet;
#X obj 143 220 outlet;
#X obj 15 5 list-drip;
#X obj 15 125 list;
#X obj 15 149 list-drip;
#X obj 15 76 t b f;
#X obj 15 -19 list;
#X obj 138 -89 inlet;
#X obj -62 220 outlet;
#X text -99 242 (end of each iter);
#X connect 0 0 7 0;
#X connect 3 0 6 0;
#X connect 4 0 5 0;
#X connect 5 0 1 0;
#X connect 5 1 9 0;
#X connect 6 0 4 0;
#X connect 6 1 2 0;
#X connect 7 0 3 0;
#X connect 8 0 7 1;
#X connect 8 0 4 1;
#X restore 195 26 pd remainingOnes;
#X obj 288 115 t f f;
#X obj 369 175 outlet;
#X text 415 174 (element nr);
#X obj 124 174 outlet;
#X text 170 173 (element nr);
#X obj 49 109 t f f;
#X text 288 196 (vector);
#X text 44 195 (vector);
#X obj 4 171 outlet;
#X text -69 195 (end of each iter);
#X obj 72 -42 r \$0-reset;
#X obj 405 83 r \$0-dimensions;
#X connect 0 0 2 0;
#X connect 1 0 7 0;
#X connect 3 0 8 1;
#X connect 4 0 5 0;
#X connect 6 0 17 0;
#X connect 6 1 14 0;
#X connect 6 2 9 0;
#X connect 7 0 6 0;
#X connect 7 1 8 0;
#X connect 8 0 17 0;
#X connect 8 1 14 0;
#X connect 8 2 9 0;
#X connect 9 0 4 0;
#X connect 9 1 10 0;
#X connect 14 0 0 0;
#X connect 14 1 12 0;
#X connect 19 0 7 1;
#X connect 20 0 4 1;
#X connect 20 0 0 1;
#X restore 59 89 pd dumpStoredData;
#X obj 289 227 r \$0-minPts;
#X obj 255 244 >= 4;
#X text 71 540 (end);
#X obj 6 389 t b l;
#X obj 33 500 tabwrite \$0-clusterNr;
#X obj 33 450 list-drip;
#X obj 33 474 swap;
#X text 169 497 (store clusterNr);
#X obj 6 334 t l b;
#X obj 33 357 0;
#X obj 404 381 table \$0-clusterNr;
#X obj 404 312 r \$0-nrCases;
#X obj 404 358 s \$0-clusterNr;
#X msg 404 335 resize \$1;
#X obj 6 539 s \$0-dump;
#X text 242 150 (if the remaining list is bigger then qt.min them itearte
again);
#X obj 6 173 route list float bang;
#X connect 0 0 16 0;
#X connect 1 0 6 0;
#X connect 1 1 19 0;
#X connect 1 2 6 6;
#X connect 2 0 21 0;
#X connect 3 0 4 0;
#X connect 3 1 2 0;
#X connect 3 1 7 1;
#X connect 4 0 12 0;
#X connect 5 0 1 0;
#X connect 5 1 19 1;
#X connect 6 0 36 0;
#X connect 6 1 3 0;
#X connect 7 0 28 0;
#X connect 8 0 7 0;
#X connect 9 0 8 1;
#X connect 10 0 5 0;
#X connect 12 0 25 0;
#X connect 12 1 14 0;
#X connect 13 0 14 1;
#X connect 14 0 15 0;
#X connect 14 0 26 1;
#X connect 15 0 14 1;
#X connect 16 0 1 0;
#X connect 16 1 17 0;
#X connect 18 0 13 0;
#X connect 19 0 6 1;
#X connect 19 1 6 2;
#X connect 19 2 6 3;
#X connect 19 3 6 4;
#X connect 19 4 6 5;
#X connect 20 0 21 1;
#X connect 21 0 4 1;
#X connect 21 0 9 0;
#X connect 21 0 10 1;
#X connect 23 0 34 0;
#X connect 23 1 12 0;
#X connect 25 0 26 0;
#X connect 26 0 24 0;
#X connect 26 1 24 1;
#X connect 28 0 23 0;
#X connect 28 1 29 0;
#X connect 29 0 14 1;
#X connect 31 0 33 0;
#X connect 33 0 32 0;
#X connect 36 0 8 0;
#X connect 36 0 10 0;
#X connect 36 1 28 0;
#X connect 36 2 28 0;
#X restore -440 -263 pd runIterativeAlgorithm;
#X obj -350 -357 b;
#N canvas 756 515 456 299 storeData 0;
#X obj 97 106 f;
#X obj 126 106 + 1;
#X obj 112 81 0;
#X obj 48 58 inlet;
#X obj 48 262 table \$0-data;
#X obj 48 89 t a b;
#X obj 112 57 r \$0-clear;
#X text 264 120 (number of vectors in total);
#X obj 184 123 s \$0-nrCases;
#X obj 288 98 s \$0-data;
#X msg 288 74 const 0;
#X obj 124 155 moses 1000;
#X obj 97 130 t f f;
#X obj 201 213 r \$0-dimensions;
#X obj 48 240 2d.tabwrite \$0-data 1000 2;
#X connect 0 0 1 0;
#X connect 0 0 8 0;
#X connect 0 0 12 0;
#X connect 1 0 0 1;
#X connect 2 0 0 1;
#X connect 3 0 5 0;
#X connect 5 0 14 0;
#X connect 5 1 0 0;
#X connect 6 0 2 0;
#X connect 6 0 10 0;
#X connect 10 0 9 0;
#X connect 11 1 14 2;
#X connect 12 0 14 1;
#X connect 12 1 11 0;
#X connect 13 0 14 3;
#X restore -395 -304 pd storeData;
#X obj -350 -334 s \$0-clear;
#X obj -95 47 outlet;
#X obj -421 45 outlet;
#X obj -289 44 outlet;
#X obj -289 6 2d.tabread \$0-data 2;
#X text -424 67 (cluster nr);
#X text -89 -324 arguments:;
#X text -89 -302 dimentionality of each vector (default: 2);
#X text -89 -280 distance threshold (default: 0.1);
#X text -89 -258 min number of elements per cluster (default: 4);
#N canvas 0 22 450 300 threshold 0;
#X obj -274 -33 loadbang;
#X obj -274 12 moses 1;
#X obj -323 -34 inlet;
#X obj -274 -11 \$2;
#X obj -323 55 s \$0-threshold;
#X connect 0 0 3 0;
#X connect 1 1 4 0;
#X connect 2 0 4 0;
#X connect 3 0 1 0;
#X restore -260 -409 pd threshold;
#N canvas 0 22 450 300 minPts 0;
#X obj -264 -23 loadbang;
#X obj -264 22 moses 1;
#X obj -313 -24 inlet;
#X obj -313 65 s \$0-minPts;
#X obj -264 -1 \$3;
#X connect 0 0 4 0;
#X connect 1 1 3 0;
#X connect 2 0 3 0;
#X connect 4 0 1 0;
#X restore -215 -434 pd minPts;
#N canvas 0 22 450 300 dimensions 0;
#X obj -333 45 s \$0-dimensions;
#X obj -284 -43 loadbang;
#X obj -284 -21 \$1;
#X obj -284 2 moses 1;
#X obj -333 -44 inlet;
#X connect 1 0 2 0;
#X connect 2 0 3 0;
#X connect 3 1 0 0;
#X connect 4 0 0 0;
#X restore -305 -380 pd dimensions;
#X obj -172 -20 r \$0-dimensions;
#X text -292 63 (vectors);
#X obj 92 45 outlet;
#X text 93 68 (end);
#X obj -421 -27 tabread \$0-clusterNr;
#X obj -421 -86 f;
#X obj -393 -86 + 1;
#X obj -421 -60 t f f f;
#X text -98 68 (featureNr);
#X obj -421 -134 f;
#X obj -440 -210 t b b b;
#X obj -355 -151 r \$0-nrCases;
#X obj -354 -103 0;
#X obj -440 -488 route bang add clear dimensions threshold minPts dump
;
#X obj -170 -462 s \$0-dump;
#X obj -440 -232 r \$0-dump;
#X obj -421 -110 until;
#X text -50 -495 table that stores data is incorrect;
#X connect 0 0 30 0;
#X connect 2 0 4 0;
#X connect 8 0 7 0;
#X connect 17 0 8 1;
#X connect 21 0 6 0;
#X connect 22 0 24 0;
#X connect 22 0 23 0;
#X connect 23 0 22 1;
#X connect 24 0 21 0;
#X connect 24 1 8 0;
#X connect 24 2 5 0;
#X connect 26 0 33 0;
#X connect 27 0 19 0;
#X connect 27 1 26 0;
#X connect 27 2 29 0;
#X connect 28 0 26 1;
#X connect 29 0 22 1;
#X connect 30 0 1 0;
#X connect 30 1 3 0;
#X connect 30 2 2 0;
#X connect 30 3 16 0;
#X connect 30 4 14 0;
#X connect 30 5 15 0;
#X connect 30 6 31 0;
#X connect 32 0 27 0;
#X connect 33 0 22 0;
