#N canvas 0 22 486 512 10;
#X obj 215 224 -;
#X obj 215 249 /;
#X obj 215 272 +;
#X text 277 271 (mean);
#X text 243 225 (delta);
#X obj 67 -66 inlet;
#X obj 67 6 b;
#X obj 67 161 0;
#X obj 194 398 outlet;
#X obj 52 186 f;
#X obj 81 186 + 1;
#X obj 52 232 + 1;
#X obj 283 398 outlet;
#X obj 215 121 list-drip;
#X obj 259 -66 table \$0-means \$1;
#X obj 309 163 f;
#X obj 338 163 + 1;
#X obj 215 146 t f b;
#X obj 324 105 0;
#X obj 309 207 tabread \$0-means;
#X text 284 418 n;
#X text 192 417 currentMean;
#X obj 215 301 list prepend;
#X obj 301 318 t l;
#X obj 361 367 s \$0-means;
#X obj 361 344 list prepend 0;
#X obj 194 327 list;
#X obj 196 88 t b a b;
#X text 363 320 (update table);
#X obj 67 -24 route clear dimensions;
#X obj 131 51 s \$0-means;
#X msg 131 27 resize \$1;
#X msg 75 34 const 0;
#X connect 0 0 1 0;
#X connect 1 0 2 0;
#X connect 2 0 22 0;
#X connect 5 0 29 0;
#X connect 6 0 32 0;
#X connect 6 0 7 0;
#X connect 7 0 9 1;
#X connect 9 0 10 0;
#X connect 9 0 11 0;
#X connect 10 0 9 1;
#X connect 11 0 1 1;
#X connect 11 0 12 0;
#X connect 13 0 17 0;
#X connect 15 0 16 0;
#X connect 15 0 19 0;
#X connect 16 0 15 1;
#X connect 17 0 0 0;
#X connect 17 1 15 0;
#X connect 18 0 15 1;
#X connect 19 0 0 1;
#X connect 19 0 2 1;
#X connect 22 0 23 0;
#X connect 22 0 26 1;
#X connect 23 0 22 1;
#X connect 25 0 24 0;
#X connect 26 0 25 0;
#X connect 26 0 8 0;
#X connect 27 0 26 0;
#X connect 27 1 13 0;
#X connect 27 2 18 0;
#X connect 27 2 22 1;
#X connect 27 2 9 0;
#X connect 29 0 6 0;
#X connect 29 1 31 0;
#X connect 29 2 27 0;
#X connect 31 0 30 0;
#X connect 32 0 30 0;
