#N canvas 337 22 636 470 10;
#X obj 44 6 inlet;
#X obj 14 354 +;
#X obj 44 354 f;
#X obj 44 169 0;
#X obj 149 216 runningAverage;
#X obj 129 150 unpack;
#X obj 129 175 t f f;
#X obj 223 167 t f f;
#X obj 14 435 outlet;
#X msg 79 199 reset;
#X obj 129 337 expr ($f1-$f2)*($f3-$f4);
#X obj 149 271 t f b;
#X obj 176 300 f 0;
#X obj 270 216 runningAverage;
#X obj 14 399 /;
#X obj 192 436 outlet;
#X obj 335 437 outlet;
#X text 380 437 (mean of y);
#X text 248 437 (mean of x);
#X text 61 436 (covariance);
#X obj 483 437 outlet;
#X text 528 437 (n);
#X obj 44 35 route clear;
#X obj 46 382 - 1;
#X text 292 33 c_n = c_(n-1) + (x_n - mx_(n-1))*(y_n - my_n) / (n-1)
;
#X connect 0 0 22 0;
#X connect 1 0 2 0;
#X connect 1 0 14 0;
#X connect 2 0 1 1;
#X connect 3 0 2 0;
#X connect 4 0 11 0;
#X connect 5 0 6 0;
#X connect 5 1 7 0;
#X connect 6 0 10 0;
#X connect 6 1 4 0;
#X connect 7 0 10 2;
#X connect 7 1 13 0;
#X connect 9 0 4 0;
#X connect 9 0 13 0;
#X connect 10 0 1 0;
#X connect 11 0 12 1;
#X connect 11 0 15 0;
#X connect 11 1 12 0;
#X connect 12 0 10 1;
#X connect 13 0 10 3;
#X connect 13 0 16 0;
#X connect 13 1 20 0;
#X connect 13 1 23 0;
#X connect 14 0 8 0;
#X connect 22 0 3 0;
#X connect 22 0 9 0;
#X connect 22 1 5 0;
#X connect 23 0 14 1;
