#N canvas 579 22 450 300 10;
#X obj 57 121 -;
#X obj 57 146 /;
#X obj 57 169 +;
#X obj 88 169 f;
#X text 118 168 (mean);
#X text 85 122 (delta);
#X obj 57 -75 inlet;
#X obj 57 -34 route float reset;
#X obj 255 8 b;
#X obj 255 32 0;
#X obj 57 199 outlet;
#X obj 240 72 f;
#X obj 269 72 + 1;
#X obj 240 99 + 1;
#X obj 57 55 t f b;
#X obj 240 192 outlet;
#X text 290 193 (n);
#X text 103 200 (average);
#X connect 0 0 1 0;
#X connect 1 0 2 0;
#X connect 2 0 3 0;
#X connect 2 0 0 1;
#X connect 2 0 10 0;
#X connect 3 0 2 1;
#X connect 6 0 7 0;
#X connect 7 0 14 0;
#X connect 7 1 8 0;
#X connect 8 0 9 0;
#X connect 9 0 3 0;
#X connect 9 0 0 1;
#X connect 9 0 11 1;
#X connect 11 0 12 0;
#X connect 11 0 13 0;
#X connect 12 0 11 1;
#X connect 13 0 1 1;
#X connect 13 0 15 0;
#X connect 14 0 0 0;
#X connect 14 1 11 0;
