#N canvas 0 22 521 340 10;
#X floatatom 131 257 5 0 0 0 - - -;
#X msg 189 184 reset;
#X obj 131 214 runningAverage;
#X obj 7 4 cnv 15 500 60 empty empty runningAverage 20 12 0 14 -233017
-66577 0;
#X floatatom 212 257 5 0 0 0 - - -;
#X text 213 276 number of ocurrences;
#X text 129 276 average;
#X obj 131 150 random 100;
#X obj 131 126 metro 200;
#X floatatom 131 175 5 0 0 0 - - -;
#X obj 131 101 tgl 15 0 empty empty empty 17 7 0 10 -262144 -1 -1 0
1;
#X text 21 44 calculates the average of a stream of floats;
#N canvas 333 426 494 344 META 0;
#X text 12 45 LICENSE GPL v3;
#X text 12 207 RELEASE_DATE 2013;
#X text 12 187 WEBSITE https://sites.google.com/site/eargram/;
#X text 12 167 AUTHOR Gilberto Bernardes;
#X text 12 25 KEYWORDS;
#X text 12 85 INLET_0 float reset;
#X text 12 147 LIBRARY earGram_abs;
#X text 12 108 OUTLET_0 float (average);
#X text 13 128 OUTLET_1 float (nr of occurences);
#X text 12 65 DESCRIPTION calculates the average of a stream of floats
;
#X restore 452 311 pd META;
#X text 355 44 2013 Gilberto Bernardes;
#X connect 1 0 2 0;
#X connect 2 0 0 0;
#X connect 2 1 4 0;
#X connect 7 0 9 0;
#X connect 8 0 7 0;
#X connect 9 0 2 0;
#X connect 10 0 8 0;
